<svg xmlns="http://www.w3.org/2000/svg" width="538.27" height="538.229" viewBox="0 0 538.27 538.229"><g transform="translate(-375 -2664.771)"><g transform="translate(-480.76 2363.678)"><path d="M897.144,315.83h114.529V563.311L873.5,425.134a60.577,60.577,0,0,1,0-85.656Z" transform="translate(0 187.88)" fill="#fdeae5"/><path d="M1055.705,442.528H863.221l123.74-123.74a60.48,60.48,0,0,1,68.745-11.824Z" transform="translate(95.106 0)" fill="#fdeae5"/><path d="M1102.268,497.729,966.291,633.706a60.578,60.578,0,0,1-85.657,0l-9.073-9.074V315.83h77.818v181.9Z" transform="translate(201.432 187.88)" fill="#fdeae5"/><path d="M1045.969,555.555l-11.274,11.274H881.67V305.6l164.3,164.3A60.577,60.577,0,0,1,1045.969,555.555Z" transform="translate(330.324 57.459)" fill="#fdeae5"/></g><g transform="translate(3075.92 1494.632)"><path d="M-2173.635,2940.142h-475.281a2.725,2.725,0,0,1-2.718-2.718h0a2.726,2.726,0,0,1,2.718-2.718h475.281a2.726,2.726,0,0,1,2.718,2.718h0A2.726,2.726,0,0,1-2173.635,2940.142Z" transform="translate(-36.004 -1319.423)" fill="#00002e"/><g transform="translate(-2700.92 1485.744)"><g transform="translate(0)"><path d="M-2431.065,2581.266a3.373,3.373,0,0,1-.015,3.161c-.892,1.689-2.821,2.961-4.479,4.322-5.331,4.377-8.174,10.213-7.844,16.1.175,3.122,1.206,6.241,1.1,9.354-.181,5.159-3.671,10.1-9.343,13.244a34.393,34.393,0,0,1-19.1,3.612c-1.549-3.768-3.332-8.415.115-11.471,1.134-1.006,2.729-1.711,3.936-2.674,5.572-4.448.825-11.714,2.648-17.564,1.355-4.348,6.247-7.562,10.913-10.509l11.679-7.379c2.3-1.453,5.5-2.989,8.352-1.909A3.734,3.734,0,0,1-2431.065,2581.266Z" transform="translate(2534.145 -2545.46)" fill="#adec84"/><path d="M-2428.358,2615.365c-1.741,8.968-1.934,18.715-9.669,24.758a19.824,19.824,0,0,1-8.534,3.8,32.6,32.6,0,0,0,13.946-3.707c5.673-3.138,9.162-8.084,9.343-13.243.109-3.114-.921-6.233-1.1-9.354-.33-5.886,2.513-11.722,7.844-16.1,1.658-1.361,3.588-2.633,4.479-4.322a3.46,3.46,0,0,0,.224-.527C-2420.118,2599.414-2426.6,2605-2428.358,2615.365Z" transform="translate(2515.11 -2558.231)" fill="#8fd263"/><path d="M-2691.547,2568.223q5.538-6.562,11.45-12.792a13.641,13.641,0,0,1,3.723-3.074c3.6-1.757,7.99-.078,11.071,2.491s5.412,5.969,8.56,8.454c2.824,2.229,6.319,3.746,8.388,6.7,2.221,3.171,2.331,7.321,2.408,11.2q.307,15.417,1.637,30.79a45.04,45.04,0,0,1-4.646-15.622c-.4-3.7-.361-7.56-1.925-10.929-1.952-4.208-6.042-6.917-9.937-9.4-3.781-2.408-8.113-4.913-12.467-3.875-2.852.68-5.123,2.771-7.578,4.388a25.447,25.447,0,0,1-20.059,3.362Q-2696.382,2573.953-2691.547,2568.223Z" transform="translate(2700.92 -2525.332)" fill="#adec84"/><path d="M-2646.848,2639.377c-1.547-7.408.193-14.231-1.161-21.639-.967-4.289-5.5-7.016-9.285-10.833s-10.181-10.112-20.688-6.908c-5.286,1.612-14.527,10.537-22.65,14.236-.1.125-.193.249-.288.374a25.447,25.447,0,0,0,20.059-3.362c2.455-1.616,4.726-3.708,7.578-4.388,4.354-1.038,8.686,1.467,12.467,3.875,3.9,2.481,7.985,5.19,9.938,9.4,1.563,3.371,1.529,7.231,1.925,10.93a45.041,45.041,0,0,0,2.517,10.746A8.163,8.163,0,0,0-2646.848,2639.377Z" transform="translate(2700.92 -2560.019)" fill="#8fd263"/><path d="M-2474.939,2454.146l.05-.109c-6.369,3.388-9.326,10.881-11.111,17.915a116.6,116.6,0,0,0-2.846,15.583,45.1,45.1,0,0,0,.219,14.419c.847,3.987,2.576,7.862,2.426,11.937-.194,5.284-3.522,10.009-4.021,15.273a14.778,14.778,0,0,0,4.035,11.469l5.5-3.073a3.877,3.877,0,0,0,2.013-1.9c.362-1.091-.283-2.227-.76-3.272-1.831-4.017-1.294-8.717-.2-13,1.686-6.613,4.579-12.843,6.75-19.31s3.625-13.417,2.3-20.112c-.874-4.408-2.906-8.485-4.255-12.769C-2476.176,2462.953-2476.8,2458.18-2474.939,2454.146Z" transform="translate(2547.049 -2454.037)" fill="#adec84"/><g transform="translate(47.686 84.366)"><rect width="33.014" height="44.736" fill="#393939"/></g></g><rect width="40.878" height="4.238" transform="translate(43.65 125.765)" fill="#232323"/></g><g transform="translate(-2456.733 1257.786)"><g transform="translate(44.434 49.951)"><rect width="21.631" height="25.729" fill="#f0b297"/><path d="M-1608.332,1793.528v7.913c-5.379,4.353-12.65,7.293-21.631,7.913v-15.825Z" transform="translate(1629.963 -1793.528)" fill="#d1785e"/></g><g transform="translate(34.533 9.194)"><g transform="translate(0 25.624)"><path d="M-1547.495,1749.035a4.156,4.156,0,0,0,2.908-.374,9.621,9.621,0,0,0,2.353-1.782c1.87-1.8,3.609-4.071,3.476-6.614a3.174,3.174,0,0,0-1-2.294,3.033,3.033,0,0,0-2.978-.375,5.067,5.067,0,0,0-2.318,2Z" transform="translate(1579.621 -1737.374)" fill="#f0b297"/><path d="M-1657.958,1749.035a4.156,4.156,0,0,1-2.908-.374,9.62,9.62,0,0,1-2.352-1.782c-1.87-1.8-3.609-4.071-3.476-6.614a3.176,3.176,0,0,1,1-2.294,3.034,3.034,0,0,1,2.979-.375,5.066,5.066,0,0,1,2.317,2Z" transform="translate(1666.702 -1737.374)" fill="#f0b297"/></g><path d="M-1626.367,1680.811c.74-7.958,2.815-12.6,4.1-17.2.916-3.445,1.843-9.33-2.162-14.518-3.958-5.39-13.891-8.452-22.986-5.875-9.159,2.581-14.24,7.936-13.131,14.031.56,3.65,1.086,8.7,1.7,12.465.506,3.13-.446,6.27.711,9.319,2.156,5.247,10.486,14.451,17.048,14.451C-1635.73,1693.489-1626.878,1684.284-1626.367,1680.811Z" transform="translate(1662.316 -1642.295)" fill="#f0b297"/><path d="M-1586.8,1753.969a2.918,2.918,0,0,1-.2.441.841.841,0,0,1-.3.364c-.135.072-.337.021-.495-.208a.991.991,0,0,1-.156-.438,1.291,1.291,0,0,1,.063-.554,1.276,1.276,0,0,1,.3-.469.964.964,0,0,1,.394-.237c.264-.074.452.018.511.16a.858.858,0,0,1,0,.474A2.886,2.886,0,0,1-1586.8,1753.969Z" transform="translate(1609.177 -1723.049)" fill="#f2f2f2" style="mix-blend-mode:soft-light;isolation:isolate"/><path d="M-1593.327,1752.676c-.025-.109-.047-.207-.064-.294s-.03-.164-.041-.24a1.725,1.725,0,0,1-.012-.271c0-.1.015-.214.03-.329a3.836,3.836,0,0,0,.053-.667.648.648,0,0,0-.181-.466.252.252,0,0,0-.346-.015,1.534,1.534,0,0,0-.394.494,2.5,2.5,0,0,0-.315.98,1.969,1.969,0,0,0,.042.611,2.616,2.616,0,0,0,.2.568,3.286,3.286,0,0,0,.288.485,3.87,3.87,0,0,0,.32.391,5.181,5.181,0,0,0,.584.54c.34.262.543.357.655.176s.095-.379-.089-.683c-.09-.152-.222-.327-.368-.538a3.6,3.6,0,0,1-.213-.345A1.833,1.833,0,0,1-1593.327,1752.676Z" transform="translate(1614.035 -1721.215)" fill="#d1785e"/><g transform="translate(9.603 23.064)"><path d="M-1570.732,1728.208a7.677,7.677,0,0,1,2.71-.126,7.755,7.755,0,0,1,2.6.819c.809.431.451,1.252-.357,1.057a21.908,21.908,0,0,0-2.408-.458,21.351,21.351,0,0,0-2.441-.178C-1571.454,1729.3-1571.614,1728.418-1570.732,1728.208Z" transform="translate(1587.425 -1727.979)" fill="#1a1a1a"/><path d="M-1625.327,1728.033a7.681,7.681,0,0,0-2.712-.068,7.774,7.774,0,0,0-2.585.874c-.8.448-.426,1.262.378,1.05a21.964,21.964,0,0,1,2.4-.509,21.36,21.36,0,0,1,2.437-.23C-1624.583,1729.112-1624.44,1728.224-1625.327,1728.033Z" transform="translate(1631.069 -1727.876)" fill="#1a1a1a"/><g transform="translate(1.182 2.98)"><path d="M-1622.971,1742.891l-.012-2.115a1.856,1.856,0,0,0-1.861-1.841h0a1.856,1.856,0,0,0-1.84,1.861l.011,2.115C-1626.667,1743.928-1622.966,1743.908-1622.971,1742.891Z" transform="translate(1626.684 -1738.935)" fill="#1a1a1a"/><g transform="translate(16.433)"><path d="M-1565.708,1742.891l.011-2.115a1.856,1.856,0,0,1,1.861-1.841h0a1.856,1.856,0,0,1,1.84,1.861l-.012,2.115C-1562.012,1743.928-1565.714,1743.908-1565.708,1742.891Z" transform="translate(1565.708 -1738.935)" fill="#1a1a1a"/></g></g></g><path d="M-1604.877,1778.035a9.659,9.659,0,0,0,9.592-1.369c.413-.327-.17-.9-.579-.579a8.859,8.859,0,0,1-8.8,1.158.412.412,0,0,0-.5.286.419.419,0,0,0,.286.5Z" transform="translate(1621.76 -1739.961)" fill="#a33939"/></g><path d="M-1485,1889.917c2.361,1.841,6.43,5.634,6.672,7.666s7.972,56.039,8.455,59.535c.968,7.012-21.385-.186-22.23-4.758s-10.184-37.87-10.184-37.87l9.021-26.44S-1487.494,1887.974-1485,1889.917Z" transform="translate(1581.131 -1812.625)" fill="#f13b0f"/><path d="M-1485,1889.917c2.361,1.841,6.43,5.634,6.672,7.666s7.972,56.039,8.455,59.535c.968,7.012-21.385-.186-22.23-4.758s-10.184-37.87-10.184-37.87l9.021-26.44S-1487.494,1887.974-1485,1889.917Z" transform="translate(1581.131 -1812.625)" opacity="0.8"/><path d="M-1589.2,2189.757c5.67,34.807.764,98.952-.706,108.392-1.486,9.546-21.2-6.217-21.838-15.843-.229-3.459.68-6.9.687-10.369.006-3.062-1.335-6.005-1.385-9.079-.44-26.833-5.729-30.6-9.564-47.148l-6.208-25.953Z" transform="translate(1673.12 -2033.022)" fill="#f13b0f"/><path d="M-1589.2,2189.757c5.67,34.807.764,98.952-.706,108.392-1.486,9.546-21.2-6.217-21.838-15.843-.229-3.459.68-6.9.687-10.369.006-3.062-1.335-6.005-1.385-9.079-.44-26.833-5.729-30.6-9.564-47.148l-6.208-25.953Z" transform="translate(1673.12 -2033.022)" opacity="0.7"/><g transform="translate(0 327.457)"><path d="M-1750.362,2852.818c4.194-2,7.892-4.121,8.931-6.276l.464-19.065c.162-1.417.469-3.149-.916-3.34l-6.3-.87a2.459,2.459,0,0,0-2.715,1.828c-.7,2.626-3.166,11.321-3.166,11.321l-12.293,12.121c-1.25,1.233-2.579,2.491-2.7,4.282C-1769.059,2852.875-1750.362,2852.818-1750.362,2852.818Z" transform="translate(1776.004 -2823.243)" fill="#f0b297"/><path d="M-1759.925,2857.645c-.4-.061,1.025,10.188-3.645,10.951a6.529,6.529,0,0,1-.905.077l-.37-4.328s-6.635-3.064-11.607-2.676l-1.149,2.36-14.135,7.779c-1.169,1.153-2.936,2.9-3.1,5.3a1.9,1.9,0,0,0,.4,1.134h35.724S-1759.528,2857.7-1759.925,2857.645Z" transform="translate(1794.84 -2848.373)" fill="#f13b0f"/><path d="M-1759.925,2857.645c-.4-.061,1.025,10.188-3.645,10.951a6.529,6.529,0,0,1-.905.077l-.37-4.328s-6.635-3.064-11.607-2.676l-1.149,2.36-14.135,7.779c-1.169,1.153-2.936,2.9-3.1,5.3a1.9,1.9,0,0,0,.4,1.134h35.724S-1759.528,2857.7-1759.925,2857.645Z" transform="translate(1794.84 -2848.373)" opacity="0.9"/></g><g transform="translate(69.308 328.104)"><path d="M-1498.237,2854.5a17.374,17.374,0,0,0-1.807-4.262l-9.34-12.237s-1.176-7.917-1.493-10.3a2.233,2.233,0,0,0-2.157-1.962l-5.573-.095a2.243,2.243,0,0,0-2.252,2.243l-.636,17.238a89.765,89.765,0,0,0,3.781,9.329Z" transform="translate(1525.853 -2825.643)" fill="#f0b297"/><path d="M-1510.928,2874.247l-6.318-8.279-.873-2.623c-4.28-1.011-10.391.762-10.391.762l-.8,3.725a5.954,5.954,0,0,1-.779-.189c-3.976-1.3-2.7-8.113-3.054-8.113s-4.519,20.089-4.519,20.089h28.811c.014-.109.026-.218.032-.328C-1508.7,2877.17-1510.04,2875.41-1510.928,2874.247Z" transform="translate(1537.666 -2850.397)" fill="#f13b0f"/><path d="M-1510.928,2874.247l-6.318-8.279-.873-2.623c-4.28-1.011-10.391.762-10.391.762l-.8,3.725a5.954,5.954,0,0,1-.779-.189c-3.976-1.3-2.7-8.113-3.054-8.113s-4.519,20.089-4.519,20.089h28.811c.014-.109.026-.218.032-.328C-1508.7,2877.17-1510.04,2875.41-1510.928,2874.247Z" transform="translate(1537.666 -2850.397)" opacity="0.9"/></g><path d="M-1703.406,2182.391c-5.794,34.807-2.929,98.952-1.427,108.392,1.519,9.546,21.665-6.217,22.316-15.844.234-3.46-.7-6.9-.7-10.37a39.369,39.369,0,0,1,1.416-9.079c3.92-16.548,12.2-33.1,16.117-49.643v-23.457Z" transform="translate(1730.586 -2027.642)" fill="#2c2a28"/><path d="M-1712.986,2582.9c-.246-13.708-.012-27.419.221-41.128l.352-20.662c.165-9.7.732-19.533,4.305-28.687,1.066-2.731,18.235-9.781,20.354-6.917,0,0,1.43,13.5,2.325,19.618.589,4.024-.211,8.1-1.008,12.092-4.334,21.711-6.6,43.974-10.933,65.685Z" transform="translate(1735.122 -2248.576)" fill="#f13b0f"/><path d="M-1712.986,2582.9c-.246-13.708-.012-27.419.221-41.128l.352-20.662c.165-9.7.732-19.533,4.305-28.687,1.066-2.731,18.235-9.781,20.354-6.917,0,0,1.43,13.5,2.325,19.618.589,4.024-.211,8.1-1.008,12.092-4.334,21.711-6.6,43.974-10.933,65.685Z" transform="translate(1735.122 -2248.576)" opacity="0.7"/><path d="M-1546.22,2589.385c.24-13.708-.332-26.54-.561-40.248q-.172-10.331-.344-20.662c-.162-9.7-.717-19.532-4.213-28.686-1.043-2.732-17.844-9.781-19.918-6.917,0,0-1.4,13.5-2.275,19.617-.576,4.024.207,8.1.987,12.092,4.241,21.71,6.262,43.151,10.5,64.861Z" transform="translate(1633.318 -2253.958)" fill="#f13b0f"/><path d="M-1546.22,2589.385c.24-13.708-.332-26.54-.561-40.248q-.172-10.331-.344-20.662c-.162-9.7-.717-19.532-4.213-28.686-1.043-2.732-17.844-9.781-19.918-6.917,0,0-1.4,13.5-2.275,19.617-.576,4.024.207,8.1.987,12.092,4.241,21.71,6.262,43.151,10.5,64.861Z" transform="translate(1633.318 -2253.958)" opacity="0.7"/><path d="M-1702.22,1958.315c-.641,0-1.07,0-1.242,0-3.221-.04-12.807-2.824-14.2-4.992,3.57-18.458,1.4-29.583-.7-40.344-1.182-6.054-2.53-19.169-2.53-19.169-1.291-2.423-2.782-20.534-1.682-28l23.725-9.974,10.987,3.289h2.216l10.987-3.289,23.725,9.974c1.1,7.469-.391,25.58-1.682,28,0,0-1.665,13.43-3.178,19.539-2.562,10.338-5.211,21.029-1.619,39.306l.016.081c-.713,1.077-6.048,3.841-8.65,4.251C-1674.4,1958.3-1701.088,1958.315-1702.22,1958.315Z" transform="translate(1742.329 -1789.088)" fill="#dcd0c8"/><g transform="translate(36.925 61.307)"><path d="M-1613.37,1875.108l4.145-4.02-2.464-6.736-5.855-.52-5.855.52-2.464,6.736,4.145,4.02-6.5,63.166,10.67,12.476,10.67-12.476Z" transform="translate(1636.195 -1856.241)" fill="#f13b0f"/><g transform="translate(18.65)"><path d="M-1577.216,1835.663l-11.406,7.592,4.175.853,3.347,17.32,11.129-17.516Z" transform="translate(1588.622 -1835.663)" fill="#eae3de"/></g><path d="M-1650.581,1835.663l11.406,7.592-4.175.853-3.347,17.32-11.129-17.516Z" transform="translate(1657.826 -1835.663)" fill="#eae3de"/></g><path d="M-1775.147,1888.779c-2.361,1.841-6.43,5.633-6.672,7.666s-5.439,45.006-6.788,56.8c-.838,11.369,20.683,11.5,22.008,8.358s8.74-48.254,8.74-48.254l-9.02-26.44S-1772.656,1886.836-1775.147,1888.779Z" transform="translate(1790.305 -1811.793)" fill="#f13b0f"/><path d="M-1775.147,1888.779c-2.361,1.841-6.43,5.633-6.672,7.666s-5.439,45.006-6.788,56.8c-.838,11.369,20.683,11.5,22.008,8.358s8.74-48.254,8.74-48.254l-9.02-26.44S-1772.656,1886.836-1775.147,1888.779Z" transform="translate(1790.305 -1811.793)" opacity="0.8"/><path d="M-1524.7,1867.506l-21.781-8.8-6.687,51.638-.846,64.19c8.356,5.7,23.765,3.735,25.455,1.593s-1.069-16.519-1.427-19.282c-3.783-29.216,1.784-60.4,1.784-60.4S-1523.418,1874.585-1524.7,1867.506Z" transform="translate(1618.92 -1791.186)" fill="#f13b0f"/><path d="M-1524.7,1867.506l-21.781-8.8-6.687,51.638-.846,64.19c8.356,5.7,23.765,3.735,25.455,1.593s-1.069-16.519-1.427-19.282c-3.783-29.216,1.784-60.4,1.784-60.4S-1523.418,1874.585-1524.7,1867.506Z" transform="translate(1618.92 -1791.186)" opacity="0.8"/><path d="M-1701.739,1909.9l-7.534-51.2-21.187,8.35c-1.287,7.08,2.908,29.384,2.908,29.384s7.372,30.678,2.646,59.46c-.206,2.512-3.137,18.2-1.92,19.95s19.416,5.764,26.823.86Z" transform="translate(1747.989 -1791.186)" fill="#f13b0f"/><path d="M-1701.739,1909.9l-7.534-51.2-21.187,8.35c-1.287,7.08,2.908,29.384,2.908,29.384s7.372,30.678,2.646,59.46c-.206,2.512-3.137,18.2-1.92,19.95s19.416,5.764,26.823.86Z" transform="translate(1747.989 -1791.186)" opacity="0.8"/><g transform="translate(32.739)"><path d="M-1636.86,1636.952a6.663,6.663,0,0,1-2.319-.575c-1.915-.875-4.019-1.454-5.074-3.129-1.415-2.244-.042-5.364-2.079-5.981-3.232-.979-9.656,2.037-12.525.385a4.589,4.589,0,0,1-1.492-1.377,13.239,13.239,0,0,1-2.68,2.6c-1.768,1.38-3.714,2.968-3.833,5.063-.073,1.287.579,2.506.933,3.755.671,2.372-1.226,9.467-1.226,9.467a36.165,36.165,0,0,1-3.2-6.091c-.586-1.769-.3-3.681-.74-5.485-.469-1.937-1.75-3.666-2.145-5.616a6.856,6.856,0,0,1,2.116-6.245,13.786,13.786,0,0,1-.05-3.252,8.447,8.447,0,0,1,3.391-6.053,7.036,7.036,0,0,1,6.5-.783c3.581-3.084,7.79-5.888,12.6-5.406,4.328.434,7.709,3.448,11.694,5.019,2.334.92,4.879,1.341,7.237,2.209s4.642,2.337,5.438,4.5a4.13,4.13,0,0,1-.317,3.381,3.511,3.511,0,0,1,1.39,1.95c.411,1.674-.352,3.392-1.258,4.9s-4.816,3.529-5.123,5.22c-.346,1.909-3.731,11.747-3.731,11.747l-2.3-10.254A6.061,6.061,0,0,1-1636.86,1636.952Z" transform="translate(1673.357 -1608.178)" fill="#2c1e1c"/></g><g transform="translate(26.055 119.415)"><g transform="translate(7.228 4.018)"><path d="M-1599.374,2090.964c.215-1.43-4.569-15.224-10.247-17.188s-59.684-7.585-59.684-7.585-2.794,4.686-1.836,8.322c0,0,39.887,13.484,45.16,15.106S-1599.588,2092.394-1599.374,2090.964Z" transform="translate(1671.341 -2066.191)" fill="#f0b297"/></g><path d="M-1686.581,2056.018s-10.879-4.377-11.579-4.738V2067.1l10.015-3.38Z" transform="translate(1698.16 -2051.28)" fill="#f0b297"/><path d="M-1641.464,2058.293l-3.455,16s36.058,11.159,50.863,14.26,21.053-2.465,19.8-7.521a20.249,20.249,0,0,0-14.709-14.794C-1598.143,2064-1641.464,2058.293-1641.464,2058.293Z" transform="translate(1659.267 -2056.403)" fill="#f13b0f"/><path d="M-1641.464,2058.293l-3.455,16s36.058,11.159,50.863,14.26,21.053-2.465,19.8-7.521a20.249,20.249,0,0,0-14.709-14.794C-1598.143,2064-1641.464,2058.293-1641.464,2058.293Z" transform="translate(1659.267 -2056.403)" opacity="0.8"/></g><g transform="translate(9.389 127.17)"><g transform="translate(0 2.915)"><path d="M-1760,2109.574c.054-1.445,4.69-17.764,10.634-18.641S-1682.8,2099-1682.8,2099s-2.7,8.332-4.917,9.231c0,0-30.385,1.152-41.195,2.479C-1734.393,2111.385-1760.056,2111.019-1760,2109.574Z" transform="translate(1760.001 -2090.872)" fill="#f0b297"/></g><g transform="translate(66.356)"><path d="M-1512.473,2107.271c3.286,1.79,7.042,2.245,10.59,3.246,1.447.409,3.174.743,4.194-.262a4.212,4.212,0,0,0,.926-2.231c.531-2.608-1.732-6.347-1.2-9.756.374-2.394.5-7.479-.723-7.337-3.233.374-8.513,5.589-11.91,7.3a2.91,2.91,0,0,0-1.184,1.1C-1512.9,2101.192-1515.26,2105.754-1512.473,2107.271Z" transform="translate(1513.782 -2087.998)" fill="#f0b297"/><path d="M-1463.028,2105.5a31.015,31.015,0,0,0,8.479-.713c1.7-.4,3.569-1.877,8.689-4.939,1.9-1.138-.684-2.546-2.707-1.621a34.757,34.757,0,0,1-6.184,2.5c-3.033.983-5.845-.275-8.84.173C-1465.606,2101.2-1465.077,2105.449-1463.028,2105.5Z" transform="translate(1478.045 -2093.109)" fill="#f0b297"/><path d="M-1466.008,2122.317c4.83-.335,6.5.179,9.574-.619,2.338-.606,3.484-1.574,7.237-3,2.575-.979.993-3.814-1.577-2.836-3.843,1.461-5.193,2.015-5.193,2.015-3.935,1.1-8.027.144-12.02.753C-1470.674,2119.04-1468.729,2122.506-1466.008,2122.317Z" transform="translate(1481.268 -2106.065)" fill="#f0b297"/><path d="M-1466.05,2138.433c4.1.781,8,1.113,9.952.789.9-.149,4.692-1.68,5.743-2.049a9.3,9.3,0,0,0,2.879-1.734c.705-.81-.211-2.156-1.327-1.9-1.3.3-5.492,1.807-8.328,2.288-4.023.682-6.371-1.482-10.389-1.281C-1470.225,2134.688-1468.736,2137.922-1466.05,2138.433Z" transform="translate(1481.033 -2119.106)" fill="#f0b297"/><path d="M-1469.021,2153.369a32.433,32.433,0,0,0,6.493.388c.736.021,3.411-.453,5.073-.507.894-.029,3.383-.492,3.383-.492a1.018,1.018,0,0,0-.8-1.712c-1.072.049-3.073.2-5.386.149-3.282-.08-6.333-1.611-9.557-2.126C-1471.983,2148.721-1471.2,2153.021-1469.021,2153.369Z" transform="translate(1482.602 -2130.456)" fill="#f0b297"/><path d="M-1480.755,2091.446c1.486-2.948,2.359-4.968,3.749-5.476a31.24,31.24,0,0,0,4.4-1.86,4.437,4.437,0,0,0,1.886-2.908c.19-2.149-3.756-.711-6.709-.158a8.275,8.275,0,0,0-4.616,2.274c-1.278,1.224-5.645,5.592-5.645,5.592Z" transform="translate(1494.72 -2080.058)" fill="#f0b297"/></g></g><path d="M-1704.713,2103.3l3.471-16.538s-53.737-5.881-58.324-6.446-12.183,5.436-13.157,11.492-.195,10.966,6.038,12.309S-1704.713,2103.3-1704.713,2103.3Z" transform="translate(1778.938 -1953.046)" fill="#f13b0f"/><path d="M-1704.713,2103.3l3.471-16.538s-53.737-5.881-58.324-6.446-12.183,5.436-13.157,11.492-.195,10.966,6.038,12.309S-1704.713,2103.3-1704.713,2103.3Z" transform="translate(1778.938 -1953.046)" opacity="0.8"/></g><g transform="translate(-2356.906 1261.276)"><path d="M-1415.791,2030.783c-1.34-1.936-3.16-7.935-2.645-11.17s18.359-36.9,18.359-36.9,15.554,6.965,15.345,13.908c0,0-17.69,34.138-19.235,34.809S-1414.375,2032.829-1415.791,2030.783Z" transform="translate(1420.113 -1885.264)" fill="#f8a588"/><path d="M-1367.549,1893.187c-3.25,1.033-8.025,2.52-9.087,4.594s-14.866,28.846-20.968,40.912c2.965,8,10.973,13.776,19.028,16.615,7.363-8.417,11.363-23.353,16.113-33.476l5.816-28.558S-1364.121,1892.1-1367.549,1893.187Z" transform="translate(1404.83 -1819.529)" fill="#f13b0f"/><path d="M-1367.549,1893.187c-3.25,1.033-8.025,2.52-9.087,4.594s-14.866,28.846-20.968,40.912c2.965,8,10.973,13.776,19.028,16.615,7.363-8.417,11.363-23.353,16.113-33.476l5.816-28.558S-1364.121,1892.1-1367.549,1893.187Z" transform="translate(1404.83 -1819.529)" opacity="0.3"/><g transform="translate(59.716 49.344)"><rect width="21.445" height="25.507" transform="translate(0 0)" fill="#f0b297"/><path d="M-1181.39,1804.22v7.845c-5.333,4.315-12.541,7.23-21.445,7.844V1804.22Z" transform="translate(1202.835 -1804.22)" fill="#b36650"/></g><g transform="translate(50.589 8.839)"><g transform="translate(0 25.31)"><path d="M-1118.957,1759.358a4.1,4.1,0,0,0,2.873-.369,9.488,9.488,0,0,0,2.324-1.76c1.847-1.779,3.564-4.02,3.433-6.533a3.134,3.134,0,0,0-.986-2.266,3,3,0,0,0-2.941-.37,5.005,5.005,0,0,0-2.29,1.971Z" transform="translate(1150.689 -1747.84)" fill="#f0b297"/><path d="M-1228.067,1759.358a4.1,4.1,0,0,1-2.872-.369,9.483,9.483,0,0,1-2.324-1.76c-1.847-1.779-3.564-4.02-3.433-6.533a3.136,3.136,0,0,1,.986-2.266,3,3,0,0,1,2.942-.37,5,5,0,0,1,2.289,1.971Z" transform="translate(1236.703 -1747.84)" fill="#f0b297"/></g><path d="M-1196.863,1691.97c.731-7.86,2.781-12.443,4.048-16.985.9-3.4,1.821-9.216-2.135-14.34-3.91-5.324-13.721-8.349-22.7-5.8-9.047,2.549-14.066,7.839-12.97,13.86.553,3.605,1.072,8.593,1.675,12.312.5,3.092-.44,6.193.7,9.205,2.13,5.183,10.358,14.274,16.839,14.274C-1206.111,1704.492-1197.367,1695.4-1196.863,1691.97Z" transform="translate(1232.371 -1653.925)" fill="#f0b297"/><path d="M-1158.669,1768.949a2.857,2.857,0,0,1-.193.436.823.823,0,0,1-.295.359c-.133.071-.333.021-.488-.2a.976.976,0,0,1-.155-.432,1.27,1.27,0,0,1,.063-.548,1.251,1.251,0,0,1,.294-.463.935.935,0,0,1,.389-.234c.261-.074.447.017.5.158a.845.845,0,0,1,0,.468A2.836,2.836,0,0,1-1158.669,1768.949Z" transform="translate(1180.53 -1737.137)" fill="#f2f2f2" style="mix-blend-mode:soft-light;isolation:isolate"/><path d="M-1165.113,1767.672c-.025-.108-.047-.2-.064-.291s-.03-.162-.04-.238a1.7,1.7,0,0,1-.012-.268c0-.1.015-.211.029-.324a3.766,3.766,0,0,0,.053-.66.642.642,0,0,0-.179-.46.249.249,0,0,0-.342-.015,1.512,1.512,0,0,0-.389.489,2.465,2.465,0,0,0-.311.968,1.952,1.952,0,0,0,.042.6,2.6,2.6,0,0,0,.2.561,3.233,3.233,0,0,0,.284.479,3.861,3.861,0,0,0,.317.386,5.115,5.115,0,0,0,.577.532c.336.259.537.353.647.174s.094-.375-.088-.674c-.088-.15-.219-.323-.364-.531a3.544,3.544,0,0,1-.21-.34A1.789,1.789,0,0,1-1165.113,1767.672Z" transform="translate(1185.329 -1735.326)" fill="#d1785e"/><g transform="translate(8.184 21.138)"><path d="M-1137.971,1732.443a7.267,7.267,0,0,1,2.894.148c.944.24,2.983,2.827,2.149,2.5a21.029,21.029,0,0,0-2.5-.816,20.225,20.225,0,0,0-2.57-.484C-1138.876,1733.679-1138.935,1732.6-1137.971,1732.443Z" transform="translate(1156.91 -1732.361)" fill="#2c120d"/><path d="M-1201.676,1733.2a7.261,7.261,0,0,0-2.811.7c-.882.417-2.4,3.35-1.644,2.873a21.157,21.157,0,0,1,2.3-1.281,20.192,20.192,0,0,1,2.431-.967C-1200.56,1734.245-1200.7,1733.17-1201.676,1733.2Z" transform="translate(1206.337 -1732.976)" fill="#2c120d"/><g transform="translate(2.151 4.684)"><path d="M-1194.688,1753.648l-.011-2.089a1.834,1.834,0,0,0-1.838-1.818h0a1.834,1.834,0,0,0-1.818,1.838l.011,2.089c0,.47.97-.79,1.822-.765C-1195.553,1752.932-1194.685,1754.183-1194.688,1753.648Z" transform="translate(1198.355 -1749.741)" fill="#2c120d"/><g transform="translate(16.232)"><path d="M-1138.126,1753.648l.012-2.089a1.833,1.833,0,0,1,1.838-1.818h0a1.834,1.834,0,0,1,1.818,1.838l-.012,2.089c0,.5-.911-.8-1.822-.8S-1138.129,1754.152-1138.126,1753.648Z" transform="translate(1138.126 -1749.741)" fill="#2c120d"/></g></g></g><path d="M-1174,1787.411a5.659,5.659,0,0,0,6.732,2,.429.429,0,0,0,.163-.581.438.438,0,0,0-.581-.163,4.788,4.788,0,0,1-5.57-1.669c-.308-.449-1.056-.036-.744.418Z" transform="translate(1190.955 -1750.99)" fill="#c2502f"/></g><path d="M-1045.208,2022.791c2.216-.656,5.4-3.01,6.142-6.139s-3.317-45.649-3.317-45.649-16.724.488-19.138,6.866c0,0,7.579,37.3,8.236,38.821C-1052.621,2018.224-1047.7,2023.529-1045.208,2022.791Z" transform="translate(1159.321 -1876.712)" fill="#f0b297"/><path d="M-1056.68,1898.464c2.041,1.718,5.537,5.231,5.685,7.049s3.847,26.789,4.655,37.338c-4.536,4.9-13.769,5.2-20.443,4.844-2.81-8.287-6.11-27.927-6.11-27.927l8.914-23.242S-1058.833,1896.651-1056.68,1898.464Z" transform="translate(1167.628 -1822.306)" fill="#f13b0f"/><path d="M-1056.68,1898.464c2.041,1.718,5.537,5.231,5.685,7.049s3.847,26.789,4.655,37.338c-4.536,4.9-13.769,5.2-20.443,4.844-2.81-8.287-6.11-27.927-6.11-27.927l8.914-23.242S-1058.833,1896.651-1056.68,1898.464Z" transform="translate(1167.628 -1822.306)" opacity="0.3"/><g transform="translate(17.612 153.238)"><g transform="translate(89.988 166.699)"><path d="M-992.83,2832.056l-8.358-23.77h-9.839l1.058,23.77S-990.97,2837.346-992.83,2832.056Z" transform="translate(1014.836 -2808.287)" fill="#f0b297"/><path d="M-1025.159,2885.22s.846-12.227,5.078-13.68l1.481-3.839s7.194-1.66,12.272,0l2.539,4.081s4.655,2.905,5.078,5.326.846,8.112.846,8.112Z" transform="translate(1025.159 -2851.151)" fill="#f13b0f"/><path d="M-1025.159,2885.22s.846-12.227,5.078-13.68l1.481-3.839s7.194-1.66,12.272,0l2.539,4.081s4.655,2.905,5.078,5.326.846,8.112.846,8.112Z" transform="translate(1025.159 -2851.151)" opacity="0.9"/></g><path d="M-1162.423,2197.035c5.621,34.507,4.6,74.886,6.579,88.428,1.382,9.478-20.313,9.875-24.3,2.539-2.3-4.231-6.421-34.839-7.361-37.738-2.678-8.252-9.8-13.569-13.6-29.974v-23.255Z" transform="translate(1243.674 -2195.066)" fill="#f13b0f"/><path d="M-1162.423,2197.035c5.621,34.507,4.6,74.886,6.579,88.428,1.382,9.478-20.313,9.875-24.3,2.539-2.3-4.231-6.421-34.839-7.361-37.738-2.678-8.252-9.8-13.569-13.6-29.974v-23.255Z" transform="translate(1243.674 -2195.066)" opacity="0.8"/><g transform="translate(0 169.087)"><path d="M-1311.935,2848.49c4.445-2.124,8.363-4.367,9.464-6.651l.491-20.2c.172-1.5.5-3.337-.97-3.54l-6.673-.922a2.605,2.605,0,0,0-2.876,1.937c-.743,2.784-3.356,12-3.356,12l-13.026,12.845c-1.325,1.306-2.734,2.64-2.863,4.538C-1331.748,2848.551-1311.935,2848.49-1311.935,2848.49Z" transform="translate(1339.108 -2817.149)" fill="#f0b297"/><path d="M-1322.069,2853.6c-.42-.064,1.087,10.8-3.862,11.6a6.93,6.93,0,0,1-.959.081l-.392-4.587s-7.031-3.246-12.3-2.836l-1.218,2.5-14.979,8.243c-1.239,1.222-3.112,3.069-3.285,5.617a2.014,2.014,0,0,0,.427,1.2h37.857S-1321.649,2853.668-1322.069,2853.6Z" transform="translate(1359.068 -2843.78)" fill="#f13b0f"/><path d="M-1322.069,2853.6c-.42-.064,1.087,10.8-3.862,11.6a6.93,6.93,0,0,1-.959.081l-.392-4.587s-7.031-3.246-12.3-2.836l-1.218,2.5-14.979,8.243c-1.239,1.222-3.112,3.069-3.285,5.617a2.014,2.014,0,0,0,.427,1.2h37.857S-1321.649,2853.668-1322.069,2853.6Z" transform="translate(1359.068 -2843.78)" opacity="0.9"/></g><path d="M-1275.645,2189.732c-5.744,34.507-2.9,98.1-1.415,107.458,1.506,9.464,21.479-6.164,22.124-15.707.232-3.43-.689-6.844-.7-10.28a39.034,39.034,0,0,1,1.4-9c3.886-16.405,12.093-32.81,15.979-49.215v-23.255Z" transform="translate(1300.644 -2189.732)" fill="#f13b0f"/><path d="M-1275.645,2189.732c-5.744,34.507-2.9,98.1-1.415,107.458,1.506,9.464,21.479-6.164,22.124-15.707.232-3.43-.689-6.844-.7-10.28a39.034,39.034,0,0,1,1.4-9c3.886-16.405,12.093-32.81,15.979-49.215v-23.255Z" transform="translate(1300.644 -2189.732)" opacity="0.8"/><path d="M-1285.143,2586.788c-.243-13.59-.012-27.183.219-40.773l.349-20.484c.164-9.62.726-19.364,4.268-28.439,1.056-2.708,18.077-9.7,20.178-6.857,0,0,1.417,13.386,2.3,19.448.584,3.99.992,10.554.2,14.515-4.1,20.547-6.225,41.043-9.343,62.591Z" transform="translate(1305.141 -2408.763)" fill="#f13b0f"/><path d="M-1285.143,2586.788c-.243-13.59-.012-27.183.219-40.773l.349-20.484c.164-9.62.726-19.364,4.268-28.439,1.056-2.708,18.077-9.7,20.178-6.857,0,0,1.417,13.386,2.3,19.448.584,3.99.992,10.554.2,14.515-4.1,20.547-6.225,41.043-9.343,62.591Z" transform="translate(1305.141 -2408.763)" opacity="0.8"/><path d="M-1085.044,2583.795c-2.876-13.284-6.883-30.605-10.211-43.784q-2.509-9.932-5.017-19.863c-2.356-9.328-4.144-20.062-9.594-28.1-1.626-2.4-21.925-4.538-23.276-1.3,0,0,3.219,13.866,3.76,19.967.356,4.015,2.035,7.767,3.694,11.446,9.016,19.992,13.717,42.155,22.733,62.146Z" transform="translate(1194.028 -2408.42)" fill="#f13b0f"/><path d="M-1085.044,2583.795c-2.876-13.284-6.883-30.605-10.211-43.784q-2.509-9.932-5.017-19.863c-2.356-9.328-4.144-20.062-9.594-28.1-1.626-2.4-21.925-4.538-23.276-1.3,0,0,3.219,13.866,3.76,19.967.356,4.015,2.035,7.767,3.694,11.446,9.016,19.992,13.717,42.155,22.733,62.146Z" transform="translate(1194.028 -2408.42)" opacity="0.8"/></g><path d="M-1225.184,1871.85l-24.464-10.284-11.121,3.329h-1.868l-11.121-3.329-24.464,10.284c-1.276,7.019,1.685,29.083,1.685,29.083.275,19.3,8.631,30.088,3.023,58.622,1.131,3.112,12.337,5.886,15.232,5.922,1.711.022,28.848,0,37.281-1.331,2.389-.376,10.445-3.922,9.487-5.621-5.609-28.535,4.37-38.29,4.645-57.593C-1226.869,1900.934-1223.909,1878.869-1225.184,1871.85Z" transform="translate(1332.465 -1796.768)" fill="#f13b0f"/><path d="M-1225.184,1871.85l-24.464-10.284-11.121,3.329h-1.868l-11.121-3.329-24.464,10.284c-1.276,7.019,1.685,29.083,1.685,29.083.275,19.3,8.631,30.088,3.023,58.622,1.131,3.112,12.337,5.886,15.232,5.922,1.711.022,28.848,0,37.281-1.331,2.389-.376,10.445-3.922,9.487-5.621-5.609-28.535,4.37-38.29,4.645-57.593C-1226.869,1900.934-1223.909,1878.869-1225.184,1871.85Z" transform="translate(1332.465 -1796.768)" opacity="0.1"/><g transform="translate(0 65.128)"><g transform="translate(22.02)"><g transform="translate(7.865)"><path d="M-1304.037,1898.472c-2.577-.1-5.182-.308-7.743-.613a1.88,1.88,0,0,1-1.646-1.846c-.283-10.227.078-22.462.618-30.907a2.327,2.327,0,0,1,2.144-2.172c3.092-.167,6.217-.189,9.287-.067s6.174.391,9.223.8a2.135,2.135,0,0,1,1.807,2.329c-.721,8.437-2.186,20.629-3.991,30.773a2.053,2.053,0,0,1-1.911,1.706C-1298.84,1898.575-1301.461,1898.574-1304.037,1898.472Z" transform="translate(1313.525 -1862.789)" fill="#e6e6e6"/><path d="M-1295.583,1898.9a98.65,98.65,0,0,1-15.495-.614,1.646,1.646,0,0,1-1.442-1.615c-.259-9.354.034-21.765.617-30.883a2.059,2.059,0,0,1,1.907-1.931,98.675,98.675,0,0,1,18.467.731,1.89,1.89,0,0,1,1.608,2.07c-.779,9.111-2.337,21.472-3.988,30.75A1.8,1.8,0,0,1-1295.583,1898.9Z" transform="translate(1312.86 -1863.464)" fill="#ccc"/><path d="M-1303.083,1931.138c-4.9-4.073-7.625-9.547-9.375-15.347-.182,6.255-.254,12.563-.078,18.923a1.646,1.646,0,0,0,1.442,1.615,98.624,98.624,0,0,0,15.5.614,1.8,1.8,0,0,0,1.674-1.493c.094-.528.183-1.055.275-1.583A13.788,13.788,0,0,1-1303.083,1931.138Z" transform="translate(1312.877 -1901.507)" fill="#b3b3b3"/><g transform="translate(3.334 3.508)"><path d="M-1299.97,1885.222h0a1.36,1.36,0,0,1-1.179-1.49l.506-6.655a1.323,1.323,0,0,1,1.388-1.265h0a1.36,1.36,0,0,1,1.179,1.49l-.505,6.655A1.323,1.323,0,0,1-1299.97,1885.222Z" transform="translate(1301.153 -1875.808)" fill="#b3b3b3"/><g transform="translate(0.778 1.085)"><path d="M-1296.351,1880.949a.983.983,0,0,1-1.034.943,1.01,1.01,0,0,1-.879-1.11.983.983,0,0,1,1.035-.943A1.011,1.011,0,0,1-1296.351,1880.949Z" transform="translate(1298.267 -1879.835)" fill="#999"/><path d="M-1297.194,1882.018a.939.939,0,0,1-.815-1.031.913.913,0,0,1,.96-.875.939.939,0,0,1,.816,1.031A.913.913,0,0,1-1297.194,1882.018Z" transform="translate(1298.081 -1880.035)" fill="#1a1a1a"/></g><g transform="translate(0.58 3.679)"><path d="M-1297.082,1890.574a.983.983,0,0,1-1.035.943,1.011,1.011,0,0,1-.879-1.11.983.983,0,0,1,1.035-.943A1.01,1.01,0,0,1-1297.082,1890.574Z" transform="translate(1298.999 -1889.46)" fill="#999"/><path d="M-1297.925,1891.643a.94.94,0,0,1-.816-1.031.914.914,0,0,1,.96-.875.939.939,0,0,1,.816,1.031A.913.913,0,0,1-1297.925,1891.643Z" transform="translate(1298.813 -1889.66)" fill="#1a1a1a"/></g><g transform="translate(0.383 6.273)"><path d="M-1297.813,1900.2a.983.983,0,0,1-1.035.943,1.011,1.011,0,0,1-.878-1.11.983.983,0,0,1,1.034-.943A1.011,1.011,0,0,1-1297.813,1900.2Z" transform="translate(1299.73 -1899.084)" fill="#999"/><path d="M-1298.656,1901.267a.939.939,0,0,1-.816-1.031.914.914,0,0,1,.96-.875.939.939,0,0,1,.816,1.031A.913.913,0,0,1-1298.656,1901.267Z" transform="translate(1299.544 -1899.284)" fill="#1a1a1a"/></g></g></g><g transform="translate(0 9.752)"><g transform="translate(0 8.526)"><path d="M-1342.515,1943.613c-1.526,5.877,6.351,9.555,9.492,7.724,2.06-1.2,1.194-5.342,2.72-11.219.64-2.465-2.221-8.638-2.448-9.505C-1332.75,1930.613-1340.989,1937.736-1342.515,1943.613Z" transform="translate(1342.709 -1930.613)" fill="#f0b297"/></g><g transform="translate(6.062)"><path d="M-1305.928,1981.434a3.136,3.136,0,0,0-2.3.475c-1.124,1.279-1.878,3.425-3.694,4.529-.594.361-1.4-.051-1.973-.525a1.3,1.3,0,0,1-.168-1.813c1.457-1.448,3.091-3.711,4.78-4.908.767-.544,2.954-.321,4.382-.113a29.406,29.406,0,0,1,6.519,1.417c1.554.589-.113,1.993-1.746,1.575C-1300.128,1982.071-1305.779,1981.487-1305.928,1981.434Z" transform="translate(1315.939 -1957.325)" fill="#f0b297"/><path d="M-1320.028,1911.139c1.215-2.038,5.4-5.8,7.39-7.276s9.078-3.9,11.129-4.742,2.491,2.2-.211,3.367-9.222,4.36-9.222,4.36-3.811,5.388-4.527,6.732S-1321.242,1913.176-1320.028,1911.139Z" transform="translate(1320.215 -1898.976)" fill="#f0b297"/><path d="M-1305.165,1938.091l7.152-3.644s8.054-1.163,10.124-1.282,1.646,2.722-.868,3.037-8.7,1.5-8.7,1.5-7.4,4.8-8.069,5.484S-1305.165,1938.091-1305.165,1938.091Z" transform="translate(1309.651 -1923.948)" fill="#f0b297"/><path d="M-1309.365,1958.423l6.678-4.259s7.079-.875,9.149-.994,1.646,2.722-.868,3.037-7.768,1.107-7.768,1.107-6.524,4.976-7.2,5.657S-1309.365,1958.423-1309.365,1958.423Z" transform="translate(1312.51 -1938.562)" fill="#f0b297"/></g></g></g><path d="M-1424.024,2013.874c-1.211,6.217.366,10.092,4.82,11.976,4.819,2.039,10.606,1.279,12.542-5.223s13.044-44.689,13.044-44.689-4.753-5.024-7.175-3.15C-1402.129,1973.821-1422.982,2008.526-1424.024,2013.874Z" transform="translate(1424.418 -1942.839)" fill="#f0b297"/></g><g transform="translate(53.373 60.601)"><g transform="translate(17.388)"><path d="M-1151.215,1845.993l-10.635,7.526,4.139.846,3.318,17.171,9.148-14.4a4.476,4.476,0,0,0-.55-5.5Z" transform="translate(1161.85 -1845.993)" fill="#f13b0f"/></g><path d="M-1220.29,1845.993l11.307,7.526-4.138.846-3.318,17.171-9.234-14.533a4.476,4.476,0,0,1,.415-5.354Z" transform="translate(1226.371 -1845.993)" fill="#f13b0f"/></g><g transform="translate(53.373 60.601)" opacity="0.3"><g transform="translate(17.388)"><path d="M-1151.215,1845.993l-10.635,7.526,4.139.846,3.318,17.171,9.148-14.4a4.476,4.476,0,0,0-.55-5.5Z" transform="translate(1161.85 -1845.993)"/></g><path d="M-1220.29,1845.993l11.307,7.526-4.138.846-3.318,17.171-9.234-14.533a4.476,4.476,0,0,1,.415-5.354Z" transform="translate(1226.371 -1845.993)"/></g><g transform="translate(50.384 0)"><path d="M-1196.539,1647.479a19.391,19.391,0,0,0,.23-6.739c-.576-3.482-2.767-6.909-6.16-8.04,1.854-1.224,2.025-4.028.876-5.913s-3.236-3.009-5.314-3.811c-7.009-2.707-15.338-2.587-21.742,1.311-6.379,3.883-9.956,13.065-8.483,18.958s2.117,8.964,6.187,8.734c3.6-.2,6.792-2.323,9.536-4.633s6.858-6.471,10.1-8.025a10.751,10.751,0,0,1,8.3-.623c2.993,6.489,2.23,13.927,2.543,21.6.917-2.792,2.282-6.2,3.056-9.106C-1197.079,1649.968-1196.773,1648.728-1196.539,1647.479Z" transform="translate(1237.462 -1621.125)" fill="#2c120d"/><path d="M-1230.761,1708.242l1.773-19.435s-2.793-2.482-4.172-1.331S-1230.761,1708.242-1230.761,1708.242Z" transform="translate(1234.541 -1669.372)" fill="#2c120d"/></g><g transform="translate(84.87 131.962)"><path d="M-1071.568,2110.789c-1.242-.259-7.363,7.451-9.882,11.6s-12.817,36.044-12.817,36.044,4.189,4.526,7.712,4.053c0,0,23.019-37.837,23.562-42.231C-1061.9,2111.431-1070.326,2111.048-1071.568,2110.789Z" transform="translate(1098.372 -2110.783)" fill="#f0b297"/><path d="M-1103.068,2266.88s-6.266.319-6.429,3.347,8.663,11.691,11.932,10.056,2.468-6.856,1.316-8.986S-1100.536,2266.5-1103.068,2266.88Z" transform="translate(1109.499 -2224.786)" fill="#f0b297"/></g></g><g transform="translate(-2610.734 1295.448)"><path d="M-2030.331,1778.727c4.7,14.3,4.627,30.346-1.971,43.881-2.167,4.445-5.575,9.016-10.49,9.564-2.781.31-5.512-.755-8.109-1.8-9.121-3.67-18.346-7.4-26.3-13.178-3.4-2.473-6.831-5.985-6.439-10.172.238-2.538,1.884-4.74,3.791-6.432s4.119-3.014,6.025-4.706c8.739-7.757,8.712-22.743,18.111-29.685C-2053.145,1764.3-2031.858,1774.082-2030.331,1778.727Z" transform="translate(2159.83 -1761.097)" fill="#2c1e1c"/><path d="M-2195.557,2020.315c-.855-1.63-1.695-6.458-.987-8.919s17.765-26.879,17.765-26.879,11.4,6.888,10.578,12.255c0,0-17.83,23.8-18.992,24.419C-2189.784,2022.574-2194.654,2022.037-2195.557,2020.315Z" transform="translate(2242.48 -1920.756)" fill="#f8a588"/><path d="M-2146.507,1922.264c-2.62.492-7.387,1.829-8.409,3.337s-12.919,18.6-18.8,27.375c1.537,6.49,7.728,8.921,13.707,11.892,6.516-5.827,10.312-12.568,14.963-19.969l6.624-19.88S-2143.744,1921.745-2146.507,1922.264Z" transform="translate(2225.613 -1875.239)" fill="#f13b0f"/><path d="M-2146.507,1922.264c-2.62.492-7.387,1.829-8.409,3.337s-12.919,18.6-18.8,27.375c1.537,6.49,7.728,8.921,13.707,11.892,6.516-5.827,10.312-12.568,14.963-19.969l6.624-19.88S-2143.744,1921.745-2146.507,1922.264Z" transform="translate(2225.613 -1875.239)" opacity="0.4"/><g transform="translate(1.035 85.767)"><path d="M-2235.911,2073.7c-.975-.386-6.059,2.823-9.607,7.067-2.569,3.074-13.475,29.819-13.475,29.819s0,4.3,1.7,5.948c0,0,22.862-24.627,25.478-30.6C-2230.345,2082.581-2234.936,2074.083-2235.911,2073.7Z" transform="translate(2286.87 -2071.646)" fill="#f8a588"/><path d="M-2301.311,2204.067a36.241,36.241,0,0,1-6.9.454c-2.079-.283-.685,2.713,1.381,3.13s2.644,1.056,4.985,2.592,6.131,3.113,7.283,2.683,2.95-6.337,3.757-8.094-1.167-4.96-2.977-4.308S-2299.667,2203.848-2301.311,2204.067Z" transform="translate(2323.573 -2164.255)" fill="#f8a588"/><path d="M-2322.666,2069.29l-2.486-3.117-37.283,19.684,6.049.951S-2343.416,2088.214-2322.666,2069.29Z" transform="translate(2362.435 -2066.172)" fill="#856861"/><path d="M-2323.473,2180.44l-6.412-1.572-32.55-39.655,6.673.875Z" transform="translate(2362.435 -2119.529)" fill="#856861"/><path d="M-2337.816,2160.882l-11.976-14.966-4.177-.548,13.217,16.1Z" transform="translate(2356.25 -2124.026)" fill="#fff"/><path d="M-2339.161,2088.791s17.932-12.487,34.384-19.728l24.577,45.975-26.272,14.157Z" transform="translate(2345.433 -2068.284)" fill="#b28b81"/><g transform="translate(16.546 40.786)"><path d="M-2295.284,2218.544s-1.026.919-4.245,3.555-.569,4.513,1.292,2.993,4.393-4.629,5.707-5.786S-2293.521,2217.041-2295.284,2218.544Z" transform="translate(2301.038 -2217.734)" fill="#f8a588"/><path d="M-2295.774,2225.414a2.253,2.253,0,0,0,1.146-.4,4.935,4.935,0,0,0,.473-.39c.155-.134.3-.279.452-.418.594-.568,1.16-1.165,1.718-1.769l1.67-1.819c.28-.3.56-.6.849-.9.143-.149.291-.294.438-.439s.314-.28.437-.422a.982.982,0,0,0,.153-.235.625.625,0,0,0,.049-.259.611.611,0,0,0-.284-.437,1.748,1.748,0,0,0-1.128-.236,2.725,2.725,0,0,0-1.131.37,3.318,3.318,0,0,0-.489.35l-.471.4q-1.892,1.59-3.841,3.109l1.877-1.606c.627-.533,1.253-1.068,1.872-1.61l.461-.409a3.354,3.354,0,0,1,.511-.372,2.9,2.9,0,0,1,1.2-.4,1.908,1.908,0,0,1,1.243.259.779.779,0,0,1,.362.567.8.8,0,0,1-.06.343,1.168,1.168,0,0,1-.18.282c-.149.168-.306.292-.453.434s-.294.285-.437.432c-.289.292-.57.592-.852.892-.563.6-1.116,1.21-1.69,1.8s-1.15,1.182-1.759,1.739c-.156.135-.307.275-.468.405a4.821,4.821,0,0,1-.492.378A2.2,2.2,0,0,1-2295.774,2225.414Z" transform="translate(2297.193 -2217.511)" fill="#b36650"/></g><g transform="translate(18.779 42.35)"><path d="M-2288.111,2224.687s-.848,1.088-3.551,4.253.279,4.611,1.843,2.786,3.5-5.352,4.585-6.725S-2286.641,2222.894-2288.111,2224.687Z" transform="translate(2292.753 -2223.541)" fill="#f8a588"/><path d="M-2290.732,2232.078a1.59,1.59,0,0,0,1.29.124,2.3,2.3,0,0,0,1.075-.744,24.2,24.2,0,0,0,1.563-2.181q.729-1.129,1.442-2.271c.483-.757.95-1.523,1.5-2.245a1.162,1.162,0,0,0,.275-.551.543.543,0,0,0-.036-.282.611.611,0,0,0-.184-.224,1.172,1.172,0,0,0-.581-.21,2.082,2.082,0,0,0-.642.039,2.671,2.671,0,0,0-1.155.582,3.224,3.224,0,0,0-.454.474l-.428.521q-.862,1.034-1.743,2.053l-.886,1.014-.444.505c-.146.171-.285.346-.428.519.135-.178.268-.36.407-.537l.429-.519.854-1.04c.571-.692,1.142-1.384,1.7-2.084l.417-.527a3.288,3.288,0,0,1,.471-.5,2.834,2.834,0,0,1,1.222-.623,2.213,2.213,0,0,1,.7-.046,1.33,1.33,0,0,1,.669.241.771.771,0,0,1,.239.29.718.718,0,0,1,.053.376,1.328,1.328,0,0,1-.309.642c-.542.7-1.016,1.469-1.5,2.221s-.959,1.517-1.466,2.259a23.885,23.885,0,0,1-1.612,2.162,2.363,2.363,0,0,1-1.129.732A1.585,1.585,0,0,1-2290.732,2232.078Z" transform="translate(2291.277 -2223.315)" fill="#b36650"/></g><g transform="translate(21.706 43.559)"><path d="M-2277.617,2229.24s-.783,1.088-3.292,4.265.4,4.408,1.852,2.575,3.209-5.316,4.215-6.69S-2276.255,2227.444-2277.617,2229.24Z" transform="translate(2281.892 -2228.028)" fill="#f8a588"/><path d="M-2277.694,2236.661a2.188,2.188,0,0,0,1-.619,4.661,4.661,0,0,0,.369-.469c.12-.16.229-.328.343-.492.446-.664.859-1.349,1.263-2.04l1.208-2.078c.2-.346.406-.691.619-1.033.1-.171.215-.34.325-.509s.24-.332.327-.492a.973.973,0,0,0,.1-.255.6.6,0,0,0-.008-.256.592.592,0,0,0-.36-.357,1.7,1.7,0,0,0-1.121.011,2.653,2.653,0,0,0-1,.588,3.2,3.2,0,0,0-.392.435l-.364.479q-1.466,1.906-3,3.757l1.448-1.919q.728-.957,1.444-1.921l.353-.485a3.271,3.271,0,0,1,.407-.46,2.817,2.817,0,0,1,1.053-.629,1.856,1.856,0,0,1,1.235-.014.763.763,0,0,1,.462.463.782.782,0,0,1,.015.339,1.138,1.138,0,0,1-.112.305c-.106.191-.229.341-.34.507s-.22.332-.325.5c-.213.337-.419.681-.624,1.025-.41.688-.809,1.383-1.23,2.065s-.846,1.363-1.309,2.02c-.121.16-.235.326-.36.483a4.78,4.78,0,0,1-.389.462A2.143,2.143,0,0,1-2277.694,2236.661Z" transform="translate(2279.33 -2227.803)" fill="#b36650"/></g><g transform="translate(24.161 45.551)"><path d="M-2269.069,2236.515s-.684,1-2.881,3.922.5,4.027,1.768,2.342,2.775-4.883,3.653-6.146S-2267.878,2234.863-2269.069,2236.515Z" transform="translate(2272.785 -2235.394)" fill="#f8a588"/><path d="M-2270.818,2243.217a1.4,1.4,0,0,0,1.138.038,2.017,2.017,0,0,0,.9-.71,21.336,21.336,0,0,0,1.251-2q.578-1.029,1.141-2.069c.382-.69.75-1.387,1.191-2.05a1.011,1.011,0,0,0,.211-.5.479.479,0,0,0-.047-.246.54.54,0,0,0-.174-.186,1.029,1.029,0,0,0-.521-.153,1.818,1.818,0,0,0-.56.069,2.355,2.355,0,0,0-.981.573,2.828,2.828,0,0,0-.372.44l-.347.48q-.7.954-1.416,1.9l-.721.937-.362.467c-.118.157-.231.319-.347.478.109-.164.215-.33.327-.493l.348-.479.692-.958c.463-.637.925-1.276,1.378-1.92l.337-.484a2.907,2.907,0,0,1,.386-.464,2.492,2.492,0,0,1,1.037-.613,1.966,1.966,0,0,1,.607-.079,1.172,1.172,0,0,1,.6.175.684.684,0,0,1,.226.242.629.629,0,0,1,.066.326,1.162,1.162,0,0,1-.236.58c-.437.647-.811,1.344-1.2,2.029s-.759,1.382-1.162,2.061a20.973,20.973,0,0,1-1.3,1.983,2.086,2.086,0,0,1-.951.7A1.394,1.394,0,0,1-2270.818,2243.217Z" transform="translate(2271.357 -2235.194)" fill="#b36650"/></g></g><path d="M-2117.421,1949.15c2.561-1.652,11.051-21.6,11.051-21.6l19.722,3.134,22.819,6.772s-5.307,21.014-3.775,23.648c5.479,9.42-5.031,16.519-8.872,20.222-6.88,11.688-8.641,23.6-11.511,35.246a131.114,131.114,0,0,1-18.646-2.584,131.112,131.112,0,0,1-17.79-6.158c2.725-11.678,6.562-23.095,5.733-36.633C-2120.433,1966.154-2126.579,1955.059-2117.421,1949.15Z" transform="translate(2189.602 -1879.14)" fill="#f13b0f"/><path d="M-2117.421,1949.15c2.561-1.652,11.051-21.6,11.051-21.6l19.722,3.134,22.819,6.772s-5.307,21.014-3.775,23.648c5.479,9.42-5.031,16.519-8.872,20.222-6.88,11.688-8.641,23.6-11.511,35.246a131.114,131.114,0,0,1-18.646-2.584,131.112,131.112,0,0,1-17.79-6.158c2.725-11.678,6.562-23.095,5.733-36.633C-2120.433,1966.154-2126.579,1955.059-2117.421,1949.15Z" transform="translate(2189.602 -1879.14)" opacity="0.3"/><g transform="translate(92.414 34.117)"><path d="M-2009.3,1902.828l-9.734-2.335a5.653,5.653,0,0,1-4.178-6.815l4.6-19.157,20.727,4.972-4.6,19.157A5.653,5.653,0,0,1-2009.3,1902.828Z" transform="translate(2023.364 -1874.52)" fill="#f8a588"/><path d="M-2010.657,1874.52l-1.819,7.582c4.153,5.408,10.445,9.9,18.907,12.554l3.638-15.164Z" transform="translate(2015.41 -1874.52)" fill="#b36650"/></g><path d="M-1846.722,1996.182c-.339-1.809-2.675-6.117-4.757-7.608s-30.6-10.072-30.6-10.072-4.674,12.475-.7,16.174c0,0,26.424,9.973,29.922,8.434C-1848.658,2001.26-1846.363,1998.093-1846.722,1996.182Z" transform="translate(2014.253 -1916.361)" fill="#f8a588"/><path d="M-1932.189,1965.22c1.389-2.274,1.909-3.9,3.659-3.4a152.946,152.946,0,0,1,21.922,7.406c1.831,6.414-1.844,14.8-5.608,20.311-8.078-1.8-13-4.541-22.311-5.9C-1934.526,1983.637-1933.594,1967.521-1932.189,1965.22Z" transform="translate(2055.912 -1903.118)" fill="#f13b0f"/><path d="M-1932.189,1965.22c1.389-2.274,1.909-3.9,3.659-3.4a152.946,152.946,0,0,1,21.922,7.406c1.831,6.414-1.844,14.8-5.608,20.311-8.078-1.8-13-4.541-22.311-5.9C-1934.526,1983.637-1933.594,1967.521-1932.189,1965.22Z" transform="translate(2055.912 -1903.118)" opacity="0.4"/><g transform="translate(95.401 0)"><g transform="translate(0 4.178)"><g transform="translate(0 18.033)"><path d="M-2007.367,1842.978a3.943,3.943,0,0,1-2.4-1.407,9.122,9.122,0,0,1-1.393-2.431c-.965-2.268-1.641-4.9-.58-7.07a3.014,3.014,0,0,1,1.724-1.634,2.881,2.881,0,0,1,2.741.779,4.811,4.811,0,0,1,1.283,2.6Z" transform="translate(2012.28 -1830.338)" fill="#f8a588"/><path d="M-1918.251,1887.179a3.946,3.946,0,0,0,2.68.754,9.141,9.141,0,0,0,2.717-.683c2.3-.879,4.665-2.216,5.494-4.487a3.013,3.013,0,0,0-.019-2.375,2.88,2.88,0,0,0-2.463-1.434,4.808,4.808,0,0,0-2.766.883Z" transform="translate(1943.592 -1865.851)" fill="#f8a588"/></g><path d="M-2006.168,1792.344c2.187-6.936,2.025-11.591,2.542-15.917.426-3.224,1.711-8.5,7.058-11.35,5.377-3.041,15.145-1.914,22.173,3.623,7.083,5.563,10.732,14.043,7.593,18.734-1.789,2.847-5.162,4.769-7.035,7.695-1.556,2.432-1.842,5.414-3.939,7.537-3.751,3.591-14.306,8.2-20.039,5.762C-2002.5,1806.436-2006.957,1795.441-2006.168,1792.344Z" transform="translate(2007.882 -1763.425)" fill="#f8a588"/></g><path d="M-1972.111,1836.013a7.308,7.308,0,0,0-2.173-1.037,7.249,7.249,0,0,0-2.39-.281,5.5,5.5,0,0,0-2.3.6c.794.108,1.531.193,2.254.326a20.816,20.816,0,0,1,2.115.489,20.358,20.358,0,0,1,2.052.712C-1971.874,1837.1-1971.457,1836.479-1972.111,1836.013Z" transform="translate(1987.953 -1811.303)" fill="#1a1a1a"/><path d="M-1919.539,1854.276a7.324,7.324,0,0,1,2.238.89,7.245,7.245,0,0,1,1.829,1.563,5.483,5.483,0,0,1,1.121,2.1c-.618-.509-1.181-.992-1.77-1.432a20.784,20.784,0,0,0-1.795-1.22,20.321,20.321,0,0,0-1.916-1.022C-1920.5,1854.838-1920.326,1854.113-1919.539,1854.276Z" transform="translate(1945.047 -1825.597)" fill="#1a1a1a"/><path d="M-1954.672,1872a2.74,2.74,0,0,0,.007.458.8.8,0,0,0,.126.429c.091.113.287.144.509,0a.933.933,0,0,0,.3-.324,1.218,1.218,0,0,0,.151-.508,1.207,1.207,0,0,0-.085-.52.908.908,0,0,0-.257-.354c-.2-.163-.4-.153-.506-.05a.814.814,0,0,0-.179.413A2.768,2.768,0,0,0-1954.672,1872Z" transform="translate(1970.202 -1837.875)" fill="#f2f2f2" style="mix-blend-mode:soft-light;isolation:isolate"/><path d="M-1953.935,1873.4c.063-.086.118-.163.166-.233s.087-.132.125-.2a1.569,1.569,0,0,0,.111-.232c.035-.09.066-.193.1-.3a3.588,3.588,0,0,1,.2-.6.615.615,0,0,1,.332-.34.239.239,0,0,1,.308.115,1.453,1.453,0,0,1,.16.578,2.362,2.362,0,0,1-.089.974,1.87,1.87,0,0,1-.264.518,2.49,2.49,0,0,1-.388.421,3.079,3.079,0,0,1-.432.317,3.662,3.662,0,0,1-.425.223,4.905,4.905,0,0,1-.71.254c-.395.1-.608.111-.638-.09s.058-.366.331-.563c.135-.1.316-.2.522-.333a3.393,3.393,0,0,0,.313-.222A1.713,1.713,0,0,0-1953.935,1873.4Z" transform="translate(1970.721 -1838.185)" fill="#d1785e"/><g transform="translate(8.421 25.718)"><path d="M-1972.21,1849.018a3.3,3.3,0,0,0-1.439-3.5h0a1.81,1.81,0,0,0-2.362.967l-.332.8c-.191.457,1.186-.826,2.214-.385S-1972.418,1849.507-1972.21,1849.018Z" transform="translate(1977.621 -1844.834)" fill="#1a1a1a"/><path d="M-1976.7,1844.26a3.409,3.409,0,0,0-2.435-.481,1.877,1.877,0,0,1-1.9-.425,1.93,1.93,0,0,0,1.758,1.141c1.25-.05,1.662.378,1.662.378Z" transform="translate(1981.034 -1843.354)" fill="#1a1a1a"/></g><g transform="translate(23.03 32.304)"><path d="M-1926.806,1869.31a3.3,3.3,0,0,1,3.519-1.39h0a1.809,1.809,0,0,1,.941,2.372l-.343.791c-.194.451-.661-1.332-1.685-1.758C-1925.417,1868.891-1927.015,1869.8-1926.806,1869.31Z" transform="translate(1926.825 -1867.792)" fill="#1a1a1a"/><path d="M-1915.227,1867.865a3.407,3.407,0,0,1,2.035,1.42,1.877,1.877,0,0,0,1.624,1.073,1.929,1.929,0,0,1-2.042-.475c-.831-.935-1.425-.934-1.425-.934Z" transform="translate(1918.352 -1867.845)" fill="#1a1a1a"/></g><path d="M-1964.885,1884.99a9.169,9.169,0,0,1-7.871-4.76c-.239-.439.483-.725.72-.291a8.41,8.41,0,0,0,7.254,4.28.392.392,0,0,1,.333.437.4.4,0,0,1-.437.333Z" transform="translate(1983.443 -1844.204)" fill="#a33939"/><path d="M-2001.931,1761.542a2.268,2.268,0,0,1,.421-.678c.7-.367-1.971,6.871-1.971,6.871,7.8,2.442,26.665,11.739,26.665,11.739l3.79-6.595c.648,2.07-6.533,16.919-6.533,16.919,4.134-4.4,10.542-12.52,13.185-17.742a5.806,5.806,0,0,0-1.861-7.252c.945-5.49-2.484-9.059-6.927-12.695a20.168,20.168,0,0,0-18.951-3.085c-6.277,2.153-10.684,5.649-12.036,12.065-1.411,6.7-4.025,11.471-2.883,17.971C-2009.032,1779.059-2003.6,1764.852-2001.931,1761.542Z" transform="translate(2010.113 -1747.924)" fill="#2c1e1c"/></g><path d="M-1937.065,1820c1.113,9.61-.414,19.364-3.025,28.678-1.529,5.453-3.619,11.085-7.99,14.686a12.946,12.946,0,0,1-10.5,2.694,14.218,14.218,0,0,0,8.945,3.683,14.2,14.2,0,0,0,11.479-5.339c2.766-3.529,3.666-8.127,4.483-12.536l3.794-20.483c.773-4.173,2.089-8.846.708-13.091C-1929.848,1816.216-1937.065,1820-1937.065,1820Z" transform="translate(2068.455 -1798.873)" fill="#2c1e1c"/><g transform="translate(100.814 263.604)"><path d="M-1980.034,2726.053c-.163,12.925-.312,25.893-.241,28.955l-7.116.317c-1.327-8.785-3.055-19.248-4.8-29.272Z" transform="translate(1992.195 -2726.053)" fill="#f0b59c"/><g transform="translate(2.377 21.51)"><path d="M-1983.267,2822.884c.046-3.9,2.528-4.711,2.528-4.711l8.163,3.2s12.881,27.595,10.854,28.2l-13.961-.015c-4.186.092-3.1-6.557-4.72-10.083l.076,10.175h-1.822l-.849-14.172a8.931,8.931,0,0,1-.272-1.239C-1983.471,2832.571-1983.328,2828.1-1983.267,2822.884Z" transform="translate(1983.374 -2814.857)" fill="#f13b0f"/><path d="M-1983.267,2822.884c.046-3.9,2.528-4.711,2.528-4.711l8.163,3.2s12.881,27.595,10.854,28.2l-13.961-.015c-4.186.092-3.1-6.557-4.72-10.083l.076,10.175h-1.822l-.849-14.172a8.931,8.931,0,0,1-.272-1.239C-1983.471,2832.571-1983.328,2828.1-1983.267,2822.884Z" transform="translate(1983.374 -2814.857)" opacity="0.8"/><path d="M-1968.969,2808.413c.713,2,3.766,9.715,4.551,12.167.609,1.9,1.984,6.162,2.883,8.945a2.072,2.072,0,0,1-1.9,2.707l-8.611.182-4.536-21.541c-.078-.636-.125-3.913,1.247-4.729S-1969.682,2806.416-1968.969,2808.413Z" transform="translate(1978.436 -2805.87)" fill="#f0b59c"/></g></g><g transform="translate(0 247.143)"><path d="M-2269.451,2664.975l7.331,6.208c-6.833,7.254-13.592,14.535-15.79,16.816l-5.657-4.375A90.459,90.459,0,0,0-2269.451,2664.975Z" transform="translate(2305.857 -2664.975)" fill="#f0b59c"/><g transform="translate(0 13.304)"><path d="M-2343.007,2723.6s-16.17,11.417-18.738,13.375-4.6,6.106-4.529,7.713l10.614,8.988c2.138.95,18.234-23.846,18.234-23.846Z" transform="translate(2366.275 -2721.106)" fill="#f13b0f"/><path d="M-2343.007,2723.6s-16.17,11.417-18.738,13.375-4.6,6.106-4.529,7.713l10.614,8.988c2.138.95,18.234-23.846,18.234-23.846Z" transform="translate(2366.275 -2721.106)" opacity="0.8"/><path d="M-2312.177,2719.852c-1.392,1.644-6.543,8.188-8.321,10.147-2.135,2.354-8.359,9.253-8.359,9.253s-6.579-4.824-6.715-6.213c-.387-3.945,4.32-7.537,4.32-7.537l10.882-9.114c.558-.428,3.7-2.4,5.537-2S-2310.785,2718.208-2312.177,2719.852Z" transform="translate(2343.864 -2714.339)" fill="#f0b59c"/></g></g><path d="M-2041.852,2202.744s11,30.753,10.9,36.338,0,45.75,0,45.75-15.946,13.241-22.158,4c-3.346-4.979-3.387-47.033-3.387-47.033l-5.448-8.116-2.488-31.749Z" transform="translate(2147.18 -2079.578)" fill="#f13b0f"/><path d="M-2041.852,2202.744s11,30.753,10.9,36.338,0,45.75,0,45.75-15.946,13.241-22.158,4c-3.346-4.979-3.387-47.033-3.387-47.033l-5.448-8.116-2.488-31.749Z" transform="translate(2147.18 -2079.578)" opacity="0.7"/><path d="M-1998.861,2556.2s-15.015,4.814-16.151,0-3.492-50.114-4.856-60.038-3.71-22.605-2.908-27.147,22.49-3.522,23.014,2.675,2.5,16.984,2.419,23S-1998.861,2556.2-1998.861,2556.2Z" transform="translate(2115.467 -2272.628)" fill="#f13b0f"/><path d="M-1998.861,2556.2s-15.015,4.814-16.151,0-3.492-50.114-4.856-60.038-3.71-22.605-2.908-27.147,22.49-3.522,23.014,2.675,2.5,16.984,2.419,23S-1998.861,2556.2-1998.861,2556.2Z" transform="translate(2115.467 -2272.628)" opacity="0.7"/><path d="M-2148.774,2188.051s-12.815,26.638-12.135,32.224,6.693,54.476,6.693,54.476,17.334,13.241,22.576,4c2.824-4.979,2.344-53.3,2.344-53.3h3.392v-33.088Z" transform="translate(2216.274 -2069.438)" fill="#f13b0f"/><path d="M-2148.774,2188.051s-12.815,26.638-12.135,32.224,6.693,54.476,6.693,54.476,17.334,13.241,22.576,4c2.824-4.979,2.344-53.3,2.344-53.3h3.392v-33.088Z" transform="translate(2216.274 -2069.438)" opacity="0.7"/><path d="M-2283.911,2530.607s8.958,13.437,12.325,10.438,29.383-33.966,35.578-40.78,14.4-15.211,15.13-22.928c.617-6.556-14.835-16.156-18.453-11.688s-10.726,11.559-13.792,16.276S-2283.911,2530.607-2283.911,2530.607Z" transform="translate(2306.108 -2271.387)" fill="#f13b0f"/><path d="M-2283.911,2530.607s8.958,13.437,12.325,10.438,29.383-33.966,35.578-40.78,14.4-15.211,15.13-22.928c.617-6.556-14.835-16.156-18.453-11.688s-10.726,11.559-13.792,16.276S-2283.911,2530.607-2283.911,2530.607Z" transform="translate(2306.108 -2271.387)" opacity="0.7"/><g transform="translate(151.521 74.64)"><path d="M-1804.037,2033.414c.17,1.086,7.921,5.259,12.365,6.031s36.8-.557,36.8-.557,7.03-2.582,5.3-5.527-40.118-8.822-46.059-8.46C-1799.751,2025.152-1804.207,2032.328-1804.037,2033.414Z" transform="translate(1804.042 -2024.885)" fill="#f8a588"/></g></g><g transform="translate(-2563.656 1332.23)"><g transform="translate(90.307 70.565)"><g transform="translate(0.525 103.84)"><rect width="86.393" height="7.049" transform="translate(90.938 7.049) rotate(180)" fill="#00001d"/><g transform="translate(0 5.628)"><path d="M-1598.825,2552.435h11.957l12.927,102.845h-2.262Z" transform="translate(1667.74 -2552.435)" fill="#f13b0f"/><path d="M-1598.825,2552.435h11.957l12.927,102.845h-2.262Z" transform="translate(1667.74 -2552.435)" opacity="0.8"/><path d="M-1829.657,2552.435h-11.957l-12.927,102.845h2.262Z" transform="translate(1854.541 -2552.435)" fill="#f13b0f"/><path d="M-1829.657,2552.435h-11.957l-12.927,102.845h2.262Z" transform="translate(1854.541 -2552.435)" opacity="0.8"/></g></g><rect width="94.849" height="7.093" rx="3.547" transform="translate(94.849 107.712) rotate(180)" fill="#f13b0f"/><rect width="94.849" height="7.093" rx="3.547" transform="translate(94.849 107.712) rotate(180)" opacity="0.8"/><rect width="79.034" height="100.045" rx="10.47" transform="translate(86.942 100.045) rotate(180)" fill="#f13b0f"/><rect width="79.034" height="100.045" rx="10.47" transform="translate(86.942 100.045) rotate(180)" opacity="0.8"/><rect width="93.763" height="73.402" rx="34.857" transform="translate(84.126 3.141) rotate(90)" fill="#000047"/><path d="M-1855.636,2515.547h93.139a.954.954,0,0,0,.855-1.025v-1.345c0-.564-5.669-2.37-6.086-2.37H-1850.4c-.417,0-6.086,1.806-6.086,2.37v1.345A.954.954,0,0,0-1855.636,2515.547Z" transform="translate(1856.491 -2412.559)" fill="#f13b0f"/><path d="M-1855.636,2515.547h93.139a.954.954,0,0,0,.855-1.025v-1.345c0-.564-5.669-2.37-6.086-2.37H-1850.4c-.417,0-6.086,1.806-6.086,2.37v1.345A.954.954,0,0,0-1855.636,2515.547Z" transform="translate(1856.491 -2412.559)" opacity="0.5"/><path d="M-1855.636,2510.556h93.139a.954.954,0,0,0,.855-1.025h0c0-.563-5.669-3.715-6.086-3.715H-1850.4c-.417,0-6.086,3.151-6.086,3.715h0A.954.954,0,0,0-1855.636,2510.556Z" transform="translate(1856.491 -2408.912)" fill="#f13b0f"/><path d="M-1855.636,2510.556h93.139a.954.954,0,0,0,.855-1.025h0c0-.563-5.669-3.715-6.086-3.715H-1850.4c-.417,0-6.086,3.151-6.086,3.715h0A.954.954,0,0,0-1855.636,2510.556Z" transform="translate(1856.491 -2408.912)" opacity="0.8"/></g><g transform="translate(79.636 0)"><g transform="translate(26.145 7.213)"><path d="M-1784.247,1912.839c-6.683,16.8-10.048,36.358-14.828,55.566a141.925,141.925,0,0,0,41.838,11.486c4.039-16.97,7.911-36.239,10.334-53.493,0,0-2.921-12.365-14.1-14.477S-1784.247,1912.839-1784.247,1912.839Z" transform="translate(1799.075 -1911.172)" fill="#080843"/></g><path d="M-1569.978,2202.356c1.235-1.693,1.687-5.812,1.3-8.7S-1584.157,2158-1584.157,2158s-14,5.859-13.964,12.043c0,0,15.279,30.363,16.358,31.406C-1575.205,2207.783-1571.284,2204.146-1569.978,2202.356Z" transform="translate(1678.423 -2084.266)" fill="#f0b297"/><path d="M-1620.8,2081.963c3.383.6,6.524,2.691,7.363,4.435s14.39,26.408,19.21,36.551c-5.537,6.011-12.03,9.063-18.776,11.255,0,0-6.059-18.57-9.8-27.073l-7.072-25.83A84.462,84.462,0,0,1-1620.8,2081.963Z" transform="translate(1701.612 -2028.239)" fill="#f13b0f"/><path d="M-1620.8,2081.963c3.383.6,6.524,2.691,7.363,4.435s14.39,26.408,19.21,36.551c-5.537,6.011-12.03,9.063-18.776,11.255,0,0-6.059-18.57-9.8-27.073l-7.072-25.83A84.462,84.462,0,0,1-1620.8,2081.963Z" transform="translate(1701.612 -2028.239)" opacity="0.6"/><g transform="translate(28.952 148.577)"><path d="M-1786.988,2451.49c-.634-8.877-1.7-15.444,6.977-15.742,5.865-.2,9.432.425,10.776,5.865,0,0,.818,28.295,1.7,43.863.792,14.063,3.067,37.962,5.162,56.854l-7.4,2.22c-1.4-5.853-12.805-46.922-15.617-57.425C-1792.03,2462.343-1786.394,2459.795-1786.988,2451.49Z" transform="translate(1788.658 -2435.717)" fill="#f8a588"/><g transform="translate(8.336 99.863)"><path d="M-1736.631,2823.756c-.327-4.008-2.936-4.842-2.936-4.842l-8.16,3.291s-11.871,27.946-9.743,28.572l14.96.4c4.308.094,2.717-6.74,4.128-10.363l.652,10.457h1.873l-.144-14.565a8.949,8.949,0,0,0,.191-1.273C-1735.725,2833.713-1736.193,2829.112-1736.631,2823.756Z" transform="translate(1757.725 -2815.506)" fill="#05053b"/><path d="M-1733.649,2808.883c-.589,2.053-3.173,9.985-3.8,12.5-.513,2.048-1.705,6.762-2.423,9.6a1.9,1.9,0,0,0,1.776,2.362l7.363.257,5.09-22.193c.034-.654-.153-4.021-1.621-4.861S-1733.059,2806.831-1733.649,2808.883Z" transform="translate(1744.73 -2806.269)" fill="#f8a588"/></g><g transform="translate(28.413 4.937)"><path d="M-1683.23,2462.776c0-2.636.491-8.429,9.219-8.727,5.9-.2,8.26,2.105,8.654,7.545,0,0,2.386,10.435,5.623,24.738,3.012,13.306-11.2,41.912-8.683,68.688l-7.342-.327c-.375-5.853-1.586-34.247-2.564-44.749C-1680.63,2485.163-1683.23,2462.776-1683.23,2462.776Z" transform="translate(1683.23 -2454.037)" fill="#f8a588"/><g transform="translate(5.148 92.054)"><path d="M-1653.339,2818.044s5.1,19.694,5.813,22.937-.45,7.619-1.571,8.835-11.987.9-14.295.222,1.537-30.814,1.537-30.814Z" transform="translate(1664.129 -2811.998)" fill="#05053b"/><path d="M-1656.652,2798.432c0,2.214-.305,10.768-.213,13.486.111,3.264.411,12.81.411,12.81s8.365.586,9.394-.413c2.923-2.837,1.617-8.781,1.617-8.781l-2.482-14.376c-.153-.706-1.307-4.337-3.017-5.243S-1656.652,2796.218-1656.652,2798.432Z" transform="translate(1658.835 -2795.612)" fill="#f8a588"/></g></g></g><path d="M-1893.021,2234.4c-1.681-1.252-4.078-7.3-2.614-13.338.687-2.835,10.987-34.945,10.987-34.945s14.437,4.673,14.918,10.838c0,0-11.629,33.2-12.933,33.947S-1890.921,2235.963-1893.021,2234.4Z" transform="translate(1896.089 -2104.805)" fill="#f8a588"/><path d="M-1856.59,2083.9c-2.748.686-7.342,2.981-8.033,4.79s-11.052,28.591-15.01,39.1c4.184,4.39,11.655,6.953,18.56,8.576,5.326-7.609,7.292-20.3,10.307-29.085l2.481-24.361A43.346,43.346,0,0,0-1856.59,2083.9Z" transform="translate(1884.068 -2029.424)" fill="#f13b0f"/><path d="M-1856.59,2083.9c-2.748.686-7.342,2.981-8.033,4.79s-11.052,28.591-15.01,39.1c4.184,4.39,11.655,6.953,18.56,8.576,5.326-7.609,7.292-20.3,10.307-29.085l2.481-24.361A43.346,43.346,0,0,0-1856.59,2083.9Z" transform="translate(1884.068 -2029.424)" opacity="0.6"/><path d="M-1818.527,2436.6s-8.961-24.453-9.83-37.226,11.875-17.51,11.875-17.51l6.041-13.069,36.728-.283s19.227,17.24,22.061,22.294c2.432,4.337,3.171,19.368-7.851,17.9l1.05,27.9Z" transform="translate(1846.642 -2238.044)" fill="#f13b0f"/><path d="M-1818.527,2436.6s-8.961-24.453-9.83-37.226,11.875-17.51,11.875-17.51l6.041-13.069,36.728-.283s19.227,17.24,22.061,22.294c2.432,4.337,3.171,19.368-7.851,17.9l1.05,27.9Z" transform="translate(1846.642 -2238.044)" opacity="0.6"/><g transform="translate(25.408 53.332)"><path d="M-1744.165,2109.01c-2.236-2.342-8.015-26.71-8.015-26.71h-19.2l-20.287.426s-4.694,23.942-6.93,26.284c-8,8.375,1.1,18.788,4.154,23.565,4.211,13.782,3.078,17.787,3.157,30.528a139.259,139.259,0,0,0,19.906,1.953,139.259,139.259,0,0,0,19.906-1.953c.079-12.742-1.054-16.746,3.157-30.528C-1745.267,2127.8-1736.168,2117.385-1744.165,2109.01Z" transform="translate(1801.808 -2082.3)" fill="#f13b0f"/><path d="M-1744.165,2109.01c-2.236-2.342-8.015-26.71-8.015-26.71h-19.2l-20.287.426s-4.694,23.942-6.93,26.284c-8,8.375,1.1,18.788,4.154,23.565,4.211,13.782,3.078,17.787,3.157,30.528a139.259,139.259,0,0,0,19.906,1.953,139.259,139.259,0,0,0,19.906-1.953c.079-12.742-1.054-16.746,3.157-30.528C-1745.267,2127.8-1736.168,2117.385-1744.165,2109.01Z" transform="translate(1801.808 -2082.3)" opacity="0.6"/></g><g transform="translate(40.84 36.762)"><g transform="translate(2.644)"><rect width="22.648" height="26.939" transform="translate(0)" fill="#f8a588"/><path d="M-1712.088,2020.818v8.284c-5.632,4.558-13.245,7.636-22.648,8.285v-16.569Z" transform="translate(1734.736 -2020.818)" fill="#1a1a1a"/></g><path d="M-1741.411,2090.386s-3.1,4.365-3.137,6.939c-.027,1.857,11.231,20.16,13.442,20.16s16.67-19.759,16.984-20.944a4.529,4.529,0,0,0-1.885-4.514,13.314,13.314,0,0,0-4.758-1.976Z" transform="translate(1744.548 -2071.393)" fill="#f8a588"/></g><g transform="translate(37.323)"><g transform="translate(0 4.952)"><g transform="translate(0 19.357)"><path d="M-1657.366,2012.99a3.832,3.832,0,0,0,2.687.313,8.853,8.853,0,0,0,2.5-1.071c2.075-1.2,4.137-2.839,4.585-5.146a2.929,2.929,0,0,0-.382-2.276,2.8,2.8,0,0,0-2.582-1,4.672,4.672,0,0,0-2.519,1.27Z" transform="translate(1684.378 -1995.925)" fill="#f8a588"/><path d="M-1751.515,1986.465a3.833,3.833,0,0,1-2.52-.982,8.867,8.867,0,0,1-1.708-2.119c-1.272-2.029-2.323-4.447-1.638-6.695a2.928,2.928,0,0,1,1.4-1.831,2.8,2.8,0,0,1,2.749.328,4.672,4.672,0,0,1,1.63,2.3Z" transform="translate(1757.598 -1974.61)" fill="#f8a588"/></g><path d="M-1720.587,1939.715c2.362-6.66,5.209-10.177,7.339-13.835,1.555-2.75,3.641-7.591,1.164-12.933-2.392-5.5-10.63-10.344-19.32-10.16-8.749.173-16.54,4.617-16.848,10.092-.278,3.255,1.214,6.719.957,10.084-.215,2.8-1.738,5.277-1.353,8.151.81,4.981,6.3,14.73,12.175,16.192C-1731.674,1948.5-1721.785,1942.578-1720.587,1939.715Z" transform="translate(1751.106 -1902.782)" fill="#f8a588"/></g><path d="M-1668.489,1985.015a7.088,7.088,0,0,1,2.293.466,7.054,7.054,0,0,1,2.019,1.18,5.346,5.346,0,0,1,1.435,1.815c-.679-.38-1.3-.745-1.939-1.065a20.189,20.189,0,0,0-1.927-.858,19.783,19.783,0,0,0-2.008-.647C-1669.306,1985.717-1669.268,1984.995-1668.489,1985.015Z" transform="translate(1692.954 -1957.901)" fill="#1a1a1a"/><path d="M-1721.381,1973.681a7.107,7.107,0,0,0-2.256-.618,7.042,7.042,0,0,0-2.333.143,5.322,5.322,0,0,0-2.1.973c.777-.033,1.5-.079,2.21-.076a20.322,20.322,0,0,1,2.106.1,19.726,19.726,0,0,1,2.084.328C-1720.967,1974.677-1720.676,1974.015-1721.381,1973.681Z" transform="translate(1736.026 -1949.142)" fill="#1a1a1a"/><path d="M-1689.255,2009.892a2.668,2.668,0,0,1-.273.352.778.778,0,0,1-.349.259c-.136.035-.306-.056-.4-.3a.911.911,0,0,1-.042-.427,1.188,1.188,0,0,1,.181-.482,1.166,1.166,0,0,1,.37-.354.879.879,0,0,1,.405-.124c.253-.008.4.116.422.257a.79.79,0,0,1-.1.425A2.656,2.656,0,0,1-1689.255,2009.892Z" transform="translate(1708.454 -1975.291)" fill="#f2f2f2" style="mix-blend-mode:soft-light;isolation:isolate"/><path d="M-1695.2,2007.277c0-.1,0-.2.008-.277s.01-.153.017-.225a1.532,1.532,0,0,1,.05-.245c.025-.091.061-.188.1-.288a3.479,3.479,0,0,0,.2-.586.6.6,0,0,0-.058-.458.233.233,0,0,0-.307-.09,1.417,1.417,0,0,0-.463.355,2.3,2.3,0,0,0-.5.807,1.831,1.831,0,0,0-.1.557,2.42,2.42,0,0,0,.054.553,3.025,3.025,0,0,0,.15.5,3.555,3.555,0,0,0,.2.421,4.743,4.743,0,0,0,.4.613c.246.31.407.441.547.3s.17-.319.073-.631c-.046-.156-.126-.342-.209-.564a3.363,3.363,0,0,1-.114-.356A1.679,1.679,0,0,1-1695.2,2007.277Z" transform="translate(1712.79 -1972.563)" fill="#d1785e"/><g transform="translate(22.978 30.404)"><path d="M-1672.327,1999.138a3.2,3.2,0,0,1,3.163-1.872h0a1.758,1.758,0,0,1,1.266,2.132l-.208.811C-1668.343,2001.143-1672.576,2000.138-1672.327,1999.138Z" transform="translate(1672.337 -1997.223)" fill="#1a1a1a"/><path d="M-1662.089,1997.228a3.31,3.31,0,0,1,2.17,1.051,1.824,1.824,0,0,0,1.723.781,1.874,1.874,0,0,1-2.031-.143c-.94-.77-1.51-.678-1.51-.678Z" transform="translate(1664.851 -1997.227)" fill="#1a1a1a"/></g><g transform="translate(7.713 26.709)"><path d="M-1718.835,1986.97a3.2,3.2,0,0,0-1.917-3.136h0a1.758,1.758,0,0,0-2.118,1.289l-.2.814C-1723.294,1986.874-1719.084,1987.97-1718.835,1986.97Z" transform="translate(1724.666 -1983.711)" fill="#1a1a1a"/><path d="M-1724.681,1983.792a3.311,3.311,0,0,0-2.41-.089,1.823,1.823,0,0,1-1.888-.117,1.875,1.875,0,0,0,1.862.826,2.17,2.17,0,0,1,1.652.108Z" transform="translate(1728.979 -1983.513)" fill="#1a1a1a"/></g><path d="M-1710.051,2023.471a8.909,8.909,0,0,0,8.891.911c.442-.2.049-.845-.389-.647a8.172,8.172,0,0,1-8.131-.922.38.38,0,0,0-.514.144.386.386,0,0,0,.144.514Z" transform="translate(1723.006 -1985.474)" fill="#a33939"/><path d="M-1713.994,1907.4a2.2,2.2,0,0,0,.07-.772c-.328-.694-2.49,6.483-2.49,6.483-7.482-2.669-27.552-6.49-27.552-6.49l.917-7.333c-1.713,1.227-4.828,16.947-4.828,16.947-.631-5.835-.855-15.879.15-21.476a5.641,5.641,0,0,1,5.686-4.537c2.479-4.812,7.226-5.575,12.8-5.8a19.6,19.6,0,0,1,16.506,8.692c3.61,5.342,4.984,10.632,2.279,16.4-2.823,6.022-3.587,11.254-8.275,15.628C-1718.731,1925.14-1714.639,1910.939-1713.994,1907.4Z" transform="translate(1750.89 -1884.408)" fill="#080843"/></g><g transform="translate(24.866 52.061)"><path d="M-1796.721,2080.337s-2.1,24.707-3.649,26.27c-9.652,9.727,4,26.049,4,26.049,3.332,10.942-.415,26.656-2.3,33.569-.555,2.035,12.934,6.15,13.468,6.236.756-30.423,2.513-62.979,0-93.436Z" transform="translate(1803.822 -2078.636)" fill="#f13b0f"/><path d="M-1796.721,2080.337s-2.1,24.707-3.649,26.27c-9.652,9.727,4,26.049,4,26.049,3.332,10.942-.415,26.656-2.3,33.569-.555,2.035,12.934,6.15,13.468,6.236.756-30.423,2.513-62.979,0-93.436Z" transform="translate(1803.822 -2078.636)" fill="#fff" opacity="0.1"/><path d="M-1637.5,2105.557c-1.436-1.671-6.728-26.533-6.728-26.533l-11.035-1.437c-.609,30.081-4.125,63.3,1.283,93.27.924-.14,17.481-7.135,17.453-9.243,0,0-8.305-19.065-4.974-30.007C-1641.5,2131.606-1628.947,2115.512-1637.5,2105.557Z" transform="translate(1696.531 -2077.587)" fill="#f13b0f"/><path d="M-1637.5,2105.557c-1.436-1.671-6.728-26.533-6.728-26.533l-11.035-1.437c-.609,30.081-4.125,63.3,1.283,93.27.924-.14,17.481-7.135,17.453-9.243,0,0-8.305-19.065-4.974-30.007C-1641.5,2131.606-1628.947,2115.512-1637.5,2105.557Z" transform="translate(1696.531 -2077.587)" fill="#fff" opacity="0.1"/></g><g transform="translate(1.68 118.136)"><path d="M-1852.66,2340.379s-24.905-1.173-34.587-5.348c-3.765-1.624-3.031-7.6-.457-9.575a14.526,14.526,0,0,1,7.871-2.689c3.46-.147,25.86,10.137,28.12,11.169S-1847.175,2338.121-1852.66,2340.379Z" transform="translate(1889.854 -2322.765)" fill="#f8a588"/><g transform="translate(32.599 7.957)"><path d="M-1717.739,2358.778s3.144-.087,4.988,1.192,6.284,8.687,6.841,9.527c.626.944-1.722,1.337-2.517.786-1.6-1.107-5.364-7.751-6.418-8.279s-5.346-.568-5.346-.568Z" transform="translate(1733.316 -2357.029)" fill="#f8a588"/><path d="M-1727.611,2365.665s3.144-.087,4.988,1.193,5.622,7.843,6.425,9.03-1.855,1.318-2.714.644c-1.526-1.2-5.171-6.7-6.225-7.228a26.183,26.183,0,0,0-4.926-.98Z" transform="translate(1740.527 -2362.06)" fill="#f8a588"/><path d="M-1740.546,2375.253s3.038-.588,4.863.224,5.695,5.9,6.51,6.8-1.75,1.448-2.6,1c-1.515-.792-5.22-4.981-6.257-5.27a27.032,27.032,0,0,0-4.8-.05Z" transform="translate(1749.854 -2368.915)" fill="#f8a588"/><path d="M-1751.275,2379.628s2.888-.844,4.3.2c1.047.772,4.884,4.484,5.6,5.281a.905.905,0,0,1-.981,1.471c-1.34-.7-5.031-3.9-5.948-4.159a45.122,45.122,0,0,0-5-.394Z" transform="translate(1757.498 -2372.025)" fill="#f8a588"/><path d="M-1728.508,2353.274s2.571-1.134,3.927-.967c.948.117,2.545,2.014,2.545,2.014l-1.616.295Z" transform="translate(1739.392 -2352.29)" fill="#f8a588"/><path d="M-1752.81,2356l-7.012,8.342s-4.695,1.149-6.325-.7-3.239-2.474-2.6-3.582,7.462-4.8,10.307-5.3A9.17,9.17,0,0,1-1752.81,2356Z" transform="translate(1768.892 -2354.032)" fill="#f8a588"/></g></g><g transform="translate(63.221 108.781)"><g transform="translate(8.43)"><path d="M-1625.938,2312.84s23.632-7.95,31.8-14.617c3.177-2.593.833-8.135-2.183-9.334a14.527,14.527,0,0,0-8.306-.431c-3.368.806-22.094,16.833-23.986,18.444S-1631.832,2312.17-1625.938,2312.84Z" transform="translate(1630.218 -2288.053)" fill="#f8a588"/></g><g transform="translate(0 14.532)"><path d="M-1655.034,2354.308s-2.908,1.2-4.073,3.116-2.214,10.49-2.381,11.485c-.188,1.117,2.117.522,2.619-.3,1.008-1.659,1.752-9.261,2.5-10.173s4.654-2.691,4.654-2.691Z" transform="translate(1661.5 -2350.985)" fill="#f8a588"/><path d="M-1642.75,2356.59s-2.908,1.2-4.073,3.116-1.952,9.451-2.2,10.861,2.23.451,2.741-.514c.908-1.714,2-8.222,2.752-9.133a26.145,26.145,0,0,1,4.1-2.9Z" transform="translate(1652.401 -2352.652)" fill="#f8a588"/><path d="M-1629.865,2360.417s-3.015.7-4.352,2.181-2.806,7.707-3.184,8.861,2.188.612,2.786-.142c1.063-1.34,2.746-6.673,3.577-7.357a27.018,27.018,0,0,1,4.362-1.994Z" transform="translate(1643.924 -2355.448)" fill="#f8a588"/><path d="M-1615.617,2360.057s-2.982.4-3.849,1.928c-.643,1.131-2.641,6.081-2.976,7.1a.905.905,0,0,0,1.494.946c.94-1.185,3.01-5.612,3.745-6.217a45.205,45.205,0,0,1,4.406-2.39Z" transform="translate(1633.008 -2355.184)" fill="#f8a588"/><path d="M-1637.624,2344.637s-2.81.007-3.98.711c-.818.492-1.507,2.874-1.507,2.874l1.6-.387Z" transform="translate(1648.067 -2343.92)" fill="#f8a588"/><path d="M-1638.9,2345.7l9.8,4.774s4.757-.857,5.5-3.205,1.955-3.577.924-4.33-8.769-1.354-11.57-.654A9.167,9.167,0,0,0-1638.9,2345.7Z" transform="translate(1644.988 -2341.976)" fill="#f8a588"/></g></g><g transform="translate(45.003 88.799)"><path d="M-1631.944,2265.471h61.675a5.451,5.451,0,0,0,5.137-4.373l7.484-42.819a3.584,3.584,0,0,0-3.609-4.373h-61.674a5.45,5.45,0,0,0-5.137,4.373l-7.484,42.819A3.583,3.583,0,0,0-1631.944,2265.471Z" transform="translate(1660.812 -2213.906)" fill="#fff"/><path d="M-1627.691,2265.471h61.674a5.45,5.45,0,0,0,5.137-4.373l7.484-42.819a3.584,3.584,0,0,0-3.609-4.373h-61.674a5.45,5.45,0,0,0-5.137,4.373l-7.484,42.819A3.584,3.584,0,0,0-1627.691,2265.471Z" transform="translate(1657.705 -2213.906)" fill="#e6e6e6"/><path d="M-1727.881,2406.946h90.462a1.43,1.43,0,0,0,1.4-1.308h0a1.208,1.208,0,0,0-1.217-1.309H-1727.7a1.43,1.43,0,0,0-1.4,1.309h0A1.208,1.208,0,0,0-1727.881,2406.946Z" transform="translate(1729.101 -2353.01)" fill="#e6e6e6"/></g></g><g transform="translate(0 142.734)"><g transform="translate(18.897 4.386)"><path d="M-2116.048,2566.324l34.351-136.01h-20.142l-19.628,136Z" transform="translate(2121.468 -2430.314)" fill="#f13b0f"/><path d="M-2116.048,2566.324l34.351-136.01h-20.142l-19.628,136Z" transform="translate(2121.468 -2430.314)" opacity="0.8"/><path d="M-1375.915,2567.078l-19.74-136.764H-1415.8l34.539,136.736Z" transform="translate(1605.974 -2430.314)" fill="#f13b0f"/><path d="M-1375.915,2567.078l-19.74-136.764H-1415.8l34.539,136.736Z" transform="translate(1605.974 -2430.314)" opacity="0.8"/></g><rect width="254.484" height="4.435" transform="translate(6.628 2.875)" fill="#f13b0f"/><rect width="254.484" height="4.435" transform="translate(6.628 2.875)" opacity="0.7"/><rect width="267.741" height="4.768" rx="2.384" fill="#f13b0f"/><rect width="267.741" height="4.768" rx="2.384" opacity="0.5"/></g></g><g transform="translate(-2414.405 1377.424)"><path d="M-1622.043,2057.334c2.65,3.2,5.83,5.946,6.427,7.576a77.844,77.844,0,0,1,1.826,11.547c-.04,1.351-1.9-.7-2.162-2.186s-2.86-8.048-2.86-8.048-7.284-4.468-8.464-5.486l-3.884-.55s-3.937,4.118-4.849,4.935-2.754.345-1.106-2.162,4.206-8.178,5.414-9.355c1.379-1.344,2.7-2.08,4.95-.935S-1622.043,2057.334-1622.043,2057.334Z" transform="translate(1637.776 -2052.105)" fill="#f8a588"/><path d="M-1596.157,2061.807s5.982,4.473,7.245,5.75,4.348,7.19,4.783,7.759-.519,1.725-1.833-.2a39.9,39.9,0,0,0-4.724-5.27c-.394-.3-5.694-3.636-6.949-4.261S-1597.746,2060.607-1596.157,2061.807Z" transform="translate(1608.843 -2059.041)" fill="#f8a588"/></g><path d="M.9,1.017s9.2,2.28,18.7,3.53a88.342,88.342,0,0,0,17.694.479" transform="translate(-2543.42 1413.287)" fill="none" stroke="#ffbcbc" stroke-linecap="round" stroke-width="2"/></g></g></svg>