<svg xmlns="http://www.w3.org/2000/svg" width="749.384" height="259.999" viewBox="0 0 749.384 259.999"><path d="M570.048,259.771c-28.52-28.227-71.473-54.306-123.765-67.775-39.622-10.206-84.74-8.078-130.805-5.952-57.08,2.636-115.613,5.272-166.941-15.557C61.921,135.339,25.128,60.923,4.218,10.178A23.972,23.972,0,0,1,24-.229H535.007c75.276,16.8,105.709,84.973,119.475,114.341s49.56,37.935,65.163,38.241,33.957-5.813,33.957-5.813v16.826c-39.77,11.93-85.352-.306-102.178-6.119s-40.383-27.839-46.194-35.487-16.215-17.132-24.475-23.556S538.232,79.238,513.146,81.38s-36.71,14.99-41.606,24.168-4.894,20.191,1.224,30.9,24.475,17.132,31.2,20.8,41.116,10.552,84.8,38.779c19.71,12.736,36.139,38.883,48.233,63.743Z" transform="translate(-4.218 0.229)" fill="#f24a21"/></svg>