<svg xmlns="http://www.w3.org/2000/svg" xmlns:xlink="http://www.w3.org/1999/xlink" width="342.625" height="260" viewBox="0 0 342.625 260"><defs><clipPath id="a"><path d="M1922.458,3719.9l-14.595,8.988-.251-.187-.007-.032,14.839-9.036L1963,3694.941Z" transform="translate(-1907.605 -3694.941)" fill="none"/></clipPath></defs><g transform="translate(-1208.319 -3688.878)"><ellipse cx="171.312" cy="13.289" rx="171.312" ry="13.289" transform="translate(1208.318 3922.3)" fill="#f5f5f5"/><path d="M1489.86,4817.639a.578.578,0,0,0-.793-.2l-1.92,1.135-1.135-1.92a.579.579,0,0,0-1,.589l1.135,1.92-1.92,1.134a.579.579,0,0,0,.589,1l1.92-1.135,1.135,1.92a.579.579,0,0,0,.611.273.55.55,0,0,0,.182-.069.579.579,0,0,0,.2-.792l-1.135-1.92,1.92-1.135A.579.579,0,0,0,1489.86,4817.639Z" transform="translate(-245.011 -1002.252)" fill="#f9c1b4"/><path d="M1560.844,4901.938a2.521,2.521,0,1,1,2.521-2.521A2.524,2.524,0,0,1,1560.844,4901.938Zm0-3.694a1.173,1.173,0,1,0,1.174,1.173A1.175,1.175,0,0,0,1560.844,4898.244Z" transform="translate(-311.126 -1073.84)" fill="#f9c1b4"/><path d="M3172.964,4106.2a2.027,2.027,0,1,1,2.027-2.027A2.029,2.029,0,0,1,3172.964,4106.2Zm0-2.971a.944.944,0,1,0,.944.943A.944.944,0,0,0,3172.964,4103.229Z" transform="translate(-1744.608 -367.361)" fill="#f9c1b4"/><path d="M3661.574,4362.616a2.027,2.027,0,1,1,2.027-2.027A2.029,2.029,0,0,1,3661.574,4362.616Zm0-2.97a.944.944,0,1,0,.944.943A.944.944,0,0,0,3661.574,4359.646Z" transform="translate(-2178.943 -595.299)" fill="#f9c1b4"/><path d="M3979.782,4856.9a.465.465,0,0,0-.214.622l.785,1.613-1.612.786a.465.465,0,0,0,.408.836l1.612-.786.786,1.612a.465.465,0,1,0,.836-.407l-.786-1.613,1.612-.786a.465.465,0,1,0-.407-.836l-1.612.786-.786-1.613A.466.466,0,0,0,3979.782,4856.9Z" transform="translate(-2462.447 -1038.243)" fill="#f9c1b4"/><path d="M3710.3,5172.166a2.027,2.027,0,1,1,2.027-2.027A2.029,2.029,0,0,1,3710.3,5172.166Zm0-2.971a.944.944,0,1,0,.944.944A.945.945,0,0,0,3710.3,5169.2Z" transform="translate(-2222.258 -1314.93)" fill="#f9c1b4"/><path d="M1428.327,5482.609a.465.465,0,0,0-.021.657l1.227,1.309-1.308,1.228a.465.465,0,0,0,.3.8.458.458,0,0,0,.333-.125l1.308-1.228,1.227,1.309a.465.465,0,1,0,.679-.637l-1.227-1.309,1.308-1.228a.465.465,0,0,0,.107-.526.457.457,0,0,0-.086-.131.466.466,0,0,0-.658-.021l-1.308,1.228-1.227-1.308A.465.465,0,0,0,1428.327,5482.609Z" transform="translate(-195.348 -1594.383)" fill="#f9c1b4"/><path d="M1536.1,5578.562a2.027,2.027,0,1,1,2.027-2.026A2.029,2.029,0,0,1,1536.1,5578.562Zm0-2.971a.944.944,0,1,0,.944.944A.945.945,0,0,0,1536.1,5575.591Z" transform="translate(-289.571 -1676.189)" fill="#f9c1b4"/><g transform="translate(1217.5 3826.499)"><path d="M1343.21,5026.948a.413.413,0,0,1-.023-.825c1.36-.076,2.737-.212,4.093-.4a.413.413,0,0,1,.115.817c-1.378.194-2.778.333-4.162.411Zm-5.8-.018h-.026c-1.386-.086-2.785-.234-4.158-.438a.412.412,0,1,1,.121-.816c1.35.2,2.726.346,4.089.431a.413.413,0,0,1-.025.825Zm15.62-1.534a.413.413,0,0,1-.1-.812c1.322-.347,2.644-.754,3.929-1.21a.413.413,0,1,1,.276.778c-1.307.463-2.651.877-4,1.23A.409.409,0,0,1,1353.028,5025.4Zm-25.426-.1a.421.421,0,0,1-.109-.015c-1.339-.366-2.679-.793-3.984-1.271a.413.413,0,0,1,.284-.775c1.283.47,2.6.891,3.917,1.25a.413.413,0,0,1-.108.811Zm34.733-3.386a.413.413,0,0,1-.183-.783c1.224-.606,2.436-1.271,3.6-1.979a.413.413,0,0,1,.427.706c-1.187.719-2.42,1.4-3.664,2.013A.409.409,0,0,1,1362.335,5021.916Zm-44.007-.191a.411.411,0,0,1-.186-.044c-1.238-.628-2.465-1.316-3.647-2.046a.413.413,0,1,1,.433-.7c1.162.718,2.369,1.4,3.586,2.012a.412.412,0,0,1-.187.78Zm52.413-5.1a.412.412,0,0,1-.254-.737c1.075-.841,2.128-1.738,3.129-2.668a.413.413,0,0,1,.561.6c-1.018.945-2.089,1.858-3.182,2.713A.41.41,0,0,1,1370.741,5016.625Zm-60.779-.263a.411.411,0,0,1-.256-.089c-1.088-.864-2.152-1.784-3.163-2.735a.413.413,0,0,1,.565-.6c.994.936,2.041,1.84,3.111,2.689a.412.412,0,0,1-.257.735Zm67.946-6.618a.412.412,0,0,1-.314-.68c.885-1.041,1.736-2.131,2.53-3.242a.413.413,0,1,1,.671.48c-.807,1.129-1.673,2.238-2.573,3.3A.412.412,0,0,1,1377.908,5009.744Zm-75.067-.311a.413.413,0,0,1-.316-.147c-.893-1.065-1.751-2.181-2.549-3.315a.413.413,0,1,1,.675-.475c.785,1.116,1.628,2.212,2.506,3.26a.412.412,0,0,1-.316.677Zm80.711-7.869a.406.406,0,0,1-.2-.052.412.412,0,0,1-.163-.56c.659-1.2,1.274-2.435,1.83-3.683a.413.413,0,1,1,.754.336c-.565,1.268-1.191,2.528-1.861,3.745A.412.412,0,0,1,1383.552,5001.564Zm-86.289-.354a.413.413,0,0,1-.364-.217c-.658-1.223-1.272-2.488-1.824-3.763a.413.413,0,0,1,.757-.328c.543,1.253,1.146,2.5,1.794,3.7a.413.413,0,0,1-.363.608Zm90.181-8.792a.413.413,0,0,1-.394-.535c.4-1.3.759-2.642,1.051-3.975a.412.412,0,0,1,.806.177c-.3,1.356-.657,2.716-1.069,4.043A.413.413,0,0,1,1387.443,4992.417Zm-93.978-.391a.413.413,0,0,1-.4-.294c-.4-1.327-.743-2.69-1.029-4.052a.413.413,0,1,1,.807-.17c.281,1.339.622,2.68,1.012,3.985a.412.412,0,0,1-.4.531Zm95.943-9.354h-.041a.413.413,0,0,1-.371-.451c.132-1.358.207-2.739.223-4.1a.413.413,0,1,1,.825.01c-.016,1.389-.093,2.794-.227,4.175A.413.413,0,0,1,1389.408,4982.672Zm-97.824-.4a.413.413,0,0,1-.41-.375c-.125-1.385-.193-2.79-.2-4.177a.412.412,0,0,1,.41-.415h0a.413.413,0,0,1,.412.41c.008,1.364.074,2.746.2,4.108a.412.412,0,0,1-.374.448Zm97.773-9.533a.412.412,0,0,1-.41-.369c-.145-1.354-.349-2.723-.607-4.068l-.01-.052a.413.413,0,0,1,.81-.157l.01.053c.263,1.368.471,2.759.618,4.136a.413.413,0,0,1-.366.454Zm-97.659-.408-.047,0a.413.413,0,0,1-.363-.457c.157-1.38.375-2.77.649-4.131a.413.413,0,1,1,.809.163c-.269,1.339-.484,2.706-.638,4.062A.413.413,0,0,1,1291.7,4972.327Zm95.606-9.37a.413.413,0,0,1-.393-.288c-.414-1.3-.889-2.6-1.41-3.862a.413.413,0,0,1,.762-.316c.531,1.282,1.013,2.6,1.434,3.928a.413.413,0,0,1-.393.538Zm-93.482-.34a.414.414,0,0,1-.392-.542c.433-1.318.928-2.635,1.471-3.914a.413.413,0,0,1,.76.323c-.534,1.258-1.021,2.552-1.447,3.849A.414.414,0,0,1,1293.823,4962.617Zm89.526-8.775a.412.412,0,0,1-.36-.211c-.668-1.19-1.4-2.366-2.163-3.5a.413.413,0,0,1,.682-.464c.78,1.149,1.521,2.345,2.2,3.556a.412.412,0,0,1-.158.562A.408.408,0,0,1,1383.348,4953.842Zm-85.487-.306a.413.413,0,0,1-.358-.618c.689-1.205,1.438-2.4,2.226-3.54a.413.413,0,0,1,.679.468c-.775,1.125-1.512,2.3-2.189,3.481A.412.412,0,0,1,1297.861,4953.536Zm79.768-7.816a.411.411,0,0,1-.312-.142c-.9-1.03-1.846-2.035-2.825-2.988a.412.412,0,1,1,.575-.591c1,.968,1.963,1.99,2.873,3.038a.413.413,0,0,1-.311.684Zm-73.992-.271a.412.412,0,0,1-.31-.685c.917-1.043,1.889-2.061,2.89-3.022a.412.412,0,1,1,.572.594c-.984.946-1.94,1.946-2.842,2.972A.412.412,0,0,1,1303.637,4945.449Zm66.751-6.535a.412.412,0,0,1-.25-.085c-1.084-.83-2.217-1.625-3.367-2.361a.413.413,0,1,1,.445-.695c1.169.749,2.321,1.556,3.423,2.4a.413.413,0,0,1-.251.74Zm-59.473-.228a.413.413,0,0,1-.249-.742c1.108-.838,2.265-1.638,3.439-2.377a.412.412,0,1,1,.44.7c-1.155.728-2.292,1.514-3.382,2.338A.412.412,0,0,1,1310.915,4938.687Zm51.014-4.991a.409.409,0,0,1-.18-.042c-1.229-.6-2.5-1.148-3.771-1.639a.413.413,0,1,1,.3-.77c1.3.5,2.586,1.06,3.835,1.667a.413.413,0,0,1-.181.784Zm-42.519-.164a.413.413,0,0,1-.177-.785c1.254-.6,2.549-1.144,3.85-1.631a.413.413,0,0,1,.289.773c-1.279.479-2.553,1.019-3.786,1.6A.408.408,0,0,1,1319.411,4933.532Zm33.185-3.251a.409.409,0,0,1-.1-.013c-1.324-.336-2.677-.621-4.024-.844a.413.413,0,0,1,.135-.814c1.37.227,2.746.516,4.093.859a.413.413,0,0,1-.1.813Zm-23.823-.076a.413.413,0,0,1-.1-.813c.82-.2,1.658-.384,2.491-.544.532-.1,1.073-.2,1.608-.282a.413.413,0,1,1,.129.815c-.526.083-1.058.177-1.581.277-.82.158-1.644.337-2.451.535A.4.4,0,0,1,1328.773,4930.2Zm13.989-1.382h-.019c-.723-.032-1.456-.049-2.178-.049-.641,0-1.292.013-1.933.039a.412.412,0,1,1-.033-.824c.653-.026,1.314-.04,1.966-.04.735,0,1.48.017,2.215.05a.413.413,0,0,1-.018.825Z" transform="translate(-1290.973 -4927.948)" fill="#f9c1b4"/></g><g transform="translate(1358.418 3753.783)"><path d="M2645.894,4446.121l-.714,0a.413.413,0,0,1,0-.825h0c1.351.011,2.72-.01,4.073-.062a.413.413,0,0,1,.032.825C2648.165,4446.1,2647.021,4446.121,2645.894,4446.121Zm-6.432-.24h-.031c-1.361-.1-2.738-.238-4.091-.4a.413.413,0,1,1,.1-.819c1.341.165,2.7.3,4.052.4a.412.412,0,0,1-.031.824Zm15.529-.236a.412.412,0,0,1-.042-.823c1.347-.141,2.706-.316,4.039-.52a.412.412,0,1,1,.125.815c-1.346.206-2.718.382-4.077.525Zm-25.259-1.055a.429.429,0,0,1-.078-.007c-1.341-.257-2.693-.55-4.018-.871a.413.413,0,0,1,.194-.8c1.313.317,2.651.607,3.98.862a.413.413,0,0,1-.077.818Zm34.947-.518a.413.413,0,0,1-.089-.815c1.32-.292,2.65-.62,3.954-.975a.413.413,0,0,1,.217.8c-1.316.358-2.659.689-3.992.984A.4.4,0,0,1,2664.678,4444.072Zm-44.473-1.884a.406.406,0,0,1-.124-.019c-1.3-.409-2.615-.856-3.9-1.329a.413.413,0,0,1,.285-.774c1.272.468,2.571.911,3.862,1.316a.412.412,0,0,1-.124.806Zm53.919-.784a.412.412,0,0,1-.135-.8c1.278-.442,2.562-.92,3.816-1.422a.413.413,0,1,1,.307.766c-1.266.507-2.562.99-3.853,1.436A.418.418,0,0,1,2674.125,4441.4Zm-63.111-2.7a.418.418,0,0,1-.168-.036c-1.247-.556-2.5-1.151-3.719-1.766a.413.413,0,1,1,.372-.737c1.209.61,2.448,1.2,3.683,1.749a.413.413,0,0,1-.168.79Zm72.181-1.034a.412.412,0,0,1-.179-.784c1.215-.584,2.433-1.206,3.62-1.847a.412.412,0,0,1,.393.726c-1.2.648-2.428,1.275-3.655,1.865A.415.415,0,0,1,2683.195,4437.672Zm-80.91-3.474a.414.414,0,0,1-.209-.058c-1.176-.7-2.351-1.428-3.491-2.177a.413.413,0,0,1,.453-.689c1.13.742,2.293,1.468,3.458,2.156a.413.413,0,0,1-.21.768Zm89.488-1.27a.413.413,0,0,1-.22-.762c1.142-.72,2.281-1.477,3.388-2.25a.413.413,0,1,1,.473.677c-1.117.78-2.268,1.545-3.421,2.271A.412.412,0,0,1,2691.773,4432.928Zm-97.644-4.2a.409.409,0,0,1-.249-.083c-1.089-.824-2.172-1.685-3.22-2.558a.413.413,0,0,1,.529-.634c1.038.866,2.111,1.718,3.189,2.534a.412.412,0,0,1-.249.741Zm105.63-1.494a.413.413,0,0,1-.259-.734c1.053-.845,2.1-1.727,3.112-2.622a.413.413,0,0,1,.547.618c-1.022.9-2.079,1.794-3.142,2.647A.409.409,0,0,1,2699.758,4427.233Zm-113.11-4.864a.411.411,0,0,1-.285-.114c-.988-.941-1.966-1.918-2.908-2.9a.413.413,0,1,1,.6-.57c.933.977,1.9,1.945,2.88,2.877a.413.413,0,0,1-.284.711Zm120.4-1.7a.413.413,0,0,1-.293-.7c.951-.96,1.892-1.956,2.8-2.96a.413.413,0,1,1,.613.552c-.913,1.013-1.863,2.019-2.823,2.988A.411.411,0,0,1,2707.048,4420.665Zm-127.108-5.458a.411.411,0,0,1-.317-.148c-.874-1.046-1.735-2.128-2.558-3.214a.413.413,0,0,1,.658-.5c.815,1.076,1.668,2.147,2.534,3.185a.413.413,0,0,1-.317.677Zm133.609-1.9a.412.412,0,0,1-.324-.667c.837-1.063,1.659-2.16,2.444-3.26a.413.413,0,0,1,.672.479c-.792,1.11-1.622,2.217-2.467,3.291A.413.413,0,0,1,2713.549,4413.31Zm-139.459-5.978a.413.413,0,0,1-.345-.186c-.749-1.138-1.48-2.309-2.174-3.482a.413.413,0,1,1,.71-.42c.688,1.162,1.412,2.322,2.153,3.449a.412.412,0,0,1-.344.639Zm145.086-2.07a.409.409,0,0,1-.216-.062.413.413,0,0,1-.134-.568c.712-1.152,1.4-2.335,2.059-3.518a.413.413,0,1,1,.722.4c-.661,1.193-1.36,2.388-2.079,3.551A.413.413,0,0,1,2719.176,4405.262Zm-150-6.416a.413.413,0,0,1-.369-.227c-.613-1.215-1.206-2.462-1.76-3.706a.413.413,0,0,1,.754-.336c.549,1.232,1.136,2.467,1.743,3.67a.413.413,0,0,1-.368.6Zm154.675-2.223a.413.413,0,0,1-.373-.588c.576-1.226,1.129-2.481,1.645-3.731a.412.412,0,1,1,.762.314c-.521,1.262-1.079,2.53-1.661,3.768A.413.413,0,0,1,2723.854,4396.624Zm-158.583-6.771a.413.413,0,0,1-.387-.271c-.471-1.28-.917-2.59-1.326-3.892a.413.413,0,0,1,.787-.247c.405,1.289.847,2.586,1.313,3.854a.413.413,0,0,1-.387.555Zm162.244-2.349a.4.4,0,0,1-.132-.022.412.412,0,0,1-.26-.522c.432-1.285.838-2.6,1.207-3.9a.413.413,0,0,1,.794.225c-.373,1.314-.782,2.638-1.219,3.936A.413.413,0,0,1,2727.515,4387.5Zm-165.1-7.043a.413.413,0,0,1-.4-.315c-.321-1.325-.614-2.677-.871-4.018a.413.413,0,0,1,.81-.156c.255,1.328.545,2.667.863,3.979a.411.411,0,0,1-.4.509Zm167.687-2.434a.434.434,0,0,1-.086-.009.413.413,0,0,1-.318-.49c.281-1.321.533-2.668.75-4a.413.413,0,0,1,.814.132c-.219,1.347-.474,2.707-.757,4.041A.413.413,0,0,1,2730.1,4378.027Zm-169.447-7.222a.412.412,0,0,1-.409-.362c-.168-1.353-.306-2.729-.411-4.091a.413.413,0,1,1,.823-.063c.1,1.35.241,2.713.407,4.052a.413.413,0,0,1-.358.461Zm170.929-2.481-.039,0a.412.412,0,0,1-.372-.449c.127-1.345.223-2.711.286-4.062a.413.413,0,0,1,.824.039c-.063,1.364-.161,2.743-.289,4.1A.412.412,0,0,1,2731.586,4368.324ZM2560,4361.009a.413.413,0,0,1-.413-.408q-.005-.483-.005-.966c0-1.045.019-2.1.057-3.145a.412.412,0,1,1,.824.029c-.037,1.033-.056,2.081-.056,3.116q0,.478.005.957a.413.413,0,0,1-.408.417Zm171.953-2.494a.412.412,0,0,1-.412-.4c-.027-1.349-.086-2.718-.176-4.07l-.009-.131a.413.413,0,1,1,.823-.056l.009.133c.091,1.364.151,2.746.177,4.107a.413.413,0,0,1-.4.421Zm-171.5-7.311-.043,0a.412.412,0,0,1-.368-.453c.14-1.358.315-2.73.52-4.079a.413.413,0,0,1,.816.124c-.2,1.335-.376,2.695-.515,4.039A.413.413,0,0,1,2560.447,4351.2Zm170.742-2.609a.412.412,0,0,1-.408-.358c-.18-1.34-.395-2.693-.638-4.022a.413.413,0,0,1,.812-.148c.246,1.342.462,2.708.644,4.061a.412.412,0,0,1-.354.464A.426.426,0,0,1,2731.188,4348.595Zm-169.176-7.08a.4.4,0,0,1-.09-.01.412.412,0,0,1-.314-.492c.3-1.335.627-2.682.987-4a.413.413,0,0,1,.8.217c-.356,1.307-.685,2.641-.977,3.963A.413.413,0,0,1,2562.013,4341.515Zm167.318-2.558a.413.413,0,0,1-.4-.311c-.331-1.311-.7-2.63-1.092-3.923a.413.413,0,0,1,.789-.241c.4,1.306.769,2.638,1.1,3.961a.412.412,0,0,1-.3.5A.4.4,0,0,1,2729.33,4338.957Zm-164.644-6.905a.422.422,0,0,1-.135-.022.413.413,0,0,1-.255-.525c.447-1.292.931-2.589,1.439-3.859a.412.412,0,0,1,.766.307c-.5,1.257-.983,2.543-1.426,3.822A.413.413,0,0,1,2564.686,4332.052Zm161.7-2.457a.412.412,0,0,1-.385-.266c-.48-1.264-1-2.533-1.535-3.772a.412.412,0,0,1,.756-.329c.544,1.25,1.066,2.532,1.55,3.808a.413.413,0,0,1-.239.532A.418.418,0,0,1,2726.382,4329.6Zm-157.955-6.631a.408.408,0,0,1-.178-.041.412.412,0,0,1-.193-.55c.591-1.23,1.221-2.464,1.87-3.667a.413.413,0,1,1,.726.393c-.644,1.19-1.267,2.413-1.853,3.631A.412.412,0,0,1,2568.427,4322.964Zm153.955-2.324a.412.412,0,0,1-.367-.223c-.62-1.2-1.277-2.4-1.954-3.564a.413.413,0,0,1,.714-.414c.683,1.179,1.347,2.39,1.973,3.6a.413.413,0,0,1-.366.6Zm-149.2-6.273a.412.412,0,0,1-.349-.632c.727-1.155,1.492-2.308,2.274-3.428a.413.413,0,0,1,.677.472c-.774,1.109-1.532,2.252-2.253,3.4A.412.412,0,0,1,2573.179,4314.366Zm144.2-2.162a.412.412,0,0,1-.343-.182c-.754-1.121-1.545-2.238-2.35-3.321a.413.413,0,0,1,.662-.493c.813,1.093,1.611,2.221,2.372,3.353a.412.412,0,0,1-.342.643Zm-138.507-5.837a.412.412,0,0,1-.322-.67c.854-1.064,1.744-2.123,2.647-3.146a.413.413,0,0,1,.619.546c-.895,1.013-1.777,2.062-2.622,3.116A.411.411,0,0,1,2578.877,4306.368Zm132.577-1.977a.413.413,0,0,1-.314-.145c-.876-1.028-1.79-2.049-2.714-3.034a.413.413,0,0,1,.6-.564c.933,1,1.855,2.025,2.74,3.063a.413.413,0,0,1-.314.68Zm-126.012-5.321a.413.413,0,0,1-.291-.706c.969-.961,1.973-1.911,2.985-2.825a.413.413,0,0,1,.552.613c-1,.9-2,1.846-2.957,2.8A.412.412,0,0,1,2585.442,4299.07Zm119.231-1.773a.41.41,0,0,1-.281-.111c-.988-.922-2.011-1.833-3.042-2.708a.412.412,0,0,1,.534-.629c1.041.883,2.074,1.8,3.071,2.734a.412.412,0,0,1-.282.714Zm-111.883-4.732a.412.412,0,0,1-.256-.736c1.071-.845,2.176-1.675,3.285-2.466a.412.412,0,1,1,.479.671c-1.1.785-2.193,1.607-3.253,2.443A.412.412,0,0,1,2592.789,4292.565Zm104.339-1.55a.408.408,0,0,1-.245-.081c-1.086-.8-2.207-1.594-3.33-2.347a.413.413,0,1,1,.459-.686c1.134.76,2.265,1.557,3.362,2.37a.412.412,0,0,1-.246.744Zm-96.3-4.075a.413.413,0,0,1-.217-.764c1.159-.716,2.351-1.415,3.542-2.074a.413.413,0,1,1,.4.722c-1.18.654-2.36,1.345-3.508,2.055A.412.412,0,0,1,2600.825,4286.94Zm88.093-1.312a.414.414,0,0,1-.206-.055c-1.171-.677-2.375-1.334-3.577-1.954a.413.413,0,0,1,.378-.734c1.214.626,2.429,1.291,3.612,1.973a.413.413,0,0,1-.207.77Zm-79.473-3.356a.413.413,0,0,1-.176-.786c1.235-.58,2.5-1.138,3.763-1.658a.413.413,0,0,1,.314.763c-1.249.515-2.5,1.067-3.727,1.642A.406.406,0,0,1,2609.444,4282.271Zm70.7-1.063a.407.407,0,0,1-.164-.034c-1.242-.539-2.514-1.055-3.779-1.533a.413.413,0,1,1,.292-.772c1.278.483,2.562,1,3.816,1.548a.413.413,0,0,1-.165.791Zm-61.589-2.59a.413.413,0,0,1-.131-.8c1.293-.434,2.614-.843,3.928-1.215a.413.413,0,0,1,.225.794c-1.3.368-2.61.773-3.89,1.2A.4.4,0,0,1,2618.554,4278.618Zm52.363-.8a.425.425,0,0,1-.12-.018c-1.3-.393-2.62-.76-3.933-1.09a.413.413,0,0,1,.2-.8c1.326.333,2.662.7,3.971,1.1a.413.413,0,0,1-.12.808Zm-42.894-1.787a.413.413,0,0,1-.085-.816c1.333-.283,2.693-.538,4.041-.758a.413.413,0,0,1,.133.814c-1.335.218-2.682.47-4,.75A.4.4,0,0,1,2628.023,4276.034Zm33.344-.518a.383.383,0,0,1-.074-.007c-1.329-.241-2.683-.452-4.023-.629a.413.413,0,0,1,.108-.818c1.353.179,2.72.393,4.062.636a.412.412,0,0,1-.073.818Zm-23.643-.971a.413.413,0,0,1-.039-.823c.847-.081,1.708-.151,2.56-.208.512-.034,1.031-.064,1.542-.089a.413.413,0,0,1,.04.824c-.506.025-1.02.054-1.528.088-.844.057-1.7.125-2.535.206Zm13.9-.221h-.027c-1.347-.087-2.716-.143-4.069-.166a.413.413,0,0,1,.007-.825h.007c1.366.023,2.748.08,4.108.167a.413.413,0,0,1-.026.825Z" transform="translate(-2559.579 -4273.333)" fill="#f9c1b4"/></g><g transform="translate(1272.984 3745.621)"><g transform="translate(0 0)"><g transform="translate(14.196)"><path d="M1919.068,4200.82l-.81-.76q.145-.154.29-.307l.8.767Z" transform="translate(-1918.258 -4199.753)" fill="#ffcec2"/></g><g transform="translate(0 0.926)"><path d="M1830.169,4294.22c-.44-.073-.886-.153-1.324-.24l.215-1.09c.427.084.861.163,1.29.234Zm-2.639-.521c-.433-.1-.872-.208-1.3-.321l.282-1.075c.422.111.849.216,1.271.313Zm-2.6-.682c-.429-.127-.861-.262-1.283-.4l.347-1.055c.411.135.832.267,1.251.39Zm-2.553-.84c-.42-.152-.843-.313-1.257-.478l.411-1.032c.4.161.816.318,1.225.466Zm-2.5-.994c-.41-.178-.823-.364-1.226-.553l.472-1.006c.394.185.8.367,1.2.54Zm-2.435-1.143c-.4-.2-.8-.413-1.191-.625l.531-.976c.382.208.773.414,1.162.611Zm-2.363-1.287c-.385-.224-.773-.458-1.153-.695l.588-.942c.371.23.749.459,1.125.678Zm-2.285-1.423c-.371-.247-.745-.5-1.11-.761l.641-.907c.357.252.722.5,1.084.743Zm-2.2-1.554c-.357-.268-.715-.545-1.065-.824l.692-.869c.341.272.691.542,1.04.8Zm-2.107-1.677c-.341-.288-.684-.584-1.017-.882l.74-.829c.326.291.66.581.993.862Zm-2.009-1.793c-.324-.306-.649-.622-.966-.938l.785-.786c.31.309.627.617.944.917Zm-1.906-1.9c-.307-.323-.614-.656-.913-.99l.827-.741c.293.326.593.651.892.967Zm-1.8-2c-.289-.34-.577-.689-.858-1.038l.866-.7c.274.341.556.683.839,1.015Zm-1.687-2.1c-.271-.356-.54-.721-.8-1.083l.9-.648c.255.354.518.711.783,1.06Zm-1.572-2.187c-.251-.37-.5-.748-.742-1.125l.935-.6c.236.369.48.739.726,1.1Zm-1.454-2.269c-.231-.382-.46-.773-.681-1.163l.965-.549c.217.381.441.764.667,1.137Zm-1.332-2.342c-.21-.392-.418-.795-.62-1.2l.993-.5c.2.393.4.787.606,1.17Zm-1.207-2.4c-.189-.4-.376-.815-.556-1.223l1.017-.446c.175.4.358.8.543,1.2Zm-1.079-2.46c-.168-.412-.334-.833-.492-1.25l1.039-.394c.155.409.317.82.482,1.224Zm-.952-2.512c-.147-.421-.291-.849-.428-1.273l1.057-.34c.133.415.274.834.419,1.246Zm-.823-2.556c-.1-.342-.2-.689-.293-1.032q-.036-.13-.071-.261l1.073-.287q.034.128.069.256c.091.335.188.675.287,1.01Zm-.694-2.594c-.1-.434-.2-.874-.3-1.309l1.086-.233c.092.426.19.858.292,1.282Zm-.564-2.625c-.083-.438-.161-.883-.233-1.323l1.1-.179c.071.431.147.867.229,1.3Zm-.433-2.65c-.061-.441-.118-.89-.168-1.333l1.1-.125c.049.435.1.873.164,1.305Zm-.3-2.668c-.039-.442-.074-.893-.1-1.339l1.109-.071c.028.437.062.878.1,1.312Zm-.172-2.679c-.018-.443-.03-.895-.037-1.342l1.111-.017c.007.438.019.88.036,1.314Zm1.07-2.675-1.111-.01c0-.446.014-.9.029-1.342l1.11.037C1791.587,4242.8,1791.578,4243.239,1791.574,4243.676Zm.088-2.629-1.109-.064c.026-.445.057-.9.093-1.338l1.107.09C1791.717,4240.17,1791.687,4240.611,1791.661,4241.047Zm.215-2.621-1.1-.118c.047-.441.1-.89.158-1.333l1.1.144C1791.974,4237.554,1791.922,4237.993,1791.876,4238.426Zm.341-2.608-1.1-.17c.068-.44.143-.885.222-1.324l1.093.2C1792.358,4234.951,1792.285,4235.387,1792.218,4235.818Zm.467-2.588-1.088-.224c.09-.436.186-.876.286-1.311l1.082.25C1792.867,4232.371,1792.772,4232.8,1792.685,4233.23Zm.592-2.562-1.076-.276c.111-.431.228-.867.35-1.3l1.069.3C1793.5,4229.818,1793.385,4230.245,1793.277,4230.667Zm.716-2.531-1.061-.328c.132-.426.271-.856.413-1.277l1.053.354C1794.258,4227.3,1794.122,4227.72,1793.993,4228.137Zm.839-2.492-1.044-.38c.152-.418.312-.84.475-1.256l1.034.407C1795.139,4224.821,1794.982,4225.235,1794.833,4225.645Zm.962-2.448-1.023-.432c.173-.411.354-.825.537-1.23l1.012.457C1796.141,4222.389,1795.964,4222.794,1795.794,4223.2Zm1.082-2.4-1-.482c.194-.4.4-.807.6-1.2l.988.508C1797.264,4220.01,1797.067,4220.406,1796.877,4220.8Zm1.2-2.339-.975-.533c.214-.392.436-.785.659-1.17l.961.557C1798.5,4217.693,1798.288,4218.078,1798.078,4218.461Zm1.319-2.274-.946-.582c.234-.38.476-.762.719-1.135l.931.606C1799.863,4215.441,1799.627,4215.815,1799.4,4216.188Zm1.435-2.2-.915-.63c.253-.367.515-.736.777-1.1l.9.654C1801.336,4213.264,1801.081,4213.625,1800.833,4213.984Zm1.548-2.125-.88-.678c.272-.354.553-.708.834-1.054l.862.7C1802.922,4211.167,1802.648,4211.513,1802.382,4211.86Zm1.659-2.04-.843-.724c.292-.34.591-.679.89-1.008l.823.746C1804.618,4209.156,1804.326,4209.488,1804.041,4209.82Z" transform="translate(-1790.463 -4208.088)" fill="#ffcec2"/></g><g transform="translate(40.279 86.051)"><path d="M2153.492,4975.577l-.419-.062.167-1.1.407.06Z" transform="translate(-2153.073 -4974.417)" fill="#ffcec2"/></g></g></g><g transform="translate(1261.242 3735.573)"><g transform="translate(4.466 7.239)"><rect width="0.778" height="2.47" fill="#f13b0f"/></g><g transform="translate(1.147 6.266)"><g transform="translate(0 0)"><rect width="2.47" height="0.778" transform="matrix(0.707, -0.707, 0.707, 0.707, 0, 1.746)" fill="#f13b0f"/></g></g><g transform="translate(0 4.466)"><rect width="2.47" height="0.778" fill="#f13b0f"/></g><g transform="translate(1.147 1.147)"><rect width="0.778" height="2.47" transform="translate(0 0.55) rotate(-45)" fill="#f13b0f"/></g><g transform="translate(4.466 0)"><rect width="0.778" height="2.47" fill="#f13b0f"/></g><g transform="translate(6.266 1.147)"><g transform="translate(0 0)"><rect width="2.47" height="0.778" transform="matrix(0.707, -0.707, 0.707, 0.707, 0, 1.746)" fill="#f13b0f"/></g></g><g transform="translate(7.239 4.466)"><rect width="2.47" height="0.778" fill="#f13b0f"/></g><g transform="translate(6.266 6.266)"><rect width="0.778" height="2.47" transform="translate(0 0.55) rotate(-45)" fill="#f13b0f"/></g></g><g transform="translate(1384.496 3729.93)"><g transform="translate(4.466 7.239)"><rect width="0.778" height="2.47" fill="#f13b0f"/></g><g transform="translate(1.147 6.266)"><g transform="translate(0 0)"><rect width="2.47" height="0.778" transform="matrix(0.707, -0.707, 0.707, 0.707, 0, 1.747)" fill="#f13b0f"/></g></g><g transform="translate(0 4.466)"><rect width="2.47" height="0.778" fill="#f13b0f"/></g><g transform="translate(1.147 1.147)"><rect width="0.778" height="2.47" transform="translate(0 0.55) rotate(-45)" fill="#f13b0f"/></g><g transform="translate(4.466 0)"><rect width="0.778" height="2.47" fill="#f13b0f"/></g><g transform="translate(6.266 1.147)"><g transform="translate(0 0)"><rect width="2.47" height="0.778" transform="matrix(0.707, -0.707, 0.707, 0.707, 0, 1.746)" fill="#f13b0f"/></g></g><g transform="translate(7.239 4.466)"><rect width="2.47" height="0.778" fill="#f13b0f"/></g><g transform="translate(6.266 6.266)"><g transform="translate(0)"><rect width="0.778" height="2.47" transform="translate(0 0.55) rotate(-45)" fill="#f13b0f"/></g></g></g><g transform="translate(1327.601 3745.5)"><g transform="translate(9.867 12.953)"><g transform="translate(0 0)"><rect width="0.778" height="4.623" transform="translate(0 0.248) rotate(-18.614)" fill="#f13b0f"/></g></g><g transform="translate(4.379 12.67)"><g transform="translate(0 0)"><rect width="4.624" height="0.778" transform="translate(0 4.142) rotate(-63.61)" fill="#f13b0f"/></g></g><g transform="translate(0 9.867)"><g transform="translate(0 0)"><rect width="4.624" height="0.778" transform="matrix(0.948, -0.319, 0.319, 0.948, 0, 1.476)" fill="#f13b0f"/></g></g><g transform="translate(0.426 4.379)"><g transform="translate(0 0)"><rect width="0.778" height="4.623" transform="matrix(0.444, -0.896, 0.896, 0.444, 0, 0.697)" fill="#f13b0f"/></g></g><g transform="translate(5.504 0)"><g transform="translate(0)"><rect width="0.778" height="4.624" transform="translate(0 0.248) rotate(-18.615)" fill="#f13b0f"/></g></g><g transform="translate(10.453 0.426)"><g transform="translate(0 0)"><rect width="4.624" height="0.778" transform="translate(0 4.142) rotate(-63.61)" fill="#f13b0f"/></g></g><g transform="translate(12.953 5.504)"><g transform="translate(0 0)"><rect width="4.624" height="0.778" transform="matrix(0.948, -0.319, 0.319, 0.948, 0, 1.476)" fill="#f13b0f"/></g></g><g transform="translate(12.67 10.453)"><g transform="translate(0 0)"><rect width="0.778" height="4.623" transform="matrix(0.444, -0.896, 0.896, 0.444, 0, 0.697)" fill="#f13b0f"/></g></g></g><g transform="translate(1503.184 3836.755)"><g transform="translate(2.172 1.71)"><g transform="translate(0 0)"><rect width="0.778" height="3.671" transform="translate(0 0.524) rotate(-42.376)" fill="#f13b0f"/></g></g><g transform="translate(7.309 0)"><g transform="translate(0)"><rect width="3.671" height="0.778" transform="matrix(0.046, -0.999, 0.999, 0.046, 0, 3.668)" fill="#f13b0f"/></g></g><g transform="translate(10.096 2.171)"><g transform="translate(0 0)"><rect width="3.671" height="0.778" transform="matrix(0.739, -0.674, 0.674, 0.739, 0, 2.475)" fill="#f13b0f"/></g></g><g transform="translate(11.339 7.309)"><g transform="translate(0 0)"><rect width="0.778" height="3.671" transform="translate(0 0.777) rotate(-87.375)" fill="#f13b0f"/></g></g><g transform="translate(9.823 10.096)"><g transform="translate(0 0)"><rect width="0.778" height="3.671" transform="translate(0 0.524) rotate(-42.374)" fill="#f13b0f"/></g></g><g transform="translate(6.789 11.339)"><g transform="translate(0 0)"><rect width="3.671" height="0.778" transform="matrix(0.046, -0.999, 0.999, 0.046, 0, 3.668)" fill="#f13b0f"/></g></g><g transform="translate(1.71 9.822)"><g transform="translate(0 0)"><rect width="3.671" height="0.778" transform="matrix(0.739, -0.674, 0.674, 0.739, 0, 2.475)" fill="#f13b0f"/></g></g><g transform="translate(0 6.789)"><g transform="translate(0 0)"><rect width="0.778" height="3.671" transform="translate(0 0.777) rotate(-87.375)" fill="#f13b0f"/></g></g></g><g transform="translate(1271.397 3688.878)"><g transform="translate(0)"><path d="M1847.263,3688.878l-.112.069-.982.605,0,0-40.537,24.961-14.594,8.987-.251-.188-14.6-10.907,31.177-10.32,39.875-13.2Z" transform="translate(-1776.178 -3688.878)" fill="#ffcec2"/><g transform="translate(19.98)"><path d="M2007.155,3688.878l-28.237,50.061-1.126,2-16.7-11-.038-.025-4.717-3.105-.109-.072-.172-.114,10.173-7.514,40.71-30.065,0,0,.051-.038.079-.059Z" transform="translate(-1956.05 -3688.878)" fill="#ffcec2"/></g><g transform="translate(14.606)"><path d="M1923.088,3719.032l-10.045,7.589,0,.034-1.174,15.85.005-.01-.006.08-3.473-15.769-.724-3.492.251.188,14.595-8.988,40.54-24.964h0l1.09-.672Z" transform="translate(-1907.668 -3688.878)" fill="#f3ab9a"/></g><g transform="translate(14.599 0.673)" style="mix-blend-mode:multiply;isolation:isolate"><g clip-path="url(#a)"><path d="M1907.6,3694.941v0Z" transform="translate(-1907.605 -3694.941)" fill="#ffb29f"/><rect width="3.462" height="33.951" fill="#ffb29f"/><rect width="3.462" height="33.951" transform="translate(3.462)" fill="#ffb29f"/><rect width="3.462" height="33.951" transform="translate(6.924)" fill="#ffb29f"/><rect width="3.462" height="33.951" transform="translate(10.386)" fill="#ffb29f"/><rect width="3.462" height="33.951" transform="translate(13.848)" fill="#ffb29f"/><rect width="3.462" height="33.951" transform="translate(17.31)" fill="#ffb29f"/><rect width="3.462" height="33.951" transform="translate(20.772)" fill="#ffb29f"/><rect width="3.462" height="33.951" transform="translate(24.234)" fill="#ffb29f"/><rect width="3.462" height="33.951" transform="translate(27.696)" fill="#ffb29f"/><rect width="3.462" height="33.951" transform="translate(31.158)" fill="#ffb29f"/><rect width="3.462" height="33.951" transform="translate(34.62)" fill="#ffb29f"/><rect width="3.462" height="33.951" transform="translate(38.082)" fill="#ffb29f"/><rect width="3.462" height="33.951" transform="translate(41.544)" fill="#ffb29f"/><rect width="3.462" height="33.951" transform="translate(45.006)" fill="#ffb29f"/><rect width="3.462" height="33.951" transform="translate(48.468)" fill="#ffb29f"/><rect width="3.462" height="33.951" transform="translate(51.93)" fill="#ffb29f"/><path d="M2406.271,3728.892v0Z" transform="translate(-2350.878 -3694.941)" fill="#ffb29f"/></g></g><g transform="translate(18.804 37.723)"><path d="M1952.354,4032.29l-6.89,12.084-.005.01,1.174-15.85,0-.053.11.073,4.735,3.157.039.025Z" transform="translate(-1945.459 -4028.48)" fill="#f13b0f"/></g></g></g><g transform="translate(1342.132 3728.259)"><circle cx="2.379" cy="2.379" r="2.379" transform="translate(0 4.697) rotate(-80.783)" fill="#f13b0f"/></g><g transform="translate(1409.69 3718.745)"><path d="M3025.908,3960.126a2.379,2.379,0,1,1-2.379-2.379A2.379,2.379,0,0,1,3025.908,3960.126Z" transform="translate(-3021.15 -3957.747)" fill="#f13b0f"/></g><g transform="translate(1436.889 3782.85)"><circle cx="2.379" cy="2.379" r="2.379" transform="translate(0 3.365) rotate(-45)" fill="#f13b0f"/></g><g transform="translate(1450.883 3754.555)"><path d="M3458.55,4280.178h-54.759a11.809,11.809,0,0,0-11.809,11.809v24.47a11.808,11.808,0,0,0,11.809,11.808H3416.9l-2.574,2.572a.905.905,0,0,0,.961,1.486l10.688-4.059h32.57a11.808,11.808,0,0,0,11.809-11.808v-24.47A11.809,11.809,0,0,0,3458.55,4280.178Z" transform="translate(-3391.983 -4280.178)" fill="#ffcec2"/><g transform="translate(11.693 14.3)"><path d="M1.755,0H54.8a1.755,1.755,0,0,1,1.755,1.755v0A1.755,1.755,0,0,1,54.8,3.51H1.755A1.755,1.755,0,0,1,0,1.755v0A1.755,1.755,0,0,1,1.755,0Z" fill="#f3ab9a"/><path d="M1.755,0H54.8a1.755,1.755,0,0,1,1.755,1.755v0A1.755,1.755,0,0,1,54.8,3.51H1.755A1.755,1.755,0,0,1,0,1.755v0A1.755,1.755,0,0,1,1.755,0Z" transform="translate(0 7.67)" fill="#f3ab9a"/><path d="M1.755,0H54.8a1.755,1.755,0,0,1,1.755,1.755v0A1.755,1.755,0,0,1,54.8,3.51H1.755A1.755,1.755,0,0,1,0,1.755v0A1.755,1.755,0,0,1,1.755,0Z" transform="translate(0 15.47)" fill="#f3ab9a"/></g><g transform="translate(11.693 14.95)"><path d="M1.755,0H54.8a1.755,1.755,0,0,1,1.755,1.755v0A1.755,1.755,0,0,1,54.8,3.51H1.755A1.755,1.755,0,0,1,0,1.755v0A1.755,1.755,0,0,1,1.755,0Z" fill="#fff"/><rect width="56.551" height="3.51" rx="1.755" transform="translate(0 7.67)" fill="#fff"/><path d="M1.755,0H54.8a1.755,1.755,0,0,1,1.755,1.755v0A1.755,1.755,0,0,1,54.8,3.51H1.755A1.755,1.755,0,0,1,0,1.755v0A1.755,1.755,0,0,1,1.755,0Z" transform="translate(0 15.47)" fill="#fff"/></g></g><g transform="translate(1283.111 3830.015)"><rect width="173.879" height="100.755" transform="translate(0 0)" fill="#f13b0f"/></g><g transform="translate(1283.111 3762.536)"><path d="M1973.411,4353.741l82.1,65.788H1881.628l82.1-65.788A7.745,7.745,0,0,1,1973.411,4353.741Z" transform="translate(-1881.628 -4352.04)" fill="#be2500"/></g><g transform="translate(1318.489 3771.688)"><g transform="translate(0 0)"><g transform="translate(-2200.119 -4434.459)" fill="#fff"><path d="M 2306.659423828125 4554.66015625 L 2201.119384765625 4554.66015625 L 2201.119384765625 4435.45947265625 L 2294.2880859375 4435.45947265625 L 2306.659423828125 4447.25146484375 L 2306.659423828125 4554.66015625 Z" stroke="none"/><path d="M 2202.119384765625 4436.45947265625 L 2202.119384765625 4553.66015625 L 2305.659423828125 4553.66015625 L 2305.659423828125 4447.6796875 L 2293.8876953125 4436.45947265625 L 2202.119384765625 4436.45947265625 M 2200.119384765625 4434.45947265625 L 2294.688232421875 4434.45947265625 L 2307.659423828125 4446.8232421875 L 2307.659423828125 4555.66015625 L 2200.119384765625 4555.66015625 L 2200.119384765625 4434.45947265625 Z" stroke="none" fill="#fcdcd4"/></g></g><g transform="translate(94.569 0)"><path d="M3051.468,4446.823v-12.364l12.971,12.364Z" transform="translate(-3051.468 -4434.459)" fill="#fcdcd4"/></g></g><rect width="76.651" height="8.646" rx="4.323" transform="translate(1329.933 3858.859)" fill="#fbc5b7"/><rect width="47.651" height="8.646" rx="4.323" transform="translate(1329.933 3841.86)" fill="#fbc5b7"/><g transform="translate(1283.111 3863.799)"><path d="M1963.748,5265.426l-82.12,65.289h173.879l-82.12-65.289A7.746,7.746,0,0,0,1963.748,5265.426Z" transform="translate(-1881.628 -5263.744)" fill="#ff603a"/></g><g transform="translate(1283.111 3830.015)" style="mix-blend-mode:multiply;isolation:isolate"><g transform="translate(0 0)"><path d="M1881.628,4959.606l64.443,49.5-64.443,51.259Z" transform="translate(-1881.628 -4959.606)" fill="#f13b0f"/></g></g><g transform="translate(1283.111 3830.015)"><path d="M1881.628,4959.606l61.87,51.566-61.87,49.189Z" transform="translate(-1881.628 -4959.606)" fill="#f13b0f"/></g><g transform="translate(1392.685 3830.015)" style="mix-blend-mode:multiply;isolation:isolate"><g transform="translate(0 0)"><path d="M2932.507,4959.606l-64.443,49.5,64.443,51.259Z" transform="translate(-2868.063 -4959.606)" fill="#f13b0f"/></g></g><g transform="translate(1395.12 3830.015)"><path d="M2951.852,4959.606l-61.87,51.566,61.87,49.189Z" transform="translate(-2889.982 -4959.606)" fill="#f13b0f"/></g><path d="M2423.629,4546.228v-2.835q.058-.51.116-1.02a24.274,24.274,0,0,1,19.916-21.386c.911-.161,1.833-.253,2.75-.376h2.836c.81.1,1.624.175,2.428.31a24.261,24.261,0,0,1,20.219,26.325,23.09,23.09,0,0,1-5.908,13.524,23.7,23.7,0,0,1-17.14,8.21,23.009,23.009,0,0,1-13.347-3.373,23.845,23.845,0,0,1-11.492-16.63C2423.836,4548.067,2423.752,4547.144,2423.629,4546.228Zm20.564,2.541c-1.151-1.153-2.17-2.182-3.2-3.2-.838-.832-1.639-1.709-2.54-2.467a3.123,3.123,0,0,0-3.583-.405,3.393,3.393,0,0,0-.831,5.583q3.755,3.794,7.557,7.542a3.939,3.939,0,0,0,1.37.883,3.3,3.3,0,0,0,3.669-.9q7.486-7.48,14.966-14.967a5.422,5.422,0,0,0,.4-.462,3.418,3.418,0,0,0-5.3-4.312q-6.116,6.111-12.223,12.23A2.512,2.512,0,0,0,2444.193,4548.769Z" transform="translate(-1075.562 -735.111)" fill="#f13b0f"/><g transform="translate(1435.064 3833.028)"><g transform="translate(0 0)"><g transform="translate(19.408)"><path d="M3430.833,4989.947c8.776-8.936,15.305,2.415,14.394,13.809s-11.223,52.006-8.067,65.825a23.024,23.024,0,0,1,.455,2.5h-1.881q-.238-.367-.494-.8C3425.315,5054.326,3418.751,5002.248,3430.833,4989.947Z" transform="translate(-3424.297 -4986.733)" fill="#60c759" fill-rule="evenodd"/><path d="M3491.722,5111.053c-11.152-31.68.752-79.937.79-80.093a.5.5,0,0,1,.98.238c-.038.155-11.971,48.517-.712,79.855Z" transform="translate(-3479.994 -5025.705)" fill="#fff" fill-rule="evenodd"/></g><g transform="translate(29.674 21.674)"><path d="M3534.633,5183.085c9.249-4.9,11.581,5.792,7.975,14.637-3.366,8.255-19.684,34.716-22.639,47.8h-2.939C3515.023,5227.51,3522.73,5189.391,3534.633,5183.085Z" transform="translate(-3516.713 -5181.852)" fill="#7ee177" fill-rule="evenodd"/><path d="M3528.713,5278.88c1.22-27.241,20.771-59.194,20.837-59.3a.421.421,0,1,1,.72.437c-.065.108-19.512,31.893-20.722,58.866Z" transform="translate(-3527.38 -5215.206)" fill="#fff" fill-rule="evenodd"/></g><g transform="translate(0 34.396)"><path d="M3258.083,5297.252c-8.964-3.915-10.385,6.211-6.4,14.2,3.077,6.173,15.3,23.35,21.507,35.882h5.467C3277.068,5329.23,3268.221,5301.68,3258.083,5297.252Z" transform="translate(-3249.576 -5296.383)" fill="#7ee177" fill-rule="evenodd"/><path d="M3309.127,5378.758c-5.366-23.281-22.29-46.771-22.353-46.86a.394.394,0,1,0-.641.458c.063.088,16.835,23.371,22.2,46.4Z" transform="translate(-3282.007 -5327.806)" fill="#fff" fill-rule="evenodd"/></g></g><g transform="translate(5.457 74.857)"><path d="M3316.809,5671.828l8.267,31.7h25.173l7.609-31.7Z" transform="translate(-3314.797 -5670.584)" fill="#7e4233"/><path d="M3342.241,5663.118h-42.292a1.244,1.244,0,1,1,0-2.488h42.292a1.244,1.244,0,1,1,0,2.488Z" transform="translate(-3298.704 -5660.63)" fill="#6e2c1c"/></g></g><path d="M1570.664,5652.351s4.359-12.107,16.95-7.265c0,0,2.438-19.121,19.6-21.647s24.466,13.9,24.466,13.9,4.843-6.3,12.592-3.875,7.688,7.9,7.688,7.9,3.506-4.824,11.891-2.416,7.057,9.044,7.057,9.044,17.435-5.812,21.309,4.359Z" transform="translate(-322.096 -1719.449)" fill="#7ee177"/><path d="M2232.085,5611.325s-4.2-11.654-16.316-6.992c0,0,2.8-34.964-20.512-36.363s-21.91,28.9-21.91,28.9-4.662-6.061-12.121-3.729-6.527,11.654-6.527,11.654-8.712-10.243-16.782-7.925-2.331,10.256-2.331,10.256-16.782-5.594-20.512,4.2Z" transform="translate(-806.031 -1670.336)" fill="#60c759"/></g></svg>