<svg xmlns="http://www.w3.org/2000/svg" width="862" height="352.735" viewBox="0 0 862 352.735"><path d="M254.476,0a310.726,310.726,0,0,0-51.2,4.2A292.078,292.078,0,0,0,157.565,15.7a289.035,289.035,0,0,0-74.84,38.456A294.9,294.9,0,0,0,53.64,77.866a285.335,285.335,0,0,0-23.5,24.531,250.819,250.819,0,0,0-17.888,23.734A183.449,183.449,0,0,0,0,147.446V352.735H862c-258.2,0-326.925-112.932-356.273-161.156-1.71-2.809-3.324-5.463-4.822-7.839-1.87-2.968-3.923-6.323-6.3-10.207-15.831-25.873-42.328-69.176-81.671-106.111A292.757,292.757,0,0,0,381,41.305,242.352,242.352,0,0,0,344.067,19.86a214.051,214.051,0,0,0-42.11-14.52A211.919,211.919,0,0,0,254.476,0Zm31.537,298.768a113.88,113.88,0,0,1-28.463-3.748,123.061,123.061,0,0,1-25.094-9.477,108.3,108.3,0,0,1-18.5-12.109A130.379,130.379,0,0,1,181.97,235.4a118.855,118.855,0,0,1-10.244-24.55,106.773,106.773,0,0,1-1.809-52.869,58.628,58.628,0,0,1,10.965-23.051A84.207,84.207,0,0,1,199.5,117.288a100.561,100.561,0,0,1,21.5-11.512,67.516,67.516,0,0,1,19.616-4.672c2.494-.148,4.819-.22,7.107-.22,18.809,0,32.569,5,54.526,15.515,18.968,9.08,31.705,22.213,44.994,39.139,10.954,13.953,18.2,35.962,19.4,58.876.848,16.317-1.56,30.97-6.606,40.2C340.082,291.11,308.77,298.769,286.013,298.768Z" fill="#f24a22"/></svg>