<svg xmlns="http://www.w3.org/2000/svg" width="844.896" height="511.117" viewBox="0 0 844.896 511.117"><path d="M3971.093,2101.09c-21.878-80.8-60.53-213.3-161.17-273.633s-226.8,2.155-323.068-34.473-163.357-131.43-174.3-202.531c-1.458-1.078-57.612,0-57.612,0s29.9,150.821,77.3,196.068,84.712,56.273,92.015,62.157,27.219,16.182,33.858,33.344,6.639,34.815,1.328,49.526-17.925,35.3-45.144,38.737-64.4-16.671-73.359-26.969-20.249-25.5-26.556-37.757-31.866-47.563-50.123-56.88-94.918,1.455-138.071,20.578h0s47.119-13.223,64.048-12.732,55.767,14.22,70.7,61.293,47.963,156.341,129.641,183.273Z" transform="translate(-3126.198 -1589.973)" fill="#f24a22"/></svg>