<svg xmlns="http://www.w3.org/2000/svg" width="45" height="45" viewBox="0 0 45 45"><rect width="45" height="45" rx="12" fill="#f0512a"/><path d="M4.376,16.625C1.96,16.621,0,14.932,0,12.845V3.776a3.331,3.331,0,0,1,.041-.347L7.4,9.792a4.883,4.883,0,0,0,6.188,0l7.365-6.362c.012.12.041.23.045.347v9.069c0,2.087-1.96,3.776-4.375,3.78Zm4.269-7.9L.652,1.821A4.542,4.542,0,0,1,4.376,0H16.62a4.542,4.542,0,0,1,3.723,1.821l-7.988,6.9a2.929,2.929,0,0,1-3.711,0Z" transform="translate(12 14.188)" fill="#fff"/></svg>