<svg xmlns="http://www.w3.org/2000/svg" width="45" height="45" viewBox="0 0 45 45"><rect width="45" height="45" rx="12" fill="#f0512a"/><path d="M21.007,9.7a.881.881,0,0,1-.88-.88,7.062,7.062,0,0,0-7.055-7.055.882.882,0,0,1,0-1.765,8.827,8.827,0,0,1,8.816,8.816A.885.885,0,0,1,21.007,9.7Zm-2.645-.884a5.29,5.29,0,0,0-5.29-5.29.88.88,0,1,0,0,1.761A3.526,3.526,0,0,1,16.6,8.812a.882.882,0,0,0,1.765,0Zm1.922,10.726.8-.926a2.737,2.737,0,0,0,0-3.86c-.029-.029-2.149-1.657-2.149-1.657a2.732,2.732,0,0,0-3.774,0L13.481,14.52A11.277,11.277,0,0,1,7.368,8.4L8.777,6.725a2.732,2.732,0,0,0,0-3.774S7.149.831,7.12.806A2.72,2.72,0,0,0,3.3.765l-1,.876C-3.693,8.593,9.207,21.393,16.386,21.162A5.41,5.41,0,0,0,20.284,19.542Z" transform="translate(11.178 11.917)" fill="#fff"/></svg>