<svg xmlns="http://www.w3.org/2000/svg" width="45" height="45" viewBox="0 0 45 45"><g transform="translate(0 -6)"><rect width="45" height="45" rx="12" transform="translate(0 6)" fill="#f0512a"/><path d="M51.1.9a8.007,8.007,0,0,0-8,8c0,2.059,1.6,5.282,4.741,9.58a4.036,4.036,0,0,0,5.639.879,3.982,3.982,0,0,0,.879-.879C57.5,14.18,59.1,10.957,59.1,8.9A8.013,8.013,0,0,0,51.1.9Zm0,11.188a3.206,3.206,0,1,1,3.2-3.208A3.2,3.2,0,0,1,51.1,12.088Z" transform="translate(-28.6 17.983)" fill="#fff"/></g></svg>