<svg xmlns="http://www.w3.org/2000/svg" width="18.969" height="19" viewBox="0 0 18.969 19"><path d="M18.936,8.708a.791.791,0,0,1-.79-.79,6.34,6.34,0,0,0-6.334-6.334.792.792,0,0,1,0-1.584,7.924,7.924,0,0,1,7.914,7.914A.794.794,0,0,1,18.936,8.708Zm-2.375-.794a4.749,4.749,0,0,0-4.749-4.749.79.79,0,1,0,0,1.581,3.165,3.165,0,0,1,3.165,3.165.792.792,0,0,0,1.584,0Zm1.725,9.629.72-.831a2.457,2.457,0,0,0,0-3.466c-.026-.026-1.929-1.488-1.929-1.488a2.452,2.452,0,0,0-3.388,0l-1.51,1.273a10.124,10.124,0,0,1-5.488-5.5l1.265-1.5a2.452,2.452,0,0,0,0-3.388S6.495.746,6.469.724A2.441,2.441,0,0,0,3.044.686l-.9.787C-3.238,7.714,8.343,19.205,14.788,19A4.857,4.857,0,0,0,18.287,17.543Z" transform="translate(-0.757)" fill="#f0512a"/></svg>