<?xml version="1.0" encoding="UTF-8"?>
<svg id="Layer_2" data-name="Layer 2" xmlns="http://www.w3.org/2000/svg" viewBox="0 0 4966.41 1000.24">
  <defs>
    <style>
      .cls-1 {
        fill: #fff;
      }

      .cls-2 {
        fill: #f0512a;
      }
    </style>
  </defs>
  <g id="Layer_1-2" data-name="Layer 1">
    <g>
      <path class="cls-2" d="M428.86,24.06c35.11-27.56,86.52-31.94,125.71-10.56-.08,85.2-.08,170.4,0,255.6-124.05,.2-248.11,.06-372.17,.07,74.16-74.37,148.52-148.55,222.76-222.84,7.72-7.61,15.05-15.67,23.7-22.27Z"/>
      <path class="cls-2" d="M659.49,111.07c102.28,101.94,204.23,204.21,306.4,306.25,21.43,21.44,34.57,51.42,34.13,81.87,.78,26.56-8.63,53.12-25.21,73.8-12.66,14.99-27.44,28.02-41,42.17-91.45,0-182.89,.13-274.34-.06,.09-168.01,.05-336.02,.02-504.03Z"/>
      <path class="cls-2" d="M87.23,364.22c66.93-.06,133.86-.02,200.78-.02,0,157.53,.03,315.07,0,472.61-84.71-84.49-169.2-169.2-253.85-253.75C12.49,561.4-.76,530.97,.03,500.19c-.78-30.31,12.06-60.28,33.12-81.87,18.03-18.03,36.09-36.04,54.08-54.1Z"/>
      <path class="cls-2" d="M393.03,364.2c53.84,.04,107.69-.13,161.54,.08-.09,115.3-.05,230.61-.02,345.91,94.69,.02,189.39-.03,284.09,.02-85.33,85.54-170.86,170.88-256.26,256.35-21.4,21.12-51.15,34.1-81.36,33.63-30.16,.97-60.12-11.41-81.84-32.15-8.76-8.65-17.39-17.41-26.13-26.06-.06-192.6-.02-385.19-.02-577.78Z"/>
    </g>
    <g>
      <path class="cls-1" d="M1250.06,220.22c161.31-.05,322.61-.05,483.92,0,0,40.72,.02,81.45-.01,122.18-56.32,.09-112.64,.02-168.96,.04-.32,148.42,.06,296.86-.19,445.29-49.1-.1-98.19,0-147.29-.05-.03-145.17,0-290.33-.01-435.49-.05-3.28,.21-6.58-.26-9.84-55.73,.18-111.46,.09-167.19,.05-.04-40.73-.01-81.46-.01-122.18Z"/>
      <path class="cls-1" d="M1915.92,220.18c50.4,.02,100.8,.02,151.21,0,79.01,189.13,157.89,378.32,236.72,567.53-51.91-.06-103.82,.02-155.72-.04-1.06,0-1.68-.53-1.86-1.57-12.75-32.96-25.27-66.01-38.12-98.92-81.3,.09-162.6-.13-243.89,.11-13.12,33.49-26.13,67.04-39.5,100.44-50.27-.08-100.55-.04-150.82-.02,.44-2.23,1.29-4.34,2.27-6.38,79.96-187.03,159.67-374.16,239.71-561.15Zm69.85,155.71c-25.46,66.04-51.73,131.79-76.87,197.92,51.95-.02,103.89,.04,155.84-.03-25.69-67.26-51.4-134.51-77.07-201.77-.75,1.23-1.43,2.52-1.9,3.88Z"/>
      <path class="cls-1" d="M2354.68,220.2c83.78-.02,167.57-.01,251.35-.01,37.49,.34,75.41,5.55,110.36,19.62,29.28,11.74,56.11,30.45,75.39,55.6,29.98,38.47,39.86,88.91,37.59,136.75-1.47,36.68-9.92,73.73-28.93,105.44-14.48,24.38-35.18,44.92-59.45,59.53-31.35,19.02-67.63,28.54-103.91,31.97-20.95,2.11-42.03,1.5-63.05,1.59-23.96-.04-47.92,.08-71.88-.06-.4,52.37,.13,104.75-.26,157.12-49.09-.27-98.21,.25-147.28-.26,.11-189.1-.05-378.19,.07-567.29Zm147.39,118.19c-.1,58.01-.04,116.01-.03,174.02,25.32,.08,50.65,0,75.98,.03,14.02-.08,28.16,.56,42.03-1.99,17.92-3.02,35.67-10.54,48.2-24.04,12.8-13.47,19.14-31.91,20.73-50.17,1.62-18.98-.18-38.87-8.98-56.03-6.5-12.86-17.21-23.41-29.95-30.05-16.54-8.74-35.51-11.64-54.03-11.73-31.32-.06-62.63,.01-93.95-.04Z"/>
      <path class="cls-1" d="M2933.03,221.2c21.44-.02,42.88-.02,64.33,0,.11,168.86-.02,337.72,.06,506.57,82.31-.01,164.62,.06,246.93-.03,.46,19.96,.09,39.96,.18,59.94-103.79,.06-207.59-.07-311.38,.07-.29-188.84-.06-377.7-.12-566.55Z"/>
      <path class="cls-1" d="M3526.18,221.24c22.27-.1,44.54-.05,66.81-.03,84.04,188.82,168.12,377.62,251.95,566.52-22.94-.1-45.88,0-68.82-.05-1.02-.04-1.64-.57-1.87-1.58-21.07-47.79-41.8-95.73-63.06-143.43-102.12,.03-204.24,.05-306.35-.02-21.34,48.22-41.84,96.82-63.1,145.08-22.75-.23-45.51,.26-68.23-.25,84.18-188.76,168.43-377.5,252.67-566.24Zm31.23,70.77c-42,96.95-84.13,193.83-126.15,290.77,84.63,.09,169.25-.01,253.88,.05-.71-3.27-2.35-6.19-3.62-9.23-40.1-91.23-80.19-182.46-120.29-273.69-1.21-2.67-2.18-5.47-3.82-7.9Z"/>
      <path class="cls-1" d="M3933.46,221.32c21.53-.32,43.08-.02,64.63-.15,3.13-.55,4.16,3.12,5.9,5.01,92.14,125.53,184.32,251.04,276.48,376.56,19.33,26.04,38.13,52.51,57.8,78.27,.26-153.23,.1-306.48,.08-459.72,21.21-.22,42.43-.06,63.66-.09-.06,188.85,.18,377.71-.12,566.55-21.58-.15-43.17,0-64.74-.07-1-.07-1.73-.53-2.19-1.39-112.38-152.52-224.33-305.38-336.94-457.73-.35,153.05,.06,306.11-.2,459.17-21.43-.1-42.86,0-64.29-.05-.07-188.79,.08-377.57-.07-566.36Z"/>
      <path class="cls-1" d="M4573.46,221.33c127.48-.27,254.96-.09,382.44-.09-.02,19.96,0,39.91-.01,59.87-105.99,.09-211.98-.05-317.96,.07-.06,63.33-.05,126.66,0,189.98,94.7,.08,189.4-.01,284.1,.05,.05,19.67,.07,39.34-.01,59.01-94.69,.12-189.39-.02-284.08,.06,.05,65.85-.28,131.71,.17,197.55,109.41-.07,218.82-.09,328.23,0,.1,19.88-.06,39.75,.08,59.63-130.94,.53-261.92,.09-392.88,.22-.07-188.78,.07-377.57-.07-566.35Z"/>
    </g>
  </g>
</svg>