<svg xmlns="http://www.w3.org/2000/svg" width="500" height="354.493" viewBox="0 0 500 354.493"><g transform="translate(94.625 19.787)"><g transform="translate(303.601 324.985)"><g style="mix-blend-mode:multiply;isolation:isolate"><path d="M759.73,738.985a20.5,20.5,0,0,0,2.627-6.111l5.375-.917.049-3.728.049-3.728-5.349-1.059a20.5,20.5,0,0,0-2.465-6.179l3.153-4.449-2.6-2.671-2.6-2.671-4.531,3.034a20.5,20.5,0,0,0-6.111-2.627l-.917-5.375-3.728-.049-3.728-.049-1.059,5.349a20.5,20.5,0,0,0-6.179,2.465l-4.449-3.153-2.671,2.6-2.671,2.6,3.034,4.531a20.5,20.5,0,0,0-2.627,6.111l-5.375.917-.049,3.728-.049,3.728,5.349,1.059a20.5,20.5,0,0,0,2.465,6.179l-3.153,4.449,2.6,2.671,2.6,2.671,4.531-3.034a20.5,20.5,0,0,0,6.111,2.627l.917,5.375,3.728.049,3.728.049,1.059-5.349a20.5,20.5,0,0,0,6.179-2.465l4.449,3.153,2.671-2.6,2.671-2.6Zm-21.7,2.214a13.987,13.987,0,1,1,17.617-9A13.987,13.987,0,0,1,738.034,741.2Z" transform="translate(-709.858 -788.406)" fill="#f9b09f"/></g></g><g transform="translate(256.862 230.372)"><g transform="translate(0 0)" style="mix-blend-mode:multiply;isolation:isolate"><path d="M385.964,555.276a16.419,16.419,0,0,0-1.941-4.962l2.547-3.547-2.069-2.153-2.069-2.153-3.644,2.406a16.416,16.416,0,0,0-4.881-2.135l-.707-4.31-2.985-.059-2.985-.059-.875,4.279a16.417,16.417,0,0,0-4.961,1.941l-3.546-2.548-2.152,2.069-2.152,2.069,2.406,3.644a16.42,16.42,0,0,0-2.134,4.881l-4.31.707-.059,2.985-.059,2.985,4.279.876a16.42,16.42,0,0,0,1.941,4.961l-2.547,3.547,2.069,2.153,2.069,2.152,3.644-2.406a16.418,16.418,0,0,0,4.881,2.135l.707,4.31,2.985.059,2.985.059.875-4.279a16.412,16.412,0,0,0,4.961-1.941l3.547,2.548,2.152-2.069,2.152-2.069-2.406-3.644a16.411,16.411,0,0,0,2.134-4.881l4.31-.706.059-2.985.059-2.985Zm-11.119,13.469a11.2,11.2,0,1,1,4.979-15.039A11.2,11.2,0,0,1,374.845,568.745Z" transform="translate(-349.387 -538.306)" fill="#f6896f"/></g></g><g transform="translate(297.717 211.657)"><g transform="translate(0 0)" style="mix-blend-mode:multiply;isolation:isolate"><path d="M414.713,1044.679a10.914,10.914,0,0,0,.66-3.48l2.688-1.1-.4-1.943-.4-1.943-2.9.067a10.916,10.916,0,0,0-1.994-2.927l1.125-2.676-1.66-1.088-1.66-1.088-2,2.1a10.91,10.91,0,0,0-3.479-.66l-1.1-2.688-1.943.4-1.943.4.067,2.9a10.91,10.91,0,0,0-2.927,1.994l-2.676-1.125-1.088,1.66-1.088,1.66,2.1,2a10.913,10.913,0,0,0-.66,3.479l-2.688,1.1.4,1.943.4,1.943,2.9-.067a10.908,10.908,0,0,0,1.994,2.927l-1.125,2.677,1.66,1.088,1.66,1.088,2.005-2.1a10.914,10.914,0,0,0,3.479.66l1.1,2.688,1.943-.4,1.943-.4-.067-2.9a10.914,10.914,0,0,0,2.927-1.994l2.676,1.125,1.088-1.66,1.088-1.66Zm-11.021,3.654a7.446,7.446,0,1,1,8.118-6.708A7.447,7.447,0,0,1,403.692,1048.333Z" transform="translate(-390.733 -1027.256)" fill="#f9b09f"/></g></g><g transform="translate(-1085.609 60.858)"><g transform="translate(1019.804 98.568)"><path d="M1096.312,142.3a21.868,21.868,0,1,1,21.868-21.868A21.893,21.893,0,0,1,1096.312,142.3Zm0-40.448a18.58,18.58,0,1,0,18.579,18.58A18.6,18.6,0,0,0,1096.312,101.857Z" transform="translate(-1074.444 -98.568)" fill="#ffd4c9"/><g transform="translate(20.059 19.402)"><path d="M1137.137,157.055a2.3,2.3,0,1,1-2.3-2.3A2.3,2.3,0,0,1,1137.137,157.055Z" transform="translate(-1132.533 -154.753)" fill="#ff9b82"/></g><g transform="translate(21.703 7.564)"><path d="M1138.61,132.967h-1.316V121.128a.658.658,0,0,1,.658-.657h0a.658.658,0,0,1,.658.657Z" transform="translate(-1137.294 -120.471)" fill="#ff9b82"/></g><g transform="translate(11.838 21.046)"><path d="M1121.222,159.514v1.315h-11.839a.658.658,0,0,1-.658-.657h0a.658.658,0,0,1,.658-.658Z" transform="translate(-1108.726 -159.514)" fill="#ff9b82"/></g></g><g transform="translate(990.984 140.316)"><g transform="translate(0 0)"><path d="M991.944,219.465s1.474,6.7,9.647,11.926c0,0,7.67,4.568,5.349,13.128,0,0-.5-.658-5.578-2.516s-6-3.755-6-3.755l1.548-2.75-2.556,1.434A20.277,20.277,0,0,1,991.944,219.465Z" transform="translate(-990.984 -219.465)" fill="#ffc9bc"/></g><g transform="translate(24.167 15.29)"><path d="M1061.873,275.72s-2.93-4.689,1.758-9.378c2.654-2.654,8.206-2.93,11.722-2.344,0,0-2.931,2.93-3.517,5.275l-2.93-.586,2.344,2.344S1068.321,278.065,1061.873,275.72Z" transform="translate(-1060.969 -263.742)" fill="#ffc9bc"/></g><g transform="translate(20.703 16.48)"><path d="M1051.537,290.986l-.6-.077c1.34-10.407,5.221-16.294,8.24-19.4a16.3,16.3,0,0,1,6.358-4.319l.171.58-.086-.29.086.29a16.074,16.074,0,0,0-6.125,4.191C1056.637,275,1052.853,280.77,1051.537,290.986Z" transform="translate(-1050.936 -267.189)" fill="#ff9b82"/></g><g transform="translate(1.281 4.181)"><path d="M1014.495,273.849c.6-13.175-5.765-25.255-12.363-30.38a19.919,19.919,0,0,1-7.438-11.816l.6-.081a19.3,19.3,0,0,0,7.209,11.419c6.721,5.22,13.206,17.505,12.6,30.886Z" transform="translate(-994.694 -231.572)" fill="#ff9b82"/></g><g transform="translate(12.297 40.919)"><path d="M1043.7,350.528H1029.32l-2.725-12.567h19.834Z" transform="translate(-1026.595 -337.962)" fill="#ffc9bc"/></g><g transform="translate(10.556 37.664)"><path d="M1044.339,332.4h-22.181l-.606-3.861h23.392Z" transform="translate(-1021.553 -328.535)" fill="#ff9b82"/></g><g transform="translate(84.126 56.864)"><g transform="translate(0 0)"><rect width="4.692" height="8.342" transform="translate(4.692 8.342) rotate(180)" fill="#ff9b82"/></g></g><g transform="translate(28.078 56.864)"><g transform="translate(0 0)"><rect width="4.692" height="8.342" transform="translate(4.692 8.342) rotate(180)" fill="#ff9b82"/></g></g><g transform="translate(62.935 29.731)"><rect width="7.433" height="23.988" fill="#ffc9bc"/></g><g transform="translate(58.543 29.731)"><g transform="translate(0 0)"><rect width="5.744" height="23.988" transform="translate(5.744 23.988) rotate(180)" fill="#ff9b82"/></g></g><g transform="translate(74.422 25.339)"><rect width="7.433" height="28.38" fill="#ffc9bc"/></g><g transform="translate(70.03 25.339)"><g transform="translate(0 0)"><rect width="5.744" height="28.38" transform="translate(5.744 28.38) rotate(180)" fill="#ff9b82"/></g></g><g transform="translate(86.247 36.151)"><rect width="7.433" height="17.569" fill="#ffc9bc"/></g><g transform="translate(81.855 36.151)"><g transform="translate(0)"><rect width="5.744" height="17.569" transform="translate(5.744 17.569) rotate(180)" fill="#ff9b82"/></g></g><g transform="translate(6.701 53.393)"><rect width="103.36" height="3.992" fill="#ff9b82"/></g></g></g><g transform="translate(221.275 25.163)"><g transform="translate(0.301 29.875) rotate(-11)"><g transform="translate(0 0)"><path d="M2.447,90.02l-.875.16-.08-.437C1.2,88.139.943,86.5.732,84.87l-.057-.441.882-.114.057.441c.208,1.614.461,3.238.753,4.827ZM1.153,80.342l-.887.066-.033-.443c-.123-1.651-.2-3.309-.226-4.927L0,74.593l.889-.015.008.444c.027,1.6.1,3.241.223,4.875ZM56.66,57.209h0a12.375,12.375,0,0,1-2.188.484l-.441.057-.115-.881.441-.057a11.514,11.514,0,0,0,2.031-.449h0a10.044,10.044,0,0,0,2.363-1.111l.373-.24.481.747L59.232,56A10.949,10.949,0,0,1,56.66,57.209Zm-6.815.371-.426-.124A7.613,7.613,0,0,1,45.334,54.4l-.258-.362.724-.515.258.362A6.752,6.752,0,0,0,49.667,56.6l.427.124Zm12.663-4.842-.758-.464.232-.379a14.075,14.075,0,0,0,1.71-4.41l.093-.434.869.187-.093.435a14.976,14.976,0,0,1-1.822,4.687ZM.945,70.59l-.887-.041.02-.444c.077-1.67.211-3.325.4-4.92l.052-.441.882.1-.051.441c-.184,1.575-.316,3.209-.393,4.858ZM44.27,50l-.861.22-.11-.43a22.545,22.545,0,0,1-.655-4.949l-.012-.444.888-.024.012.444a21.689,21.689,0,0,0,.627,4.753ZM64.985,43.13l-.888.035-.017-.444a22.677,22.677,0,0,0-.7-4.749l-.11-.43.861-.221.111.431a23.558,23.558,0,0,1,.728,4.936ZM2.02,60.914l-.872-.171.086-.436c.322-1.64.712-3.256,1.158-4.8l.123-.427.854.246-.123.427c-.439,1.523-.823,3.114-1.14,4.729ZM43.748,40.441l-.88-.121.06-.44a36.885,36.885,0,0,1,1.01-4.856l.119-.428.856.238-.119.428A36.085,36.085,0,0,0,43.808,40Zm18.161-6.576-.2-.4c-.281-.566-.585-1.121-.906-1.651a17.279,17.279,0,0,0-1.7-2.348l-.291-.336.672-.582.291.336a18.108,18.108,0,0,1,1.793,2.47c.333.55.651,1.127.943,1.716l.2.4ZM4.649,51.564l-.825-.328.163-.413a46.936,46.936,0,0,1,2.062-4.5l.206-.393.787.413-.207.394a46.184,46.184,0,0,0-2.022,4.411ZM46.208,31.092l-.822-.339.17-.411A44.526,44.526,0,0,1,47.7,25.881l.215-.389.779.429-.215.389a43.629,43.629,0,0,0-2.1,4.372ZM9.079,42.948l-.735-.5.25-.367a42.181,42.181,0,0,1,3.02-3.922l.291-.336.671.583-.292.336a41.139,41.139,0,0,0-2.955,3.839Zm46.8-16.355-.374-.24a18.445,18.445,0,0,0-4.321-2.026l-.423-.137.273-.845.423.136A19.382,19.382,0,0,1,55.987,25.6l.374.24ZM15.346,35.577l-.6-.656.328-.3c1.212-1.108,2.494-2.169,3.808-3.154l.356-.266.534.711-.356.266c-1.292.968-2.551,2.01-3.742,3.1ZM50.79,22.552l-.729-.508.254-.365c.931-1.336,1.95-2.651,3.027-3.909l.289-.338.675.579-.289.337c-1.059,1.236-2.059,2.528-2.973,3.84Zm-3.864.855-.442-.044a28.338,28.338,0,0,0-4.821-.054l-.444.032-.063-.886.444-.032a29.218,29.218,0,0,1,4.973.056l.442.045ZM23.063,29.689l-.461-.76.38-.23a48.671,48.671,0,0,1,4.356-2.346l.4-.19.381.8-.4.191a47.916,47.916,0,0,0-4.276,2.3Zm14.247-5.78L36.876,24a39.965,39.965,0,0,0-4.665,1.313l-.42.145-.291-.84.42-.145a40.714,40.714,0,0,1,4.77-1.342l.434-.094Zm19.723-8.775-.607-.65.325-.3a39.81,39.81,0,0,1,3.83-3.145l.359-.26.521.72-.36.26a39.009,39.009,0,0,0-3.744,3.074ZM98.426.888l-.444.018c-1.619.064-3.257.17-4.871.316l-.443.04-.08-.885.443-.04C94.659.189,96.314.082,97.948.017L98.391,0ZM88.7,1.724l-.441.063c-1.628.234-3.245.513-4.807.829L83.02,2.7l-.176-.871.436-.088c1.577-.32,3.212-.6,4.857-.838l.439-.063ZM64.8,9.359l-.438-.773.387-.219c1.4-.791,2.882-1.539,4.417-2.223l.406-.181.361.811-.406.181c-1.51.673-2.97,1.408-4.341,2.184ZM79.139,3.616l-.429.116c-1.589.429-3.131.9-4.655,1.435l-.419.146-.293-.839.42-.147c1.542-.539,3.105-1.019,4.716-1.453l.429-.116Z" transform="translate(0 0)" fill="#f6896f"/></g></g><g transform="translate(98.426 -5)"><g transform="translate(7.243 1.086)"><path d="M1.058,20.177,4.53,14.361S25.844,8.055,26.121,7.847L36.556,0,22.361,1.735,0,9.208Z" fill="#f6896f"/></g><g transform="translate(0 0)"><g transform="translate(0 0)"><path d="M0,0,43.8,1.086,7.243,10.293Z" fill="#f9b09f"/></g></g><g transform="translate(11.772 1.086)"><path d="M0,14.361,7.63,25.337,32.026,0Z" fill="#f9b09f"/></g></g></g><g transform="translate(-94.625 -19.787)"><path d="M847.655,396.687H1097.55a.053.053,0,0,1,.052.052V549.722a.053.053,0,0,1-.052.052H847.655a.053.053,0,0,1-.052-.052V396.739a.053.053,0,0,1,.052-.052" transform="translate(-842.603 -383.093)" fill="#fbc5b7" fill-rule="evenodd"/><path d="M847.655,396.687H1097.55a.053.053,0,0,1,.052.054V553.253a.053.053,0,0,1-.052.054H847.655a.053.053,0,0,1-.052-.054V396.741a.053.053,0,0,1,.052-.054" transform="translate(-842.603 -391.626)" fill="#fbc5b7" fill-rule="evenodd"/><path d="M847.655,396.687H1097.55a.053.053,0,0,1,.052.052V549.722a.053.053,0,0,1-.052.052H847.655a.053.053,0,0,1-.052-.052V396.739a.053.053,0,0,1,.052-.052" transform="translate(-847.103 -388.093)" fill="#fff" stroke="#333" stroke-width="1" fill-rule="evenodd"/><rect width="44.288" height="137.175" transform="translate(10.945 19.2)" fill="#fbc5b7"/><path d="M924.639,750.127h9.866a1.442,1.442,0,0,0,1.438-1.438h0a1.442,1.442,0,0,0-1.438-1.438h-9.866a1.443,1.443,0,0,0-1.439,1.438h0a1.442,1.442,0,0,0,1.439,1.438" transform="translate(-900.681 -634.227)" fill="#fff" fill-rule="evenodd"/><path d="M904.636,726.214h26.087a1.442,1.442,0,0,0,1.439-1.438h0a1.443,1.443,0,0,0-1.439-1.438H904.636a1.442,1.442,0,0,0-1.438,1.438h0a1.442,1.442,0,0,0,1.438,1.438" transform="translate(-886.637 -617.438)" fill="#f13b0f" fill-rule="evenodd"/><path d="M904.636,700.9h19.88a1.443,1.443,0,0,0,1.438-1.438h0a1.443,1.443,0,0,0-1.438-1.438h-19.88a1.443,1.443,0,0,0-1.438,1.438h0a1.443,1.443,0,0,0,1.438,1.438" transform="translate(-886.637 -599.665)" fill="#fff" fill-rule="evenodd"/><path d="M924.64,675.587h19.842a1.443,1.443,0,0,0,1.439-1.438h0a1.443,1.443,0,0,0-1.439-1.439H924.64a1.443,1.443,0,0,0-1.438,1.439h0a1.443,1.443,0,0,0,1.438,1.438" transform="translate(-900.682 -581.892)" fill="#f13b0f" fill-rule="evenodd"/><path d="M924.64,650.274h6.32a1.442,1.442,0,0,0,1.438-1.438h0a1.442,1.442,0,0,0-1.438-1.438h-6.32a1.443,1.443,0,0,0-1.438,1.438h0a1.442,1.442,0,0,0,1.438,1.438" transform="translate(-900.682 -564.119)" fill="#fff" fill-rule="evenodd"/><path d="M904.636,624.96H923.5a1.442,1.442,0,0,0,1.438-1.439h0a1.442,1.442,0,0,0-1.438-1.438H904.636a1.443,1.443,0,0,0-1.438,1.438h0a1.443,1.443,0,0,0,1.438,1.439" transform="translate(-886.637 -546.346)" fill="#f13b0f" fill-rule="evenodd"/><path d="M924.264,599.647h5.164a1.443,1.443,0,0,0,1.439-1.439h0a1.443,1.443,0,0,0-1.439-1.438h-5.164a1.443,1.443,0,0,0-1.439,1.438h0a1.443,1.443,0,0,0,1.439,1.439" transform="translate(-900.417 -528.574)" fill="#fff" fill-rule="evenodd"/><path d="M921.952,574.334h20.929a1.443,1.443,0,0,0,1.438-1.438h0a1.442,1.442,0,0,0-1.438-1.438H921.952a1.442,1.442,0,0,0-1.438,1.438h0a1.442,1.442,0,0,0,1.438,1.438" transform="translate(-898.795 -510.801)" fill="#fff" fill-rule="evenodd"/><path d="M904.636,549.02h16.649a1.442,1.442,0,0,0,1.438-1.439h0a1.442,1.442,0,0,0-1.438-1.438H904.636a1.443,1.443,0,0,0-1.438,1.438h0a1.443,1.443,0,0,0,1.438,1.439" transform="translate(-886.637 -493.028)" fill="#f13b0f" fill-rule="evenodd"/><path d="M921.952,523.707h20.929a1.442,1.442,0,0,0,1.438-1.438h0a1.443,1.443,0,0,0-1.438-1.438H921.952a1.442,1.442,0,0,0-1.438,1.438h0a1.442,1.442,0,0,0,1.438,1.438" transform="translate(-898.795 -475.255)" fill="#fff" fill-rule="evenodd"/><path d="M921.952,498.393H934.71a1.443,1.443,0,0,0,1.438-1.438h0a1.443,1.443,0,0,0-1.438-1.439H921.952a1.443,1.443,0,0,0-1.438,1.439h0a1.442,1.442,0,0,0,1.438,1.438" transform="translate(-898.795 -457.482)" fill="#fff" fill-rule="evenodd"/><path d="M904.636,473.08h9.174a1.443,1.443,0,0,0,1.438-1.439h0a1.443,1.443,0,0,0-1.438-1.438h-9.174a1.443,1.443,0,0,0-1.438,1.438h0a1.443,1.443,0,0,0,1.438,1.439" transform="translate(-886.637 -439.71)" fill="#f13b0f" fill-rule="evenodd"/><path d="M924.639,772.493h9.866a1.442,1.442,0,0,0,1.438-1.438h0a1.443,1.443,0,0,0-1.438-1.438h-9.866a1.443,1.443,0,0,0-1.439,1.438h0a1.442,1.442,0,0,0,1.439,1.438" transform="translate(-900.681 -649.931)" fill="#f13b0f" fill-rule="evenodd"/><path d="M904.636,794.859h25.208a1.443,1.443,0,0,0,1.438-1.438h0a1.443,1.443,0,0,0-1.438-1.439H904.636a1.443,1.443,0,0,0-1.438,1.439h0a1.443,1.443,0,0,0,1.438,1.438" transform="translate(-886.637 -665.634)" fill="#fff" fill-rule="evenodd"/><path d="M924.639,817.226h9.866a1.443,1.443,0,0,0,1.438-1.439h0a1.443,1.443,0,0,0-1.438-1.438h-9.866a1.443,1.443,0,0,0-1.439,1.438h0a1.443,1.443,0,0,0,1.439,1.439" transform="translate(-900.681 -681.338)" fill="#f13b0f" fill-rule="evenodd"/><path d="M1188.8,866.568h72.834a1.49,1.49,0,0,0,0-2.98H1188.8a1.49,1.49,0,1,0,0,2.98" transform="translate(-1086.116 -715.91)" fill="#fbc5b7" fill-rule="evenodd"/><path d="M1460.37,866.568h17.88a1.49,1.49,0,1,0,0-2.98h-17.88a1.49,1.49,0,1,0,0,2.98" transform="translate(-1276.788 -715.91)" fill="#fbc5b7" fill-rule="evenodd"/><path d="M1162.321,844.8h17.88a1.49,1.49,0,1,0,0-2.98h-17.88a1.49,1.49,0,0,0,0,2.98" transform="translate(-1067.524 -700.623)" fill="#fbc5b7" fill-rule="evenodd"/><path d="M1188.8,823.022h26.82a1.49,1.49,0,0,0,0-2.98H1188.8a1.49,1.49,0,0,0,0,2.98" transform="translate(-1086.116 -685.336)" fill="#fbc5b7" fill-rule="evenodd"/><path d="M1189.1,801.25h22a1.49,1.49,0,1,0,0-2.98h-22a1.49,1.49,0,0,0,0,2.98" transform="translate(-1086.323 -670.049)" fill="#fbc5b7" fill-rule="evenodd"/><path d="M1189.1,779.477h66.786a1.49,1.49,0,0,0,0-2.98H1189.1a1.49,1.49,0,1,0,0,2.98" transform="translate(-1086.322 -654.762)" fill="#fbc5b7" fill-rule="evenodd"/><path d="M1306.785,823.022h17.529a1.49,1.49,0,0,0,0-2.98h-17.529a1.49,1.49,0,1,0,0,2.98" transform="translate(-1168.954 -685.336)" fill="#fbc5b7" fill-rule="evenodd"/><path d="M1284.571,801.25h52.106a1.49,1.49,0,1,0,0-2.98h-52.106a1.49,1.49,0,1,0,0,2.98" transform="translate(-1153.357 -670.049)" fill="#f13b0f" fill-rule="evenodd"/><path d="M1485.821,801.25H1499.8a1.49,1.49,0,1,0,0-2.98h-13.979a1.49,1.49,0,1,0,0,2.98" transform="translate(-1294.657 -670.049)" fill="#fbc5b7" fill-rule="evenodd"/><path d="M1557.317,801.25H1571.3a1.49,1.49,0,1,0,0-2.98h-13.979a1.49,1.49,0,1,0,0,2.98" transform="translate(-1344.855 -670.049)" fill="#fbc5b7" fill-rule="evenodd"/><path d="M1162.321,757.558h17.88a1.49,1.49,0,1,0,0-2.98h-17.88a1.49,1.49,0,0,0,0,2.98" transform="translate(-1067.524 -639.372)" fill="#f13b0f" fill-rule="evenodd"/><path d="M1188.8,566.189h26.82a1.49,1.49,0,0,0,0-2.98H1188.8a1.49,1.49,0,0,0,0,2.98" transform="translate(-1086.116 -505.01)" fill="#fbc5b7" fill-rule="evenodd"/><path d="M1189.1,544.417h22a1.49,1.49,0,1,0,0-2.98h-22a1.49,1.49,0,0,0,0,2.98" transform="translate(-1086.323 -489.724)" fill="#f13b0f" fill-rule="evenodd"/><path d="M1189.1,522.644h66.786a1.49,1.49,0,0,0,0-2.98H1189.1a1.49,1.49,0,1,0,0,2.98" transform="translate(-1086.322 -474.437)" fill="#fbc5b7" fill-rule="evenodd"/><path d="M1306.785,566.189h17.529a1.49,1.49,0,0,0,0-2.98h-17.529a1.49,1.49,0,1,0,0,2.98" transform="translate(-1168.954 -505.01)" fill="#fbc5b7" fill-rule="evenodd"/><path d="M1284.571,544.417h52.106a1.49,1.49,0,1,0,0-2.98h-52.106a1.49,1.49,0,0,0,0,2.98" transform="translate(-1153.357 -489.724)" fill="#f13b0f" fill-rule="evenodd"/><path d="M1485.821,544.417H1499.8a1.49,1.49,0,1,0,0-2.98h-13.979a1.49,1.49,0,0,0,0,2.98" transform="translate(-1294.657 -489.724)" fill="#fbc5b7" fill-rule="evenodd"/><path d="M1557.317,544.417H1571.3a1.49,1.49,0,0,0,0-2.98h-13.979a1.49,1.49,0,1,0,0,2.98" transform="translate(-1344.855 -489.724)" fill="#fbc5b7" fill-rule="evenodd"/><path d="M1190.27,728.465h17.88a1.49,1.49,0,1,0,0-2.98h-17.88a1.49,1.49,0,0,0,0,2.98" transform="translate(-1087.147 -618.946)" fill="#fbc5b7" fill-rule="evenodd"/><path d="M1188.8,706.692h26.82a1.49,1.49,0,0,0,0-2.98H1188.8a1.49,1.49,0,0,0,0,2.98" transform="translate(-1086.116 -603.659)" fill="#fbc5b7" fill-rule="evenodd"/><path d="M1189.1,684.92h22a1.49,1.49,0,1,0,0-2.98h-22a1.49,1.49,0,0,0,0,2.98" transform="translate(-1086.323 -588.372)" fill="#f13b0f" fill-rule="evenodd"/><path d="M1189.1,663.147h28.861a1.49,1.49,0,0,0,0-2.98H1189.1a1.49,1.49,0,1,0,0,2.98" transform="translate(-1086.322 -573.085)" fill="#fbc5b7" fill-rule="evenodd"/><path d="M1306.785,706.692h17.529a1.49,1.49,0,0,0,0-2.98h-17.529a1.49,1.49,0,1,0,0,2.98" transform="translate(-1168.954 -603.659)" fill="#f13b0f" fill-rule="evenodd"/><path d="M1284.571,684.92h52.106a1.49,1.49,0,1,0,0-2.98h-52.106a1.49,1.49,0,1,0,0,2.98" transform="translate(-1153.357 -588.372)" fill="#fbc5b7" fill-rule="evenodd"/><path d="M1485.821,684.92H1499.8a1.49,1.49,0,1,0,0-2.98h-13.979a1.49,1.49,0,1,0,0,2.98" transform="translate(-1294.657 -588.372)" fill="#fbc5b7" fill-rule="evenodd"/><path d="M1557.317,684.92H1571.3a1.49,1.49,0,1,0,0-2.98h-13.979a1.49,1.49,0,1,0,0,2.98" transform="translate(-1344.855 -588.372)" fill="#fbc5b7" fill-rule="evenodd"/><path d="M1260.445,500.117h52.1a1.49,1.49,0,1,0,0-2.98h-52.1a1.49,1.49,0,1,0,0,2.98" transform="translate(-1136.418 -458.62)" fill="#fbc5b7" fill-rule="evenodd"/><path d="M1461.694,500.117h13.979a1.49,1.49,0,0,0,0-2.98h-13.979a1.49,1.49,0,1,0,0,2.98" transform="translate(-1277.717 -458.62)" fill="#f13b0f" fill-rule="evenodd"/><path d="M1533.191,500.117h13.98a1.49,1.49,0,0,0,0-2.98h-13.98a1.49,1.49,0,0,0,0,2.98" transform="translate(-1327.916 -458.62)" fill="#fbc5b7" fill-rule="evenodd"/><path d="M1260.445,479.521h22.787a1.49,1.49,0,0,0,0-2.98h-22.787a1.49,1.49,0,1,0,0,2.98" transform="translate(-1136.418 -444.159)" fill="#f13b0f" fill-rule="evenodd"/><path d="M1363.718,479.521h35.758a1.49,1.49,0,0,0,0-2.98h-35.758a1.49,1.49,0,0,0,0,2.98" transform="translate(-1208.927 -444.159)" fill="#fbc5b7" fill-rule="evenodd"/><path d="M1514.431,479.521h30.128a1.49,1.49,0,0,0,0-2.98h-30.128a1.49,1.49,0,0,0,0,2.98" transform="translate(-1314.745 -444.159)" fill="#fbc5b7" fill-rule="evenodd"/><path d="M1260.445,641.424h52.1a1.49,1.49,0,1,0,0-2.98h-52.1a1.49,1.49,0,1,0,0,2.98" transform="translate(-1136.418 -557.833)" fill="#fbc5b7" fill-rule="evenodd"/><path d="M1461.694,641.424h13.979a1.49,1.49,0,1,0,0-2.98h-13.979a1.49,1.49,0,1,0,0,2.98" transform="translate(-1277.717 -557.833)" fill="#fbc5b7" fill-rule="evenodd"/><path d="M1533.191,641.424h13.98a1.49,1.49,0,0,0,0-2.98h-13.98a1.49,1.49,0,0,0,0,2.98" transform="translate(-1327.916 -557.833)" fill="#f13b0f" fill-rule="evenodd"/><path d="M1260.445,618.327h22.787a1.49,1.49,0,0,0,0-2.98h-22.787a1.49,1.49,0,1,0,0,2.98" transform="translate(-1136.418 -541.617)" fill="#fbc5b7" fill-rule="evenodd"/><path d="M1363.718,618.327h35.758a1.49,1.49,0,0,0,0-2.98h-35.758a1.49,1.49,0,0,0,0,2.98" transform="translate(-1208.927 -541.617)" fill="#f13b0f" fill-rule="evenodd"/><path d="M1514.431,618.327h30.128a1.49,1.49,0,0,0,0-2.98h-30.128a1.49,1.49,0,0,0,0,2.98" transform="translate(-1314.745 -541.617)" fill="#fbc5b7" fill-rule="evenodd"/><path d="M1306.849,663.147h15.535a1.49,1.49,0,0,0,0-2.98h-15.535a1.49,1.49,0,0,0,0,2.98" transform="translate(-1168.999 -573.085)" fill="#f13b0f" fill-rule="evenodd"/><path d="M1377.238,663.147h15.535a1.49,1.49,0,0,0,0-2.98h-15.535a1.49,1.49,0,0,0,0,2.98" transform="translate(-1218.42 -573.085)" fill="#fbc5b7" fill-rule="evenodd"/><path d="M1162.321,593.527h23.021a1.49,1.49,0,1,0,0-2.98h-23.021a1.49,1.49,0,1,0,0,2.98" transform="translate(-1067.524 -524.204)" fill="#f13b0f" fill-rule="evenodd"/><path d="M1260.471,593.527h15.535a1.49,1.49,0,1,0,0-2.98h-15.535a1.49,1.49,0,1,0,0,2.98" transform="translate(-1136.436 -524.204)" fill="#fbc5b7" fill-rule="evenodd"/><path d="M1336.123,593.527h15.535a1.49,1.49,0,1,0,0-2.98h-15.535a1.49,1.49,0,1,0,0,2.98" transform="translate(-1189.553 -524.204)" fill="#fbc5b7" fill-rule="evenodd"/><path d="M1189.1,500.117h14.636a1.49,1.49,0,1,0,0-2.98H1189.1a1.49,1.49,0,0,0,0,2.98" transform="translate(-1086.323 -458.62)" fill="#fbc5b7" fill-rule="evenodd"/><path d="M1139.166,479.521h29.066a1.49,1.49,0,0,0,0-2.98h-29.066a1.49,1.49,0,1,0,0,2.98" transform="translate(-1051.267 -444.159)" fill="#fbc5b7" fill-rule="evenodd"/><path d="M1139.166,454.035h38.279a1.49,1.49,0,1,0,0-2.98h-38.279a1.49,1.49,0,1,0,0,2.98" transform="translate(-1051.267 -426.265)" fill="#fbc5b7" fill-rule="evenodd"/><path d="M1086.084,454.035h1.4a1.49,1.49,0,1,0,0-2.98h-1.4a1.49,1.49,0,1,0,0,2.98" transform="translate(-1013.997 -426.265)" fill="#fbc5b7" fill-rule="evenodd"/><path d="M1086.084,479.521h1.4a1.49,1.49,0,1,0,0-2.98h-1.4a1.49,1.49,0,0,0,0,2.98" transform="translate(-1013.997 -444.159)" fill="#fbc5b7" fill-rule="evenodd"/><path d="M1085.19,566.189h1.215a1.49,1.49,0,0,0,0-2.98h-1.215a1.49,1.49,0,0,0,0,2.98" transform="translate(-1013.369 -505.01)" fill="#fbc5b7" fill-rule="evenodd"/><path d="M1085.484,544.417h1.128a1.49,1.49,0,0,0,0-2.98h-1.128a1.49,1.49,0,1,0,0,2.98" transform="translate(-1013.576 -489.724)" fill="#fbc5b7" fill-rule="evenodd"/><path d="M1085.484,522.644h1.128a1.49,1.49,0,0,0,0-2.98h-1.128a1.49,1.49,0,1,0,0,2.98" transform="translate(-1013.576 -474.437)" fill="#fbc5b7" fill-rule="evenodd"/><path d="M1085.484,500.117h1.128a1.49,1.49,0,1,0,0-2.98h-1.128a1.49,1.49,0,1,0,0,2.98" transform="translate(-1013.576 -458.62)" fill="#fbc5b7" fill-rule="evenodd"/><path d="M1085.769,641.424h1.043a1.49,1.49,0,1,0,0-2.98h-1.043a1.49,1.49,0,0,0,0,2.98" transform="translate(-1013.776 -557.833)" fill="#fbc5b7" fill-rule="evenodd"/><path d="M1085.769,618.327h1.043a1.49,1.49,0,1,0,0-2.98h-1.043a1.49,1.49,0,0,0,0,2.98" transform="translate(-1013.776 -541.617)" fill="#fbc5b7" fill-rule="evenodd"/><path d="M1085.8,593.527h1.035a1.49,1.49,0,1,0,0-2.98H1085.8a1.49,1.49,0,1,0,0,2.98" transform="translate(-1013.794 -524.204)" fill="#fbc5b7" fill-rule="evenodd"/><path d="M1087.282,728.465h.592a1.49,1.49,0,1,0,0-2.98h-.592a1.49,1.49,0,1,0,0,2.98" transform="translate(-1014.838 -618.946)" fill="#fbc5b7" fill-rule="evenodd"/><path d="M1085.769,706.692h1.043a1.49,1.49,0,1,0,0-2.98h-1.043a1.49,1.49,0,0,0,0,2.98" transform="translate(-1013.776 -603.659)" fill="#fbc5b7" fill-rule="evenodd"/><path d="M1086.072,684.92h.952a1.49,1.49,0,1,0,0-2.98h-.952a1.49,1.49,0,1,0,0,2.98" transform="translate(-1013.989 -588.372)" fill="#fbc5b7" fill-rule="evenodd"/><path d="M1086.071,663.147h.953a1.49,1.49,0,0,0,0-2.98h-.953a1.49,1.49,0,0,0,0,2.98" transform="translate(-1013.988 -573.085)" fill="#fbc5b7" fill-rule="evenodd"/><path d="M1087.806,844.8h.436a1.49,1.49,0,1,0,0-2.98h-.436a1.49,1.49,0,1,0,0,2.98" transform="translate(-1015.206 -700.623)" fill="#fbc5b7" fill-rule="evenodd"/><path d="M1087.806,823.022h.436a1.49,1.49,0,1,0,0-2.98h-.436a1.49,1.49,0,1,0,0,2.98" transform="translate(-1015.206 -685.336)" fill="#fbc5b7" fill-rule="evenodd"/><path d="M1087.619,801.25h.492a1.49,1.49,0,0,0,0-2.98h-.492a1.49,1.49,0,1,0,0,2.98" transform="translate(-1015.075 -670.049)" fill="#fbc5b7" fill-rule="evenodd"/><path d="M1087.282,779.477h.592a1.49,1.49,0,0,0,0-2.98h-.592a1.49,1.49,0,0,0,0,2.98" transform="translate(-1014.838 -654.762)" fill="#fbc5b7" fill-rule="evenodd"/><path d="M1087.282,757.558h.592a1.49,1.49,0,1,0,0-2.98h-.592a1.49,1.49,0,1,0,0,2.98" transform="translate(-1014.838 -639.372)" fill="#fbc5b7" fill-rule="evenodd"/><g fill="#f6896f" stroke="#333" stroke-width="1"><rect width="251" height="8.625" stroke="none"/><rect x="0.5" y="0.5" width="250" height="7.625" fill="none"/></g><rect width="2.623" height="2.623" transform="translate(232.307 2.438)" fill="#fff"/><rect width="2.623" height="2.623" transform="translate(236.939 2.438)" fill="#fff"/><rect width="2.623" height="2.623" transform="translate(241.572 2.438)" fill="#fff"/></g><g transform="translate(2.547 38.53)"><g transform="translate(4.453 121.345)"><g transform="translate(63.191 108.298)"><path d="M8595.449,3572.02l-20.066,1.186,4.173,21.816,20.36.354Z" transform="translate(-8575.383 -3572.02)" fill="#c22600"/></g><g transform="translate(0 0)"><path d="M8137.026,2238.625c6.677,50.373-29,50.373-58.246,50.373h.574c-29.547-.695-66.37-3.33-71.6-50.373-2.79-25.084-10.459-63.513,55.843-63.513S8133.674,2213.34,8137.026,2238.625Z" transform="translate(-8005.973 -2175.111)" fill="#411004"/></g><g transform="translate(7.018 5.679)"><g transform="translate(0 3.017)"><path d="M9280.3,2287.5c-12.842,5.062-27.024,17.938-21.663,50.531a3.973,3.973,0,0,0,3.8,3.262h.109a2.892,2.892,0,0,0,2.8-3.477c-2.138-12.99-1.046-23.511,3.244-31.269a28.318,28.318,0,0,1,14.91-12.736,3.029,3.029,0,0,0,1.4-4.338A3.8,3.8,0,0,0,9280.3,2287.5Z" transform="translate(-9257.47 -2287.282)" fill="#8e3e2a"/></g><g transform="translate(34.318)"><path d="M9037.481,2248.406a38.18,38.18,0,0,0-4.811.065,2.9,2.9,0,0,0-2.659,3.589,3.976,3.976,0,0,0,3.774,3.143c.076,0,.153,0,.229-.008a33.018,33.018,0,0,1,3.894-.066,2.883,2.883,0,0,0,3.176-3.128A3.968,3.968,0,0,0,9037.481,2248.406Z" transform="translate(-9029.943 -2248.361)" fill="#8e3e2a"/></g></g></g><g transform="translate(283.459 131.134)"><path d="M6062.151,2301.382l1.479,2.536-3.737-.1Z" transform="translate(-6059.894 -2301.382)" fill="#dc4622"/></g><g transform="translate(49.768 96.307)"><path d="M6237.833,1942.049c13.147-55.818,20.585-51.043,20.585-51.043s26.764-8.257,31.31,5.888c9.563,29.749-29.847,100.729-54.821,95.783-22.512-4.458-46.521-57.619-46.521-57.619s-3.871,35.479-16.164,85.422c-2.868,11.65-55.271,17.1-118.964,2.8-.332-.074,10.826-8.919,20.493-46.319-20.644-28.812-14.063-106.864,21.519-119.784a85.251,85.251,0,0,1,33.948-4.841l33.672,1.739,14.328.311C6214,1856.1,6237.833,1942.049,6237.833,1942.049Z" transform="translate(-6053.252 -1852.152)" fill="#c22600"/></g><g transform="translate(115.812 69.879)"><path d="M7634.75,1536.177s-.989,5.357-1.333,7.864c4.453.495,8.265.548,8.265.548,0,5.312-1.673,22.928-25.946,22.928-21.364,0-26.607-18.235-26.607-24.867a57.158,57.158,0,0,1,9.546-.233c2.469-11.2,4.638-26.3,4.638-26.3S7631.4,1526.71,7634.75,1536.177Z" transform="translate(-7588.856 -1515.74)" fill="#f3c9a7"/><path d="M7612.481,1563.316c10.463,0,17.967-3.227,22.3-9.592a24.659,24.659,0,0,0,3.919-13.609v-.27l-.27,0c-.037,0-3.691-.057-7.959-.516.369-2.57,1.281-7.521,1.291-7.573l.013-.072-.023-.069c-1.413-3.994-7.17-8.615-17.107-13.733a157.273,157.273,0,0,0-14.49-6.494l-.318-.12-.048.337c-.022.15-2.167,15.017-4.585,26.055a57.618,57.618,0,0,0-9.364.247l-.238.032v.24C7585.6,1546.379,7592.173,1563.316,7612.481,1563.316Zm25.673-22.934c-.167,20.766-19.676,22.387-25.673,22.387-19.7,0-26.2-16.24-26.33-24.351a58.938,58.938,0,0,1,9.256-.2l.231.013.05-.227c2.24-10.155,4.255-23.678,4.593-25.982,3.1,1.2,27.749,11.021,30.933,19.707-.121.651-1,5.478-1.321,7.8l-.037.278.277.031C7633.876,1540.255,7637.2,1540.36,7638.154,1540.383Z" transform="translate(-7585.603 -1511.266)"/></g><g transform="translate(127.544 70.449)"><path d="M7715.554,1538.418s-1.06,5.689-1.4,8.163c-3.562,4.8-29.507,3.292-32.525-9.966,2.2-11.579,2.9-18,2.9-18S7712.247,1529.073,7715.554,1538.418Z" transform="translate(-7681.631 -1518.617)" fill="#e6b389"/></g><g transform="translate(110.952 96.485)"><path d="M7582.129,1856.373s.739,21.8-23.9,21.8c-23.028,0-27.7-16.616-27.983-23.72l-5.536.456c1.021,7.2,5.332,30.029,34.391,30.029,27.832,0,28.289-28.365,28.289-28.365Z" transform="translate(-7524.715 -1854.454)" fill="#ae2302"/></g><g transform="translate(98.605 150.347)"><path d="M8121.679,2549.2l-29.079.194-2.083,28.3s3.811,5.277,15.538,6c11.018-3.391,12.982-8.1,12.982-8.1Z" transform="translate(-8090.517 -2549.2)" fill="#f55b36"/></g><g transform="translate(114.271 17.205)"><g transform="translate(0 0)"><path d="M7261.016,863.689s-10.755-4.347-14.607,5.99,7.454,17.483,14.313,17.321c0,0-.759,27.254,37.647,26.587,36.765-.64,28.45-54.026,23.776-61.175,0,0-9.009-17.658-40.458-17.477S7261.016,863.689,7261.016,863.689Z" transform="translate(-7245.387 -834.693)" fill="#f3c9a7"/><path d="M7294.095,910.987c.46,0,.922,0,1.39-.012,10.709-.186,18.54-4.812,23.274-13.746,4.813-9.084,5.294-20.388,4.852-28.27-.527-9.365-2.532-17.052-4.153-19.531-.078-.155-9.333-17.587-40.186-17.587h-.475c-9.515.054-16.146,2.709-19.708,7.891-3.065,4.46-3.224,9.987-2.815,13.839a34.187,34.187,0,0,0,1.463,6.87c-1.363-.452-5.352-1.51-9.028.11a10.283,10.283,0,0,0-5.413,6.192,11.141,11.141,0,0,0,1.385,10.772,17.292,17.292,0,0,0,12.914,6.876,25.863,25.863,0,0,0,7.348,16.928C7271.295,907.736,7281.1,910.986,7294.095,910.987Zm-14.824-78.667c15.89,0,25.83,4.67,31.386,8.609,6.076,4.308,8.365,8.7,8.387,8.739,3.366,5.15,7.738,31.392-.709,47.335-4.646,8.769-12.335,13.307-22.857,13.49-13.558.244-23.706-2.963-30.185-9.507a25.232,25.232,0,0,1-7.217-16.833l.006-.253-.252.006a16.642,16.642,0,0,1-12.757-6.671,10.68,10.68,0,0,1-1.326-10.325,9.824,9.824,0,0,1,5.153-5.918c4.237-1.867,9.089.047,9.139.067l.507.2-.193-.512c-.046-.123-4.582-12.437,1.135-20.75,3.467-5.043,9.966-7.627,19.314-7.68Z" transform="translate(-7242.5 -831.84)"/></g><g transform="translate(71.198 37.881)"><path d="M7297.109,1322.654a2.907,2.907,0,1,0,3.526-2.111A2.908,2.908,0,0,0,7297.109,1322.654Z" transform="translate(-7297.021 -1320.455)" fill="#010202"/></g><g transform="translate(70.636 27.668)"><path d="M7277.483,1188.818c2.163.409,3.866,2.038,3.736,3.223-.176,1.6-1.686-.412-3.641-.847-2.861-.639-3.806.2-4.418-.257C7272.352,1190.332,7274.453,1188.243,7277.483,1188.818Z" transform="translate(-7272.986 -1188.719)" fill="#010202"/></g><g transform="translate(43.987 36.195)"><path d="M7644.965,1301.415a3.277,3.277,0,1,1-3.8-2.652A3.276,3.276,0,0,1,7644.965,1301.415Z" transform="translate(-7638.461 -1298.711)" fill="#010202"/></g><g transform="translate(41.159 25.92)"><path d="M7643.386,1166.177c-2.464-.112-4.741,1.222-4.907,2.546-.224,1.792,1.946-.01,4.188.019,3.285.045,4.1,1.2,4.883.863C7648.587,1169.155,7646.84,1166.335,7643.386,1166.177Z" transform="translate(-7638.462 -1166.171)" fill="#010202"/></g><g transform="translate(60.093 40.003)"><path d="M7455.5,1348.417c.234.953,2.7,7.816,2.87,9.294s-2.109,1.967-2.922,2.347,1.418.79,3.806-.51c1.924-1.4-.647-5.815-2.922-11.23C7455.843,1347.566,7455.324,1347.722,7455.5,1348.417Z" transform="translate(-7455.273 -1347.821)" fill="#333"/></g><g transform="translate(45.851 57.858)"><path d="M7474.046,1582.111a14.7,14.7,0,0,0,6.819-1.429c1.224-.589,1.476.191.631.876a13.663,13.663,0,0,1-7.536,1.967c-3.324-.161-7.576-1.453-9.64-3.946-1.455-1.711.233-1.825,1.308-.748A13.68,13.68,0,0,0,7474.046,1582.111Z" transform="translate(-7463.755 -1578.135)" fill="#010202"/></g><g transform="translate(6.027 33.617)"><path d="M8081.32,1277.537s-5.418-1.511-3.04-6.183-1.144-7.437-5.749-4.982S8070.18,1278.128,8081.32,1277.537Z" transform="translate(-8070.282 -1265.457)" fill="#e6b389"/></g></g><g transform="translate(49.673 221.181)"><path d="M7615.915,3509.181a253.916,253.916,0,0,0,20.493-46.319l18.489,11.125s8.774,41.015,77.907,35.655c-33.275,24.966-72.938,10.111-109.63,2.04Z" transform="translate(-7615.915 -3462.862)" fill="#ae2302"/></g><g transform="translate(58.236 147.738)"><path d="M8102.449,2588.985s21.84,21.075,59.6,15.972a53.429,53.429,0,0,1-1.564-8.627s-40.516-3.531-53.5-19.562-13.542-61.226-13.542-61.226S8082.684,2557.917,8102.449,2588.985Z" transform="translate(-8090.519 -2515.542)" fill="#ae2302"/></g><g transform="translate(94.001 128.028)"><path d="M8016.782,2263.846c-1.209-10.871,5.21,15.071,5.7,42.377.225,12.572-1.488,18.721,33.254,30.037-12.884-3.053-27.347-7.9-33.9-10.167a.286.286,0,0,1,0,.031c-1.352-.448-2.531-.883-3.544-1.281l-.023-.007h0a41.959,41.959,0,0,1-4.226-1.88S8019.428,2285.49,8016.782,2263.846Z" transform="translate(-8014.039 -2261.31)" fill="#ae2302"/></g><g transform="translate(64.948 101.704)"><g transform="translate(33.994 0)"><path d="M8361.083,1922.727a42.392,42.392,0,0,1,4.558-.92,2.886,2.886,0,0,1,.832,5.711,36.368,36.368,0,0,0-3.931.794,2.886,2.886,0,0,1-1.459-5.584Z" transform="translate(-8358.927 -1921.776)" fill="#fff"/></g><g transform="translate(0 5.572)"><path d="M8551.284,2041.135a100.758,100.758,0,0,1,4.556-19.158c4.778-13.882,11.6-23.3,20.266-27.978a2.886,2.886,0,0,1,2.743,5.079c-17.758,9.592-21.793,42.395-21.832,42.726a2.886,2.886,0,0,1-2.862,2.551,2.841,2.841,0,0,1-.336-.019A2.887,2.887,0,0,1,8551.284,2041.135Z" transform="translate(-8551.265 -1993.653)" fill="#fff"/></g></g><g transform="translate(243.171 82.976)"><g transform="translate(23.007 41.994)"><path d="M6025.044,2234.341s8.371-9.328,8.166-9.044-24.541,5.113-24.541,5.113S6011.714,2235.2,6025.044,2234.341Z" transform="translate(-6008.225 -2225.026)" fill="#efb68b"/><path d="M6017.6,2231.568c.976,0,2.016-.033,3.129-.1l.111-.008.074-.083c2.183-2.433,7.9-8.8,8.146-9.027l0,0a.124.124,0,0,0,.042-.037l.152-.21-.2-.169c-.07-.056-.119-.094-.287.031l-.027-.045c-.647.293-14.979,3.2-24.455,5.077l-.392.077.214.337C6004.227,2227.591,6006.89,2231.568,6017.6,2231.568Zm2.982-.643c-10.823.675-14.747-2.448-15.74-3.487,15.877-3.152,21.328-4.331,23.223-4.8-.611.646-1.653,1.8-3.483,3.836C6022.776,2228.485,6020.97,2230.5,6020.586,2230.925Z" transform="translate(-6003.896 -2221.876)"/></g><g transform="translate(11.467 43.52)"><path d="M6058.57,2250.291a31.994,31.994,0,0,0,14.9,7.086,39.67,39.67,0,0,0,15.561-.04.592.592,0,0,0,.427-.462l1.583-7.653a.611.611,0,0,0-.1-.489.51.51,0,0,0-.419-.208,60.018,60.018,0,0,1-12.958-1.137,57.624,57.624,0,0,1-16.471-5.758.517.517,0,0,0-.161-.061.5.5,0,0,0-.317.042.6.6,0,0,0-.318.4l-1.895,7.682A.6.6,0,0,0,6058.57,2250.291Z" transform="translate(-6058.374 -2241.559)" fill="#f55b36"/></g><g transform="translate(0 0)"><g transform="translate(0)"><path d="M6049.061,1724.357l36.78-43.475a1.912,1.912,0,0,1,2.7-.218l1.411,1.2a1.917,1.917,0,0,1,.217,2.7l-36.782,43.476c-.686.8-7.209,5.293-7.828,4.814S6048.232,1725.328,6049.061,1724.357Z" transform="translate(-6045.478 -1680.208)"/></g><g transform="translate(12.104 20.314)"><path d="M6334.292,1948.228s-7.875,1.9-10.2,4.119-.03,7.8-.03,7.8Z" transform="translate(-6322.773 -1947.764)" fill="#efb68b"/><path d="M6314.467,1955.137l11.073-12.9-.823.2c-.325.078-7.973,1.944-10.325,4.188-2.435,2.322-.191,7.867-.094,8.1Zm9.541-11.954-9.363,10.908c-.465-1.319-1.682-5.35.125-7.073S6321.928,1943.739,6324.008,1943.183Z" transform="translate(-6313.262 -1942.236)"/></g><g transform="translate(10.558 14.006)"><path d="M6012.081,1865.136c-2.393-2.66-10.128-.4-14.948,1.686s-14.287,16.693-11.616,19.017c2.263,1.969,2.718,2.179,3.683,1.037l-6.083,7.189s.4,1.658,3.072.554c.248,1.818,1.891,2.494,4.207,1.526,1.313,1.411,3.954,2.356,12.277,1.126s13.342-1.187,16.457-4.016c1.784-1.618,2.29-3.277,1.627-5.222s2.95-3.833.854-6.922c-2.985-4.4-.581-7.732-3.231-9.644C6014.95,1868.995,6013.853,1867.105,6012.081,1865.136Z" transform="translate(-5982.854 -1863.689)" fill="#f3c9a7"/><path d="M5993.449,1895.255a45.09,45.09,0,0,0,6.461-.566c1.8-.265,3.468-.475,4.944-.66,5.5-.69,9.141-1.147,11.639-3.415,1.855-1.681,2.393-3.422,1.694-5.477-.233-.684.159-1.393.612-2.214.689-1.247,1.546-2.8.213-4.765a10.248,10.248,0,0,1-1.706-5.715c-.1-1.6-.189-2.982-1.584-3.989a24.032,24.032,0,0,1-5.018-4.834c-.394-.478-.8-.973-1.243-1.464l-.178.161.178-.161c-2.372-2.639-9.682-.773-15.222,1.626-4,1.733-11.389,12.153-12.163,17.153a2.392,2.392,0,0,0,.485,2.266c1.349,1.174,2.094,1.762,2.735,1.79l-5.24,6.193.029.119a1.509,1.509,0,0,0,.773.913,2.947,2.947,0,0,0,2.348-.087,2.307,2.307,0,0,0,1.092,1.546,3.806,3.806,0,0,0,3.238-.066C5988.405,1894.479,5989.877,1895.255,5993.449,1895.255Zm12.112-33.913a4.666,4.666,0,0,1,3.543,1.134c.434.483.82.952,1.229,1.448a24.428,24.428,0,0,0,5.108,4.919c1.211.874,1.288,2.09,1.386,3.629a10.791,10.791,0,0,0,1.787,5.955c1.168,1.721.455,3.013-.236,4.263a3.262,3.262,0,0,0-.647,2.6c.63,1.851.134,3.43-1.561,4.967-2.386,2.166-5.962,2.615-11.376,3.294-1.478.185-3.153.4-4.955.661-8.589,1.269-10.919.181-12.066-1.051l-.114-.123-.154.065a3.441,3.441,0,0,1-2.968.154,1.923,1.923,0,0,1-.908-1.491l-.042-.308-.288.119a2.809,2.809,0,0,1-2.213.215,1.06,1.06,0,0,1-.494-.5l5.987-7.075.006-.007-.367-.31-.005.006c-.346.41-.585.584-.823.6-.46.042-1.153-.487-2.513-1.671-.356-.31-.466-.926-.326-1.83.741-4.781,8.067-15.135,11.879-16.786C5997.423,1862.926,6002.146,1861.342,6005.562,1861.342Z" transform="translate(-5980.057 -1860.869)"/></g><g transform="translate(15.901 22.922)"><path d="M6165.186,1990.4s-2.238,1.8-.291-.4c1.969-2.228,7.084-7.592,9.119-9.052a34.032,34.032,0,0,1,9.952-5.056c1.282-.318-4.629,2.5-9.953,6.1C6171.191,1983.908,6168.263,1987.339,6165.186,1990.4Z" transform="translate(-6164.099 -1975.868)" fill="#010202"/></g><g transform="translate(13.644 30.886)"><path d="M6104.535,2092.4s21.4-10.571,25.9-13.43c2.972-1.753-2.57,2.924-13.866,8.191-3.58,1.669-8.231,4.394-12.212,5.782C6104.061,2093.042,6104.829,2092.3,6104.535,2092.4Z" transform="translate(-6104.286 -2078.592)" fill="#010202"/></g><g transform="translate(18.018 37.517)"><path d="M6061.847,2172.808c-1.458.334,17.59-3.971,23.6-7.69,5.792-3.629.76,3.507-23.541,8.208C6061.564,2173.392,6061.974,2172.838,6061.847,2172.808Z" transform="translate(-6061.765 -2164.125)" fill="#010202"/></g></g></g><g transform="translate(184.802 133.445)"><path d="M6129.446,2377.022s4.288-33.863,4.77-43.625,4.149,14.649,5.7,36.939c2.248,32.385,24.845,48.778,37.108,53.946s38.009-23.333,49.426-46.478c-6.41,14.958-25.753,57.554-49.373,57S6131.41,2384.234,6129.446,2377.022Z" transform="translate(-6129.446 -2331.185)" fill="#ae2302"/></g><g transform="translate(234.248 134.63)"><path d="M6157.307,2354.458s-7.159,4.844-26.4-1.088c-7.759-1.427-20.839,54.509-20.839,54.509l-1.976-9.764s10.3-51.323,20.406-51.642C6138.29,2356.577,6157.307,2354.458,6157.307,2354.458Z" transform="translate(-6108.097 -2346.474)" fill="#c22600"/></g><g transform="translate(0 242.818)"><g transform="translate(0 0)"><path d="M6204.862,3754.053c-39.433,3.335-39.762,14.219-101.217,15.775-108.163,2.737-76.621,13.555-169.236,13.555-83.942,0-153.351-1.8-147.923-14.174s-6.269-9.678-23.3-17.057c-16.119-6.984-3.517-10.2,24.625-10.2h416.617C6235.9,3741.955,6227.774,3752.115,6204.862,3754.053Z" transform="translate(-5835.236 -3741.955)" fill="#feefec"/></g><g transform="translate(17.878 0)" opacity="0.1"><path d="M6198.3,3749.9c-95.873,0-64.361,18.327-117.379,18.327-77.24,0-50.291-15.448-100.41-19.633-10.073-.841-20.943-6.641-4.834-6.641h259.6C6253.3,3741.955,6244.307,3749.9,6198.3,3749.9Z" transform="translate(-5967.47 -3741.955)" fill="#f13b0f"/></g></g><g transform="translate(99.711 246.331)"><g transform="translate(0)"><path d="M7208.821,3787.267s17.524,24.034,47.42,31.8a214.163,214.163,0,0,1-59.6,18.046s-41.02-8.544-43.1-39.733A209.118,209.118,0,0,0,7208.821,3787.267Z" transform="translate(-7153.545 -3787.267)" fill="#f13b0f"/></g><g transform="translate(2.452 -1)"><path d="M7178.231,3787.267s14.082,19.876,45.231,27.641c-31.738,12.618-63.282,14.365-63.282,14.365s-32.4-3.169-39.511-34.358C7150.588,3791.811,7178.231,3787.267,7178.231,3787.267Z" transform="translate(-7120.669 -3787.267)" fill="#f9b09f"/></g></g><g transform="translate(91.636 141.041)"><g transform="translate(0 0)"><g transform="translate(0 97.817)"><path d="M7634.641,3694.333a2.663,2.663,0,0,1-2.661,2.664h-74.323a2.664,2.664,0,0,1-2.664-2.664v-.791a2.664,2.664,0,0,1,2.664-2.664h74.323a2.663,2.663,0,0,1,2.661,2.664Z" transform="translate(-7554.993 -3690.878)" fill="#333"/></g><g transform="translate(51.921 97.817)"><path d="M6401.8,3694.333a2.663,2.663,0,0,1-2.663,2.664H6277.492a2.665,2.665,0,0,1-2.663-2.664v-.791a2.665,2.665,0,0,1,2.663-2.664h121.649a2.664,2.664,0,0,1,2.663,2.664Z" transform="translate(-6274.829 -3690.878)" fill="#101010"/></g><g transform="translate(54.008)"><g transform="translate(0)"><path d="M6170.417,2433.228a3.35,3.35,0,0,0-3.43-4.061H6047.216a5.1,5.1,0,0,0-4.858,4.061l-15.971,90.868a3.349,3.349,0,0,0,3.429,4.061h119.771a5.1,5.1,0,0,0,4.857-4.061Z" transform="translate(-6026.324 -2429.167)" fill="#101010"/></g><g transform="translate(4.289)"><path d="M6148.681,2433.228a3.349,3.349,0,0,0-3.43-4.061H6028.3a5.106,5.106,0,0,0-4.856,4.061l-15.971,90.868a3.349,3.349,0,0,0,3.429,4.061h116.949a5.1,5.1,0,0,0,4.859-4.061Z" transform="translate(-6007.413 -2429.167)" fill="#333"/></g></g></g><g transform="translate(57.982 3.684)"><path d="M7619.112,2568.306a.357.357,0,0,1-.065-.006.376.376,0,0,1-.307-.436L7634.71,2477a.377.377,0,0,1,.743.13l-15.971,90.868A.377.377,0,0,1,7619.112,2568.306Z" transform="translate(-7618.734 -2476.684)" fill="#fff"/></g></g><g transform="translate(128.132 188.176)"><g transform="translate(8.546)"><path d="M7328.346,3081.781s5.6-8.362,25.531-10.435c6.216.2,7.241-3.672,5.176-4.813-4.9-1.368-11.978-2.681-22.473,1.167,0,0,6.011-4.4,23.978-4.222,5.654-.228,7.287-5.01,4.213-6.148-10.589-1.936-17.8-.464-26.889,2.163,0,0,11.4-3.594,28.419-7.224,3.788-.6,4.974-7.033,0-6.373-7.718,1.024-16.434,3.246-27.256,6.252,20.682-6.733,23.345-8.263,21.885-11.182-1.131-2.261-21.764.635-33.429,11.3,0,0-14.376,13.316-9.869,35.846C7320.307,3091.214,7328.346,3081.781,7328.346,3081.781Z" transform="translate(-7316.525 -3040.007)" fill="#f3c9a7"/><path d="M7316.169,3086.12h.009c3.44-.011,9.229-6.756,9.474-7.043l.016-.022c.057-.082,5.8-8.3,25.357-10.329,4,.1,5.892-1.456,6.276-2.854a2.055,2.055,0,0,0-1.009-2.409,32.995,32.995,0,0,0-18.629-.135c3.572-1.2,9.9-2.549,20.016-2.469,3.691-.148,5.67-2.125,5.951-3.9a2.4,2.4,0,0,0-1.653-2.715,48,48,0,0,0-16.34-.362c4.721-1.241,10.812-2.741,17.837-4.24a4.33,4.33,0,0,0,3.457-4.69c-.235-1.613-1.558-2.423-3.539-2.156a158.328,158.328,0,0,0-19.022,4.021c10.235-3.5,13.4-5.1,14.105-6.784a2.307,2.307,0,0,0-.208-2.036c-.171-.342-.614-.574-1.356-.712-4.93-.914-22.289,2.655-32.448,11.946-.146.135-14.425,13.667-9.944,36.07l.014.062.041.048A2.019,2.019,0,0,0,7316.169,3086.12Zm9.108-7.345c-.256.3-5.937,6.855-9.1,6.865a1.49,1.49,0,0,1-1.2-.5c-4.388-22.092,9.668-35.426,9.811-35.559,10.049-9.19,27.18-12.721,32.034-11.827.784.145.971.367,1.016.456a1.851,1.851,0,0,1,.193,1.634c-.787,1.881-5.5,3.861-21.938,9.212l.139.46c11.207-3.113,19.67-5.243,27.224-6.246,1.715-.226,2.806.41,3,1.749a3.883,3.883,0,0,1-3.07,4.149c-16.851,3.594-28.339,7.2-28.453,7.233l.139.459c8.474-2.447,15.826-4.157,26.779-2.157a1.908,1.908,0,0,1,1.306,2.178c-.26,1.637-2.227,3.363-5.484,3.493-.362,0-.722-.005-1.074-.005-17,0-22.793,4.1-23.036,4.274l-1.373,1,1.6-.586c10.091-3.7,16.947-2.662,22.326-1.161a1.564,1.564,0,0,1,.727,1.84c-.338,1.229-2.062,2.634-5.831,2.5C7331.354,3070.287,7325.612,3078.284,7325.277,3078.775Z" transform="translate(-7313.648 -3037.147)"/><g transform="translate(0.184 12.121)"><path d="M7860.681,3222.72s-8.366,10.032-10.778,6.375c-4.506-22.53,10.448-35.6,10.448-35.6S7854.346,3211.066,7860.681,3222.72Z" transform="translate(-7849.056 -3193.496)" fill="#efb68b"/></g></g><g transform="translate(0 14.785)"><path d="M7923.792,3229.7a.586.586,0,0,0-.413-.317l-7.768-1.519a.589.589,0,0,0-.592.234c-5.55,7.746-6.837,16.446-6.937,22.381a44.317,44.317,0,0,0,1.121,11.142.589.589,0,0,0,.479.431l7.726,1.183a.58.58,0,0,0,.483-.146.583.583,0,0,0,.192-.469,72.355,72.355,0,0,1,5.708-32.4A.589.589,0,0,0,7923.792,3229.7Z" transform="translate(-7908.075 -3227.855)" fill="#f55b36"/><g transform="translate(0.043 23.59)"><path d="M7979.181,3534.114a41.682,41.682,0,0,0,1.085,8.2.589.589,0,0,0,.479.431l7.726,1.183a.594.594,0,0,0,.221-.008.595.595,0,0,0,.456-.608,69.384,69.384,0,0,1,.257-11.177C7987.365,3532.365,7984.027,3533.377,7979.181,3534.114Z" transform="translate(-7979.181 -3532.13)" fill="#dc4622"/></g></g></g><g transform="translate(164.461 82.686)"><path d="M7572.983,1677.376a9.058,9.058,0,0,1-5.865-.92C7566.781,1679.947,7570.731,1681.47,7572.983,1677.376Z" transform="translate(-7567.098 -1676.456)" fill="#333"/></g><g transform="translate(127.008 41.756)"><g transform="translate(17.499 11.753)"><path d="M7879.945,1300.12a1.543,1.543,0,0,0-1.7,1.708c.046,1.381,1.715,1.253,1.715,1.253Z" transform="translate(-7878.241 -1300.117)" fill="#010202"/></g><g transform="translate(0 0)"><g transform="translate(67.866 10.853)"><path d="M7165.426,1291.627a.243.243,0,0,0,.089-.47l-6.661-2.638a.244.244,0,0,0-.18.453l6.662,2.638A.243.243,0,0,0,7165.426,1291.627Z" transform="translate(-7158.521 -1288.501)" fill="#010202"/></g><g transform="translate(49.406 2.253)"><path d="M7186.7,1201.942a12.216,12.216,0,1,0-3.309-.458A12.241,12.241,0,0,0,7186.7,1201.942Zm-.037-23.822a11.694,11.694,0,0,1,3.16.437,11.633,11.633,0,1,1-14.342,8.058h0a11.645,11.645,0,0,1,11.182-8.5Z" transform="translate(-7174.501 -1177.572)" fill="#010202"/></g><g transform="translate(18.848)"><path d="M7556.38,1174.861a13.177,13.177,0,1,0-3.552-.491A13.19,13.19,0,0,0,7556.38,1174.861Zm-.015-25.8a12.624,12.624,0,1,1-3.39,24.779,12.62,12.62,0,0,1-8.743-15.561h0a12.639,12.639,0,0,1,12.133-9.218Z" transform="translate(-7543.21 -1148.518)" fill="#010202"/></g><g transform="translate(44.626 13.812)"><path d="M7487.72,1328.157l.341-.348a3.777,3.777,0,0,0-5.247-.07l.329.359A3.252,3.252,0,0,1,7487.72,1328.157Z" transform="translate(-7482.813 -1326.674)" fill="#010202"/></g><g transform="translate(0 3.329)"><path d="M7912.1,1201.4a.243.243,0,0,0,.115-.457l-17.477-9.448a.243.243,0,1,0-.231.428l17.478,9.448A.234.234,0,0,0,7912.1,1201.4Z" transform="translate(-7894.382 -1191.464)" fill="#010202"/></g><g transform="translate(73.312 12.58)"><path d="M7157.177,1310.8a1.542,1.542,0,0,1,1.805,1.6c.041,1.381-1.634,1.357-1.634,1.357Z" transform="translate(-7157.177 -1310.785)" fill="#010202"/></g></g></g><g transform="translate(98.605 150.541)"><path d="M8438.139,2551.7s1.957,7.085,2.122,31.578c-2.648-1.367-4.388-2.071-4.388-2.071Z" transform="translate(-8435.873 -2551.705)" fill="#dc4622"/></g><g transform="translate(91.79 125.466)"><path d="M8057.944,2305.777s-33.14-8.969-41.7-13.3c3.27-15.145,5.3-48.29,2.349-63.187-2.285-8.186,2.771,34.759-4.559,63.594-.253,1.368,35.4,12.333,42.51,14.286C8057.511,2305.622,8057.944,2305.777,8057.944,2305.777Z" transform="translate(-8014.038 -2228.265)" fill="#fff"/></g><g transform="translate(119.903)"><path d="M7315.014,624.956c3.521-.132,6.427-2.068,3.431-2.229-2.468-.132-5.777-1.43-8.019-2.439,5.408-.374,9.736-4.6,6.866-4.777-2.647-.167-2.358,2.112-13.332-1.492-10.9-3.58-17.845-4.774-25.866-3.745l-.058.007-.1.011h0c-8.269.945-12.956,4.468-12.956,4.468-20.784,3.237-21.193,34.255-16.562,40.456a13.038,13.038,0,0,1,7.964,1.18s.283,7.79,6.052,1.14c7.416-8.372,10.9-23.486,10.9-23.486,10.689,15.619,17.625,15.215,13.947,3.857,10.735,8.172,31.743,13.026,33.169,10.6C7321.527,646.671,7323.2,635.149,7315.014,624.956Z" transform="translate(-7246.026 -609.919)" fill="#010202"/></g><g transform="translate(11.998 147.738)"><g transform="translate(17.577 0)"><g transform="translate(0 77.183)"><path d="M8588.719,3645.408c10.2-7.676,8.555-36.8,8.555-36.8h-53.846s-1.648,29.125,8.555,36.8Z" transform="translate(-8543.329 -3608.606)" fill="#333"/><g transform="translate(8.784 36.801)"><ellipse cx="25" cy="4.5" rx="25" ry="4.5" transform="translate(-6.697 2.146)" fill="#f5c1b5"/><rect width="36.606" height="6.647" fill="#191919"/></g></g><g transform="translate(0.002)"><g transform="translate(24.653 9.606)"><path d="M8555.656,2956.186s18.44-48.353,12.175-67.579c-18.486,8.922-28.461,67.579-28.461,67.579Z" transform="translate(-8539.37 -2888.607)" fill="#60c759"/></g><g transform="translate(0 9.606)"><path d="M8815.493,2956.186s-18.439-48.353-12.175-67.579c18.488,8.922,28.463,67.579,28.463,67.579Z" transform="translate(-8802.02 -2888.607)" fill="#60c759"/></g><g transform="translate(17.119)"><path d="M8745.395,2863.449s5.6-64.486-8.74-77.184c-12.683,11.508-9.542,77.184-9.542,77.184Z" transform="translate(-8726.768 -2786.265)" fill="#7ee177"/></g><g transform="translate(32.795 19.829)"><path d="M8376.568,3054.888s27.477-38.127,21.211-57.355c-14.7,3.565-37.5,57.355-37.5,57.355Z" transform="translate(-8360.281 -2997.533)" fill="#7ee177"/></g></g></g><g transform="translate(0 19.829)"><path d="M8919.127,3054.888s-27.478-38.127-21.211-57.355c14.7,3.565,37.5,57.355,37.5,57.355Z" transform="translate(-8896.986 -2997.533)" fill="#7ee177"/></g></g></g><g transform="translate(333.902 152.1)"><path d="M2141.993,737.666h-57.711a6.9,6.9,0,0,0-6.881,6.881v18.906a6.9,6.9,0,0,0,6.881,6.88h8.41V782.8c0,2.689,1.958,3.487,3.994,2.021l19.717-14.2c.14-.1.277-.2.419-.3h25.17a6.9,6.9,0,0,0,6.881-6.88V744.547a6.9,6.9,0,0,0-6.881-6.881" transform="translate(-2077.401 -737.666)" fill="#f13b0f" opacity="0.1"/><text transform="translate(11.236 21.221)" fill="#f13b0f" font-size="13" font-family="Roboto-Black, Roboto" font-weight="800"><tspan x="0" y="0">&lt; PHP &gt; </tspan></text></g><g transform="translate(213.732 -19.411)"><path d="M1877.564,308.961H1800.7a8.35,8.35,0,0,0-8.326,8.326v22.876a8.35,8.35,0,0,0,8.326,8.326h5.088V363.58c0,3.253,2.369,4.219,4.833,2.445l23.858-17.179c.169-.121.335-.245.508-.357h42.577a8.35,8.35,0,0,0,8.326-8.326V317.287a8.351,8.351,0,0,0-8.326-8.326" transform="translate(-1792.375 -308.961)" fill="#f13b0f" opacity="0.1"/><text transform="translate(10.643 23.837)" fill="#f13b0f" font-size="13" font-family="Roboto-Black, Roboto" font-weight="800"><tspan x="0" y="0">&lt; NODE.JS &gt;</tspan></text></g><g transform="translate(311.381 66.163)"><path d="M1870.564,312.961H1800.7a8.35,8.35,0,0,0-8.326,8.326v14.876a8.35,8.35,0,0,0,8.326,8.326h5.088l1,11.091c0,3.253,2.369,4.219,4.833,2.445l9.858-13.179c.169-.121.335-.245.508-.357h48.577a8.35,8.35,0,0,0,8.326-8.326V321.287a8.351,8.351,0,0,0-8.326-8.326" transform="translate(-1792.375 -308.961)" fill="#f13b0f" opacity="0.1"/><text transform="translate(10.643 24.837)" fill="#f13b0f" font-size="13" font-family="Roboto-Black, Roboto" font-weight="800"><tspan x="0" y="0">&lt; KOTLIN &gt;</tspan></text></g></g></svg>