<svg xmlns="http://www.w3.org/2000/svg" xmlns:xlink="http://www.w3.org/1999/xlink" width="500" height="402.306" viewBox="0 0 500 402.306"><defs><filter id="a" x="138.757" y="0" width="220.036" height="182.604" filterUnits="userSpaceOnUse"><feOffset dy="3" input="SourceAlpha"/><feGaussianBlur stdDeviation="12.5" result="b"/><feFlood flood-opacity="0.122"/><feComposite operator="in" in2="b"/><feComposite in="SourceGraphic"/></filter></defs><g transform="translate(-175.286 -108.581)"><g transform="translate(573.736 237.763)"><g transform="translate(3.053 2.781)"><path d="M839.086,319.612a16.63,16.63,0,0,0-18.046.146c-4.964,3.471-7.483,9.785-7.265,15.837s3.153,13.448,8.637,16.626l16.093-.063a21.616,21.616,0,0,0,8.858-16.24A18.781,18.781,0,0,0,839.086,319.612Z" transform="translate(-813.761 -317.025)" fill="#adec84"/></g><g transform="translate(8.072 2.777)"><g transform="translate(10.812 0.587)"><path d="M838.193,323.031c-.146-1.589-.28-2.875-.388-3.761a7.237,7.237,0,0,0-.22-1.369,7.2,7.2,0,0,0,.021,1.386c.058.988.135,2.254.224,3.772.2,3.182.461,7.576.676,12.436s.338,9.259.419,12.446c.044,1.519.078,2.787.108,3.775a6.962,6.962,0,0,0,.1,1.387,7.433,7.433,0,0,0,.1-1.387c.032-.893.05-2.183.056-3.779.013-3.191-.056-7.6-.269-12.463S838.484,326.209,838.193,323.031Z" transform="translate(-837.564 -317.901)" fill="#91d168"/></g><path d="M830.656,317.7a16.174,16.174,0,0,0-3.359,2.626,21.631,21.631,0,0,0-5.86,12.593,27.349,27.349,0,0,0,.383,7.74,51.562,51.562,0,0,0,1.542,6.122c.541,1.713,1.048,3.071,1.41,4.007a8.356,8.356,0,0,0,.621,1.428,9.69,9.69,0,0,0-.433-1.494c-.3-.953-.756-2.329-1.25-4.046a58.094,58.094,0,0,1-1.423-6.1,27.848,27.848,0,0,1-.337-7.6,21.987,21.987,0,0,1,5.609-12.4,23.391,23.391,0,0,1,4.5-3.561,1.254,1.254,0,0,0-.376.147A10.621,10.621,0,0,0,830.656,317.7Z" transform="translate(-821.307 -317.019)" fill="#91d168"/><g transform="translate(10.366 0.212)"><path d="M846.218,325.182a17.607,17.607,0,0,0-3.919-5.266,12.673,12.673,0,0,0-3.823-2.225,7.9,7.9,0,0,0-1.165-.313,1.341,1.341,0,0,0-.418-.033c-.007.045.561.136,1.512.535a13.526,13.526,0,0,1,3.655,2.308,17.909,17.909,0,0,1,3.731,5.2,26.671,26.671,0,0,1,2.187,7.568,31.249,31.249,0,0,1-1.381,14.188,56.351,56.351,0,0,1-2.308,5.518,10.014,10.014,0,0,0,.856-1.373c.249-.455.523-1.032.853-1.693.279-.684.651-1.446.943-2.332a30.181,30.181,0,0,0,1.545-14.381A26.315,26.315,0,0,0,846.218,325.182Z" transform="translate(-836.893 -317.338)" fill="#91d168"/></g></g><g transform="translate(8.338 39.928)"><path d="M822.773,384.212a6.588,6.588,0,0,0,6.558,5.971h8.73a6.588,6.588,0,0,0,6.556-5.951l1.084-11.164-23.994-.19Z" transform="translate(-821.707 -372.878)" fill="#00002e"/></g><g transform="translate(8.338 39.928)"><path d="M822,375.642s10.563.656,23.317,1.43l.388-4-23.994-.19Z" transform="translate(-821.707 -372.878)" fill="#212121"/></g><g transform="translate(11.293 46.744)"><path d="M826.15,391.674a6.573,6.573,0,0,0,4.669,1.941h8.73a6.588,6.588,0,0,0,6.557-5.951l.441-4.539S842.034,393.008,826.15,391.674Z" transform="translate(-826.15 -383.126)" fill="#212121"/></g><g transform="translate(6.952 37.094)"><path d="M2.834,0H23.807a2.834,2.834,0,0,1,2.834,2.834v0a2.834,2.834,0,0,1-2.834,2.834H2.834A2.834,2.834,0,0,1,0,2.834v0A2.834,2.834,0,0,1,2.834,0Z" fill="#7b1800"/></g><g transform="translate(0 0)"><g transform="translate(0.244 18.815)"><path d="M812.13,341.176c-3.519-.4-3.681,2.16.918,1.98C814.707,343.384,816.193,341.634,812.13,341.176Z" transform="translate(-809.538 -341.134)" fill="#91d168"/></g><g transform="translate(1.266 12.527)"><path d="M813.61,332.117c-3.957-1.634-3.044,1.8,1.084,2.335C815.712,334.068,816.061,333.222,813.61,332.117Z" transform="translate(-811.074 -331.68)" fill="#91d168"/></g><g transform="translate(8.639 3.009)"><path d="M824.837,321.208c-.165-1.348.041-.936-1.1-3.188C820.661,314.992,822.67,323.649,824.837,321.208Z" transform="translate(-822.16 -317.369)" fill="#91d168"/></g><g transform="translate(4.971 7.507)"><path d="M818.154,324.44c-3.876-1.893.786,5.675,2.064,2.668C819.631,325.882,819.958,326.207,818.154,324.44Z" transform="translate(-816.644 -324.132)" fill="#91d168"/></g><g transform="translate(13.19)"><path d="M829.659,312.844c-1.253.688-.631,3.705,1.159,4.8C832.151,317.691,831.15,313.12,829.659,312.844Z" transform="translate(-829.002 -312.844)" fill="#91d168"/></g><g transform="translate(20.875 0.209)"><path d="M842.029,316.52c.531-1.182,1.109-1.748.249-3.264C840.894,312.314,839.341,318.521,842.029,316.52Z" transform="translate(-840.557 -313.158)" fill="#91d168"/></g><g transform="translate(25.265 2.504)"><path d="M849.41,319.02c.426-.837,1.839-1.1.571-2.317C848.761,315.769,844.627,322.11,849.41,319.02Z" transform="translate(-847.158 -316.608)" fill="#91d168"/></g><g transform="translate(29.627 5.687)"><path d="M854.428,324.341c.444.04,3.51-1,2.662-2.881C856.94,320.981,851.891,323.283,854.428,324.341Z" transform="translate(-853.716 -321.395)" fill="#91d168"/></g><g transform="translate(32.109 10.343)"><path d="M857.93,331.155c.232.263,5.11-1.011,3.948-2.633C861.861,327.9,855.713,329.718,857.93,331.155Z" transform="translate(-857.448 -328.396)" fill="#91d168"/></g><g transform="translate(33.556 15.298)"><path d="M861.762,335.871c-4.17.36-1.6,3.4,2.223,1.261C864.433,336.336,864.246,335.709,861.762,335.871Z" transform="translate(-859.624 -335.845)" fill="#91d168"/></g><g transform="translate(34.463 20.357)"><path d="M863.457,343.844c-3.872-1.52-2.935,1.839,1.034,2.3C865.54,346.049,865.983,344.924,863.457,343.844Z" transform="translate(-860.987 -343.451)" fill="#91d168"/></g><g transform="translate(33.473 25.021)"><path d="M863,351.815c-2.907-3.042-6.326-.316.393,2C864.187,353.751,864.846,352.85,863,351.815Z" transform="translate(-859.499 -350.464)" fill="#91d168"/></g><g transform="translate(31.637 29.219)"><path d="M859,357.948c-2.733-3.08-3.253.68-.08,2.506C860.958,361.663,860.954,359.514,859,357.948Z" transform="translate(-856.738 -356.776)" fill="#91d168"/></g><g transform="translate(3.969 32.351)"><path d="M815.641,364.8c.341.218,5.653-1.673,4.334-3.227C819.588,361,813.356,363.355,815.641,364.8Z" transform="translate(-815.139 -361.486)" fill="#91d168"/></g><g transform="translate(2.399 27.995)"><path d="M814.425,355.4c-2.516.922-2.346,3.848,1.892,1.189C817.5,355.731,817.3,354.152,814.425,355.4Z" transform="translate(-812.778 -354.936)" fill="#91d168"/></g><g transform="translate(0 24.009)"><path d="M811.462,349c-5.764,1.14.97,3.605,2.575.607C813.943,349.2,813.552,348.793,811.462,349Z" transform="translate(-809.171 -348.943)" fill="#91d168"/></g><g transform="translate(5.808 21.934)"><path d="M820.638,345.847c-2.209-.281-4.761,2.023-.188,1.973C821.5,348.1,824.832,345.544,820.638,345.847Z" transform="translate(-817.904 -345.822)" fill="#91d168"/></g><g transform="translate(11.301 17.316)"><path d="M826.175,339.6c-.269,1.222,4.02,1.732,4.152-.4C830.168,338.686,826.856,338.772,826.175,339.6Z" transform="translate(-826.163 -338.88)" fill="#91d168"/></g><g transform="translate(12.265 12.313)"><path d="M830.025,331.662c-1.98-.91-3.946.375-.632,1.83C830.79,334.365,833.64,333.178,830.025,331.662Z" transform="translate(-827.613 -331.358)" fill="#91d168"/></g><g transform="translate(15.54 7.589)"><path d="M833.209,324.254c-3.115,2.616,5.926,5.27,0,0Z" transform="translate(-832.536 -324.254)" fill="#91d168"/></g><g transform="translate(12.582 23.838)"><path d="M830.427,350.767c.343-.095,2.316-.58,1.4-1.91C831.1,347.893,824.752,351.336,830.427,350.767Z" transform="translate(-828.089 -348.685)" fill="#91d168"/></g><g transform="translate(12.421 32.124)"><path d="M832.017,361.169c-4.465-.465-6.716,5.647.4,1C832.309,362.18,832.949,361.759,832.017,361.169Z" transform="translate(-827.846 -361.144)" fill="#91d168"/></g><g transform="translate(7.932 29.056)"><path d="M822.611,356.746c-3.855,1.076.7,3.888,2.118.3C824.481,356.542,823.67,356.342,822.611,356.746Z" transform="translate(-821.097 -356.531)" fill="#91d168"/></g><g transform="translate(7.35 14.12)"><path d="M822.792,334.456c-3.925-1.512-3.2,1.947,1.133,2.207C825.238,336.6,825.355,335.079,822.792,334.456Z" transform="translate(-820.222 -334.075)" fill="#91d168"/></g><g transform="translate(21.535 13.804)"><path d="M843.776,333.647c-.8-.145-3.936,3.254-.987,2.743C844.528,335.786,846.867,333.221,843.776,333.647Z" transform="translate(-841.55 -333.6)" fill="#91d168"/></g><g transform="translate(22.272 20.46)"><path d="M844.255,343.706c-3.8.623.121,3.82,2.029.567C846.1,343.741,845.333,343.44,844.255,343.706Z" transform="translate(-842.658 -343.607)" fill="#91d168"/></g><g transform="translate(22.55 27.009)"><path d="M845.514,353.857c-3.286-1.493-3.509,1.583.926,2.3C847.152,355.985,848.127,354.949,845.514,353.857Z" transform="translate(-843.076 -353.453)" fill="#91d168"/></g><g transform="translate(21.953 33.916)"><path d="M842.417,363.839c-1.056.339,1.685,4.805,2.812,2.557C845.149,366.166,844.571,363.79,842.417,363.839Z" transform="translate(-842.179 -363.838)" fill="#91d168"/></g><g transform="translate(21.467 8.829)"><path d="M842.617,326.332c-.36.19-.733.333-1.17,1.421C841.873,330.236,847.522,325.029,842.617,326.332Z" transform="translate(-841.447 -326.119)" fill="#91d168"/></g><g transform="translate(26.964 15.557)"><path d="M851.727,336.309c-3.612.094-2.009,3.575,1.987,1.088C853.955,336.553,853.753,336.033,851.727,336.309Z" transform="translate(-849.713 -336.235)" fill="#91d168"/></g><g transform="translate(25.437 9.523)"><path d="M849.315,327.388c-.847.348-2.185.588-1.844,1.772C848.723,330.976,855.093,326.077,849.315,327.388Z" transform="translate(-847.416 -327.162)" fill="#91d168"/></g><g transform="translate(26.902 24.406)"><path d="M853.087,349.928c-4.414-1.425-4.674,1.5-.44,1.874C854.528,352.467,856.984,350.4,853.087,349.928Z" transform="translate(-849.619 -349.539)" fill="#91d168"/></g><g transform="translate(26.126 31.617)"><path d="M848.615,360.427c-.763,1.24,1.31,3.709,3.449,3.913C853.346,363.83,850.025,359.918,848.615,360.427Z" transform="translate(-848.453 -360.382)" fill="#91d168"/></g></g></g><g transform="translate(502.848 319.413)"><g transform="translate(60.838 72.624)"><path d="M818.7,544.8s-.5,16.676-15.3,26.419H794.06S797.713,547.24,818.7,544.8Z" transform="translate(-794.06 -544.804)" fill="#adec84"/></g><g transform="translate(60.838 81.188)"><path d="M798.076,575.536H794.06s1.538-10.1,8.352-17.856A40.236,40.236,0,0,1,798.076,575.536Z" transform="translate(-794.06 -557.68)" fill="#95dc67"/></g><g transform="translate(45.55 0.666)"><path d="M787.688,534.989H772.077s-8.289-63.643,22.761-98.378C794.838,436.611,809.142,488.135,787.688,534.989Z" transform="translate(-771.073 -436.611)" fill="#adec84"/></g><g transform="translate(45.55 60.739)"><path d="M775.052,565.239h-2.974a184.938,184.938,0,0,1-.059-38.3C777.117,541.353,775.052,565.239,775.052,565.239Z" transform="translate(-771.073 -526.934)" fill="#95dc67"/></g><g transform="translate(24.448 24.953)"><path d="M762.106,547.218H746.495c-16.788-27.324,1.254-74.09,1.254-74.09C767.288,505.078,762.106,547.218,762.106,547.218Z" transform="translate(-739.345 -473.128)" fill="#adec84"/></g><g transform="translate(32.186 24.288)"><path d="M754.935,547.548a.69.69,0,0,1-.126-.011.667.667,0,0,1-.528-.779c5.884-30.652-3.192-73.4-3.285-73.825a.665.665,0,1,1,1.3-.281c.093.431,9.226,43.437,3.291,74.356A.666.666,0,0,1,754.935,547.548Z" transform="translate(-750.98 -472.128)" fill="#fef8ec"/></g><g transform="translate(24.448 63.55)"><path d="M758.115,566.654H746.495c-6.3-10.258-7.7-23.258-6.978-35.493C757.931,546.694,758.115,566.654,758.115,566.654Z" transform="translate(-739.345 -531.161)" fill="#95dc67"/></g><g transform="translate(0.665 54.872)"><path d="M744.781,562.284h-15.61c-24.749-16.29-25.585-44.172-25.585-44.172C738.673,522.185,744.781,562.284,744.781,562.284Z" transform="translate(-703.587 -518.112)" fill="#adec84"/></g><g transform="translate(0 54.207)"><path d="M734.184,562.614a.665.665,0,0,1-.646-.507c-5.9-24.32-30.446-43.613-30.694-43.8a.665.665,0,1,1,.815-1.051c.251.195,25.156,19.765,31.171,44.541a.665.665,0,0,1-.489.8A.651.651,0,0,1,734.184,562.614Z" transform="translate(-702.587 -517.113)" fill="#fef8ec"/></g><g transform="translate(55.061)"><path d="M786.09,533.6a.665.665,0,0,1-.665-.645c-1.019-33.629,13.408-96.2,13.555-96.833a.665.665,0,0,1,1.3.3c-.145.626-14.534,63.035-13.52,96.491a.665.665,0,0,1-.645.685Z" transform="translate(-785.373 -435.61)" fill="#fef8ec"/></g><g transform="translate(65.519 71.959)"><path d="M801.763,571.554a.665.665,0,0,1-.625-.893,58.816,58.816,0,0,1,19.546-26.743.665.665,0,1,1,.745,1.1,57.454,57.454,0,0,0-19.041,26.1A.664.664,0,0,1,801.763,571.554Z" transform="translate(-801.097 -543.804)" fill="#fef8ec"/></g><g transform="translate(13.718 97.328)"><path d="M791.009,581.948c10.129,29.935.162,64.838-22.217,86.2h-19.4c-22.38-21.363-32.347-56.266-22.219-86.2Z" transform="translate(-723.212 -581.948)" fill="#232334"/></g><g transform="translate(28.207 184.86)"><path d="M749.386,713.556h34.005c2.412,0,4.386,3.2,4.386,5.616H745C745,716.758,746.973,713.556,749.386,713.556Z" transform="translate(-744.998 -713.556)" fill="#232334"/></g><g transform="translate(17.014 96.663)"><path d="M792.669,582.278H728.833a.665.665,0,0,1,0-1.33h63.835a.665.665,0,0,1,0,1.33Z" transform="translate(-728.168 -580.948)" fill="#fef8ec"/></g><g transform="translate(42.553 122.602)"><path d="M809.491,621.278H767.232a.665.665,0,1,1,0-1.33h42.258a.665.665,0,1,1,0,1.33Z" transform="translate(-766.567 -619.948)" fill="#fef8ec"/></g><g transform="translate(57.945 146)"><path d="M813.5,656.459H790.375a.665.665,0,1,1,0-1.33H813.5a.665.665,0,0,1,0,1.33Z" transform="translate(-789.71 -655.129)" fill="#fef8ec"/></g><g transform="translate(14.487 136.569)"><path d="M761.411,642.278H725.033a.665.665,0,0,1,0-1.33h36.378a.665.665,0,0,1,0,1.33Z" transform="translate(-724.368 -640.948)" fill="#fef8ec"/></g></g><g transform="translate(175.286 294.594)"><g transform="translate(0.403 0.402)"><rect width="480.26" height="13.036" fill="#f13b0f"/><rect width="480.26" height="13.036" opacity="0.7"/></g><path d="M691.145,412.134H210.08V398.293H691.145Zm-480.26-.8H690.34V399.1H210.885Z" transform="translate(-210.08 -398.293)" fill="#1b2e4e"/><g transform="translate(16.379 13.33)"><path d="M237.991,421.62h344.8V620.3h3.285V418.336H234.707V620.3h3.284Z" transform="translate(-234.707 -418.336)" fill="#00002e"/></g><g transform="translate(108.625 13.33)"><path d="M376.688,421.62H728.983V620.3h3.284V418.336H373.4V620.3h3.285Z" transform="translate(-373.403 -418.336)" fill="#00002e"/></g><g transform="translate(350.465 0.402)"><rect width="130.198" height="13.036" transform="translate(130.198 13.036) rotate(180)" fill="#f13b0f"/></g><g transform="translate(350.465 0.402)" opacity="0.8"><rect width="130.198" height="13.036" transform="translate(130.198 13.036) rotate(180)"/></g><g transform="translate(350.062)"><path d="M867.42,412.134h-131V398.293h131Zm-130.2-.8H866.615V399.1H737.222Z" transform="translate(-736.417 -398.293)" fill="#1b2e4e"/></g></g><g transform="translate(351.544 143.081)"><g transform="translate(11.162 19.722)"><g transform="translate(78.263 64.294)"><path d="M647.246,364.762H619.762l-9.968-51.916a13.5,13.5,0,0,1,13.253-16.041h0A13.5,13.5,0,0,1,636.3,307.757Z" transform="translate(-609.547 -296.806)" fill="#000029"/></g><g transform="translate(43.924 127.62)"><rect width="72.789" height="4.63" fill="#e1cac2"/></g><g transform="translate(43.924 127.059)"><rect width="59.703" height="1.122" fill="#361e4d"/></g><g transform="translate(0.664 0.665)"><path d="M501.054,312.285H657.973a8.179,8.179,0,0,0,8.135-7.327l9.927-94.79a8.18,8.18,0,0,0-8.135-9.031H510.981a8.18,8.18,0,0,0-8.135,7.327l-9.927,94.79A8.18,8.18,0,0,0,501.054,312.285Z" transform="translate(-492.873 -201.137)" fill="#000029"/></g><path d="M657.638,312.615H500.72a8.845,8.845,0,0,1-8.8-9.765l9.928-94.79a8.824,8.824,0,0,1,8.8-7.923H667.565a8.844,8.844,0,0,1,8.8,9.766l-9.927,94.79A8.825,8.825,0,0,1,657.638,312.615ZM510.646,201.467a7.5,7.5,0,0,0-7.474,6.731l-9.928,94.79a7.516,7.516,0,0,0,7.475,8.3H657.638a7.5,7.5,0,0,0,7.474-6.731l9.927-94.79a7.514,7.514,0,0,0-7.474-8.3Z" transform="translate(-491.874 -200.137)" fill="#000029"/><g transform="translate(5.069 4.511)"><path d="M663.111,302.595a2,2,0,0,0,1.984-1.788l9.332-89.1a4.284,4.284,0,0,0-1-3.247,4.562,4.562,0,0,0-3.5-1.537H513.2a4.323,4.323,0,0,0-4.309,3.882l-9.382,89.589a2,2,0,0,0,1.985,2.2Z" transform="translate(-499.496 -206.92)" fill="#fff"/></g><g transform="translate(8.446 124.2)"><g transform="translate(0 0)"><path d="M0,0H152.248a0,0,0,0,1,0,0V4a4,4,0,0,1-4,4H4A4,4,0,0,1,0,4V0A0,0,0,0,1,0,0Z" transform="translate(152.248 8.003) rotate(180)" fill="#000029"/></g></g></g><g transform="translate(118.844 32.849)"><g transform="translate(2.328 29.961)"><path d="M691,288.941l4.547-.323.506-5.154-4.428-.887a15.183,15.183,0,0,0-1.589-5.4l3.117-3.525-3.172-3.866-3.86,2.619a14.09,14.09,0,0,0-4.889-2.5l-.131-4.671-4.99-.314-1.041,4.6a15.181,15.181,0,0,0-5.315,1.854l-3.3-3.069-3.887,3.423,2.391,3.871a16.322,16.322,0,0,0-2.623,5.137l-4.547.323-.506,5.154,4.427.887a15.209,15.209,0,0,0,1.59,5.4l-3.117,3.525,3.171,3.866,3.86-2.619a14.1,14.1,0,0,0,4.888,2.5l.132,4.672,4.99.313,1.04-4.6a15.176,15.176,0,0,0,5.315-1.854l3.3,3.069,3.887-3.423-2.392-3.871A16.322,16.322,0,0,0,691,288.941Z" transform="translate(-657.281 -264.923)" fill="#f13b0f"/><path d="M691,288.941l4.547-.323.506-5.154-4.428-.887a15.183,15.183,0,0,0-1.589-5.4l3.117-3.525-3.172-3.866-3.86,2.619a14.09,14.09,0,0,0-4.889-2.5l-.131-4.671-4.99-.314-1.041,4.6a15.181,15.181,0,0,0-5.315,1.854l-3.3-3.069-3.887,3.423,2.391,3.871a16.322,16.322,0,0,0-2.623,5.137l-4.547.323-.506,5.154,4.427.887a15.209,15.209,0,0,0,1.59,5.4l-3.117,3.525,3.171,3.866,3.86-2.619a14.1,14.1,0,0,0,4.888,2.5l.132,4.672,4.99.313,1.04-4.6a15.176,15.176,0,0,0,5.315-1.854l3.3,3.069,3.887-3.423-2.392-3.871A16.322,16.322,0,0,0,691,288.941Z" transform="translate(-657.281 -264.923)" fill="#fff" opacity="0.75"/></g><g transform="translate(0 27.634)"><path d="M674.055,301.92h-.021l-4.99-.313a.333.333,0,0,1-.311-.323l-.124-4.43a14.347,14.347,0,0,1-4.576-2.335L660.371,297a.333.333,0,0,1-.444-.064l-3.17-3.866a.332.332,0,0,1,.008-.431l2.967-3.356a15.515,15.515,0,0,1-1.495-5.073l-4.189-.839a.334.334,0,0,1-.266-.358l.506-5.154a.333.333,0,0,1,.308-.3l4.32-.307a16.622,16.622,0,0,1,2.471-4.84l-2.272-3.678a.332.332,0,0,1,.063-.424l3.887-3.423a.332.332,0,0,1,.446.006l3.123,2.9a15.484,15.484,0,0,1,4.993-1.739l.991-4.378a.33.33,0,0,1,.345-.259l4.99.313a.334.334,0,0,1,.312.323l.124,4.43a14.363,14.363,0,0,1,4.576,2.336l3.661-2.484a.333.333,0,0,1,.443.065l3.172,3.867a.333.333,0,0,1-.008.431l-2.968,3.355a15.472,15.472,0,0,1,1.494,5.073l4.19.839a.332.332,0,0,1,.265.358l-.506,5.154a.332.332,0,0,1-.307.3l-4.32.307a16.6,16.6,0,0,1-2.471,4.84l2.273,3.678a.332.332,0,0,1-.064.424l-3.887,3.423a.333.333,0,0,1-.446-.006l-3.123-2.9a15.47,15.47,0,0,1-4.993,1.739l-.991,4.378A.333.333,0,0,1,674.055,301.92Zm-4.666-.958,4.4.276.978-4.321a.331.331,0,0,1,.275-.255,14.8,14.8,0,0,0,5.2-1.814.334.334,0,0,1,.392.045l3.081,2.865,3.45-3.039-2.244-3.633a.332.332,0,0,1,.019-.376,15.964,15.964,0,0,0,2.569-5.033.333.333,0,0,1,.295-.235l4.266-.3.449-4.575-4.133-.827a.331.331,0,0,1-.265-.292,14.826,14.826,0,0,0-1.554-5.284.333.333,0,0,1,.046-.372l2.93-3.313-2.8-3.413-3.609,2.449a.333.333,0,0,1-.394-.014,13.711,13.711,0,0,0-4.773-2.437.333.333,0,0,1-.242-.311l-.123-4.368-4.4-.277-.978,4.321a.332.332,0,0,1-.275.256,14.814,14.814,0,0,0-5.2,1.814.333.333,0,0,1-.393-.045l-3.081-2.865-3.451,3.038,2.244,3.633a.332.332,0,0,1-.019.376,15.951,15.951,0,0,0-2.57,5.033.332.332,0,0,1-.295.234l-4.267.3-.448,4.575,4.133.827a.33.33,0,0,1,.265.292,14.849,14.849,0,0,0,1.554,5.283.332.332,0,0,1-.046.372l-2.93,3.313,2.8,3.413,3.609-2.449a.333.333,0,0,1,.393.015,13.718,13.718,0,0,0,4.773,2.436.332.332,0,0,1,.241.311Z" transform="translate(-653.781 -261.423)" fill="#1b2e4e"/></g><g transform="translate(12.972 40.899)"><path d="M674.25,286.04a8,8,0,1,0,10.937-3.831A8.2,8.2,0,0,0,674.25,286.04Z" transform="translate(-673.284 -281.368)" fill="#fff"/></g><g transform="translate(11.312 39.239)"><path d="M678.856,296.159a7.951,7.951,0,0,1-3.639-.876,8.542,8.542,0,0,1-3.428-11.561h0a8.33,8.33,0,1,1,14.813,7.585A8.784,8.784,0,0,1,678.856,296.159Zm-6.475-12.133a7.666,7.666,0,1,0,10.489-3.687,7.877,7.877,0,0,0-10.489,3.687Z" transform="translate(-670.789 -278.872)" fill="#1b2e4e"/></g><g transform="translate(29.366 2.328)"><path d="M725.13,242.747l3.668-.261.408-4.158-3.572-.715a12.261,12.261,0,0,0-1.282-4.357l2.513-2.843-2.557-3.119-3.114,2.113a11.358,11.358,0,0,0-3.943-2.013l-.106-3.768-4.024-.253-.839,3.709a12.258,12.258,0,0,0-4.288,1.5l-2.663-2.475-3.135,2.761,1.928,3.122a13.184,13.184,0,0,0-2.116,4.144l-3.667.26-.408,4.158,3.572.715a12.256,12.256,0,0,0,1.282,4.357l-2.514,2.843,2.558,3.119,3.113-2.113a11.363,11.363,0,0,0,3.943,2.013l.106,3.768,4.025.253.839-3.708a12.244,12.244,0,0,0,4.287-1.5l2.664,2.476,3.135-2.761-1.929-3.122A13.17,13.17,0,0,0,725.13,242.747Z" transform="translate(-697.934 -223.374)" fill="#f13b0f"/><path d="M725.13,242.747l3.668-.261.408-4.158-3.572-.715a12.261,12.261,0,0,0-1.282-4.357l2.513-2.843-2.557-3.119-3.114,2.113a11.358,11.358,0,0,0-3.943-2.013l-.106-3.768-4.024-.253-.839,3.709a12.258,12.258,0,0,0-4.288,1.5l-2.663-2.475-3.135,2.761,1.928,3.122a13.184,13.184,0,0,0-2.116,4.144l-3.667.26-.408,4.158,3.572.715a12.256,12.256,0,0,0,1.282,4.357l-2.514,2.843,2.558,3.119,3.113-2.113a11.363,11.363,0,0,0,3.943,2.013l.106,3.768,4.025.253.839-3.708a12.244,12.244,0,0,0,4.287-1.5l2.664,2.476,3.135-2.761-1.929-3.122A13.17,13.17,0,0,0,725.13,242.747Z" transform="translate(-697.934 -223.374)" fill="#fff" opacity="0.75"/></g><g transform="translate(27.037)"><path d="M710.851,252.667h-.021l-4.025-.253a.333.333,0,0,1-.312-.322l-.1-3.528a11.634,11.634,0,0,1-3.631-1.852l-2.914,1.977a.332.332,0,0,1-.444-.065l-2.558-3.119a.333.333,0,0,1,.008-.431l2.366-2.674a12.515,12.515,0,0,1-1.187-4.027l-3.334-.668a.333.333,0,0,1-.266-.359l.408-4.157a.333.333,0,0,1,.308-.3l3.441-.245a13.459,13.459,0,0,1,1.963-3.846l-1.81-2.929a.332.332,0,0,1,.064-.424l3.135-2.761a.332.332,0,0,1,.446.005L704.875,225a12.545,12.545,0,0,1,3.964-1.38l.79-3.488a.33.33,0,0,1,.345-.259l4.025.253a.333.333,0,0,1,.312.323l.1,3.527a11.638,11.638,0,0,1,3.631,1.853l2.914-1.978a.334.334,0,0,1,.444.065l2.557,3.119a.332.332,0,0,1-.008.431l-2.365,2.674a12.524,12.524,0,0,1,1.187,4.027l3.334.667a.333.333,0,0,1,.265.358l-.408,4.157a.333.333,0,0,1-.308.3l-3.442.245a13.474,13.474,0,0,1-1.963,3.846l1.81,2.93a.331.331,0,0,1-.064.424l-3.135,2.761a.332.332,0,0,1-.446-.006l-2.485-2.311a12.527,12.527,0,0,1-3.964,1.38l-.79,3.489A.331.331,0,0,1,710.851,252.667Zm-3.7-.9,3.439.216.777-3.432a.331.331,0,0,1,.275-.255,11.87,11.87,0,0,0,4.171-1.455.334.334,0,0,1,.393.045l2.443,2.271,2.7-2.376-1.78-2.883a.332.332,0,0,1,.019-.376,12.816,12.816,0,0,0,2.062-4.039.332.332,0,0,1,.295-.235l3.388-.241.351-3.578-3.277-.656a.33.33,0,0,1-.265-.292,11.885,11.885,0,0,0-1.247-4.239.332.332,0,0,1,.046-.372l2.327-2.631-2.186-2.665-2.863,1.942a.332.332,0,0,1-.392-.014,11,11,0,0,0-3.828-1.954.333.333,0,0,1-.242-.31l-.1-3.464-3.44-.216-.777,3.432a.331.331,0,0,1-.275.255,11.9,11.9,0,0,0-4.171,1.455.334.334,0,0,1-.392-.045l-2.443-2.271-2.7,2.376,1.781,2.884a.332.332,0,0,1-.019.376,12.8,12.8,0,0,0-2.062,4.039.332.332,0,0,1-.295.235l-3.388.241-.351,3.578,3.276.656a.333.333,0,0,1,.265.292,11.884,11.884,0,0,0,1.247,4.239.333.333,0,0,1-.047.372l-2.327,2.631,2.186,2.665,2.862-1.942a.333.333,0,0,1,.393.014,10.985,10.985,0,0,0,3.828,1.954.333.333,0,0,1,.241.311Z" transform="translate(-694.433 -219.874)" fill="#1b2e4e"/></g><g transform="translate(37.876 11.076)"><path d="M711.5,240.266a6.4,6.4,0,1,0,8.749-3.065A6.559,6.559,0,0,0,711.5,240.266Z" transform="translate(-710.729 -236.527)" fill="#fff"/></g><g transform="translate(36.211 9.415)"><path d="M714.75,247.993a6.423,6.423,0,0,1-2.942-.708,6.526,6.526,0,0,1-3.293-4.012,7.182,7.182,0,0,1,.521-5.326,6.9,6.9,0,0,1,9.2-3.208,6.53,6.53,0,0,1,3.294,4.012,7.182,7.182,0,0,1-.522,5.326A7.094,7.094,0,0,1,714.75,247.993Zm.541-13.3a6.426,6.426,0,0,0-5.662,3.556,6.513,6.513,0,0,0-.475,4.834,5.866,5.866,0,0,0,2.958,3.609,6.234,6.234,0,0,0,8.3-2.92,6.514,6.514,0,0,0,.476-4.834,5.867,5.867,0,0,0-2.958-3.609A5.771,5.771,0,0,0,715.291,234.7Z" transform="translate(-708.226 -234.03)" fill="#1b2e4e"/></g></g><g transform="translate(0 0)"><g transform="matrix(1, 0, 0, 1, -176.26, -34.5)" filter="url(#a)"><path d="M606.4,278.088a3.324,3.324,0,0,0,3.308-2.979L620.1,175.865a4.869,4.869,0,0,0-4.844-5.381H490.384a4.863,4.863,0,0,0-4.847,4.366l-10.427,99.566a3.325,3.325,0,0,0,3.307,3.671Z" transform="translate(-298.84 -135.98)" fill="#fff"/></g><g transform="translate(9.494)"><path d="M624.881,175.865a4.87,4.87,0,0,0-4.845-5.381H495.165a4.863,4.863,0,0,0-4.846,4.366l-.951,9.085H624.036Z" transform="translate(-489.367 -170.484)" fill="#00002e"/></g><g transform="translate(121.602 4.938)"><g transform="translate(14.632)"><path d="M683.242,179.866a1.666,1.666,0,1,1-1.47-1.949A1.729,1.729,0,0,1,683.242,179.866Z" transform="translate(-679.927 -177.909)" fill="#fff"/></g><g transform="translate(7.316)"><path d="M672.242,179.866a1.666,1.666,0,1,1-1.47-1.949A1.729,1.729,0,0,1,672.242,179.866Z" transform="translate(-668.927 -177.909)" fill="#fff"/></g><path d="M661.242,179.866a1.666,1.666,0,1,1-1.47-1.949A1.729,1.729,0,0,1,661.242,179.866Z" transform="translate(-657.927 -177.909)" fill="#fff"/></g><g transform="translate(22.135 20.429)"><g transform="translate(12.291 6.404)"><path d="M575.094,213.964H526.853l.651-3.135h48.241Z" transform="translate(-526.853 -210.829)" fill="#f13b0f"/></g><g transform="translate(12.291 6.404)" opacity="0.75"><path d="M575.094,213.964H526.853l.651-3.135h48.241Z" transform="translate(-526.853 -210.829)" fill="#fff"/></g><g transform="translate(24.032 12.514)"><path d="M591.974,223.152H544.507l.651-3.136h47.467Z" transform="translate(-544.507 -220.017)" fill="#f13b0f"/></g><g transform="translate(24.032 12.514)" opacity="0.75"><path d="M591.974,223.152H544.507l.651-3.136h47.467Z" transform="translate(-544.507 -220.017)" fill="#fff"/></g><g transform="translate(10.082 18.378)"><path d="M561.08,231.968H523.531l.652-3.135h37.547Z" transform="translate(-523.531 -228.833)" fill="#f13b0f"/></g><g transform="translate(10.082 18.378)" opacity="0.75"><path d="M561.08,231.968H523.531l.652-3.135h37.547Z" transform="translate(-523.531 -228.833)" fill="#fff"/></g><g transform="translate(51.502 18.378)"><path d="M617.945,231.968H585.809l.651-3.135H618.6Z" transform="translate(-585.809 -228.833)" fill="#f13b0f"/></g><g transform="translate(25.21 24.489)"><path d="M589.729,241.157H546.278l.651-3.136H590.38Z" transform="translate(-546.278 -238.021)" fill="#f13b0f"/></g><g transform="translate(15.54 30.6)"><path d="M602.117,250.345H531.738l.65-3.135h70.379Z" transform="translate(-531.738 -247.21)" fill="#f13b0f"/></g><g transform="translate(15.54 30.6)" opacity="0.75"><path d="M602.117,250.345H531.738l.65-3.135h70.379Z" transform="translate(-531.738 -247.21)" fill="#fff"/></g><g transform="translate(6.641 36.96)"><path d="M591.929,259.908H518.357l.651-3.136H592.58Z" transform="translate(-518.357 -256.772)" fill="#f13b0f"/></g><g transform="translate(6.641 36.96)" opacity="0.75"><path d="M591.929,259.908H518.357l.651-3.136H592.58Z" transform="translate(-518.357 -256.772)" fill="#fff"/></g><g transform="translate(16.705 43.071)"><path d="M574.78,269.1H533.489l.652-3.136h41.289Z" transform="translate(-533.489 -265.96)" fill="#f13b0f"/></g><g transform="translate(16.705 43.071)" opacity="0.75"><path d="M574.78,269.1H533.489l.652-3.136h41.289Z" transform="translate(-533.489 -265.96)" fill="#fff"/></g><g transform="translate(61.32 43.071)"><path d="M630.959,269.1H600.57l.652-3.136h30.386Z" transform="translate(-600.57 -265.96)" fill="#f13b0f"/></g><g transform="translate(4.43 48.934)"><path d="M547.7,277.912H515.034l.652-3.136h32.66Z" transform="translate(-515.034 -274.776)" fill="#f13b0f"/></g><g transform="translate(4.43 48.934)" opacity="0.75"><path d="M547.7,277.912H515.034l.652-3.136h32.66Z" transform="translate(-515.034 -274.776)" fill="#fff"/></g><g transform="translate(40.46 48.934)"><path d="M613.063,277.912H569.206l.65-3.136h43.857Z" transform="translate(-569.206 -274.776)" fill="#f13b0f"/></g><g transform="translate(40.46 48.934)" opacity="0.75"><path d="M613.063,277.912H569.206l.65-3.136h43.857Z" transform="translate(-569.206 -274.776)" fill="#fff"/></g><g transform="translate(12.273 67.084)"><path d="M568.117,305.2h-41.29l.652-3.136h41.289Z" transform="translate(-526.827 -302.065)" fill="#f13b0f"/></g><g transform="translate(12.273 67.084)" opacity="0.75"><path d="M568.117,305.2h-41.29l.652-3.136h41.289Z" transform="translate(-526.827 -302.065)" fill="#fff"/></g><g transform="translate(56.888 67.084)"><path d="M624.3,305.2h-30.39l.651-3.136h30.39Z" transform="translate(-593.907 -302.065)" fill="#f13b0f"/></g><g transform="translate(0 72.947)"><path d="M541.033,314.017h-32.66l.651-3.136h32.66Z" transform="translate(-508.373 -310.881)" fill="#f13b0f"/></g><g transform="translate(0 72.947)" opacity="0.75"><path d="M541.033,314.017h-32.66l.651-3.136h32.66Z" transform="translate(-508.373 -310.881)" fill="#fff"/></g><g transform="translate(36.028 72.947)"><path d="M606.4,314.017H562.543l.651-3.136h43.857Z" transform="translate(-562.543 -310.881)" fill="#f13b0f"/></g><g transform="translate(36.028 72.947)" opacity="0.75"><path d="M606.4,314.017H562.543l.651-3.136h43.857Z" transform="translate(-562.543 -310.881)" fill="#fff"/></g><g transform="translate(17.442 55.046)"><path d="M572.394,287.1H534.6l.651-3.135h37.8Z" transform="translate(-534.598 -283.965)" fill="#f13b0f"/></g><g transform="translate(8.883 61.157)"><path d="M582.949,296.289h-61.22l.651-3.135H583.6Z" transform="translate(-521.729 -293.154)" fill="#f13b0f"/></g><g transform="translate(8.883 61.157)" opacity="0.75"><path d="M582.949,296.289h-61.22l.651-3.135H583.6Z" transform="translate(-521.729 -293.154)" fill="#fff"/></g><g transform="translate(89.463 60.363)"><path d="M642.886,311.38l.281-1.351a2.878,2.878,0,0,0,1.9-.317,2.666,2.666,0,0,0,.934-1.754l.732-3.528a3.2,3.2,0,0,1,2.218-2.745q-1.546-.486-1.076-2.746l.731-3.529q.271-1.309-.207-1.752a2.3,2.3,0,0,0-1.771-.317l.28-1.352a3.142,3.142,0,0,1,2.678.686,2.973,2.973,0,0,1,.414,2.735l-.732,3.529q-.263,1.267.16,1.668a2.381,2.381,0,0,0,1.608.4l-.281,1.351a3.173,3.173,0,0,0-1.773.4,2.577,2.577,0,0,0-.854,1.669l-.732,3.528a4.333,4.333,0,0,1-1.55,2.736A4.175,4.175,0,0,1,642.886,311.38Z" transform="translate(-642.886 -291.96)" fill="#f13b0f"/></g><g transform="translate(89.463 60.363)" opacity="0.75"><path d="M642.886,311.38l.281-1.351a2.878,2.878,0,0,0,1.9-.317,2.666,2.666,0,0,0,.934-1.754l.732-3.528a3.2,3.2,0,0,1,2.218-2.745q-1.546-.486-1.076-2.746l.731-3.529q.271-1.309-.207-1.752a2.3,2.3,0,0,0-1.771-.317l.28-1.352a3.142,3.142,0,0,1,2.678.686,2.973,2.973,0,0,1,.414,2.735l-.732,3.529q-.263,1.267.16,1.668a2.381,2.381,0,0,0,1.608.4l-.281,1.351a3.173,3.173,0,0,0-1.773.4,2.577,2.577,0,0,0-.854,1.669l-.732,3.528a4.333,4.333,0,0,1-1.55,2.736A4.175,4.175,0,0,1,642.886,311.38Z" transform="translate(-642.886 -291.96)" fill="#fff"/></g><g transform="translate(1.009)"><path d="M511.34,219.934a2.973,2.973,0,0,1-.414-2.736l.732-3.527q.264-1.268-.16-1.669a2.38,2.38,0,0,0-1.607-.4l.281-1.352a3.173,3.173,0,0,0,1.773-.4,2.582,2.582,0,0,0,.854-1.669l.732-3.528a4.33,4.33,0,0,1,1.55-2.736,4.172,4.172,0,0,1,2.963-.686l-.281,1.351a2.871,2.871,0,0,0-1.9.317,2.663,2.663,0,0,0-.934,1.753l-.731,3.528a3.2,3.2,0,0,1-2.218,2.746q1.547.487,1.077,2.747l-.732,3.527c-.182.873-.112,1.458.207,1.754a2.3,2.3,0,0,0,1.772.317l-.281,1.352A3.141,3.141,0,0,1,511.34,219.934Z" transform="translate(-509.89 -201.201)" fill="#f13b0f"/></g><g transform="translate(1.009)" opacity="0.75"><path d="M511.34,219.934a2.973,2.973,0,0,1-.414-2.736l.732-3.527q.264-1.268-.16-1.669a2.38,2.38,0,0,0-1.607-.4l.281-1.352a3.173,3.173,0,0,0,1.773-.4,2.582,2.582,0,0,0,.854-1.669l.732-3.528a4.33,4.33,0,0,1,1.55-2.736,4.172,4.172,0,0,1,2.963-.686l-.281,1.351a2.871,2.871,0,0,0-1.9.317,2.663,2.663,0,0,0-.934,1.753l-.731,3.528a3.2,3.2,0,0,1-2.218,2.746q1.547.487,1.077,2.747l-.732,3.527c-.182.873-.112,1.458.207,1.754a2.3,2.3,0,0,0,1.772.317l-.281,1.352A3.141,3.141,0,0,1,511.34,219.934Z" transform="translate(-509.89 -201.201)" fill="#fff"/></g></g></g></g><g transform="translate(190.929 140.335)"><g transform="translate(17.03 180.442)"><g transform="translate(0.487 1.125)"><path d="M288.774,517.274h-8.981s-24.719-3.906-18.994-51.612a16.388,16.388,0,0,1,10.616-13.452c13.41-4.881,40.758-12.858,76.537-12.858,0,0,.357.033.942.141a225.059,225.059,0,0,0-68.5,12.717,16.375,16.375,0,0,0-10.616,13.452C264.054,513.368,288.774,517.274,288.774,517.274Z" transform="translate(-259.938 -439.353)" fill="#f13b0f"/><path d="M288.774,517.274h-8.981s-24.719-3.906-18.994-51.612a16.388,16.388,0,0,1,10.616-13.452c13.41-4.881,40.758-12.858,76.537-12.858,0,0,.357.033.942.141a225.059,225.059,0,0,0-68.5,12.717,16.375,16.375,0,0,0-10.616,13.452C264.054,513.368,288.774,517.274,288.774,517.274Z" transform="translate(-259.938 -439.353)" opacity="0.85"/></g><g transform="translate(0 0.627)"><path d="M288.528,517.522l-9.06-.006c-.26-.042-6.436-1.088-11.958-8.1-5.043-6.406-10.431-19.25-7.452-44.064A16.814,16.814,0,0,1,271,451.49c13.224-4.813,40.772-12.887,76.708-12.887a10.064,10.064,0,0,1,1.032.149l4.533.835-4.606.154a225.188,225.188,0,0,0-68.342,12.686,15.815,15.815,0,0,0-10.292,13.043c-2.93,24.41,2.3,37,7.194,43.262,5.277,6.747,11.322,7.789,11.382,7.8Zm-8.938-1h5.8a23.394,23.394,0,0,1-8.894-7.109c-5.044-6.406-10.431-19.25-7.452-44.064a16.809,16.809,0,0,1,10.939-13.86A217.507,217.507,0,0,1,325.8,440.6a220.846,220.846,0,0,0-54.461,11.825,15.819,15.819,0,0,0-10.292,13.042c-2.93,24.411,2.3,37,7.194,43.262C273.313,515.213,279.09,516.43,279.591,516.524Z" transform="translate(-259.206 -438.603)" fill="#f13b0f"/><path d="M288.528,517.522l-9.06-.006c-.26-.042-6.436-1.088-11.958-8.1-5.043-6.406-10.431-19.25-7.452-44.064A16.814,16.814,0,0,1,271,451.49c13.224-4.813,40.772-12.887,76.708-12.887a10.064,10.064,0,0,1,1.032.149l4.533.835-4.606.154a225.188,225.188,0,0,0-68.342,12.686,15.815,15.815,0,0,0-10.292,13.043c-2.93,24.41,2.3,37,7.194,43.262,5.277,6.747,11.322,7.789,11.382,7.8Zm-8.938-1h5.8a23.394,23.394,0,0,1-8.894-7.109c-5.044-6.406-10.431-19.25-7.452-44.064a16.809,16.809,0,0,1,10.939-13.86A217.507,217.507,0,0,1,325.8,440.6a220.846,220.846,0,0,0-54.461,11.825,15.819,15.819,0,0,0-10.292,13.042c-2.93,24.411,2.3,37,7.194,43.262C273.313,515.213,279.09,516.43,279.591,516.524Z" transform="translate(-259.206 -438.603)" opacity="0.85"/></g><g transform="translate(65.47 1.125)"><path d="M400.522,463.477c-7.554,22.662-15.292,41.818-15.292,41.818s-3.681,11.98-18.6,11.98h-8.983c14.924,0,18.615-11.98,18.615-11.98s7.739-19.156,15.281-41.818c6.505-19.512-6.266-23.313-9.923-23.983q3.944-.147,8.041-.141S408.076,440.825,400.522,463.477Z" transform="translate(-357.643 -439.353)" fill="#f0e3dd"/></g><g transform="translate(8.383)"><path d="M292.621,517.812c-1.053-.165-25.724-4.628-19.931-52.847a17.415,17.415,0,0,1,11.344-14.373c13.248-4.829,40.856-12.931,76.922-12.931l.088,0c.3.025,7.388.656,11.287,6.551,3.048,4.606,3.234,11.017.555,19.054-7.476,22.433-15.236,41.69-15.28,41.792-.041.127-4.108,12.765-19.678,12.765h-45.22ZM284.8,452.7a15.176,15.176,0,0,0-9.886,12.533c-5.365,44.671,16.566,50.054,17.986,50.351h45.027c13.874,0,17.391-10.728,17.566-11.272.076-.192,7.811-19.389,15.266-41.751,2.446-7.339,2.349-13.09-.287-17.092-3.148-4.779-9.043-5.51-9.571-5.565C325.207,439.91,297.9,447.923,284.8,452.7Z" transform="translate(-271.81 -437.661)" fill="#f13b0f"/><path d="M292.621,517.812c-1.053-.165-25.724-4.628-19.931-52.847a17.415,17.415,0,0,1,11.344-14.373c13.248-4.829,40.856-12.931,76.922-12.931l.088,0c.3.025,7.388.656,11.287,6.551,3.048,4.606,3.234,11.017.555,19.054-7.476,22.433-15.236,41.69-15.28,41.792-.041.127-4.108,12.765-19.678,12.765h-45.22ZM284.8,452.7a15.176,15.176,0,0,0-9.886,12.533c-5.365,44.671,16.566,50.054,17.986,50.351h45.027c13.874,0,17.391-10.728,17.566-11.272.076-.192,7.811-19.389,15.266-41.751,2.446-7.339,2.349-13.09-.287-17.092-3.148-4.779-9.043-5.51-9.571-5.565C325.207,439.91,297.9,447.923,284.8,452.7Z" transform="translate(-271.81 -437.661)" fill="rgba(0,0,0,0.9)"/></g></g><g transform="translate(234.234 141.188)"><path d="M622.395,392.5s-2.555-13.862-14.437-13.862c-13.194,0-19,7.784-22.175,13.724Z" transform="translate(-585.783 -378.641)" fill="#00002e"/></g><g transform="translate(83.529 296.36)"><path d="M382.99,667s-5.943,2.394-16.3-14.736-8.98-33.435-1.935-39.238,21.554,13.263,25.974,25.144S397.081,669.162,382.99,667Z" transform="translate(-359.191 -611.95)" fill="#f13b0f"/><path d="M382.99,667s-5.943,2.394-16.3-14.736-8.98-33.435-1.935-39.238,21.554,13.263,25.974,25.144S397.081,669.162,382.99,667Z" transform="translate(-359.191 -611.95)" opacity="0.85"/></g><g transform="translate(53.498 293.933)"><g transform="translate(3.31)"><path d="M370.225,632.318c-9.74,2.528-18.711,9.978-23.612,23.613-1.714,4.755-3.75,9.323-2.7,14.56.914,4.568,4.544,8.586,7.855,10.73,1.066.69,1.066,1.848-.2,1.838-4.581-.037-11.285-.084-15.782-.084-7.414,0-16.218-4.213-13.755-14.955s.767-18.815-2.118-30.5,1.133-19.73,13.952-21.866c4.6-.758,12.058-1.308,15.251-2.493a97.53,97.53,0,0,0,8.82-4.858S377.962,621.4,370.225,632.318Z" transform="translate(-319.014 -608.301)" fill="#ffb39b"/></g><g transform="translate(2.933 7.199)"><g transform="translate(0.395 0.398)"><path d="M340.817,671.086c-1.64-9.31-.482-19.057,0-23.511.557-5.133,3.219-12.57.589-19.641-3.166-8.507-8.194-8.27-8.677-8.189-11.747,1.968-15.617,10.309-12.816,21.638,2.891,11.688,4.578,19.758,2.117,30.5s6.346,14.957,13.762,14.957c3.415,0,8.82.027,12.919.054a1.36,1.36,0,0,0,.846-2.435C346.409,682.042,342.014,677.875,340.817,671.086Z" transform="translate(-319.04 -619.724)" fill="#616161"/></g><path d="M348.52,687.1h-.013c-4.1-.029-9.5-.055-12.916-.055-5.188,0-9.8-1.893-12.325-5.067-2.168-2.722-2.783-6.216-1.829-10.383,2.414-10.534.811-18.479-2.116-30.312-1.548-6.263-1.034-11.6,1.487-15.441,2.322-3.534,6.242-5.784,11.653-6.691.053-.005,5.665-.839,9.12,8.445,2.031,5.46.96,11.166.1,15.75-.275,1.463-.534,2.845-.667,4.074l-.055.5c-.492,4.538-1.518,13.978.052,22.9.9,5.08,3.7,9.372,8.587,13.122a1.763,1.763,0,0,1-1.081,3.158ZM332.841,619.93a1.951,1.951,0,0,0-.246.012c-5.181.867-8.92,3-11.114,6.338-2.4,3.645-2.872,8.766-1.379,14.806,2.955,11.948,4.572,19.977,2.118,30.685-.9,3.916-.333,7.181,1.675,9.7,2.376,2.982,6.748,4.763,11.694,4.763,3.416,0,8.822.026,12.922.055h.008a.941.941,0,0,0,.909-.65.929.929,0,0,0-.32-1.064c-5.049-3.878-7.956-8.334-8.888-13.621h0c-1.592-9.03-.557-18.549-.06-23.123l.054-.5c.138-1.26.4-2.658.676-4.136.841-4.487,1.889-10.07-.064-15.321C338.057,620.426,333.89,619.93,332.841,619.93Z" transform="translate(-318.447 -619.126)" fill="#616161"/></g><g transform="translate(0 7.199)"><g transform="translate(0.395 0.398)"><path d="M336.407,671.086c-1.639-9.31-.482-19.057,0-23.511.556-5.133,3.218-12.57.589-19.641-3.165-8.507-8.194-8.27-8.676-8.189-11.747,1.968-15.618,10.309-12.817,21.638,2.891,11.688,4.578,19.758,2.118,30.5s6.346,14.957,13.761,14.957c3.78,0,10,.013,14.182.037a.945.945,0,0,0,.561-1.712C343,682.906,337.735,678.618,336.407,671.086Z" transform="translate(-314.63 -619.724)" fill="#272727"/></g><path d="M345.369,687.079h-.008c-4.185-.024-10.4-.038-14.18-.038-5.188,0-9.8-1.893-12.323-5.067-2.17-2.722-2.785-6.216-1.83-10.383,2.413-10.536.81-18.48-2.116-30.312-1.548-6.263-1.034-11.6,1.487-15.441,2.322-3.533,6.243-5.784,11.655-6.691.054-.007,5.663-.843,9.119,8.445,2.03,5.46.96,11.166.1,15.751-.275,1.463-.533,2.845-.666,4.074l-.055.5c-.493,4.537-1.518,13.98.052,22.9h0c1.252,7.107,6.053,11.292,9.556,13.823a1.348,1.348,0,0,1-.791,2.441Zm-16.935-67.149a1.845,1.845,0,0,0-.247.013c-5.182.867-8.922,3-11.115,6.338-2.4,3.646-2.872,8.766-1.379,14.806,2.955,11.947,4.573,19.974,2.118,30.685-.9,3.916-.333,7.18,1.675,9.7,2.377,2.984,6.748,4.764,11.694,4.764,3.782,0,10,.014,14.184.038h0a.544.544,0,0,0,.32-.985c-3.617-2.611-8.574-6.94-9.877-14.333h0c-1.591-9.033-.557-18.553-.06-23.127l.054-.5c.137-1.26.4-2.658.676-4.136.842-4.487,1.889-10.07-.064-15.321C333.648,620.427,329.483,619.929,328.434,619.929Z" transform="translate(-314.037 -619.125)" fill="#616161"/></g><g transform="translate(3.655 11.351)"><path d="M319.532,636.3c0,6.035,3.807,10.927,8.505,10.927s8.5-4.892,8.5-10.927-3.807-10.929-8.5-10.929S319.532,630.261,319.532,636.3Z" transform="translate(-319.532 -625.368)" fill="#00002e"/></g><g transform="translate(25.803 5.57)"><path d="M353.7,642.586c8.825-10.763,7.628-18.22,6.705-20.925-.893-2.617-2.68-4.527-4.664-4.985l-.251,1.093c1.586.366,3.1,2.035,3.855,4.253.863,2.53,1.956,9.526-6.511,19.854Z" transform="translate(-352.833 -616.676)" fill="#616161"/></g><g transform="translate(28.134 28.027)"><path d="M360.463,666.3a8.469,8.469,0,0,0,2.6-6.79c-.521-5.1-5.851-8.907-6.077-9.067l-.646.917c.051.036,5.142,3.675,5.607,8.266a7.394,7.394,0,0,1-2.3,5.905Z" transform="translate(-356.338 -650.441)" fill="#616161"/></g><g transform="translate(31.485 23.826)"><path d="M365.965,658.684a8.546,8.546,0,0,0,1.868-6.926c-.9-4.6-5.677-7.512-5.88-7.633l-.577.961c.045.027,4.558,2.787,5.359,6.892a7.487,7.487,0,0,1-1.665,6.034Z" transform="translate(-361.376 -644.125)" fill="#616161"/></g></g><g transform="translate(89.781 215.944)"><path d="M413.493,504c-9.734,10.611-16.948,19.434-30.394,50.291-3.812,8.745-14.508,17.729-14.508,17.729,6.322-3.178,44.184,54.059,17.548,54.481,0,0,18.972,3.961,41.631-22.29s33.8-88.053,31.593-101.869S430.484,485.478,413.493,504Z" transform="translate(-368.591 -491.04)" fill="#f13b0f"/><path d="M413.493,504c-9.734,10.611-16.948,19.434-30.394,50.291-3.812,8.745-14.508,17.729-14.508,17.729,6.322-3.178,44.184,54.059,17.548,54.481,0,0,18.972,3.961,41.631-22.29s33.8-88.053,31.593-101.869S430.484,485.478,413.493,504Z" transform="translate(-368.591 -491.04)" opacity="0.85"/></g><g transform="translate(89.781 283.529)"><path d="M374,600.906c-2.967,3.1-5.411,5.149-5.411,5.149,6.322-3.178,44.184,54.059,17.548,54.481,0,0,18.972,3.961,41.631-22.29,9.45-10.948,16.9-28.08,22.208-45.335C451.251,588.772,420.551,637.265,374,600.906Z" transform="translate(-368.591 -592.657)" fill="#232334"/></g><g transform="translate(107.329 215.944)"><path d="M468.2,502.345c-2.211-13.817-28.878-16.867-45.869,1.658a116.977,116.977,0,0,0-19.538,27.452c1.3.085,2.959.222,3.721.242a56.289,56.289,0,0,1,8.043.874,27.466,27.466,0,0,1,20.018,14.013c8.973,16.331-.426,36.265-11.074,49.094a94.719,94.719,0,0,1-19.539,17.257c1.379,7.7-.625,13.435-8.985,13.568,0,0,18.972,3.961,41.631-22.29S470.41,516.16,468.2,502.345Z" transform="translate(-394.975 -491.04)" fill="#f13b0f"/><path d="M468.2,502.345c-2.211-13.817-28.878-16.867-45.869,1.658a116.977,116.977,0,0,0-19.538,27.452c1.3.085,2.959.222,3.721.242a56.289,56.289,0,0,1,8.043.874,27.466,27.466,0,0,1,20.018,14.013c8.973,16.331-.426,36.265-11.074,49.094a94.719,94.719,0,0,1-19.539,17.257c1.379,7.7-.625,13.435-8.985,13.568,0,0,18.972,3.961,41.631-22.29S470.41,516.16,468.2,502.345Z" transform="translate(-394.975 -491.04)" opacity="0.8"/></g><g transform="translate(27.934 57.682)"><path d="M341.136,451.781c-11.427,0-37.2-1.874-52.921-17.546-9.452-9.422-13.626-22.331-12.407-38.37,3.166-41.653,3.854-53.577,4.461-64.1.281-4.874.547-9.478,1.028-16.576,1.057-15.6,5.133-30.8,11.476-42.807,6.08-11.51,13.458-18.481,20.243-19.125,8.3-.787,13.221,1.131,21.365,4.311,2.676,1.045,5.71,2.229,9.351,3.509a48.637,48.637,0,0,1,14.087,7.905,35.817,35.817,0,0,1,3.153,2.156c11.543,8.879,45.3,46.064,46.729,47.642l.354.39-.122.512A80.406,80.406,0,0,1,383.6,360.747c3.213,6.884,8.58,9.114,13.332,11.088,4.122,1.713,8.016,3.331,9.3,7.714l.185.627-.5.42c-.363.3-36.6,30.886-58.276,70.488l-.259.473-.537.042C346.5,451.627,344.409,451.781,341.136,451.781Zm-24.524-196.7c-1.074,0-2.2.055-3.408.17-12.279,1.165-27.682,27.107-29.917,60.081-.481,7.089-.746,11.687-1.027,16.556-.607,10.528-1.3,22.461-4.464,64.131-1.173,15.428,2.8,27.81,11.821,36.8,18.282,18.23,51.909,17.08,56.544,16.827,20.454-37.095,53.414-66.214,57.958-70.131-1.195-3.027-4.2-4.277-7.951-5.835-4.987-2.072-11.195-4.652-14.688-12.788l-.281-.655.529-.478a78.536,78.536,0,0,0,24.137-40.024c-3.717-4.084-35.332-38.718-46.111-47.009a34.013,34.013,0,0,0-3.028-2.066l-.1-.072a46.671,46.671,0,0,0-13.555-7.623c-3.672-1.291-6.722-2.482-9.414-3.533C326.773,256.744,322.5,255.078,316.612,255.078Z" transform="translate(-275.601 -253.085)" fill="#f13b0f"/><path d="M341.136,451.781c-11.427,0-37.2-1.874-52.921-17.546-9.452-9.422-13.626-22.331-12.407-38.37,3.166-41.653,3.854-53.577,4.461-64.1.281-4.874.547-9.478,1.028-16.576,1.057-15.6,5.133-30.8,11.476-42.807,6.08-11.51,13.458-18.481,20.243-19.125,8.3-.787,13.221,1.131,21.365,4.311,2.676,1.045,5.71,2.229,9.351,3.509a48.637,48.637,0,0,1,14.087,7.905,35.817,35.817,0,0,1,3.153,2.156c11.543,8.879,45.3,46.064,46.729,47.642l.354.39-.122.512A80.406,80.406,0,0,1,383.6,360.747c3.213,6.884,8.58,9.114,13.332,11.088,4.122,1.713,8.016,3.331,9.3,7.714l.185.627-.5.42c-.363.3-36.6,30.886-58.276,70.488l-.259.473-.537.042C346.5,451.627,344.409,451.781,341.136,451.781Zm-24.524-196.7c-1.074,0-2.2.055-3.408.17-12.279,1.165-27.682,27.107-29.917,60.081-.481,7.089-.746,11.687-1.027,16.556-.607,10.528-1.3,22.461-4.464,64.131-1.173,15.428,2.8,27.81,11.821,36.8,18.282,18.23,51.909,17.08,56.544,16.827,20.454-37.095,53.414-66.214,57.958-70.131-1.195-3.027-4.2-4.277-7.951-5.835-4.987-2.072-11.195-4.652-14.688-12.788l-.281-.655.529-.478a78.536,78.536,0,0,0,24.137-40.024c-3.717-4.084-35.332-38.718-46.111-47.009a34.013,34.013,0,0,0-3.028-2.066l-.1-.072a46.671,46.671,0,0,0-13.555-7.623c-3.672-1.291-6.722-2.482-9.414-3.533C326.773,256.744,322.5,255.078,316.612,255.078Z" transform="translate(-275.601 -253.085)" opacity="0.6"/></g><g transform="translate(28.931)"><g transform="translate(124.206 296.36)"><path d="M487.648,667s-5.94,2.394-16.3-14.736-8.981-33.435-1.935-39.238,21.553,13.263,25.974,25.144S501.74,669.162,487.648,667Z" transform="translate(-463.849 -611.95)" fill="#f13b0f"/><path d="M487.648,667s-5.94,2.394-16.3-14.736-8.981-33.435-1.935-39.238,21.553,13.263,25.974,25.144S501.74,669.162,487.648,667Z" transform="translate(-463.849 -611.95)" opacity="0.85"/></g><g transform="translate(94.175 293.933)"><g transform="translate(3.311)"><path d="M474.884,632.318c-9.74,2.528-18.71,9.978-23.613,23.613-1.713,4.755-3.749,9.323-2.7,14.56.914,4.568,4.543,8.586,7.855,10.73,1.065.69,1.065,1.848-.2,1.838-4.581-.037-11.285-.084-15.783-.084-7.414,0-16.218-4.213-13.754-14.955s.768-18.815-2.116-30.5,1.132-19.73,13.951-21.866c4.6-.758,12.059-1.308,15.251-2.493a97.545,97.545,0,0,0,8.82-4.858S482.622,621.4,474.884,632.318Z" transform="translate(-423.674 -608.301)" fill="#ffb39b"/></g><g transform="translate(2.933 7.199)"><g transform="translate(0.395 0.398)"><path d="M445.476,671.086c-1.639-9.31-.483-19.057,0-23.511.555-5.133,3.219-12.57.588-19.641-3.165-8.507-8.193-8.27-8.675-8.189-11.748,1.968-15.617,10.309-12.816,21.638,2.89,11.688,4.578,19.758,2.116,30.5s6.348,14.957,13.761,14.957c3.417,0,8.822.027,12.92.054a1.36,1.36,0,0,0,.846-2.435C451.068,682.042,446.673,677.875,445.476,671.086Z" transform="translate(-423.699 -619.724)" fill="#616161"/></g><path d="M453.179,687.1h-.013c-4.1-.029-9.5-.055-12.917-.055-5.188,0-9.8-1.893-12.324-5.067-2.168-2.722-2.785-6.216-1.83-10.383,2.414-10.536.811-18.48-2.116-30.312-1.548-6.263-1.033-11.6,1.488-15.441,2.321-3.534,6.242-5.784,11.654-6.691.055-.007,5.663-.843,9.119,8.445,2.031,5.46.961,11.164.1,15.747-.275,1.464-.533,2.847-.667,4.078l-.052.484c-.495,4.54-1.522,13.985.051,22.914.9,5.08,3.7,9.372,8.586,13.122a1.763,1.763,0,0,1-1.081,3.158ZM437.5,619.93a1.919,1.919,0,0,0-.246.012c-5.182.867-8.921,3-11.114,6.338-2.395,3.646-2.872,8.765-1.378,14.806,2.955,11.947,4.572,19.974,2.118,30.685-.9,3.916-.334,7.18,1.676,9.7,2.377,2.982,6.748,4.763,11.694,4.763,3.417,0,8.823.026,12.923.055h.009a.941.941,0,0,0,.909-.65.93.93,0,0,0-.32-1.064c-5.049-3.878-7.957-8.334-8.888-13.621h0c-1.592-9.042-.557-18.565-.059-23.142l.052-.484c.138-1.262.4-2.66.676-4.139.842-4.486,1.888-10.069-.065-15.318C442.716,620.426,438.549,619.93,437.5,619.93Z" transform="translate(-423.106 -619.125)" fill="#616161"/></g><g transform="translate(0 7.199)"><g transform="translate(0.395 0.398)"><path d="M441.067,671.086c-1.639-9.31-.484-19.057,0-23.511.557-5.133,3.221-12.57.589-19.641-3.165-8.507-8.193-8.27-8.676-8.189-11.748,1.968-15.617,10.309-12.816,21.638,2.891,11.688,4.577,19.758,2.116,30.5s6.348,14.957,13.763,14.957c3.781,0,10,.013,14.181.037a.945.945,0,0,0,.562-1.712C447.658,682.906,442.394,678.618,441.067,671.086Z" transform="translate(-419.29 -619.724)" fill="#272727"/></g><path d="M450.028,687.079h-.009c-4.185-.024-10.4-.038-14.178-.038-5.189,0-9.8-1.893-12.325-5.067-2.169-2.722-2.785-6.216-1.83-10.383,2.414-10.536.811-18.48-2.115-30.312-1.548-6.263-1.034-11.6,1.487-15.441,2.322-3.534,6.242-5.784,11.654-6.691.055-.007,5.663-.843,9.119,8.445,2.033,5.461.962,11.168.1,15.754-.275,1.461-.533,2.842-.667,4.071l-.053.494c-.493,4.538-1.519,13.982.053,22.9h0c1.251,7.105,6.053,11.291,9.555,13.823a1.348,1.348,0,0,1-.791,2.441ZM433.091,619.93a1.926,1.926,0,0,0-.247.012c-5.182.867-8.921,3-11.114,6.338-2.4,3.646-2.872,8.765-1.379,14.806,2.955,11.947,4.573,19.974,2.118,30.685-.9,3.916-.333,7.18,1.676,9.7,2.377,2.984,6.748,4.764,11.695,4.764,3.782,0,10,.014,14.182.038h0a.544.544,0,0,0,.319-.985c-3.616-2.611-8.574-6.94-9.876-14.333h0c-1.591-9.036-.557-18.556-.06-23.132l.053-.494c.138-1.26.4-2.656.676-4.134.843-4.487,1.891-10.071-.064-15.323C438.306,620.426,434.139,619.93,433.091,619.93Z" transform="translate(-418.696 -619.125)" fill="#616161"/></g><g transform="translate(3.655 11.351)"><path d="M424.191,636.3c0,6.035,3.807,10.927,8.5,10.927s8.505-4.892,8.505-10.927-3.808-10.929-8.505-10.929S424.191,630.261,424.191,636.3Z" transform="translate(-424.191 -625.368)" fill="#00002e"/></g><g transform="translate(25.803 5.57)"><path d="M458.36,642.586c8.823-10.763,7.627-18.22,6.7-20.925-.893-2.617-2.68-4.527-4.664-4.985l-.252,1.093c1.585.366,3.1,2.035,3.856,4.253.863,2.53,1.956,9.526-6.511,19.854Z" transform="translate(-457.492 -616.676)" fill="#616161"/></g><g transform="translate(28.134 28.027)"><path d="M465.121,666.3a8.463,8.463,0,0,0,2.6-6.79c-.52-5.1-5.85-8.907-6.076-9.067l-.646.917c.051.036,5.142,3.675,5.608,8.266a7.394,7.394,0,0,1-2.3,5.905Z" transform="translate(-460.997 -650.441)" fill="#616161"/></g><g transform="translate(31.485 23.826)"><path d="M470.624,658.684a8.546,8.546,0,0,0,1.868-6.926c-.9-4.6-5.677-7.512-5.882-7.633l-.575.961c.045.027,4.556,2.787,5.358,6.892a7.485,7.485,0,0,1-1.667,6.034Z" transform="translate(-466.036 -644.125)" fill="#616161"/></g></g><g transform="translate(129.153 222.12)"><path d="M490.386,543.324c-2.132,9.3-19.1,30.748-19.1,30.748,6.32-3.178,45.489,55.119,18.853,55.541,0,0,18.974,3.961,41.631-22.29s33.8-88.053,31.592-101.869S498.892,506.232,490.386,543.324Z" transform="translate(-471.287 -500.327)" fill="#f13b0f"/><path d="M490.386,543.324c-2.132,9.3-19.1,30.748-19.1,30.748,6.32-3.178,45.489,55.119,18.853,55.541,0,0,18.974,3.961,41.631-22.29s33.8-88.053,31.592-101.869S498.892,506.232,490.386,543.324Z" transform="translate(-471.287 -500.327)" opacity="0.85"/></g><g transform="translate(129.153 260.087)"><path d="M472.015,592.256c-.465.6-.728.934-.728.934,6.32-3.178,45.489,55.119,18.853,55.541,0,0,18.974,3.961,41.631-22.29,13.874-16.073,23.431-45.476,28.248-69.03C545.228,591.257,493.387,592.551,472.015,592.256Z" transform="translate(-471.287 -557.411)" fill="#f13b0f"/><path d="M472.015,592.256c-.465.6-.728.934-.728.934,6.32-3.178,45.489,55.119,18.853,55.541,0,0,18.974,3.961,41.631-22.29,13.874-16.073,23.431-45.476,28.248-69.03C545.228,591.257,493.387,592.551,472.015,592.256Z" transform="translate(-471.287 -557.411)" opacity="0.8"/></g><g transform="translate(43.407 176.319)"><path d="M358.054,508.3c12.387,4.161,34.937,1.991,58.317,1.991s68.947,3.035,82.494-3.054c9.653-4.341,31.747-19,16.338-39.985S379.7,432,366.147,431.465,324.844,497.142,358.054,508.3Z" transform="translate(-342.363 -431.462)" fill="#f13b0f"/><path d="M358.054,508.3c12.387,4.161,34.937,1.991,58.317,1.991s68.947,3.035,82.494-3.054c9.653-4.341,31.747-19,16.338-39.985S379.7,432,366.147,431.465,324.844,497.142,358.054,508.3Z" transform="translate(-342.363 -431.462)" opacity="0.8"/></g><g transform="translate(68.983 227.661)"><path d="M381.9,511.136l.694-2.133c-.676-.22-1.038-.343-1.043-.345l-.728,2.121S381.191,510.907,381.9,511.136Z" transform="translate(-380.819 -508.658)" fill="#f13b0f"/><g transform="translate(4.29 1.352)"><path d="M475.013,608.04q.9-.627,1.78-1.291l1.35,1.79q-.915.687-1.845,1.338Zm4.37-3.347q.842-.707,1.669-1.446l1.494,1.675q-.854.759-1.725,1.489Zm4.082-3.7q.784-.77,1.554-1.566l1.613,1.555q-.786.819-1.6,1.612Zm3.8-4q.734-.829,1.45-1.677l1.713,1.443q-.732.871-1.485,1.72Zm3.54-4.258q.682-.874,1.344-1.765l1.8,1.339q-.677.91-1.375,1.805Zm3.281-4.465q.632-.913,1.244-1.839l1.87,1.239q-.626.944-1.27,1.874Zm3.036-4.638q.583-.943,1.148-1.9l1.929,1.142q-.574.971-1.167,1.933Zm2.8-4.781q.536-.97,1.057-1.949l1.979,1.054q-.527.993-1.073,1.979Zm2.573-4.9q.5-1,.974-2l2.023.965q-.484,1.017-.988,2.03Zm2.369-5.019q.454-1.018.889-2.037l2.063.881q-.442,1.034-.9,2.068Zm2.16-5.115q.413-1.037.806-2.07l2.094.8q-.4,1.048-.817,2.1Zm1.954-5.2q.372-1.053.723-2.1l2.126.71q-.357,1.063-.736,2.136Zm1.745-5.27q.33-1.071.638-2.126l2.152.627q-.312,1.073-.649,2.162Zm1.526-5.335c.19-.726.373-1.443.545-2.152l2.18.531q-.268,1.083-.555,2.19Zm1.289-5.4q.236-1.1.442-2.174l2.2.425q-.209,1.091-.448,2.216Zm1.016-5.444q.174-1.118.315-2.189l2.222.29q-.144,1.1-.322,2.245Zm.668-5.476c.062-.758.112-1.489.142-2.192l2.24.1q-.05,1.1-.145,2.278Zm.009-7.6,2.228-.261c.084.716.141,1.5.17,2.32l-2.24.083C515.361,525.471,515.308,524.75,515.23,524.094Zm-50.508.548.016-2.242c.744.005,1.477.011,2.23.008l0,2.242h-.288Q465.7,524.65,464.722,524.643Zm5.593-2.249q1.118-.013,2.232-.03l.036,2.241q-1.118.018-2.247.031Zm-11.205,2.163.053-2.242q1.116.026,2.231.044l-.037,2.242Q460.236,524.585,459.11,524.557Zm16.78-2.269q1.118-.032,2.227-.071l.084,2.24q-1.118.041-2.249.073Zm-22.39,2.094.09-2.24c.741.031,1.484.057,2.227.082l-.072,2.239Q454.623,524.426,453.5,524.381Zm27.956-2.307q1.121-.057,2.225-.118l.13,2.237q-1.114.065-2.243.122ZM447.9,524.115l.124-2.237c.742.041,1.483.08,2.227.116l-.107,2.24Q449.013,524.181,447.9,524.115Zm39.123-2.376q1.121-.082,2.216-.176l.191,2.233c-.74.065-1.49.122-2.245.176ZM442.3,523.757l.162-2.234q1.108.08,2.224.152l-.146,2.238C443.786,523.864,443.04,523.81,442.3,523.757Zm-5.6-.466.219-2.232c.721.071,1.439.135,2.129.195l.121.011-.281,2.225Q437.786,523.4,436.692,523.291Zm55.865-2.038q1.122-.115,2.21-.242l.259,2.228q-1.1.129-2.239.245Zm-61.46,1.4.288-2.222q1.1.144,2.206.273l-.259,2.226Q432.213,522.8,431.1,522.652Zm66.973-2.068q1.119-.161,2.19-.334l.359,2.213q-1.089.177-2.233.34Zm-72.538,1.265.351-2.215q1.1.174,2.2.337l-.328,2.217Q426.638,522.022,425.532,521.849Zm77.989-2.19q1.115-.225,2.153-.468l.512,2.182q-1.071.251-2.221.483ZM419.989,520.9l.4-2.2c.728.132,1.461.264,2.195.391L422.2,521.3Q421.088,521.1,419.989,520.9Zm93.7-1.23,1.474-1.689a5.731,5.731,0,0,1,1.494,2.316l-2.092.8A3.65,3.65,0,0,0,513.69,519.67Zm-4.849-1.333c.73-.224,1.417-.46,2.044-.7l.8,2.092c-.674.259-1.409.513-2.187.752Zm-94.37,1.487.453-2.2q1.084.223,2.185.44l-.434,2.2Q415.564,520.049,414.471,519.823Zm-5.494-1.192.5-2.184q1.073.243,2.178.486l-.483,2.189Q410.062,518.882,408.978,518.632Zm-5.465-1.3.539-2.177c.708.176,1.432.353,2.166.527l-.521,2.182Q404.586,517.6,403.512,517.332Zm-5.441-1.4.581-2.166q1.05.281,2.155.567l-.561,2.172C399.5,516.313,398.779,516.12,398.071,515.932Zm-5.414-1.5.617-2.154q1.03.293,2.149.607l-.6,2.158C394.07,514.837,393.348,514.632,392.658,514.434Zm-5.389-1.6.661-2.142q.97.3,2.133.648l-.644,2.148Q388.249,513.136,387.269,512.833Z" transform="translate(-387.269 -510.691)" fill="#f13b0f"/></g><g transform="translate(88.397 100.475)"><path d="M514.873,662.224c.327-.194.653-.388.977-.59l-1.179-1.906c-.312.194-.627.382-.942.57Z" transform="translate(-513.728 -659.728)" fill="#f13b0f"/></g></g><g transform="translate(68.983 227.661)" opacity="0.6"><path d="M381.9,511.136l.694-2.133c-.676-.22-1.038-.343-1.043-.345l-.728,2.121S381.191,510.907,381.9,511.136Z" transform="translate(-380.819 -508.658)"/><g transform="translate(4.29 1.352)"><path d="M475.013,608.04q.9-.627,1.78-1.291l1.35,1.79q-.915.687-1.845,1.338Zm4.37-3.347q.842-.707,1.669-1.446l1.494,1.675q-.854.759-1.725,1.489Zm4.082-3.7q.784-.77,1.554-1.566l1.613,1.555q-.786.819-1.6,1.612Zm3.8-4q.734-.829,1.45-1.677l1.713,1.443q-.732.871-1.485,1.72Zm3.54-4.258q.682-.874,1.344-1.765l1.8,1.339q-.677.91-1.375,1.805Zm3.281-4.465q.632-.913,1.244-1.839l1.87,1.239q-.626.944-1.27,1.874Zm3.036-4.638q.583-.943,1.148-1.9l1.929,1.142q-.574.971-1.167,1.933Zm2.8-4.781q.536-.97,1.057-1.949l1.979,1.054q-.527.993-1.073,1.979Zm2.573-4.9q.5-1,.974-2l2.023.965q-.484,1.017-.988,2.03Zm2.369-5.019q.454-1.018.889-2.037l2.063.881q-.442,1.034-.9,2.068Zm2.16-5.115q.413-1.037.806-2.07l2.094.8q-.4,1.048-.817,2.1Zm1.954-5.2q.372-1.053.723-2.1l2.126.71q-.357,1.063-.736,2.136Zm1.745-5.27q.33-1.071.638-2.126l2.152.627q-.312,1.073-.649,2.162Zm1.526-5.335c.19-.726.373-1.443.545-2.152l2.18.531q-.268,1.083-.555,2.19Zm1.289-5.4q.236-1.1.442-2.174l2.2.425q-.209,1.091-.448,2.216Zm1.016-5.444q.174-1.118.315-2.189l2.222.29q-.144,1.1-.322,2.245Zm.668-5.476c.062-.758.112-1.489.142-2.192l2.24.1q-.05,1.1-.145,2.278Zm.009-7.6,2.228-.261c.084.716.141,1.5.17,2.32l-2.24.083C515.361,525.471,515.308,524.75,515.23,524.094Zm-50.508.548.016-2.242c.744.005,1.477.011,2.23.008l0,2.242h-.288Q465.7,524.65,464.722,524.643Zm5.593-2.249q1.118-.013,2.232-.03l.036,2.241q-1.118.018-2.247.031Zm-11.205,2.163.053-2.242q1.116.026,2.231.044l-.037,2.242Q460.236,524.585,459.11,524.557Zm16.78-2.269q1.118-.032,2.227-.071l.084,2.24q-1.118.041-2.249.073Zm-22.39,2.094.09-2.24c.741.031,1.484.057,2.227.082l-.072,2.239Q454.623,524.426,453.5,524.381Zm27.956-2.307q1.121-.057,2.225-.118l.13,2.237q-1.114.065-2.243.122ZM447.9,524.115l.124-2.237c.742.041,1.483.08,2.227.116l-.107,2.24Q449.013,524.181,447.9,524.115Zm39.123-2.376q1.121-.082,2.216-.176l.191,2.233c-.74.065-1.49.122-2.245.176ZM442.3,523.757l.162-2.234q1.108.08,2.224.152l-.146,2.238C443.786,523.864,443.04,523.81,442.3,523.757Zm-5.6-.466.219-2.232c.721.071,1.439.135,2.129.195l.121.011-.281,2.225Q437.786,523.4,436.692,523.291Zm55.865-2.038q1.122-.115,2.21-.242l.259,2.228q-1.1.129-2.239.245Zm-61.46,1.4.288-2.222q1.1.144,2.206.273l-.259,2.226Q432.213,522.8,431.1,522.652Zm66.973-2.068q1.119-.161,2.19-.334l.359,2.213q-1.089.177-2.233.34Zm-72.538,1.265.351-2.215q1.1.174,2.2.337l-.328,2.217Q426.638,522.022,425.532,521.849Zm77.989-2.19q1.115-.225,2.153-.468l.512,2.182q-1.071.251-2.221.483ZM419.989,520.9l.4-2.2c.728.132,1.461.264,2.195.391L422.2,521.3Q421.088,521.1,419.989,520.9Zm93.7-1.23,1.474-1.689a5.731,5.731,0,0,1,1.494,2.316l-2.092.8A3.65,3.65,0,0,0,513.69,519.67Zm-4.849-1.333c.73-.224,1.417-.46,2.044-.7l.8,2.092c-.674.259-1.409.513-2.187.752Zm-94.37,1.487.453-2.2q1.084.223,2.185.44l-.434,2.2Q415.564,520.049,414.471,519.823Zm-5.494-1.192.5-2.184q1.073.243,2.178.486l-.483,2.189Q410.062,518.882,408.978,518.632Zm-5.465-1.3.539-2.177c.708.176,1.432.353,2.166.527l-.521,2.182Q404.586,517.6,403.512,517.332Zm-5.441-1.4.581-2.166q1.05.281,2.155.567l-.561,2.172C399.5,516.313,398.779,516.12,398.071,515.932Zm-5.414-1.5.617-2.154q1.03.293,2.149.607l-.6,2.158C394.07,514.837,393.348,514.632,392.658,514.434Zm-5.389-1.6.661-2.142q.97.3,2.133.648l-.644,2.148Q388.249,513.136,387.269,512.833Z" transform="translate(-387.269 -510.691)"/></g><g transform="translate(88.397 100.475)"><path d="M514.873,662.224c.327-.194.653-.388.977-.59l-1.179-1.906c-.312.194-.627.382-.942.57Z" transform="translate(-513.728 -659.728)"/></g></g><g transform="translate(34.431 8.269)"><path d="M367.223,179.756c-19.288-3.773-31.471,4.124-33.055,12.858a39.752,39.752,0,0,0,2.643,22.762c.006.017.015.035.022.052l-7.964,18.162c6.744,10.766,22.621,6.755,22.621,6.755l3.6-11.029a11.906,11.906,0,0,0,4.136,1.1c7.442-.217,16.345-19.594,16.844-29.2C376.516,192.646,377.211,181.712,367.223,179.756Z" transform="translate(-328.868 -178.789)" fill="#ffb39b"/></g><g transform="translate(32.491)"><path d="M370.162,183.857c-1.041.294-4.219.982-4.219.982s-1.962,7.456-3.531,10.1.278,15.51,7.835,16.172.368,6.777-.466,9.132c-1.193,3.366-.116,6.394-7.035,7.718-4.61.883-12.357-4.6-8.433-11.073s7.313-13.021,3.585-21.361-.588,9.418-10.987,14.029-13.245,6.573-13.245,6.573-.243-4.237-1.737-6.718c-4.859-8.074-7.045-15.026-5.476-27.093s7.653-15.305,18.64-15.8,11.5,3.581,18.421.819c8.486-3.388,12.125,3.109,18.267,1.793C381.781,169.14,379.718,181.16,370.162,183.857Z" transform="translate(-325.951 -166.357)" fill="#00002e"/></g><g transform="translate(0 58.679)"><path d="M343.9,262.525c19.051,6.7,40.825,29.964,36.727,73.458s21.615,32.307,25.156,44.35c0,0-36.483,30.537-58.511,70.774,0,0-74.575,5.91-69.97-54.664s3.951-57.961,5.49-80.679c2.235-32.984,17.792-59.77,30.818-61.007C324.35,253.737,329.193,257.353,343.9,262.525Z" transform="translate(-277.099 -254.584)" fill="#f13b0f"/><path d="M343.9,262.525c19.051,6.7,40.825,29.964,36.727,73.458s21.615,32.307,25.156,44.35c0,0-36.483,30.537-58.511,70.774,0,0-74.575,5.91-69.97-54.664s3.951-57.961,5.49-80.679c2.235-32.984,17.792-59.77,30.818-61.007C324.35,253.737,329.193,257.353,343.9,262.525Z" transform="translate(-277.099 -254.584)" opacity="0.7"/></g><g transform="translate(0 58.679)"><path d="M343.9,262.525c19.051,6.7,40.825,29.964,36.727,73.458-3.074,32.62,10.621,34.482,19.155,38.456,2.845,1.324-59.369,3.4-99.48,67.612-13.825-7.548-24.858-21.166-23-45.608,4.606-60.576,3.951-57.961,5.49-80.679,2.235-32.984,17.792-59.77,30.818-61.007C324.35,253.737,329.193,257.353,343.9,262.525Z" transform="translate(-277.099 -254.584)" fill="#f13b0f"/></g><g transform="translate(0 58.679)" opacity="0.6"><path d="M343.9,262.525c19.051,6.7,40.825,29.964,36.727,73.458-3.074,32.62,10.621,34.482,19.155,38.456,2.845,1.324-59.369,3.4-99.48,67.612-13.825-7.548-24.858-21.166-23-45.608,4.606-60.576,3.951-57.961,5.49-80.679,2.235-32.984,17.792-59.77,30.818-61.007C324.35,253.737,329.193,257.353,343.9,262.525Z" transform="translate(-277.099 -254.584)"/></g><g transform="translate(52.327 26.598)"><path d="M356.143,215.449c1.178,3.887,4.832,6.219,8.162,5.208s5.073-4.978,3.895-8.865-4.833-6.217-8.162-5.207S354.964,211.563,356.143,215.449Z" transform="translate(-355.775 -206.349)" fill="#ffb39b"/></g><g transform="translate(55.265 28.756)"><path d="M365.561,219.575a1.477,1.477,0,0,0,.47-.077c1.06-.35,1.642-1.815,1.705-1.981l-1.049-.4c-.14.367-.572,1.172-1.01,1.316a.419.419,0,0,1-.392-.076c-.337-.214-.335-.363-.273-.96a3.265,3.265,0,0,0-.762-2.757,5.567,5.567,0,0,0-2-1.432c-.9-.439-1.115-.543-.825-1.514a1.158,1.158,0,0,1,.592-.718c1.014-.536,2.913-.13,3.56.072l.334-1.069c-.112-.036-2.786-.859-4.419.007a2.254,2.254,0,0,0-1.141,1.386c-.563,1.883.484,2.394,1.41,2.843a4.588,4.588,0,0,1,1.631,1.145,2.184,2.184,0,0,1,.5,1.922,1.819,1.819,0,0,0,.785,2.019A1.625,1.625,0,0,0,365.561,219.575Z" transform="translate(-360.193 -209.592)" fill="#1b2e4e"/></g><g transform="translate(89.035 122.913)"><path d="M564.8,378.973c.125-1.675-5.711-3.188-9.033-11.027s-5.447-3.719-12.619-5.844-8.5-3.72-14.347,1.86-7.97,5.844-11.823,4.782-60.866-18.24-78.1-17.561-43.94,39.733-15.28,49.942c39.692,14.14,94.293-21.058,109.059-17.635,0,0,6.908-.931,8.5-6.71s8.3-2.855,9.63-.066,0,6.444,2.924,6.31,2.921-4.584,2.921-4.584S564.6,381.77,564.8,378.973Z" transform="translate(-410.968 -351.164)" fill="#ffb39b"/></g><g transform="translate(30.453 67.903)"><path d="M339.312,270.746c-6.06,3.975-20.586,22.512-15.28,39.32s34.724,51.876,54.414,68.949c0,0,34.847-14.722,44.351-54.414,0,0-34.992-38.594-46.6-47.521S346,266.362,339.312,270.746Z" transform="translate(-322.887 -268.453)" fill="#f13b0f"/><path d="M339.312,270.746c-6.06,3.975-20.586,22.512-15.28,39.32s34.724,51.876,54.414,68.949c0,0,34.847-14.722,44.351-54.414,0,0-34.992-38.594-46.6-47.521S346,266.362,339.312,270.746Z" transform="translate(-322.887 -268.453)" opacity="0.6"/></g><g transform="translate(63.316 121.752)"><path d="M394.33,361.758a21.79,21.79,0,0,0,4.641-.444l-.271-1.088c-.152.038-16.2,4.155-25.447-10.808l-.954.589C378.776,360.485,388.752,361.758,394.33,361.758Z" transform="translate(-372.298 -349.418)" fill="#fff"/></g><g transform="translate(42.688 125.067)"><path d="M384.645,409.078l.338-.159c.134-.063,13.545-6.48,23-17.773l-.861-.721c-8.464,10.11-20.167,16.253-22.287,17.316C381.726,404.89,353.7,378.8,342.3,354.4l-1.016.475C353.4,380.8,384.06,408.551,384.369,408.83Z" transform="translate(-341.282 -354.402)" fill="#fff"/></g><g transform="translate(155.947 240.579)"><path d="M514.573,543.967a56.647,56.647,0,0,0,37.513-15.054l-.75-.832c-18.893,17.046-39.418,14.667-39.619,14.642l-.143,1.113A28.008,28.008,0,0,0,514.573,543.967Z" transform="translate(-511.574 -528.081)" fill="#8d8d8d"/></g></g><g transform="translate(109.309 254.466)"><path d="M504.127,553.794H397.952V548.96H504.127a2.416,2.416,0,0,1,2.417,2.417h0A2.417,2.417,0,0,1,504.127,553.794Z" transform="translate(-397.952 -548.96)" fill="#f13b0f"/><path d="M504.127,553.794H397.952V548.96H504.127a2.416,2.416,0,0,1,2.417,2.417h0A2.417,2.417,0,0,1,504.127,553.794Z" transform="translate(-397.952 -548.96)" opacity="0.9"/></g><g transform="translate(104.57 256.442)"><path d="M394.044,651.633h0A2.969,2.969,0,0,1,390.827,649v-97.07h6.435V649A2.969,2.969,0,0,1,394.044,651.633Z" transform="translate(-390.827 -551.931)" fill="#00002e"/></g><g transform="translate(108.691 257.558)"><rect width="1.12" height="94.957" fill="#00002e"/></g><g transform="translate(75.236 345.505)"><path d="M410.82,706.113h1.122V697.1a11.267,11.267,0,0,0-11.255-11.257h-42.71A11.269,11.269,0,0,0,346.721,697.1v7.547h1.122V697.1a10.146,10.146,0,0,1,10.135-10.137h42.71A10.146,10.146,0,0,1,410.82,697.1Z" transform="translate(-346.721 -685.842)" fill="#00002e"/></g><g transform="translate(58.811 345.505)"><path d="M418.978,706.113H420.1V697.1a11.268,11.268,0,0,0-11.256-11.257H333.278A11.267,11.267,0,0,0,322.025,697.1v7.547h1.121V697.1a10.146,10.146,0,0,1,10.133-10.137h75.564A10.146,10.146,0,0,1,418.978,697.1Z" transform="translate(-322.025 -685.842)" fill="#00002e"/></g><g transform="translate(134.531 358.857)"><path d="M446.57,711.265a5.348,5.348,0,1,1-5.347-5.347A5.348,5.348,0,0,1,446.57,711.265Z" transform="translate(-435.875 -705.918)" fill="#00002e"/></g><g transform="translate(150.679 358.857)"><path d="M470.849,711.265a5.348,5.348,0,1,1-5.349-5.347A5.348,5.348,0,0,1,470.849,711.265Z" transform="translate(-460.154 -705.918)" fill="#00002e"/></g><g transform="translate(53.927 358.857)"><path d="M325.378,711.265a5.347,5.347,0,1,1-5.347-5.347A5.348,5.348,0,0,1,325.378,711.265Z" transform="translate(-314.683 -705.918)" fill="#00002e"/></g><g transform="translate(70.782 358.857)"><path d="M350.719,711.265a5.347,5.347,0,1,1-5.347-5.347A5.348,5.348,0,0,1,350.719,711.265Z" transform="translate(-340.025 -705.918)" fill="#00002e"/></g><g transform="translate(0.403 104.932)"><path d="M277.357,478.082H359.8c-3.722-.723-22.517-7.027-17.7-60.376,2.873-31.815-16.453-80.6-22.426-93.579H234.253c-.238,1.509.364,3.783,3.3,7.093,6.632,7.46,20.724,65.21,22.658,81.789C262.1,429.125,246.752,467.328,277.357,478.082Z" transform="translate(-234.206 -324.127)" fill="#f13b0f"/><path d="M277.357,478.082H359.8c-3.722-.723-22.517-7.027-17.7-60.376,2.873-31.815-16.453-80.6-22.426-93.579H234.253c-.238,1.509.364,3.783,3.3,7.093,6.632,7.46,20.724,65.21,22.658,81.789C262.1,429.125,246.752,467.328,277.357,478.082Z" transform="translate(-234.206 -324.127)" opacity="0.75"/></g><g transform="translate(28.228 198.511)"><path d="M291.368,525.2h82.439c-3.723-.723-22.517-7.027-17.7-60.376-9.5,30.5-36.677,52.27-80.067,47.938C278.937,518.112,283.717,522.516,291.368,525.2Z" transform="translate(-276.043 -464.828)" fill="#f13b0f"/><path d="M291.368,525.2h82.439c-3.723-.723-22.517-7.027-17.7-60.376-9.5,30.5-36.677,52.27-80.067,47.938C278.937,518.112,283.717,522.516,291.368,525.2Z" transform="translate(-276.043 -464.828)" opacity="0.8"/></g><g transform="translate(0 104.529)"><path d="M359.592,478.282H277.084l-.064-.023c-23.093-8.115-20.314-32.126-18.284-49.658.726-6.267,1.351-11.68.878-15.749-2.02-17.314-16.057-74.253-22.56-81.569-2.577-2.9-3.721-5.4-3.4-7.422l.053-.34h86.021l.108.234c7.192,15.628,25.247,62.939,22.461,93.784-4.781,52.913,13.632,59.218,17.372,59.945Zm-82.37-.805h79.811c-6.34-2.775-19.687-14.1-15.538-60.011,2.755-30.517-15.047-77.334-22.284-93.139h-84.8c-.094,1.709,1.02,3.92,3.244,6.423,6.575,7.4,20.73,64.627,22.757,82.011.486,4.161-.146,9.616-.877,15.933C257.428,446.9,254.806,469.554,277.222,477.477Z" transform="translate(-233.6 -323.521)" fill="#141414"/></g><g transform="translate(102.254 180.442)"><g transform="translate(0 1.125)"><path d="M416.181,517.274H407.2s-24.719-3.906-18.994-51.612a16.391,16.391,0,0,1,10.617-13.452c13.409-4.881,40.758-12.858,76.537-12.858,0,0,.357.033.942.141a225.051,225.051,0,0,0-68.5,12.717,16.376,16.376,0,0,0-10.616,13.452C391.464,513.368,416.181,517.274,416.181,517.274Z" transform="translate(-387.345 -439.353)" fill="#f13b0f"/><path d="M416.181,517.274H407.2s-24.719-3.906-18.994-51.612a16.391,16.391,0,0,1,10.617-13.452c13.409-4.881,40.758-12.858,76.537-12.858,0,0,.357.033.942.141a225.051,225.051,0,0,0-68.5,12.717,16.376,16.376,0,0,0-10.616,13.452C391.464,513.368,416.181,517.274,416.181,517.274Z" transform="translate(-387.345 -439.353)" opacity="0.85"/></g><g transform="translate(64.983 1.125)"><path d="M527.929,463.477c-7.554,22.662-15.293,41.818-15.293,41.818s-3.679,11.98-18.6,11.98H485.05c14.924,0,18.615-11.98,18.615-11.98s7.739-19.156,15.282-41.818c6.5-19.512-6.266-23.313-9.923-23.983q3.943-.147,8.04-.141S535.483,440.825,527.929,463.477Z" transform="translate(-485.05 -439.353)" fill="#f13b0f"/><path d="M527.929,463.477c-7.554,22.662-15.293,41.818-15.293,41.818s-3.679,11.98-18.6,11.98H485.05c14.924,0,18.615-11.98,18.615-11.98s7.739-19.156,15.282-41.818c6.5-19.512-6.266-23.313-9.923-23.983q3.943-.147,8.04-.141S535.483,440.825,527.929,463.477Z" transform="translate(-485.05 -439.353)" opacity="0.75"/></g><g transform="translate(7.896)"><path d="M420.03,517.812c-1.053-.165-25.726-4.628-19.933-52.847a17.418,17.418,0,0,1,11.344-14.373c13.249-4.829,40.859-12.931,76.922-12.931l.09,0c.3.025,7.385.656,11.285,6.551,3.048,4.606,3.235,11.017.555,19.054-7.477,22.433-15.235,41.69-15.28,41.792-.039.127-4.108,12.765-19.677,12.765H420.118ZM412.208,452.7a15.177,15.177,0,0,0-9.886,12.533c-5.366,44.671,16.567,50.054,17.988,50.351h45.025c13.874,0,17.392-10.728,17.567-11.272.077-.192,7.81-19.389,15.265-41.751,2.445-7.339,2.351-13.089-.285-17.092-3.151-4.779-9.045-5.51-9.573-5.565C452.616,439.91,425.312,447.923,412.208,452.7Z" transform="translate(-399.217 -437.661)" fill="#f13b0f"/><path d="M420.03,517.812c-1.053-.165-25.726-4.628-19.933-52.847a17.418,17.418,0,0,1,11.344-14.373c13.249-4.829,40.859-12.931,76.922-12.931l.09,0c.3.025,7.385.656,11.285,6.551,3.048,4.606,3.235,11.017.555,19.054-7.477,22.433-15.235,41.69-15.28,41.792-.039.127-4.108,12.765-19.677,12.765H420.118ZM412.208,452.7a15.177,15.177,0,0,0-9.886,12.533c-5.366,44.671,16.567,50.054,17.988,50.351h45.025c13.874,0,17.392-10.728,17.567-11.272.077-.192,7.81-19.389,15.265-41.751,2.445-7.339,2.351-13.089-.285-17.092-3.151-4.779-9.045-5.51-9.573-5.565C452.616,439.91,425.312,447.923,412.208,452.7Z" transform="translate(-399.217 -437.661)" opacity="0.85"/></g></g><g transform="translate(13.216 136.194)"><path d="M253.9,372.253H310v-1.121H253.472Z" transform="translate(-253.472 -371.132)" fill="#fff"/></g><g transform="translate(16.186 147.015)"><path d="M258.236,388.524h56.509V387.4H257.936Z" transform="translate(-257.936 -387.402)" fill="#fff"/></g><g transform="translate(18.977 157.839)"><path d="M262.411,404.8h58.07v-1.121H262.134Z" transform="translate(-262.134 -403.676)" fill="#fff"/></g></g><g transform="translate(181.785 508.891)"><g transform="translate(263.475 0.166)"><path d="M845.195,722.163H616.831a.831.831,0,0,1,0-1.663H845.195a.831.831,0,1,1,0,1.663Z" transform="translate(-616 -720.5)" fill="#1b2e4e"/></g><g transform="translate(39.567)"><path d="M491.611,722.5H280.341a1,1,0,1,1,0-2H491.611a1,1,0,1,1,0,2Z" transform="translate(-279.343 -720.5)" fill="#1b2e4e"/></g><path d="M176.014,722.5H128.538c-.3,0-.538-.447-.538-1s.241-1,.538-1h47.476c.3,0,.538.447.538,1S176.311,722.5,176.014,722.5Z" transform="translate(-128 -720.5)" fill="#1b2e4e"/></g><g transform="translate(292.696 321.404)"><path d="M415.936,517.522l-9.06-.006c-.261-.042-6.436-1.088-11.958-8.1-5.044-6.406-10.431-19.25-7.454-44.064a16.818,16.818,0,0,1,10.94-13.86c13.224-4.813,40.772-12.887,76.708-12.887a10.067,10.067,0,0,1,1.032.149l4.533.835-4.606.154a225.16,225.16,0,0,0-68.343,12.686,15.818,15.818,0,0,0-10.292,13.043c-2.929,24.41,2.3,37,7.195,43.262,5.278,6.747,11.321,7.789,11.382,7.8Zm-8.938-1h5.8a23.4,23.4,0,0,1-8.894-7.109c-5.043-6.406-10.431-19.25-7.453-44.064a16.811,16.811,0,0,1,10.939-13.86A217.493,217.493,0,0,1,453.2,440.6a220.916,220.916,0,0,0-54.458,11.825,15.822,15.822,0,0,0-10.292,13.042c-2.929,24.41,2.3,37,7.2,43.262C400.72,515.213,406.5,516.43,407,516.524Z" transform="translate(-386.612 -438.603)" fill="#f13b0f"/><path d="M415.936,517.522l-9.06-.006c-.261-.042-6.436-1.088-11.958-8.1-5.044-6.406-10.431-19.25-7.454-44.064a16.818,16.818,0,0,1,10.94-13.86c13.224-4.813,40.772-12.887,76.708-12.887a10.067,10.067,0,0,1,1.032.149l4.533.835-4.606.154a225.16,225.16,0,0,0-68.343,12.686,15.818,15.818,0,0,0-10.292,13.043c-2.929,24.41,2.3,37,7.195,43.262,5.278,6.747,11.321,7.789,11.382,7.8Zm-8.938-1h5.8a23.4,23.4,0,0,1-8.894-7.109c-5.043-6.406-10.431-19.25-7.453-44.064a16.811,16.811,0,0,1,10.939-13.86A217.493,217.493,0,0,1,453.2,440.6a220.916,220.916,0,0,0-54.458,11.825,15.822,15.822,0,0,0-10.292,13.042c-2.929,24.41,2.3,37,7.2,43.262C400.72,515.213,406.5,516.43,407,516.524Z" transform="translate(-386.612 -438.603)" opacity="0.85"/></g></g></svg>