<svg xmlns="http://www.w3.org/2000/svg" width="541.487" height="446.175" viewBox="0 0 541.487 446.175">
  <g id="how-can-we-help-graphics" transform="translate(-2321.713 -273.412)">
    <g id="Group_963" data-name="Group 963" transform="translate(2580.077 273.412)">
      <path id="Path_2181" data-name="Path 2181" d="M3970.659,427.411H3737.467l35.982-159.083h233.192Z" transform="translate(-3727.714 -260.469)" fill="#f13b0f"/>
      <path id="Path_2440" data-name="Path 2440" d="M3970.659,427.411H3737.467l35.982-159.083h233.192Z" transform="translate(-3727.714 -260.469)" fill="#fff" opacity="0.7"/>
      <path id="Path_2182" data-name="Path 2182" d="M3920.659,387.411H3687.467l35.982-159.083h233.192Z" transform="translate(-3687.183 -228.044)" fill="#fff"/>
      <path id="Path_2183" data-name="Path 2183" d="M3919.444,386.479H3686.252a.284.284,0,0,1-.277-.347l35.982-159.083a.284.284,0,0,1,.277-.221h233.191a.284.284,0,0,1,.277.347l-35.982,159.083A.284.284,0,0,1,3919.444,386.479Zm-232.836-.568h232.609L3955.071,227.4H3722.462Z" transform="translate(-3685.968 -226.828)" fill="#1a1a1a"/>
      <path id="Path_2184" data-name="Path 2184" d="M4093.444,309.821H3860.252a.284.284,0,0,1,0-.568h233.192a.284.284,0,1,1,0,.568Z" transform="translate(-3827.016 -293.643)" fill="#1a1a1a"/>
      <g id="Group_959" data-name="Group 959" transform="translate(44.766 6.59)">
        <g id="Group_958" data-name="Group 958" transform="translate(0 0)">
          <circle id="Ellipse_327" data-name="Ellipse 327" cx="1.606" cy="1.606" r="1.606" transform="translate(0 3.261) rotate(-80.783)" fill="#f13b0f"/>
          <circle id="Ellipse_328" data-name="Ellipse 328" cx="1.606" cy="1.606" r="1.606" transform="translate(6.671 3.127) rotate(-76.718)" fill="#f13b0f"/>
          <circle id="Ellipse_329" data-name="Ellipse 329" cx="1.606" cy="1.606" r="1.606" transform="translate(13.52 3.261) rotate(-80.783)" fill="#f13b0f"/>
        </g>
      </g>
      <g id="Group_962" data-name="Group 962" transform="translate(225.88 5.127)">
        <path id="Path_2185" data-name="Path 2185" d="M4884.2,283.107h-5.225a.284.284,0,1,1,0-.568h5.225a.284.284,0,0,1,0,.568Z" transform="translate(-4878.695 -277.115)" fill="#1a1a1a"/>
        <g id="Group_960" data-name="Group 960" transform="translate(21.872 0)">
          <path id="Path_2186" data-name="Path 2186" d="M4999.693,259.893a.284.284,0,0,1-.2-.087l-5.224-5.424a.284.284,0,1,1,.409-.394l5.224,5.423a.284.284,0,0,1-.2.481Z" transform="translate(-4994.185 -253.902)" fill="#1a1a1a"/>
          <path id="Path_2187" data-name="Path 2187" d="M4994.469,259.893a.284.284,0,0,1-.2-.481l5.224-5.423a.284.284,0,1,1,.409.394l-5.224,5.424A.283.283,0,0,1,4994.469,259.893Z" transform="translate(-4994.185 -253.902)" fill="#1a1a1a"/>
        </g>
        <g id="Group_961" data-name="Group 961" transform="translate(10.262)">
          <path id="Path_2188" data-name="Path 2188" d="M4949.115,258.085h-2.191a.284.284,0,1,1,0-.568h1.907v-3.048h-3.813v1.524a.284.284,0,0,1-.568,0v-1.808a.284.284,0,0,1,.284-.284h4.382a.284.284,0,0,1,.284.284V257.8A.284.284,0,0,1,4949.115,258.085Z" transform="translate(-4942.258 -253.901)" fill="#1a1a1a"/>
          <path id="Path_2189" data-name="Path 2189" d="M4937.546,267.631h-4.382a.284.284,0,0,1-.283-.284v-3.616a.284.284,0,0,1,.283-.284h4.382a.284.284,0,0,1,.284.284v3.616A.284.284,0,0,1,4937.546,267.631Zm-4.1-.568h3.813v-3.048h-3.813Z" transform="translate(-4932.881 -261.639)" fill="#1a1a1a"/>
        </g>
      </g>
      <path id="Path_2190" data-name="Path 2190" d="M4001.359,395.072h-93.314a2.5,2.5,0,0,1-2.5-2.5h0a2.5,2.5,0,0,1,2.5-2.5h93.314a2.5,2.5,0,0,1,2.5,2.5h0A2.5,2.5,0,0,1,4001.359,395.072Z" transform="translate(-3863.962 -359.157)" fill="#f13b0f"/>
      <path id="Path_2435" data-name="Path 2435" d="M4001.359,395.072h-93.314a2.5,2.5,0,0,1-2.5-2.5h0a2.5,2.5,0,0,1,2.5-2.5h93.314a2.5,2.5,0,0,1,2.5,2.5h0A2.5,2.5,0,0,1,4001.359,395.072Z" transform="translate(-3863.962 -359.157)" fill="#fff" opacity="0.7"/>
      <path id="Path_2191" data-name="Path 2191" d="M4541,538.44h-93.314a2.784,2.784,0,1,1,0-5.567H4541a2.784,2.784,0,0,1,0,5.567Zm-93.314-5a2.215,2.215,0,1,0,0,4.431H4541a2.215,2.215,0,0,0,0-4.431Z" transform="translate(-4301.174 -474.914)" fill="#1a1a1a"/>
      <path id="Path_2192" data-name="Path 2192" d="M4513.33,682.74h-93.314a2.784,2.784,0,1,1,0-5.567h93.314a2.784,2.784,0,1,1,0,5.567Zm-93.314-5a2.215,2.215,0,1,0,0,4.431h93.314a2.215,2.215,0,0,0,0-4.431Z" transform="translate(-4278.744 -591.886)" fill="#1a1a1a"/>
      <path id="Path_2193" data-name="Path 2193" d="M4206.138,466.29h-93.314a2.784,2.784,0,0,1,0-5.567h93.314a2.784,2.784,0,1,1,0,5.567Zm-93.314-5a2.215,2.215,0,0,0,0,4.431h93.314a2.215,2.215,0,1,0,0-4.431Z" transform="translate(-4029.729 -416.428)" fill="#1a1a1a"/>
      <rect id="Rectangle_290" data-name="Rectangle 290" width="98.313" height="4.999" rx="2.499" transform="translate(118.003 99.235)" fill="#f13b0f"/>
      <path id="Path_2194" data-name="Path 2194" d="M3935.257,611.522h-93.314a2.5,2.5,0,0,1-2.5-2.5h0a2.5,2.5,0,0,1,2.5-2.5h93.314a2.5,2.5,0,0,1,2.5,2.5h0A2.5,2.5,0,0,1,3935.257,611.522Z" transform="translate(-3810.378 -534.616)" fill="#f13b0f"/>
      <path id="Path_2195" data-name="Path 2195" d="M4746.32,395.072h-55.586a2.5,2.5,0,0,1-2.5-2.5h0a2.5,2.5,0,0,1,2.5-2.5h55.586a2.5,2.5,0,0,1,2.5,2.5h0A2.5,2.5,0,0,1,4746.32,395.072Z" transform="translate(-4498.423 -359.157)" fill="#f13b0f"/>
      <path id="Path_2196" data-name="Path 2196" d="M3908.395,538.44h-55.587a2.784,2.784,0,1,1,0-5.567h55.587a2.784,2.784,0,0,1,0,5.567Zm-55.587-5a2.215,2.215,0,0,0,0,4.431h55.587a2.215,2.215,0,0,0,0-4.431Z" transform="translate(-3818.955 -474.914)" fill="#1a1a1a"/>
      <path id="Path_2197" data-name="Path 2197" d="M4131.141,899.19h-55.587a2.784,2.784,0,0,1,0-5.567h55.587a2.784,2.784,0,1,1,0,5.567Zm-55.587-5a2.215,2.215,0,0,0,0,4.431h55.587a2.215,2.215,0,1,0,0-4.431Z" transform="translate(-3999.517 -767.344)" fill="#1a1a1a"/>
      <rect id="Rectangle_291" data-name="Rectangle 291" width="60.586" height="4.999" rx="2.499" transform="translate(159.518 126.563)" fill="#f13b0f"/>
      <rect id="Rectangle_349" data-name="Rectangle 349" width="60.586" height="4.999" rx="2.499" transform="translate(159.518 126.563)" fill="#fff" opacity="0.7"/>
      <rect id="Rectangle_292" data-name="Rectangle 292" width="60.586" height="4.999" rx="2.499" transform="translate(24.593 99.235)" fill="#f13b0f"/>
      <rect id="Rectangle_348" data-name="Rectangle 348" width="60.586" height="4.999" rx="2.499" transform="translate(24.593 99.235)" fill="#fff" opacity="0.7"/>
      <path id="Path_2198" data-name="Path 2198" d="M4435.953,971.34h-93.314a2.783,2.783,0,1,1,0-5.567h93.314a2.783,2.783,0,0,1,0,5.567Zm-93.314-5a2.215,2.215,0,1,0,0,4.431h93.314a2.215,2.215,0,1,0,0-4.431Z" transform="translate(-4216.021 -825.83)" fill="#1a1a1a"/>
      <path id="Path_2199" data-name="Path 2199" d="M3906.33,827.04h-93.314a2.784,2.784,0,1,1,0-5.567h93.314a2.784,2.784,0,1,1,0,5.567Zm-93.314-5a2.215,2.215,0,1,0,0,4.431h93.314a2.215,2.215,0,0,0,0-4.431Z" transform="translate(-3786.699 -708.858)" fill="#1a1a1a"/>
      <path id="Path_2200" data-name="Path 2200" d="M3846.2,972.271h-55.587a2.5,2.5,0,0,1-2.5-2.5h0a2.5,2.5,0,0,1,2.5-2.5H3846.2a2.5,2.5,0,0,1,2.5,2.5h0A2.5,2.5,0,0,1,3846.2,972.271Z" transform="translate(-3768.773 -827.046)" fill="#86a8db"/>
      <path id="Path_2201" data-name="Path 2201" d="M4501.229,394.14h-14.8a2.784,2.784,0,1,1,0-5.567h14.8a2.784,2.784,0,0,1,0,5.567Zm-14.8-5a2.215,2.215,0,1,0,0,4.431h14.8a2.215,2.215,0,0,0,0-4.431Z" transform="translate(-4332.582 -357.941)" fill="#1a1a1a"/>
      <path id="Path_2202" data-name="Path 2202" d="M4828.555,467.222h-14.8a2.5,2.5,0,0,1-2.5-2.5h0a2.5,2.5,0,0,1,2.5-2.5h14.8a2.5,2.5,0,0,1,2.5,2.5h0A2.5,2.5,0,0,1,4828.555,467.222Z" transform="translate(-4598.148 -417.644)" fill="#f13b0f"/>
      <path id="Path_2439" data-name="Path 2439" d="M4828.555,467.222h-14.8a2.5,2.5,0,0,1-2.5-2.5h0a2.5,2.5,0,0,1,2.5-2.5h14.8a2.5,2.5,0,0,1,2.5,2.5h0A2.5,2.5,0,0,1,4828.555,467.222Z" transform="translate(-4598.148 -417.644)" fill="#fff" opacity="0.7"/>
      <path id="Path_2203" data-name="Path 2203" d="M3895.813,466.29h-14.8a2.784,2.784,0,1,1,0-5.567h14.8a2.784,2.784,0,1,1,0,5.567Zm-14.8-5a2.215,2.215,0,0,0,0,4.431h14.8a2.215,2.215,0,0,0,0-4.431Z" transform="translate(-3841.82 -416.428)" fill="#1a1a1a"/>
      <path id="Path_2204" data-name="Path 2204" d="M4297.061,539.372h-14.8a2.5,2.5,0,0,1-2.5-2.5h0a2.5,2.5,0,0,1,2.5-2.5h14.8a2.5,2.5,0,0,1,2.5,2.5h0A2.5,2.5,0,0,1,4297.061,539.372Z" transform="translate(-4167.31 -476.13)" fill="#f13b0f"/>
      <path id="Path_2436" data-name="Path 2436" d="M4297.061,539.372h-14.8a2.5,2.5,0,0,1-2.5-2.5h0a2.5,2.5,0,0,1,2.5-2.5h14.8a2.5,2.5,0,0,1,2.5,2.5h0A2.5,2.5,0,0,1,4297.061,539.372Z" transform="translate(-4167.31 -476.13)" fill="#fff" opacity="0.7"/>
      <path id="Path_2205" data-name="Path 2205" d="M4478.54,611.522h-14.8a2.5,2.5,0,0,1-2.5-2.5h0a2.5,2.5,0,0,1,2.5-2.5h14.8a2.5,2.5,0,0,1,2.5,2.5h0A2.5,2.5,0,0,1,4478.54,611.522Z" transform="translate(-4314.419 -534.616)" fill="#f13b0f"/>
      <path id="Path_2437" data-name="Path 2437" d="M4478.54,611.522h-14.8a2.5,2.5,0,0,1-2.5-2.5h0a2.5,2.5,0,0,1,2.5-2.5h14.8a2.5,2.5,0,0,1,2.5,2.5h0A2.5,2.5,0,0,1,4478.54,611.522Z" transform="translate(-4314.419 -534.616)" fill="#fff" opacity="0.7"/>
      <path id="Path_2206" data-name="Path 2206" d="M4773.265,611.522h-14.8a2.5,2.5,0,0,1-2.5-2.5h0a2.5,2.5,0,0,1,2.5-2.5h14.8a2.5,2.5,0,0,1,2.5,2.5h0A2.5,2.5,0,0,1,4773.265,611.522Z" transform="translate(-4553.329 -534.616)" fill="#f13b0f"/>
      <path id="Path_2438" data-name="Path 2438" d="M4773.265,611.522h-14.8a2.5,2.5,0,0,1-2.5-2.5h0a2.5,2.5,0,0,1,2.5-2.5h14.8a2.5,2.5,0,0,1,2.5,2.5h0A2.5,2.5,0,0,1,4773.265,611.522Z" transform="translate(-4553.329 -534.616)" fill="#fff" opacity="0.7"/>
      <path id="Path_2207" data-name="Path 2207" d="M3948.082,682.74h-14.8a2.784,2.784,0,1,1,0-5.567h14.8a2.784,2.784,0,1,1,0,5.567Zm-14.8-5a2.215,2.215,0,0,0,0,4.431h14.8a2.215,2.215,0,1,0,0-4.431Z" transform="translate(-3884.19 -591.886)" fill="#1a1a1a"/>
      <path id="Path_2208" data-name="Path 2208" d="M4183.576,754.89h-14.8a2.784,2.784,0,0,1,0-5.567h14.8a2.784,2.784,0,1,1,0,5.567Zm-14.8-5a2.215,2.215,0,0,0,0,4.431h14.8a2.215,2.215,0,1,0,0-4.431Z" transform="translate(-4075.086 -650.372)" fill="#1a1a1a"/>
      <rect id="Rectangle_293" data-name="Rectangle 293" width="19.797" height="4.999" rx="2.499" transform="translate(196.519 112.899)" fill="#f13b0f"/>
      <rect id="Rectangle_350" data-name="Rectangle 350" width="19.797" height="4.999" rx="2.499" transform="translate(196.519 112.899)" fill="#fff" opacity="0.7"/>
      <rect id="Rectangle_294" data-name="Rectangle 294" width="19.797" height="4.999" rx="2.499" transform="translate(34.754 126.563)" fill="#1a1a1a"/>
      <path id="Path_2209" data-name="Path 2209" d="M4207.062,972.271h-14.8a2.5,2.5,0,0,1-2.5-2.5h0a2.5,2.5,0,0,1,2.5-2.5h14.8a2.5,2.5,0,0,1,2.5,2.5h0A2.5,2.5,0,0,1,4207.062,972.271Z" transform="translate(-4094.354 -827.046)" fill="#f13b0f"/>
    </g>
    <g id="Group_964" data-name="Group 964" transform="translate(2730.561 374.797)">
      <path id="Path_2210" data-name="Path 2210" d="M4528.29,1045.415l-24.795-25.76-1.421,35.726,9.114-9.014,4.569,12.019,4.3-1.635-4.569-12.019Z" transform="translate(-4498.002 -1017.477)" fill="rgba(51,51,51,0.55)"/>
      <path id="Path_2211" data-name="Path 2211" d="M4508.289,1035.415l-24.795-25.76-1.42,35.726,9.114-9.014,4.569,12.019,4.3-1.635-4.569-12.019Z" transform="translate(-4481.79 -1009.371)" fill="#fff"/>
      <path id="Path_2212" data-name="Path 2212" d="M4494.541,1047.455a.284.284,0,0,1-.265-.183l-4.414-11.611-8.8,8.707a.284.284,0,0,1-.483-.213l1.421-35.726a.284.284,0,0,1,.489-.186l24.795,25.76a.284.284,0,0,1-.22.48l-12.365-.66,4.414,11.611a.282.282,0,0,1-.006.217.287.287,0,0,1-.158.149l-4.3,1.635A.283.283,0,0,1,4494.541,1047.455Zm-4.569-12.587a.284.284,0,0,1,.266.183l4.468,11.754,3.77-1.433-4.468-11.754a.284.284,0,0,1,.036-.268.279.279,0,0,1,.245-.116l12.081.644-23.833-24.761-1.366,34.341,8.6-8.507A.283.283,0,0,1,4489.971,1034.867Z" transform="translate(-4480.573 -1008.155)" fill="#121212"/>
    </g>
    <g id="Group_967" data-name="Group 967" transform="translate(2413.567 344.179)">
      <ellipse id="Ellipse_330" data-name="Ellipse 330" cx="29.314" cy="7.503" rx="29.314" ry="7.503" transform="translate(161.033 144.722)" fill="#1a1a1a"/>
      <path id="Path_2213" data-name="Path 2213" d="M3664.241,1512.771s6.972,24.112,0,31.084,29.556,14.235,29.556,14.235l26.469-11.607s-8.069-13.377-3-33.712Z" transform="translate(-3501.127 -1386.589)" fill="#ffb39b"/>
      <circle id="Ellipse_331" data-name="Ellipse 331" cx="13.283" cy="13.283" r="13.283" transform="translate(142.914 118.891) rotate(-80.783)" fill="#00002e"/>
      <circle id="Ellipse_332" data-name="Ellipse 332" cx="11.879" cy="11.879" r="11.879" transform="translate(203.045 105.142) rotate(-45)" fill="#00002e"/>
      <path id="Rectangle_295" data-name="Rectangle 295" d="M30.848,0H42.3A30.848,30.848,0,0,1,73.145,30.848V57.622A36.573,36.573,0,0,1,36.573,94.195h0A36.573,36.573,0,0,1,0,57.622V30.848A30.848,30.848,0,0,1,30.848,0Z" transform="translate(151.715 45.113)" fill="#ffb39b"/>
      <circle id="Ellipse_333" data-name="Ellipse 333" cx="14.448" cy="14.448" r="14.448" transform="translate(131.538 77.762)" fill="#ffb39b"/>
      <circle id="Ellipse_334" data-name="Ellipse 334" cx="14.448" cy="14.448" r="14.448" transform="translate(216.142 77.762)" fill="#ffb39b"/>
      <path id="Path_2214" data-name="Path 2214" d="M4000.568,1315.143a.281.281,0,0,1-.088-.014.284.284,0,0,1-.182-.358c.026-.079,2.691-7.934,10.728-6.85a.284.284,0,0,1-.076.563c-7.577-1.021-10.087,6.388-10.111,6.463A.284.284,0,0,1,4000.568,1315.143Z" transform="translate(-3774.247 -1220.45)" fill="#1a1a1a"/>
      <path id="Path_2215" data-name="Path 2215" d="M4033.742,1318.669a.284.284,0,0,1-.218-.466,5.27,5.27,0,0,0-.79-7.562.284.284,0,0,1,.377-.425,5.9,5.9,0,0,1,.847,8.351A.281.281,0,0,1,4033.742,1318.669Z" transform="translate(-3800.475 -1222.336)" fill="#1a1a1a"/>
      <path id="Path_2216" data-name="Path 2216" d="M3548.987,1319.8a.285.285,0,0,1-.27-.2,11.461,11.461,0,0,0-2.2-3.641,8.555,8.555,0,0,0-7.908-2.823.284.284,0,1,1-.076-.563c8.038-1.085,10.7,6.77,10.727,6.85a.284.284,0,0,1-.27.372Z" transform="translate(-3399.741 -1224.228)" fill="#1a1a1a"/>
      <path id="Path_2217" data-name="Path 2217" d="M3550.013,1323.33a.283.283,0,0,1-.2-.08,5.273,5.273,0,0,1,.838-8.382.284.284,0,0,1,.356.442,4.712,4.712,0,0,0-.8,7.531.284.284,0,0,1-.2.488Z" transform="translate(-3407.714 -1226.114)" fill="#1a1a1a"/>
      <ellipse id="Ellipse_335" data-name="Ellipse 335" cx="2.923" cy="5.262" rx="2.923" ry="5.262" transform="translate(166.795 79.405)" fill="#1a1a1a"/>
      <ellipse id="Ellipse_336" data-name="Ellipse 336" cx="2.923" cy="5.262" rx="2.923" ry="5.262" transform="translate(202.981 79.405)" fill="#1a1a1a"/>
      <path id="Path_2218" data-name="Path 2218" d="M3786.484,1317.626c-1.232,0-4.825-.3-5.65-3.758-.412-1.723.572-5.059,1.589-8.1a50.517,50.517,0,0,0,1.666-7.342.284.284,0,1,1,.562.081,51,51,0,0,1-1.689,7.441c-.6,1.792-2,5.987-1.575,7.784.882,3.693,5.416,3.315,5.461,3.311a.284.284,0,1,1,.052.566C3786.892,1317.613,3786.738,1317.626,3786.484,1317.626Z" transform="translate(-3596.279 -1212.642)" fill="#1a1a1a"/>
      <path id="Path_2219" data-name="Path 2219" d="M4002.944,1275.26" transform="translate(-3776.404 -1194.058)" fill="#c59b6d"/>
      <path id="Path_2220" data-name="Path 2220" d="M3767.574,1409.876c7.646,9.548,22.324,6.028,24.951-6.637a1.171,1.171,0,0,0-1.832-1.293c-6.771,5.527-13.667,5.9-22.3,5.78C3767.248,1407.71,3766.86,1408.985,3767.574,1409.876Z" transform="matrix(0.956, 0.292, -0.292, 0.956, -3015.413, -2337.273)" fill="#fff"/>
      <g id="Group_965" data-name="Group 965" transform="translate(156.199 75.211)">
        <path id="Path_2221" data-name="Path 2221" d="M3645.036,1270.66a13.519,13.519,0,1,1,13.519-13.519A13.533,13.533,0,0,1,3645.036,1270.66Zm0-26.469a12.95,12.95,0,1,0,12.95,12.95A12.965,12.965,0,0,0,3645.036,1244.191Z" transform="translate(-3631.517 -1243.623)" fill="#fff"/>
        <path id="Path_2222" data-name="Path 2222" d="M3767.527,1285.257a.284.284,0,0,1-.121-.541,13.552,13.552,0,0,1,11.489,0,.284.284,0,0,1-.242.514,12.986,12.986,0,0,0-11.005,0A.278.278,0,0,1,3767.527,1285.257Z" transform="translate(-3741.539 -1275.898)" fill="#fff"/>
        <path id="Path_2223" data-name="Path 2223" d="M3836.112,1270.66a13.519,13.519,0,1,1,13.519-13.519A13.533,13.533,0,0,1,3836.112,1270.66Zm0-26.469a12.95,12.95,0,1,0,12.95,12.95A12.965,12.965,0,0,0,3836.112,1244.191Z" transform="translate(-3786.407 -1243.623)" fill="#fff"/>
      </g>
      <g id="Group_966" data-name="Group 966" transform="translate(127.054)">
        <circle id="Ellipse_337" data-name="Ellipse 337" cx="22.556" cy="22.556" r="22.556" transform="translate(40.294)" fill="#00002e"/>
        <circle id="Ellipse_338" data-name="Ellipse 338" cx="13.283" cy="13.283" r="13.283" transform="translate(34.667 36.651)" fill="#00002e"/>
        <ellipse id="Ellipse_339" data-name="Ellipse 339" cx="9.435" cy="13.283" rx="9.435" ry="13.283" transform="translate(11.773 59.205)" fill="#00002e"/>
        <circle id="Ellipse_340" data-name="Ellipse 340" cx="8.617" cy="8.617" r="8.617" transform="translate(56.999 39.721)" fill="#00002e"/>
        <ellipse id="Ellipse_341" data-name="Ellipse 341" cx="7.964" cy="11.879" rx="7.964" ry="11.879" transform="translate(91.522 61.964)" fill="#00002e"/>
        <circle id="Ellipse_342" data-name="Ellipse 342" cx="11.879" cy="11.879" r="11.879" transform="translate(0 55.79)" fill="#00002e"/>
        <circle id="Ellipse_343" data-name="Ellipse 343" cx="11.879" cy="11.879" r="11.879" transform="translate(97.807 55.79)" fill="#00002e"/>
        <circle id="Ellipse_344" data-name="Ellipse 344" cx="22.556" cy="22.556" r="22.556" transform="translate(6.386 21.311)" fill="#00002e"/>
        <circle id="Ellipse_345" data-name="Ellipse 345" cx="22.556" cy="22.556" r="22.556" transform="translate(70.234 22.556)" fill="#00002e"/>
      </g>
      <ellipse id="Ellipse_346" data-name="Ellipse 346" cx="9.186" cy="1.908" rx="9.186" ry="1.908" transform="translate(160.532 68.672)" fill="#1a1a1a"/>
      <ellipse id="Ellipse_347" data-name="Ellipse 347" cx="9.186" cy="1.908" rx="9.186" ry="1.908" transform="translate(196.718 68.672)" fill="#1a1a1a"/>
      <path id="Path_2224" data-name="Path 2224" d="M3035.273,1649.884l-9.4-7.324c1.308,2.19-27.01,16.729-27.01,16.729s-31.553-13.241-30.528-16.787l-10.263,6.789-30.557,6.123c-18.431,5.082-34.84,16.853-46.663,33.472l-65.08,103.221c-21.472,30.183-2.267,74.768,32.207,74.768h291c33.963,0,53.317-43.429,32.884-73.79L3111.33,1690.73c-11.958-17.767-29.049-30.346-48.364-35.592Z" transform="translate(-2806.731 -1491.751)" fill="#f13b0f"/>
      <path id="Path_2431" data-name="Path 2431" d="M3035.273,1649.884l-9.4-7.324c1.308,2.19-27.01,16.729-27.01,16.729s-31.553-13.241-30.528-16.787l-10.263,6.789-30.557,6.123c-18.431,5.082-34.84,16.853-46.663,33.472l-65.08,103.221c-21.472,30.183-2.267,74.768,32.207,74.768h291c33.963,0,53.317-43.429,32.884-73.79L3111.33,1690.73c-11.958-17.767-29.049-30.346-48.364-35.592Z" transform="translate(-2806.731 -1491.751)" opacity="0.6"/>
      <path id="Path_2225" data-name="Path 2225" d="M3683.051,1678.942l-10.365,26.036a1.567,1.567,0,0,1-2.38.685l-23.669-17.316-26.632,17.5a1.567,1.567,0,0,1-2.292-.675l-11.865-26.818,11.1,30a1.566,1.566,0,0,0,2.416.7l27.27-20.7,24.357,20.488a1.566,1.566,0,0,0,2.5-.711Z" transform="translate(-3454.51 -1520.809)" fill="#f13b0f"/>
      <path id="Path_2432" data-name="Path 2432" d="M3683.051,1678.942l-10.365,26.036a1.567,1.567,0,0,1-2.38.685l-23.669-17.316-26.632,17.5a1.567,1.567,0,0,1-2.292-.675l-11.865-26.818,11.1,30a1.566,1.566,0,0,0,2.416.7l27.27-20.7,24.357,20.488a1.566,1.566,0,0,0,2.5-.711Z" transform="translate(-3454.51 -1520.809)" opacity="0.8"/>
      <circle id="Ellipse_348" data-name="Ellipse 348" cx="2.355" cy="2.355" r="2.355" transform="translate(189.295 184.347) rotate(-76.718)" fill="#fff"/>
      <path id="Path_2226" data-name="Path 2226" d="M3812.568,1543.262a52.961,52.961,0,0,1,.842-14.031h0a33.034,33.034,0,0,1-23.729,10.008H3782.8S3798.076,1544.724,3812.568,1543.262Z" transform="translate(-3597.954 -1399.931)" fill="#f19c82"/>
    </g>
    <g id="Group_968" data-name="Group 968" transform="translate(2468.682 538.756)">
      <rect id="Rectangle_296" data-name="Rectangle 296" width="262.828" height="170.523" rx="13" transform="translate(0.284 0.284)" fill="#f13b0f"/>
      <rect id="Rectangle_345" data-name="Rectangle 345" width="262.828" height="170.523" rx="13" transform="translate(0.284 0.284)" fill="#fff" opacity="0.9"/>
      <path id="Path_2227" data-name="Path 2227" d="M3357.22,2785.579H3104.131a4.87,4.87,0,0,1-4.87-4.869h0a4.869,4.869,0,0,1,4.87-4.87H3357.22a4.87,4.87,0,0,1,4.87,4.87h0A4.87,4.87,0,0,1,3357.22,2785.579Z" transform="translate(-3098.977 -2605.033)" fill="#f13b0f"/>
      <path id="Path_2430" data-name="Path 2430" d="M3357.22,2785.579H3104.131a4.87,4.87,0,0,1-4.87-4.869h0a4.869,4.869,0,0,1,4.87-4.87H3357.22a4.87,4.87,0,0,1,4.87,4.87h0A4.87,4.87,0,0,1,3357.22,2785.579Z" transform="translate(-3098.977 -2605.033)" fill="#fff" opacity="0.7"/>
      <path id="Path_2228" data-name="Path 2228" d="M3098.046,1924.643a.284.284,0,0,1-.284-.284v-37.471a12.983,12.983,0,0,1,12.969-12.969h14.624a.284.284,0,0,1,0,.568H3110.73a12.415,12.415,0,0,0-12.4,12.4v37.471A.284.284,0,0,1,3098.046,1924.643Z" transform="translate(-3097.762 -1873.919)" fill="#1a1a1a"/>
      <path id="Path_2229" data-name="Path 2229" d="M4199.5,1931.639a.284.284,0,0,1-.284-.284v-44.468a12.415,12.415,0,0,0-12.4-12.4h-54.219a.284.284,0,1,1,0-.568h54.219a12.984,12.984,0,0,1,12.97,12.969v44.468A.284.284,0,0,1,4199.5,1931.639Z" transform="translate(-3936.384 -1873.919)" fill="#1a1a1a"/>
      <g id="Group_392" data-name="Group 392" transform="translate(-745.363 -236.847)">
        <path id="Path_897" data-name="Path 897" d="M859.035,315.83H868.1v19.588l-10.937-10.936a4.8,4.8,0,0,1,0-6.779Z" transform="translate(0 1.3)" fill="#f13b0f"/>
        <path id="Path_898" data-name="Path 898" d="M878.455,312.288H863.221l9.794-9.794a4.787,4.787,0,0,1,5.441-.936Z" transform="translate(0.657 0)" fill="#f13b0f"/>
        <path id="Path_899" data-name="Path 899" d="M889.82,330.227l-10.762,10.762a4.8,4.8,0,0,1-6.78,0l-.718-.718V315.83h6.159v14.4Z" transform="translate(1.393 1.3)" fill="#f13b0f"/>
        <path id="Path_900" data-name="Path 900" d="M894.674,325.383l-.892.892H881.67V305.6l13,13A4.794,4.794,0,0,1,894.674,325.383Z" transform="translate(2.285 0.397)" fill="#f13b0f"/>
      </g>
    </g>
    <g id="Group_971" data-name="Group 971" transform="translate(2457.036 290.708)">
      <path id="Path_2230" data-name="Path 2230" d="M3122.719,629.946h-64.95l10.022-44.309h64.951Z" transform="translate(-3053.696 -581.565)" fill="#f13b0f"/>
      <path id="Path_2434" data-name="Path 2434" d="M3122.719,629.946h-64.95l10.022-44.309h64.951Z" transform="translate(-3053.696 -581.565)" fill="#fff" opacity="0.7"/>
      <path id="Path_2231" data-name="Path 2231" d="M3102.719,609.946h-64.951l10.022-44.309h64.95Z" transform="translate(-3037.484 -565.353)" fill="#fff"/>
      <path id="Path_2232" data-name="Path 2232" d="M3102.719,609.946h-64.951l10.022-44.309h64.95Z" transform="translate(-3037.484 -565.353)" fill="#fff"/>
      <path id="Path_2233" data-name="Path 2233" d="M3101.5,609.014h-64.95a.284.284,0,0,1-.277-.347l10.022-44.309a.284.284,0,0,1,.277-.221h64.95a.284.284,0,0,1,.277.347l-10.022,44.309A.284.284,0,0,1,3101.5,609.014Zm-64.6-.568h64.368l9.894-43.741H3046.8Z" transform="translate(-3036.268 -564.137)" fill="#1a1a1a"/>
      <path id="Path_2234" data-name="Path 2234" d="M3149.967,587.663h-64.95a.284.284,0,1,1,0-.568h64.95a.284.284,0,1,1,0,.568Z" transform="translate(-3075.554 -582.747)" fill="#1a1a1a"/>
      <g id="Group_970" data-name="Group 970" transform="translate(12.524 1.621)">
        <g id="Group_969" data-name="Group 969">
          <ellipse id="Ellipse_350" data-name="Ellipse 350" cx="0.766" cy="0.848" rx="0.766" ry="0.848" fill="#f13b0f"/>
          <path id="Path_2235" data-name="Path 2235" d="M3120.957,573.544a.77.77,0,1,1-.766-.848A.81.81,0,0,1,3120.957,573.544Z" transform="translate(-3116.199 -572.696)" fill="#f13b0f"/>
          <ellipse id="Ellipse_351" data-name="Ellipse 351" cx="0.766" cy="0.848" rx="0.766" ry="0.848" transform="translate(6.449)" fill="#f13b0f"/>
        </g>
      </g>
      <path id="Path_2236" data-name="Path 2236" d="M3196.391,639.781a.284.284,0,0,1-.247-.424l14.432-25.552a.284.284,0,0,1,.495.28l-14.432,25.552A.283.283,0,0,1,3196.391,639.781Z" transform="translate(-3165.836 -604.282)" fill="#1a1a1a"/>
      <path id="Path_2237" data-name="Path 2237" d="M3128.814,660.927a.283.283,0,0,1-.135-.034l-11.755-6.329a.284.284,0,0,1,0-.5l11.755-6.329a.284.284,0,0,1,.27.5l-11.291,6.079,11.291,6.079a.284.284,0,0,1-.135.534Z" transform="translate(-3101.528 -631.875)" fill="#1a1a1a"/>
      <path id="Path_2238" data-name="Path 2238" d="M3289.856,660.927a.284.284,0,0,1-.135-.534l11.29-6.079-11.29-6.079a.284.284,0,0,1,.269-.5l11.755,6.329a.284.284,0,0,1,0,.5l-11.755,6.329A.283.283,0,0,1,3289.856,660.927Z" transform="translate(-3241.601 -631.875)" fill="#1a1a1a"/>
    </g>
    <g id="Group_972" data-name="Group 972" transform="translate(2655.071 499.951)">
      <rect id="Rectangle_297" data-name="Rectangle 297" width="199.862" height="19.139" rx="9.57" transform="translate(4.072 4.072)" fill="#f13b0f"/>
      <rect id="Rectangle_346" data-name="Rectangle 346" width="199.862" height="19.139" rx="9.57" transform="translate(4.072 4.072)" fill="#fff" opacity="0.7"/>
      <rect id="Rectangle_298" data-name="Rectangle 298" width="199.862" height="19.139" rx="9.57" transform="translate(0.284 0.284)" fill="#fff"/>
      <path id="Path_2239" data-name="Path 2239" d="M4339.641,1535.589H4158.918a9.854,9.854,0,0,1,0-19.708h180.723a9.854,9.854,0,0,1,0,19.708Zm-180.723-19.139a9.286,9.286,0,0,0,0,18.571h180.723a9.286,9.286,0,0,0,0-18.571Z" transform="translate(-4149.065 -1515.881)" fill="#1a1a1a"/>
      <circle id="Ellipse_352" data-name="Ellipse 352" cx="5.782" cy="5.782" r="5.782" transform="translate(10.125 9.854) rotate(-45)" fill="#f13b0f"/>
    </g>
    <g id="Group_973" data-name="Group 973" transform="translate(2360.131 417.144)">
      <rect id="Rectangle_299" data-name="Rectangle 299" width="118.554" height="19.139" rx="9.57" transform="translate(2.531 4.072)" fill="#f13b0f"/>
      <rect id="Rectangle_347" data-name="Rectangle 347" width="118.554" height="19.139" rx="9.57" transform="translate(2.531 4.072)" fill="#fff" opacity="0.7"/>
      <rect id="Rectangle_300" data-name="Rectangle 300" width="118.554" height="19.139" rx="9.57" transform="translate(0.284 0.284)" fill="#fff"/>
      <path id="Path_2240" data-name="Path 2240" d="M2633.842,1251.469h-99.415a9.854,9.854,0,1,1,0-19.707h99.415a9.854,9.854,0,1,1,0,19.707Zm-99.415-19.139a9.285,9.285,0,1,0,0,18.571h99.415a9.285,9.285,0,1,0,0-18.571Z" transform="translate(-2524.573 -1231.762)" fill="#1a1a1a"/>
      <path id="Path_2241" data-name="Path 2241" d="M3030.1,1263.012a.284.284,0,0,1-.2-.485l12.1-12.1a.284.284,0,0,1,.4.4l-12.1,12.1A.282.282,0,0,1,3030.1,1263.012Z" transform="translate(-2934.134 -1246.824)" fill="#1a1a1a"/>
      <path id="Path_2242" data-name="Path 2242" d="M3042.2,1263.012a.285.285,0,0,1-.2-.083l-12.1-12.1a.284.284,0,0,1,.4-.4l12.1,12.1a.284.284,0,0,1-.2.485Z" transform="translate(-2934.134 -1246.824)" fill="#1a1a1a"/>
    </g>
    <g id="Group_974" data-name="Group 974" transform="translate(2782.823 464.09)">
      <path id="Path_2243" data-name="Path 2243" d="M4865.648,1354.469l13.1-5.994-5.472,13.326,12.854,6.5-13.831,4.031,2.929,14.1-11.774-8.3-9.2,11.084-.852-14.381-14.4-.283,10.712-9.632-8.759-11.437,14.21,2.37,3.48-13.979Z" transform="translate(-4836.089 -1338.973)" fill="rgba(51,51,51,0.5)"/>
      <path id="Path_2244" data-name="Path 2244" d="M4851.788,1340.609l13.1-5.994-5.472,13.326,12.854,6.5-13.831,4.031,2.93,14.1-11.775-8.3-9.2,11.084-.852-14.381-14.4-.283,10.712-9.632-8.759-11.437L4841.3,1342l3.481-13.979Z" transform="translate(-4824.854 -1327.738)" fill="#fff"/>
      <path id="Path_2245" data-name="Path 2245" d="M4839.178,1374.433a.3.3,0,0,1-.089-.014.285.285,0,0,1-.195-.253l-.836-14.119-14.141-.278a.284.284,0,0,1-.184-.5l10.516-9.457-8.6-11.229a.284.284,0,0,1,.272-.453l13.95,2.326,3.418-13.724a.284.284,0,0,1,.524-.07l6.879,12.357,12.861-5.885a.284.284,0,0,1,.381.366l-5.373,13.083,12.62,6.386a.284.284,0,0,1-.049.526l-13.579,3.957,2.876,13.848a.284.284,0,0,1-.442.29l-11.56-8.149-9.033,10.882A.284.284,0,0,1,4839.178,1374.433Zm-14.53-15.218,13.684.269a.284.284,0,0,1,.278.267l.81,13.662,8.742-10.531a.284.284,0,0,1,.382-.051l11.187,7.886-2.783-13.4a.284.284,0,0,1,.2-.33l13.14-3.829-12.213-6.179a.285.285,0,0,1-.134-.361l5.2-12.661-12.445,5.7a.284.284,0,0,1-.366-.12l-6.657-11.958-3.307,13.281a.283.283,0,0,1-.323.212l-13.5-2.251,8.321,10.866a.283.283,0,0,1-.036.384Z" transform="translate(-4823.639 -1326.522)" fill="#1a1a1a"/>
    </g>
    <g id="Group_975" data-name="Group 975" transform="translate(2379.806 540.718)">
      <path id="Path_2246" data-name="Path 2246" d="M2673.56,1916.263l11.985,6.555-11.985,6.555L2667,1941.358l-6.555-11.985-11.985-6.555,11.985-6.555,6.555-11.985Z" transform="translate(-2644.677 -1900.49)" fill="#f13b0f"/>
      <path id="Path_2433" data-name="Path 2433" d="M2673.56,1916.263l11.985,6.555-11.985,6.555L2667,1941.358l-6.555-11.985-11.985-6.555,11.985-6.555,6.555-11.985Z" transform="translate(-2644.677 -1900.49)" fill="#fff" opacity="0.7"/>
      <path id="Path_2247" data-name="Path 2247" d="M2653.56,1896.263l11.985,6.555-11.985,6.555L2647,1921.358l-6.555-11.985-11.985-6.555,11.985-6.555,6.555-11.985Z" transform="translate(-2628.465 -1884.278)" fill="#f13b0f"/>
    </g>
    <path id="Path_2248" data-name="Path 2248" d="M3542.119,329.725a3.25,3.25,0,1,1,3.25-3.251A3.254,3.254,0,0,1,3542.119,329.725Zm0-5.933a2.682,2.682,0,1,0,2.682,2.682A2.686,2.686,0,0,0,3542.119,323.792Z" transform="translate(-971.649 -17.14)" fill="#1a1a1a"/>
    <path id="Path_2249" data-name="Path 2249" d="M3335.983,1526.719a3.25,3.25,0,1,1,3.25-3.251A3.255,3.255,0,0,1,3335.983,1526.719Zm0-5.933a2.682,2.682,0,1,0,2.682,2.682A2.685,2.685,0,0,0,3335.983,1520.786Z" transform="translate(-819.551 -1048.446)" fill="#1a1a1a"/>
    <path id="Path_2250" data-name="Path 2250" d="M4764.981,1981.513a3.25,3.25,0,1,1,3.25-3.25A3.254,3.254,0,0,1,4764.981,1981.513Zm0-5.933a2.682,2.682,0,1,0,2.683,2.682A2.685,2.685,0,0,0,4764.981,1975.58Z" transform="translate(-1977.924 -1417.11)" fill="#1a1a1a"/>
    <circle id="Ellipse_353" data-name="Ellipse 353" cx="2.966" cy="2.966" r="2.966" transform="translate(2367.59 352.864) rotate(-76.717)" fill="#1a1a1a"/>
    <circle id="Ellipse_354" data-name="Ellipse 354" cx="2.966" cy="2.966" r="2.966" transform="translate(2854.81 412.851) rotate(-45)" fill="#1a1a1a"/>
    <g id="Group_976" data-name="Group 976" transform="translate(2764.532 614.419)">
      <circle id="Ellipse_355" data-name="Ellipse 355" cx="12.21" cy="12.21" r="12.21" transform="translate(44.485 18.462) rotate(-45)" fill="#adec84"/>
      <circle id="Ellipse_356" data-name="Ellipse 356" cx="30.636" cy="30.636" r="30.636" transform="translate(0 43.326) rotate(-45)" fill="#adec84"/>
      <path id="Path_2251" data-name="Path 2251" d="M4969.286,2290.007a.284.284,0,0,1-.283-.256l-.888-9.1a.284.284,0,1,1,.565-.055l.888,9.1a.284.284,0,0,1-.256.31Z" transform="translate(-4909.754 -2279.031)" fill="#1a1a1a"/>
      <path id="Path_2252" data-name="Path 2252" d="M5032.874,2332.742a.284.284,0,0,1-.16-.519l5.549-3.774a.284.284,0,0,1,.32.47l-5.55,3.774A.283.283,0,0,1,5032.874,2332.742Z" transform="translate(-4962.018 -2317.992)" fill="#1a1a1a"/>
      <path id="Path_2253" data-name="Path 2253" d="M5028.428,2388.021a.285.285,0,0,1-.112-.023l-6.79-2.91a.284.284,0,0,1,.224-.522l6.79,2.91a.284.284,0,0,1-.112.545Z" transform="translate(-4952.911 -2363.503)" fill="#1a1a1a"/>
      <path id="Path_2254" data-name="Path 2254" d="M4766.238,2340.512a.283.283,0,0,1-.258-.165l-5.328-11.544a.284.284,0,0,1,.516-.238l5.329,11.544a.284.284,0,0,1-.258.4Z" transform="translate(-4741.559 -2317.992)" fill="#1a1a1a"/>
      <path id="Path_2255" data-name="Path 2255" d="M4877,2391.131a.285.285,0,0,1-.282-.251l-1.407-12.129a.284.284,0,0,1,.565-.065l1.407,12.129a.284.284,0,0,1-.25.315Z" transform="translate(-4834.523 -2358.551)" fill="#1a1a1a"/>
      <path id="Path_2256" data-name="Path 2256" d="M4717.768,2470.97a.264.264,0,0,1-.046,0l-8.436-1.332a.284.284,0,1,1,.089-.561l8.436,1.332a.284.284,0,0,1-.043.564Z" transform="translate(-4699.749 -2432.022)" fill="#1a1a1a"/>
      <path id="Path_2257" data-name="Path 2257" d="M5015.289,2492.539a.284.284,0,0,1-.1-.548l10.434-4.144a.284.284,0,1,1,.21.528l-10.434,4.144A.289.289,0,0,1,5015.289,2492.539Z" transform="translate(-4947.764 -2447.226)" fill="#1a1a1a"/>
      <path id="Path_2258" data-name="Path 2258" d="M4884.583,2501.3a.284.284,0,0,1-.182-.5l9.879-8.214a.284.284,0,0,1,.363.437l-9.879,8.214A.282.282,0,0,1,4884.583,2501.3Z" transform="translate(-4841.812 -2451.027)" fill="#1a1a1a"/>
      <path id="Path_2259" data-name="Path 2259" d="M4766.54,2531.765l-38.525-11.064a30.448,30.448,0,0,0,3.48,11.064Z" transform="translate(-4715.125 -2473.875)" fill="#1a1a1a"/>
      <path id="Rectangle_301" data-name="Rectangle 301" d="M0,0H70.375a0,0,0,0,1,0,0V11.522A35.187,35.187,0,0,1,35.187,46.709h0A35.187,35.187,0,0,1,0,11.522V0A0,0,0,0,1,0,0Z" transform="translate(7.584 57.89)" fill="#1a1a1a"/>
      <path id="Path_2260" data-name="Path 2260" d="M4769.155,2578.191H4698.78a.284.284,0,1,1,0-.568h70.375a.284.284,0,1,1,0,.568Z" transform="translate(-4691.196 -2520.017)" fill="#fff"/>
    </g>
    <path id="Path_2261" data-name="Path 2261" d="M2860.976,2826.334H2322a.284.284,0,0,1,0-.568h538.979a.284.284,0,0,1,0,.568Z" transform="translate(0 -2106.748)" fill="#1a1a1a"/>
  </g>
</svg>
