<svg xmlns="http://www.w3.org/2000/svg" width="541.487" height="379.94" viewBox="0 0 541.487 379.94"><g transform="translate(-2358.747 -273.412)"><g transform="translate(2617.111 273.412)"><path d="M3970.659,427.411H3737.467l35.982-159.083h233.192Z" transform="translate(-3727.714 -260.469)" fill="#d12900"/><path d="M3970.659,427.411H3737.467l35.982-159.083h233.192Z" transform="translate(-3727.714 -260.469)" fill="#fff" opacity="0.7"/><path d="M3920.659,387.411H3687.467l35.982-159.083h233.192Z" transform="translate(-3687.183 -228.044)" fill="#fff"/><path d="M3919.444,386.479H3686.252a.284.284,0,0,1-.277-.347l35.982-159.083a.284.284,0,0,1,.277-.221h233.191a.284.284,0,0,1,.277.347l-35.982,159.083A.284.284,0,0,1,3919.444,386.479Zm-232.836-.568h232.609L3955.071,227.4H3722.462Z" transform="translate(-3685.968 -226.828)" fill="#1a1a1a"/><path d="M4093.444,309.821H3860.252a.284.284,0,0,1,0-.568h233.192a.284.284,0,1,1,0,.568Z" transform="translate(-3827.016 -293.643)" fill="#1a1a1a"/><g transform="translate(44.766 6.59)"><g transform="translate(0 0)"><circle cx="1.606" cy="1.606" r="1.606" transform="translate(0 3.261) rotate(-80.783)" fill="#d12900"/><circle cx="1.606" cy="1.606" r="1.606" transform="translate(6.671 3.127) rotate(-76.718)" fill="#d12900"/><circle cx="1.606" cy="1.606" r="1.606" transform="translate(13.52 3.261) rotate(-80.783)" fill="#d12900"/></g></g><g transform="translate(225.88 5.127)"><path d="M4884.2,283.107h-5.225a.284.284,0,1,1,0-.568h5.225a.284.284,0,0,1,0,.568Z" transform="translate(-4878.695 -277.115)" fill="#1a1a1a"/><g transform="translate(21.872 0)"><path d="M4999.693,259.893a.284.284,0,0,1-.2-.087l-5.224-5.424a.284.284,0,1,1,.409-.394l5.224,5.423a.284.284,0,0,1-.2.481Z" transform="translate(-4994.185 -253.902)" fill="#1a1a1a"/><path d="M4994.469,259.893a.284.284,0,0,1-.2-.481l5.224-5.423a.284.284,0,1,1,.409.394l-5.224,5.424A.283.283,0,0,1,4994.469,259.893Z" transform="translate(-4994.185 -253.902)" fill="#1a1a1a"/></g><g transform="translate(10.262)"><path d="M4949.115,258.085h-2.191a.284.284,0,1,1,0-.568h1.907v-3.048h-3.813v1.524a.284.284,0,0,1-.568,0v-1.808a.284.284,0,0,1,.284-.284h4.382a.284.284,0,0,1,.284.284V257.8A.284.284,0,0,1,4949.115,258.085Z" transform="translate(-4942.258 -253.901)" fill="#1a1a1a"/><path d="M4937.546,267.631h-4.382a.284.284,0,0,1-.283-.284v-3.616a.284.284,0,0,1,.283-.284h4.382a.284.284,0,0,1,.284.284v3.616A.284.284,0,0,1,4937.546,267.631Zm-4.1-.568h3.813v-3.048h-3.813Z" transform="translate(-4932.881 -261.639)" fill="#1a1a1a"/></g></g><path d="M4001.359,395.072h-93.314a2.5,2.5,0,0,1-2.5-2.5h0a2.5,2.5,0,0,1,2.5-2.5h93.314a2.5,2.5,0,0,1,2.5,2.5h0A2.5,2.5,0,0,1,4001.359,395.072Z" transform="translate(-3863.962 -359.157)" fill="#d12900"/><path d="M4001.359,395.072h-93.314a2.5,2.5,0,0,1-2.5-2.5h0a2.5,2.5,0,0,1,2.5-2.5h93.314a2.5,2.5,0,0,1,2.5,2.5h0A2.5,2.5,0,0,1,4001.359,395.072Z" transform="translate(-3863.962 -359.157)" fill="#fff" opacity="0.7"/><path d="M4541,538.44h-93.314a2.784,2.784,0,1,1,0-5.567H4541a2.784,2.784,0,0,1,0,5.567Zm-93.314-5a2.215,2.215,0,1,0,0,4.431H4541a2.215,2.215,0,0,0,0-4.431Z" transform="translate(-4301.174 -474.914)" fill="#1a1a1a"/><path d="M4513.33,682.74h-93.314a2.784,2.784,0,1,1,0-5.567h93.314a2.784,2.784,0,1,1,0,5.567Zm-93.314-5a2.215,2.215,0,1,0,0,4.431h93.314a2.215,2.215,0,0,0,0-4.431Z" transform="translate(-4278.744 -591.886)" fill="#1a1a1a"/><path d="M4206.138,466.29h-93.314a2.784,2.784,0,0,1,0-5.567h93.314a2.784,2.784,0,1,1,0,5.567Zm-93.314-5a2.215,2.215,0,0,0,0,4.431h93.314a2.215,2.215,0,1,0,0-4.431Z" transform="translate(-4029.729 -416.428)" fill="#1a1a1a"/><rect width="98.313" height="4.999" rx="2.499" transform="translate(118.003 99.235)" fill="#d12900"/><path d="M3935.257,611.522h-93.314a2.5,2.5,0,0,1-2.5-2.5h0a2.5,2.5,0,0,1,2.5-2.5h93.314a2.5,2.5,0,0,1,2.5,2.5h0A2.5,2.5,0,0,1,3935.257,611.522Z" transform="translate(-3810.378 -534.616)" fill="#d12900"/><path d="M4746.32,395.072h-55.586a2.5,2.5,0,0,1-2.5-2.5h0a2.5,2.5,0,0,1,2.5-2.5h55.586a2.5,2.5,0,0,1,2.5,2.5h0A2.5,2.5,0,0,1,4746.32,395.072Z" transform="translate(-4498.423 -359.157)" fill="#d12900"/><path d="M3908.395,538.44h-55.587a2.784,2.784,0,1,1,0-5.567h55.587a2.784,2.784,0,0,1,0,5.567Zm-55.587-5a2.215,2.215,0,0,0,0,4.431h55.587a2.215,2.215,0,0,0,0-4.431Z" transform="translate(-3818.955 -474.914)" fill="#1a1a1a"/><path d="M4131.141,899.19h-55.587a2.784,2.784,0,0,1,0-5.567h55.587a2.784,2.784,0,1,1,0,5.567Zm-55.587-5a2.215,2.215,0,0,0,0,4.431h55.587a2.215,2.215,0,1,0,0-4.431Z" transform="translate(-3999.517 -767.344)" fill="#1a1a1a"/><rect width="60.586" height="4.999" rx="2.499" transform="translate(159.518 126.563)" fill="#d12900"/><rect width="60.586" height="4.999" rx="2.499" transform="translate(159.518 126.563)" fill="#fff" opacity="0.7"/><rect width="60.586" height="4.999" rx="2.499" transform="translate(24.593 99.235)" fill="#d12900"/><rect width="60.586" height="4.999" rx="2.499" transform="translate(24.593 99.235)" fill="#fff" opacity="0.7"/><path d="M4435.953,971.34h-93.314a2.783,2.783,0,1,1,0-5.567h93.314a2.783,2.783,0,0,1,0,5.567Zm-93.314-5a2.215,2.215,0,1,0,0,4.431h93.314a2.215,2.215,0,1,0,0-4.431Z" transform="translate(-4216.021 -825.83)" fill="#1a1a1a"/><path d="M3906.33,827.04h-93.314a2.784,2.784,0,1,1,0-5.567h93.314a2.784,2.784,0,1,1,0,5.567Zm-93.314-5a2.215,2.215,0,1,0,0,4.431h93.314a2.215,2.215,0,0,0,0-4.431Z" transform="translate(-3786.699 -708.858)" fill="#1a1a1a"/><path d="M3846.2,972.271h-55.587a2.5,2.5,0,0,1-2.5-2.5h0a2.5,2.5,0,0,1,2.5-2.5H3846.2a2.5,2.5,0,0,1,2.5,2.5h0A2.5,2.5,0,0,1,3846.2,972.271Z" transform="translate(-3768.773 -827.046)" fill="#d12900"/><path d="M4501.229,394.14h-14.8a2.784,2.784,0,1,1,0-5.567h14.8a2.784,2.784,0,0,1,0,5.567Zm-14.8-5a2.215,2.215,0,1,0,0,4.431h14.8a2.215,2.215,0,0,0,0-4.431Z" transform="translate(-4332.582 -357.941)" fill="#1a1a1a"/><path d="M4828.555,467.222h-14.8a2.5,2.5,0,0,1-2.5-2.5h0a2.5,2.5,0,0,1,2.5-2.5h14.8a2.5,2.5,0,0,1,2.5,2.5h0A2.5,2.5,0,0,1,4828.555,467.222Z" transform="translate(-4598.148 -417.644)" fill="#d12900"/><path d="M4828.555,467.222h-14.8a2.5,2.5,0,0,1-2.5-2.5h0a2.5,2.5,0,0,1,2.5-2.5h14.8a2.5,2.5,0,0,1,2.5,2.5h0A2.5,2.5,0,0,1,4828.555,467.222Z" transform="translate(-4598.148 -417.644)" fill="#fff" opacity="0.7"/><path d="M3895.813,466.29h-14.8a2.784,2.784,0,1,1,0-5.567h14.8a2.784,2.784,0,1,1,0,5.567Zm-14.8-5a2.215,2.215,0,0,0,0,4.431h14.8a2.215,2.215,0,0,0,0-4.431Z" transform="translate(-3841.82 -416.428)" fill="#1a1a1a"/><path d="M4297.061,539.372h-14.8a2.5,2.5,0,0,1-2.5-2.5h0a2.5,2.5,0,0,1,2.5-2.5h14.8a2.5,2.5,0,0,1,2.5,2.5h0A2.5,2.5,0,0,1,4297.061,539.372Z" transform="translate(-4167.31 -476.13)" fill="#d12900"/><path d="M4297.061,539.372h-14.8a2.5,2.5,0,0,1-2.5-2.5h0a2.5,2.5,0,0,1,2.5-2.5h14.8a2.5,2.5,0,0,1,2.5,2.5h0A2.5,2.5,0,0,1,4297.061,539.372Z" transform="translate(-4167.31 -476.13)" fill="#fff" opacity="0.7"/><path d="M4478.54,611.522h-14.8a2.5,2.5,0,0,1-2.5-2.5h0a2.5,2.5,0,0,1,2.5-2.5h14.8a2.5,2.5,0,0,1,2.5,2.5h0A2.5,2.5,0,0,1,4478.54,611.522Z" transform="translate(-4314.419 -534.616)" fill="#d12900"/><path d="M4478.54,611.522h-14.8a2.5,2.5,0,0,1-2.5-2.5h0a2.5,2.5,0,0,1,2.5-2.5h14.8a2.5,2.5,0,0,1,2.5,2.5h0A2.5,2.5,0,0,1,4478.54,611.522Z" transform="translate(-4314.419 -534.616)" fill="#fff" opacity="0.7"/><path d="M4773.265,611.522h-14.8a2.5,2.5,0,0,1-2.5-2.5h0a2.5,2.5,0,0,1,2.5-2.5h14.8a2.5,2.5,0,0,1,2.5,2.5h0A2.5,2.5,0,0,1,4773.265,611.522Z" transform="translate(-4553.329 -534.616)" fill="#d12900"/><path d="M4773.265,611.522h-14.8a2.5,2.5,0,0,1-2.5-2.5h0a2.5,2.5,0,0,1,2.5-2.5h14.8a2.5,2.5,0,0,1,2.5,2.5h0A2.5,2.5,0,0,1,4773.265,611.522Z" transform="translate(-4553.329 -534.616)" fill="#fff" opacity="0.7"/><path d="M3948.082,682.74h-14.8a2.784,2.784,0,1,1,0-5.567h14.8a2.784,2.784,0,1,1,0,5.567Zm-14.8-5a2.215,2.215,0,0,0,0,4.431h14.8a2.215,2.215,0,1,0,0-4.431Z" transform="translate(-3884.19 -591.886)" fill="#1a1a1a"/><path d="M4183.576,754.89h-14.8a2.784,2.784,0,0,1,0-5.567h14.8a2.784,2.784,0,1,1,0,5.567Zm-14.8-5a2.215,2.215,0,0,0,0,4.431h14.8a2.215,2.215,0,1,0,0-4.431Z" transform="translate(-4075.086 -650.372)" fill="#1a1a1a"/><rect width="19.797" height="4.999" rx="2.499" transform="translate(196.519 112.899)" fill="#d12900"/><rect width="19.797" height="4.999" rx="2.499" transform="translate(196.519 112.899)" fill="#fff" opacity="0.7"/><rect width="19.797" height="4.999" rx="2.499" transform="translate(34.754 126.563)" fill="#1a1a1a"/><path d="M4207.062,972.271h-14.8a2.5,2.5,0,0,1-2.5-2.5h0a2.5,2.5,0,0,1,2.5-2.5h14.8a2.5,2.5,0,0,1,2.5,2.5h0A2.5,2.5,0,0,1,4207.062,972.271Z" transform="translate(-4094.354 -827.046)" fill="#d12900"/></g><g transform="translate(2759.601 374.797)"><path d="M4528.29,1045.415l-24.795-25.76-1.421,35.726,9.114-9.014,4.569,12.019,4.3-1.635-4.569-12.019Z" transform="translate(-4498.002 -1017.477)" fill="rgba(51,51,51,0.55)"/><path d="M4508.289,1035.415l-24.795-25.76-1.42,35.726,9.114-9.014,4.569,12.019,4.3-1.635-4.569-12.019Z" transform="translate(-4481.79 -1009.371)" fill="#fff"/><path d="M4494.541,1047.455a.284.284,0,0,1-.265-.183l-4.414-11.611-8.8,8.707a.284.284,0,0,1-.483-.213l1.421-35.726a.284.284,0,0,1,.489-.186l24.795,25.76a.284.284,0,0,1-.22.48l-12.365-.66,4.414,11.611a.282.282,0,0,1-.006.217.287.287,0,0,1-.158.149l-4.3,1.635A.283.283,0,0,1,4494.541,1047.455Zm-4.569-12.587a.284.284,0,0,1,.266.183l4.468,11.754,3.77-1.433-4.468-11.754a.284.284,0,0,1,.036-.268.279.279,0,0,1,.245-.116l12.081.644-23.833-24.761-1.366,34.341,8.6-8.507A.283.283,0,0,1,4489.971,1034.867Z" transform="translate(-4480.573 -1008.155)" fill="#121212"/></g><g transform="translate(2465.593 290.708)"><path d="M3122.719,629.946h-64.95l10.022-44.309h64.951Z" transform="translate(-3053.696 -581.565)" fill="#d12900"/><path d="M3122.719,629.946h-64.95l10.022-44.309h64.951Z" transform="translate(-3053.696 -581.565)" fill="#fff" opacity="0.7"/><path d="M3102.719,609.946h-64.951l10.022-44.309h64.95Z" transform="translate(-3037.484 -565.353)" fill="#fff"/><path d="M3102.719,609.946h-64.951l10.022-44.309h64.95Z" transform="translate(-3037.484 -565.353)" fill="#fff"/><path d="M3101.5,609.014h-64.95a.284.284,0,0,1-.277-.347l10.022-44.309a.284.284,0,0,1,.277-.221h64.95a.284.284,0,0,1,.277.347l-10.022,44.309A.284.284,0,0,1,3101.5,609.014Zm-64.6-.568h64.368l9.894-43.741H3046.8Z" transform="translate(-3036.268 -564.137)" fill="#1a1a1a"/><path d="M3149.967,587.663h-64.95a.284.284,0,1,1,0-.568h64.95a.284.284,0,1,1,0,.568Z" transform="translate(-3075.554 -582.747)" fill="#1a1a1a"/><g transform="translate(12.524 1.621)"><ellipse cx="0.766" cy="0.848" rx="0.766" ry="0.848" fill="#d12900"/><path d="M3120.957,573.544a.77.77,0,1,1-.766-.848A.81.81,0,0,1,3120.957,573.544Z" transform="translate(-3116.199 -572.696)" fill="#d12900"/><ellipse cx="0.766" cy="0.848" rx="0.766" ry="0.848" transform="translate(6.449)" fill="#d12900"/></g><path d="M3196.391,639.781a.284.284,0,0,1-.247-.424l14.432-25.552a.284.284,0,0,1,.495.28l-14.432,25.552A.283.283,0,0,1,3196.391,639.781Z" transform="translate(-3165.836 -604.282)" fill="#1a1a1a"/><path d="M3128.814,660.927a.283.283,0,0,1-.135-.034l-11.755-6.329a.284.284,0,0,1,0-.5l11.755-6.329a.284.284,0,0,1,.27.5l-11.291,6.079,11.291,6.079a.284.284,0,0,1-.135.534Z" transform="translate(-3101.528 -631.875)" fill="#1a1a1a"/><path d="M3289.856,660.927a.284.284,0,0,1-.135-.534l11.29-6.079-11.29-6.079a.284.284,0,0,1,.269-.5l11.755,6.329a.284.284,0,0,1,0,.5l-11.755,6.329A.283.283,0,0,1,3289.856,660.927Z" transform="translate(-3241.601 -631.875)" fill="#1a1a1a"/></g><g transform="translate(2692.105 499.951)"><rect width="199.862" height="19.139" rx="9.57" transform="translate(4.072 4.072)" fill="#d12900"/><rect width="199.862" height="19.139" rx="9.57" transform="translate(4.072 4.072)" fill="#fff" opacity="0.7"/><rect width="199.862" height="19.139" rx="9.57" transform="translate(0.284 0.284)" fill="#fff"/><path d="M4339.641,1535.589H4158.918a9.854,9.854,0,0,1,0-19.708h180.723a9.854,9.854,0,0,1,0,19.708Zm-180.723-19.139a9.286,9.286,0,0,0,0,18.571h180.723a9.286,9.286,0,0,0,0-18.571Z" transform="translate(-4149.065 -1515.881)" fill="#1a1a1a"/><circle cx="5.782" cy="5.782" r="5.782" transform="translate(10.125 9.854) rotate(-45)" fill="#d12900"/></g><g transform="translate(2360.131 417.144)"><rect width="118.554" height="19.139" rx="9.57" transform="translate(2.531 4.072)" fill="#d12900"/><rect width="118.554" height="19.139" rx="9.57" transform="translate(2.531 4.072)" fill="#fff" opacity="0.7"/><rect width="118.554" height="19.139" rx="9.57" transform="translate(0.284 0.284)" fill="#fff"/><path d="M2633.842,1251.469h-99.415a9.854,9.854,0,1,1,0-19.707h99.415a9.854,9.854,0,1,1,0,19.707Zm-99.415-19.139a9.285,9.285,0,1,0,0,18.571h99.415a9.285,9.285,0,1,0,0-18.571Z" transform="translate(-2524.573 -1231.762)" fill="#1a1a1a"/><path d="M3030.1,1263.012a.284.284,0,0,1-.2-.485l12.1-12.1a.284.284,0,0,1,.4.4l-12.1,12.1A.282.282,0,0,1,3030.1,1263.012Z" transform="translate(-2934.134 -1246.824)" fill="#1a1a1a"/><path d="M3042.2,1263.012a.285.285,0,0,1-.2-.083l-12.1-12.1a.284.284,0,0,1,.4-.4l12.1,12.1a.284.284,0,0,1-.2.485Z" transform="translate(-2934.134 -1246.824)" fill="#1a1a1a"/></g><g transform="translate(2819.857 464.09)"><path d="M4865.648,1354.469l13.1-5.994-5.472,13.326,12.854,6.5-13.831,4.031,2.929,14.1-11.774-8.3-9.2,11.084-.852-14.381-14.4-.283,10.712-9.632-8.759-11.437,14.21,2.37,3.48-13.979Z" transform="translate(-4836.089 -1338.973)" fill="rgba(51,51,51,0.5)"/><path d="M4851.788,1340.609l13.1-5.994-5.472,13.326,12.854,6.5-13.831,4.031,2.93,14.1-11.775-8.3-9.2,11.084-.852-14.381-14.4-.283,10.712-9.632-8.759-11.437L4841.3,1342l3.481-13.979Z" transform="translate(-4824.854 -1327.738)" fill="#fff"/><path d="M4839.178,1374.433a.3.3,0,0,1-.089-.014.285.285,0,0,1-.195-.253l-.836-14.119-14.141-.278a.284.284,0,0,1-.184-.5l10.516-9.457-8.6-11.229a.284.284,0,0,1,.272-.453l13.95,2.326,3.418-13.724a.284.284,0,0,1,.524-.07l6.879,12.357,12.861-5.885a.284.284,0,0,1,.381.366l-5.373,13.083,12.62,6.386a.284.284,0,0,1-.049.526l-13.579,3.957,2.876,13.848a.284.284,0,0,1-.442.29l-11.56-8.149-9.033,10.882A.284.284,0,0,1,4839.178,1374.433Zm-14.53-15.218,13.684.269a.284.284,0,0,1,.278.267l.81,13.662,8.742-10.531a.284.284,0,0,1,.382-.051l11.187,7.886-2.783-13.4a.284.284,0,0,1,.2-.33l13.14-3.829-12.213-6.179a.285.285,0,0,1-.134-.361l5.2-12.661-12.445,5.7a.284.284,0,0,1-.366-.12l-6.657-11.958-3.307,13.281a.283.283,0,0,1-.323.212l-13.5-2.251,8.321,10.866a.283.283,0,0,1-.036.384Z" transform="translate(-4823.639 -1326.522)" fill="#1a1a1a"/></g><g transform="translate(2400.24 354.227)"><path d="M2673.56,1916.263l11.985,6.555-11.985,6.555L2667,1941.358l-6.555-11.985-11.985-6.555,11.985-6.555,6.555-11.985Z" transform="translate(-2644.677 -1900.49)" fill="#d12900"/><path d="M2673.56,1916.263l11.985,6.555-11.985,6.555L2667,1941.358l-6.555-11.985-11.985-6.555,11.985-6.555,6.555-11.985Z" transform="translate(-2644.677 -1900.49)" fill="#fff" opacity="0.7"/><path d="M2653.56,1896.263l11.985,6.555-11.985,6.555L2647,1921.358l-6.555-11.985-11.985-6.555,11.985-6.555,6.555-11.985Z" transform="translate(-2628.465 -1884.278)" fill="#d12900"/></g><path d="M3542.119,329.725a3.25,3.25,0,1,1,3.25-3.251A3.254,3.254,0,0,1,3542.119,329.725Zm0-5.933a2.682,2.682,0,1,0,2.682,2.682A2.686,2.686,0,0,0,3542.119,323.792Z" transform="translate(-956.145 -17.14)" fill="#1a1a1a"/><path d="M3335.983,1526.719a3.25,3.25,0,1,1,3.25-3.251A3.255,3.255,0,0,1,3335.983,1526.719Zm0-5.933a2.682,2.682,0,1,0,2.682,2.682A2.685,2.685,0,0,0,3335.983,1520.786Z" transform="translate(-808.065 -1048.446)" fill="#1a1a1a"/><path d="M4764.981,1981.513a3.25,3.25,0,1,1,3.25-3.25A3.254,3.254,0,0,1,4764.981,1981.513Zm0-5.933a2.682,2.682,0,1,0,2.683,2.682A2.685,2.685,0,0,0,4764.981,1975.58Z" transform="translate(-1940.89 -1417.11)" fill="#1a1a1a"/><circle cx="2.966" cy="2.966" r="2.966" transform="translate(2367.59 352.864) rotate(-76.717)" fill="#1a1a1a"/><circle cx="2.966" cy="2.966" r="2.966" transform="translate(2891.844 412.851) rotate(-45)" fill="#1a1a1a"/><g transform="translate(2358.747 320.169)"><g transform="translate(264.217 124.818)"><g transform="translate(0 0)"><path d="M8032.385,2430.091h119.58s12.727-53.291,12.727-84.545c0-24.86,2.02-62.932-63.677-62.932s-64.917,37.885-64.415,62.932C8037,2365.542,8032.385,2430.091,8032.385,2430.091Z" transform="translate(-8032.385 -2282.614)" fill="#411004"/></g><g transform="translate(74.455 6.815)"><g transform="translate(17.858 2.99)"><path d="M8053.575,2305.131c13.389,5.016,29.134,17.773,28.1,50.068a3.34,3.34,0,0,1-3.336,3.232h-.108a3.34,3.34,0,0,1-3.229-3.445c.409-12.872-2.053-23.3-7.323-30.983a33.825,33.825,0,0,0-16.389-12.6,3.3,3.3,0,0,1-2.228-2.754A3.364,3.364,0,0,1,8053.575,2305.131Z" transform="translate(-8049.054 -2304.918)" fill="#8e3e2a"/></g><g transform="translate(0)"><path d="M8142.085,2298.162a37.235,37.235,0,0,1,4.527.047,3.493,3.493,0,0,1,3.363,3.356,3.339,3.339,0,0,1-3.336,3.33c-.075,0-.151,0-.229-.008a32.765,32.765,0,0,0-3.866-.065,3.338,3.338,0,0,1-.46-6.661Z" transform="translate(-8138.979 -2298.117)" fill="#8e3e2a"/></g></g></g><g transform="translate(166.846 123.998)"><path d="M8234.374,2389.191c-8.939,19.313-64.386,14.733-72.371,6.074,5.16-6.073,6.056-27.261,2.048-31.923,3.112-2.869,13.12.573,13.12.573s-21.9-17.492-34.071-20.684c1.094,78.05,36.049,112.362,20.279,116.443-77.412,20.031-113.6-2.347-115.869-12.476-10.222-45.679-12.711-62.2-12.711-62.2s-.8,41.258-26.328,41.258c-21.694,0-24.735-23.149-17.194-62.44,0,0,12.857-80.872,52.653-80.872l14.362-.312,33.754-1.743s39.265-4.027,82.521,30.49c41.495,33.107,63.945,68.871,59.806,77.809" transform="translate(-7987.553 -2280.749)" fill="#c22600"/></g><g transform="translate(208.363 177.757)"><path d="M8374.715,2404.671l21.056-1.639,4.533,28.77s-3.349,5.72-15,7.455c-11.3-2.536-13.671-7.19-13.671-7.19Z" transform="translate(-8371.634 -2403.031)" fill="#f55b36"/></g><g transform="translate(227.834 156.657)"><path d="M8219.3,2443.148c6.989-32.544,5.3-85.638,7.955-88.049s1,63.232,19.535,120.645c1.611,4.992,6.635,13.555,8.232,18.979s-5.448,6.58-5.448,6.58c-60.737,17.269-100.994,4.224-112.361-6.958C8206.513,2499.718,8212.311,2475.693,8219.3,2443.148Z" transform="translate(-8137.214 -2355.035)" fill="#ae2302"/></g><g transform="translate(243.563 165.342)"><path d="M8323.512,2376.01s7.374-2.008,9.857,2.719.971,10.937-6.737,11.465c-4.256,6.026-12.154,2.481-11.11-3.427C8307.719,2381.484,8316.567,2371.283,8323.512,2376.01Z" transform="translate(-8312.476 -2374.793)" fill="#fff"/></g><g transform="translate(322.594 172.522)"><path d="M8072.749,2405.75s2.228-2.067,34.506,20.018c18.294,5.37,18.938,5.686,18.938,5.686s5.946,2.763-2.251-3.678-34.961-32.633-51.674-36.651C8069.052,2393.214,8072.749,2405.75,8072.749,2405.75Z" transform="translate(-8070.953 -2391.124)" fill="#ae2302"/></g><g transform="translate(346.799 231.267)"><path d="M8061.017,2524.827c-.752,7.143-15.061,13.394-27.251,14.142-15.687.963-38.068.24-45.129-6.973a26.11,26.11,0,0,0,3.34-7.25s38.613,13.48,69.04.08" transform="translate(-7988.637 -2524.747)" fill="#ae2302"/></g><g transform="translate(180.226)"><g transform="translate(35.689 85.189)"><path d="M8286,2209.85s1.733,11.994,1.348,14.967c-10.531,1.046-16.922,1.574-16.922,1.574.456,6.415-.577,18.546,27.192,26.077,24.439,6.628,36.673-13.118,38.731-20.706,0,0-6.514-2.132-12.531-3.826-3.309-21.982-3.822-34.534-3.822-34.534S8292.774,2200.058,8286,2209.85Z" transform="translate(-8270.081 -2192.993)" fill="#efb68b"/><path d="M8301.282,2253.188a40.994,40.994,0,0,1-4.293-.928c-26.371-7.151-26.991-18.443-27.36-25.188-.023-.411-.045-.8-.072-1.178l-.022-.321.319-.026c.063-.006,6.4-.531,16.653-1.548.261-3.276-1.354-14.507-1.372-14.624l-.018-.126.073-.105c6.762-9.781,33.069-16.3,34.186-16.578l.385-.094.018.4c0,.125.547,12.707,3.786,34.291,5.9,1.667,12.278,3.753,12.342,3.773l.294.1-.081.3C8334.533,2237.179,8324.149,2256.842,8301.282,2253.188Zm-31.055-27.021q.026.421.048.869c.362,6.571.967,17.569,26.885,24.6,24.955,6.769,36.326-13.741,38.246-20.179-1.344-.436-7-2.257-12.22-3.726l-.2-.057-.032-.208c-2.952-19.607-3.686-31.855-3.806-34.169-3.314.853-27.051,7.219-33.351,16.116.194,1.366,1.7,12.076,1.33,14.928l-.035.256-.257.025C8277.725,2225.525,8271.646,2226.047,8270.228,2226.167Z" transform="translate(-8269.534 -2192.471)"/></g><g transform="translate(52.922 85.82)"><path d="M8302.544,2211.115s.651,11.381.28,14.231c11.392,4.745,26.35,3.389,34.639-6.086-2.514-21.317-2.56-25.354-2.56-25.354S8309.036,2201.727,8302.544,2211.115Z" transform="translate(-8302.544 -2193.907)" fill="#e6b389"/></g><g transform="translate(31.221 118.151)"><path d="M8263.743,2267.449s-2.517,20.172,25.2,24.494c29.423,3.913,36.749-11.1,39.277-19.139l5.861,2.171c-3.4,7.921-10.583,29.7-46.792,23.76-31.444-5.733-29.484-30.764-29.484-30.764Z" transform="translate(-8257.781 -2267.449)" fill="#ae2302"/></g><g transform="translate(7.459 22.08)"><path d="M8344.912,2085.667s12.9-4.558,16.764,8.314c3.684,12.547-10.287,20.041-18.383,19.271,0,0-1.4,32.287-46.749,28.262-43.412-3.853-29.086-66.271-22.956-74.33,0,0,12.14-20.118,49.3-17.255S8344.912,2085.667,8344.912,2085.667Z" transform="translate(-8265.982 -2049.329)" fill="#f3c9a7"/><path d="M8293.16,2141.061c-11.088-1.772-18.958-7.773-23.419-17.87-8.893-20.124-1.384-50.58,3.205-56.613.1-.174,12.65-20.229,49.588-17.382,11.259.868,18.887,4.571,22.67,11.01,3.256,5.541,2.977,12.1,2.169,16.626a40.938,40.938,0,0,1-2.271,7.912c1.7-.463,6.263-1.375,10.362.7,2.92,1.482,4.986,4.183,6.14,8.028a13.242,13.242,0,0,1-2.551,12.656,20.548,20.548,0,0,1-15.844,7.058,30.7,30.7,0,0,1-10.122,19.383c-8.344,7.311-20.776,10.29-36.954,8.854Q8294.609,2141.293,8293.16,2141.061Zm33.684-90.708q-2.079-.332-4.359-.508c-19.087-1.471-31.394,3.258-38.357,7.484-7.54,4.576-10.614,9.564-10.642,9.614-4.413,5.8-11.787,36.435-3.149,55.985,4.746,10.745,13.442,16.743,25.854,17.853,15.986,1.419,28.253-1.5,36.458-8.686a29.872,29.872,0,0,0,9.937-19.265l.017-.343.34.033c4.493.428,11.493-1.81,15.611-6.8a12.621,12.621,0,0,0,2.429-12.057c-1.1-3.664-3.056-6.233-5.809-7.632-4.8-2.435-10.479-.486-10.536-.467l-.724.255.32-.7c.064-.142,6.456-14.3.408-24.589C8341.479,2055.152,8335.5,2051.736,8326.844,2050.352Z" transform="translate(-8265.6 -2048.919)"/><g transform="translate(7.041 40.025)"><path d="M8460.536,2142.808a3.445,3.445,0,1,1-3.991-2.793A3.447,3.447,0,0,1,8460.536,2142.808Z" transform="translate(-8453.698 -2139.962)" fill="#010202"/></g><g transform="translate(5.442 24.17)"><path d="M8456,2103.962c-2.581-.359-5.11.825-5.416,2.2-.408,1.866,2.05.177,4.412.429,3.455.367,4.2,1.664,5.059,1.385C8461.188,2107.607,8459.62,2104.467,8456,2103.962Z" transform="translate(-8450.534 -2103.897)" fill="#010202"/></g><g transform="translate(36.314 40.14)"><path d="M8385.23,2143.158a3.885,3.885,0,1,0,4.718-2.814A3.887,3.887,0,0,0,8385.23,2143.158Z" transform="translate(-8385.111 -2140.223)" fill="#010202"/></g><g transform="translate(37.387 24.035)"><path d="M8380.313,2103.6c2.919-.146,5.629,1.426,5.832,2.994.272,2.123-2.308,0-4.965.043-3.892.07-4.851,1.442-5.782,1.046C8374.163,2107.158,8376.22,2103.806,8380.313,2103.6Z" transform="translate(-8375.042 -2103.592)" fill="#010202"/></g><g transform="translate(19.588 44.618)"><path d="M8432.974,2151.134c-.358,1.107-3.855,9.013-4.178,10.744s2.328,2.5,3.258,3.021-1.742.814-4.456-.925c-2.157-1.818,1.253-6.819,4.4-13.03C8432.634,2150.1,8433.236,2150.327,8432.974,2151.134Z" transform="translate(-8426.92 -2150.41)" fill="#010202"/></g><g transform="translate(75.824 42.133)"><path d="M8281.806,2158.586s6.533-1.329,4.115-7.053,1.98-8.7,7.218-5.4S8294.926,2160.224,8281.806,2158.586Z" transform="translate(-8281.806 -2144.759)" fill="#e6b389"/></g></g><g transform="translate(0 49.677)"><g transform="translate(66.089 16.422)"><path d="M8347.373,2149.048a1.834,1.834,0,0,1,1.809,2.225c-.22,1.628-2.181,1.275-2.181,1.275Z" transform="translate(-8347.001 -2149.048)" fill="#010202"/></g><g transform="translate(0.192 8.36)"><path d="M8481.6,2134.7a.289.289,0,0,1-.062-.554l8.456-3.419a.29.29,0,0,1,.218.538l-8.457,3.418A.292.292,0,0,1,8481.6,2134.7Z" transform="translate(-8481.361 -2130.71)" fill="#010202"/></g><g transform="translate(1.505)"><path d="M8445.216,2140.488a14.526,14.526,0,1,1,4.778-.038A14.436,14.436,0,0,1,8445.216,2140.488Zm4.5-27.972a13.859,13.859,0,1,0,5.768,2.354A13.834,13.834,0,0,0,8449.711,2112.516Z" transform="translate(-8433.031 -2111.694)" fill="#010202"/></g><g transform="translate(35.462 0.896)"><path d="M8363.611,2144.86a15.7,15.7,0,1,1,5.166-.041A15.6,15.6,0,0,1,8363.611,2144.86Zm4.841-30.293a15.011,15.011,0,1,0,12.432,12.255A14.973,14.973,0,0,0,8368.452,2114.567Z" transform="translate(-8350.433 -2113.731)" fill="#010202"/></g><g transform="translate(29.792 15.472)"><path d="M8420.812,2148.37l-.362-.452c.034-.027,3.376-2.639,6.215.55l-.432.385A3.859,3.859,0,0,0,8420.812,2148.37Z" transform="translate(-8420.449 -2146.886)" fill="#010202"/></g><g transform="translate(67.772 8.451)"><path d="M8305.439,2140.851a.289.289,0,0,1-.088-.543l18.325-9.358a.289.289,0,0,1,.264.515l-18.324,9.358A.282.282,0,0,1,8305.439,2140.851Z" transform="translate(-8305.194 -2130.916)" fill="#010202"/></g><g transform="translate(0 10.841)"><path d="M8499.362,2136.4a1.836,1.836,0,0,0-2.33,1.673c-.212,1.629,1.771,1.8,1.771,1.8Z" transform="translate(-8497.017 -2136.352)" fill="#010202"/></g></g><g transform="translate(10.718)"><path d="M8284.53,2012.765c-4.148-.6-7.338-3.258-3.775-3.069,2.935.156,7.013-.959,9.791-1.869-6.348-1.126-10.932-6.668-7.515-6.518,3.15.138,2.522,2.8,15.953-.076,13.345-2.854,21.705-3.386,31.06-1.155l.067.015.114.025h0c9.658,2.164,14.753,6.923,14.753,6.923,24.168,6.458,20.727,43.187,14.465,49.934-5.854-1.377-9.564.387-9.564.387s-1.322,9.175-7.3.582c-7.709-10.838-9.909-29.15-9.909-29.15-14.616,17.115-22.768,15.76-16.98,2.8-13.729,8.3-39.185,11.385-40.562,8.333C8274.079,2037.618,8273.564,2023.783,8284.53,2012.765Z" transform="translate(-8274.607 -1998.696)" fill="#010202"/></g><g transform="translate(22.802 86.546)"><path d="M8420.729,2196.431c1.243-1.314,3.254-1.232,1.579.848-2.374,3.028-7.389,4.7-11.335,5a16.241,16.241,0,0,1-9.021-2.1c-1.025-.787-.752-1.723.723-1.062a17.474,17.474,0,0,0,8.151,1.481A16.271,16.271,0,0,0,8420.729,2196.431Z" transform="translate(-8401.34 -2195.558)" fill="#010202"/></g><g transform="translate(32.513 95.732)"><path d="M8419.46,2216.452a10.77,10.77,0,0,1-6.943,1.28C8415.324,2222.527,8419.971,2220.591,8419.46,2216.452Z" transform="translate(-8412.517 -2216.452)" fill="#010202"/></g></g><g transform="translate(294.987 131.212)"><g transform="translate(18.434 6.391)"><path d="M8089.6,2311.915c8.845,3.366,19.053,9.731,26.671,15.535,7.916,6.031,16.939,13.415,26.816,21.949a3.333,3.333,0,0,1-4.357,5.044c-9.773-8.444-18.688-15.742-26.5-21.69-6.963-5.305-16.929-11.534-25-14.608a3.332,3.332,0,1,1,2.37-6.229Z" transform="translate(-8085.083 -2311.696)" fill="#fff"/></g><path d="M8237.112,2299.97a3.333,3.333,0,0,1,3.812-2.771,40.505,40.505,0,0,1,4.519,1.085,3.332,3.332,0,1,1-1.863,6.4,35.114,35.114,0,0,0-3.705-.9A3.332,3.332,0,0,1,8237.112,2299.97Z" transform="translate(-8237.071 -2297.158)" fill="#fff"/></g><g transform="translate(189.913 103.088)"><path d="M8387.03,2283.488c11.215-2.32,23.074-13.451,25.395-15.469s2.577-7.476-1.29-7.22c2.19-1.676,2.32-7.348-3.737-6.091a20.244,20.244,0,0,0,5.565-4.687c1.752-2.052,2.862-4.237,1.4-5.336-3.094-2.32-14.31,4.9-14.31,4.9s11.6-8.637,14.567-10.57,3.352-5.544-2.449-4.125c-4.352,1.063-16.465,7.857-22.252,11.187-1.928,1.11-3.153,1.835-3.153,1.835.123-1.141.2-2.189.228-3.151.366-11.579-5.595-10.8-7.5-10.923-.08,1.545-.094,2.914-.088,4.169.029,5.205.41,8.439-2.083,14.153-3.094,7.09-4.469,22.691-4.469,22.691l-2.673,7.87Z" transform="translate(-8369.805 -2233.551)" fill="#f3c9a7"/><path d="M8386.808,2283.394l.031-.007c10.485-2.168,21.32-11.8,24.881-14.966.258-.229.473-.419.638-.563a5.786,5.786,0,0,0,1.477-5.951,2.685,2.685,0,0,0-2.288-1.731,4.4,4.4,0,0,0,.671-4.38c-.371-.809-1.336-2.013-3.745-1.9a26.343,26.343,0,0,0,4.452-4.064c1.534-1.8,2.249-3.277,2.126-4.395a1.876,1.876,0,0,0-.775-1.335c-1.979-1.476-6.877.6-10.465,2.487,3.659-2.7,8.874-6.518,10.711-7.715,1.7-1.108,2.582-2.718,2.1-3.828-.283-.659-1.28-1.64-4.763-.786-4.286,1.047-15.823,7.475-22.323,11.214-1.229.707-2.17,1.258-2.693,1.565.091-.923.15-1.808.175-2.637.141-4.44-.642-7.593-2.325-9.372a6.518,6.518,0,0,0-4.959-1.814c-.176,0-.334-.008-.472-.017l-.272-.017-.017.273c-.067,1.326-.094,2.617-.085,4.184,0,.6.01,1.177.018,1.734.06,4.243.1,7.309-2.08,12.309-3.075,7.049-4.475,22.62-4.489,22.776l-2.775,8.147Zm24.341-22.7a2.189,2.189,0,0,1,2.184,1.417,5.261,5.261,0,0,1-1.332,5.336c-.165.144-.381.335-.64.567-3.529,3.139-14.265,12.682-24.6,14.834l-16.459-.749,2.556-7.528c.028-.219,1.421-15.7,4.462-22.67,2.229-5.108,2.185-8.223,2.125-12.534-.007-.555-.016-1.129-.019-1.729-.008-1.45.016-2.661.072-3.885l.218.006a6.053,6.053,0,0,1,4.58,1.646c1.58,1.669,2.311,4.691,2.176,8.982-.03.974-.105,2.027-.226,3.129l-.061.539.465-.276s1.228-.725,3.152-1.834c5.211-3,17.8-10.088,22.182-11.158,2.226-.545,3.773-.366,4.138.476s-.471,2.227-1.9,3.159c-2.937,1.916-14.464,10.493-14.579,10.58l.309.446c3.074-1.979,11.583-6.721,14-4.91a1.33,1.33,0,0,1,.561.96c.105.949-.585,2.326-2,3.983a20.231,20.231,0,0,1-5.446,4.6l.142.523c2.277-.472,3.884.028,4.517,1.413a3.727,3.727,0,0,1-1,4.2l-.712.545.894-.059C8410.989,2260.7,8411.069,2260.7,8411.148,2260.7Z" transform="translate(-8369.559 -2233.185)"/></g><g transform="translate(185.572 149.272)"><g transform="translate(48.959 37.438)"><g transform="translate(49.55 7.999)"><path d="M8235.675,2441.666c-.479,0-1.408,0-1.408,0l.035,3.57,2.409-.031s8.044-.7,8.165,8.751c.127,10.128-12.493,10.888-12.493,10.888l-1.872,3.917s17.823-.024,18.2-14.743C8249.069,2440.262,8235.771,2441.569,8235.675,2441.666Z" transform="translate(-8230.511 -2441.591)" fill="#ffeee9"/></g><g transform="translate(0 6.656)"><path d="M8259.418,2438.537c0,28.024,3,35.481,27.525,35.481s27.526-7.457,27.526-35.481Z" transform="translate(-8259.418 -2438.537)" fill="#ffeee9"/></g><g transform="translate(51.15)"><path d="M8164.1,2443.543c-2.169-.643-4.649-6.884.975-8.09,5.091.445,14.062,1.367,14.062,1.367s-3.531-.538-9.438-4.033c-5.78-2.625-1.491-8.6-1.491-8.6l37.229,18.971,1.894,10-2.41,11.441c-25.861,9.029-42.369,4.234-42.911.563a5.841,5.841,0,0,1,1.772-4.719l-1.128-1.951a23.157,23.157,0,0,0,7.439-2.893c-2.875-1.316-5.832-2.733-5.832-2.733C8157.67,2449.57,8159.564,2444.185,8164.1,2443.543Z" transform="translate(-8159.712 -2423.839)" fill="#f3c9a7"/><path d="M8177.227,2469.58c7.164,0,16.5-1.356,27.423-5.17l.145-.051,2.452-11.643-1.929-10.183-37.556-19.137-.135.19c-.089.123-2.159,3.051-1.427,5.8a5,5,0,0,0,3.025,3.209,40.45,40.45,0,0,0,6.61,3.215c-3.081-.309-7.885-.785-11.1-1.065l-.041,0-.039.009c-3.07.656-3.6,2.691-3.648,3.844a5.568,5.568,0,0,0,1.945,4.4,4.65,4.65,0,0,0-3.551,3.58c-.369,2.263,1.267,4.543,4.375,6.1.03.015,2.694,1.292,5.394,2.533a23.906,23.906,0,0,1-6.933,2.585l-.374.071,1.214,2.1a5.965,5.965,0,0,0-1.7,4.8,3.442,3.442,0,0,0,1.859,2.152C8165.68,2468.385,8170.5,2469.58,8177.227,2469.58Zm27.1-5.632c-20.937,7.277-35.87,5.484-40.806,2.5-.951-.575-1.521-1.2-1.6-1.767a5.6,5.6,0,0,1,1.686-4.48l.159-.147-1.048-1.816a22.437,22.437,0,0,0,7.171-2.858l.392-.271-.433-.2c-2.839-1.3-5.8-2.716-5.827-2.731-2.881-1.44-4.406-3.5-4.078-5.523a4.279,4.279,0,0,1,3.841-3.285l1.23-.174-1.193-.352c-1.08-.321-2.338-2.335-2.266-4.23.047-1.21.638-2.768,3.181-3.328,5.037.441,13.928,1.354,14.018,1.364l.068-.538c-.035-.005-3.562-.577-9.342-4a4.511,4.511,0,0,1-2.752-2.868c-.567-2.119.78-4.471,1.214-5.151l36.9,18.8,1.857,9.814Z" transform="translate(-8159.354 -2423.396)"/></g></g><g transform="translate(138.809 78.725)"><path d="M8171.007,2526.678l1.883-9.37s-.791.346-5.785,1.762C8167.156,2523.8,8168.295,2526.289,8171.007,2526.678Z" transform="translate(-8167.104 -2517.308)" fill="#ae2302"/></g><path d="M8420.173,2347.327a.549.549,0,0,1-.069-.489l2.348-7.452a.638.638,0,0,1,.467-.431,35.3,35.3,0,0,1,21.69,2.542,36.522,36.522,0,0,1,8.678,5.311.533.533,0,0,1,.134.589l-2.6,7.284a.649.649,0,0,1-.11.193.627.627,0,0,1-.236.178.534.534,0,0,1-.476-.013,62.921,62.921,0,0,0-29.39-7.511A.494.494,0,0,1,8420.173,2347.327Z" transform="translate(-8420.075 -2338.237)" fill="#f55b36"/><g transform="translate(20.571 4.436)"><path d="M8426.453,2348.327a34.184,34.184,0,0,1,6.263,4.135.535.535,0,0,1,.135.589l-2.6,7.284a.645.645,0,0,1-.347.372.54.54,0,0,1-.478-.012,58.067,58.067,0,0,0-9.345-4.1C8421.215,2354.879,8423.6,2352.323,8426.453,2348.327Z" transform="translate(-8420.077 -2348.327)" fill="#dc4622"/></g></g><g transform="translate(156.746 161.971)"><path d="M8479.119,2371.061s.33,12.806-7.192,62.344c-5.356,44.235-20.062,41.1-27.776,41.1s-15.31-5.39-17.9-15.471c1.889,5.257,20.493,16.436,31.01-.922s11.8-90.99,11.8-90.99S8474.553,2369.106,8479.119,2371.061Z" transform="translate(-8426.251 -2367.123)" fill="#ae2302"/></g><g transform="translate(191.294 142.161)"><path d="M8428.26,2322.063s-13.088,7.492-21.351,7.11-12.385-4.119-12.385-4.119l-1.435,4.121a36.044,36.044,0,0,1,15.335,3.646C8417.621,2330.521,8423.889,2325.386,8428.26,2322.063Z" transform="translate(-8393.09 -2322.063)" fill="#efb68b"/></g><g transform="translate(0 269.48)"><path d="M8047.933,2611.669h441.459c29.819,0,43.172,4.942,26.095,15.681-18.048,11.347-20.931,6.853-24.689,26.228-4.229,21.794-67.8,21.794-156.743,21.794-98.137,0-64.717-16.634-179.326-20.842-65.122-2.392-65.469-19.128-107.252-24.256C8023.2,2627.293,8014.584,2611.669,8047.933,2611.669Z" transform="translate(-8025.986 -2611.669)" fill="#f9d8d2"/></g><g transform="translate(95.808 269.48)" opacity="0.1"><path d="M8069.221,2611.669h260.751c16.181,0,5.263,5.747-4.856,6.581-50.34,4.147-23.129,28.353-90.163,28.353-46.99,0-32.292-27.059-128.589-27.059C8060.154,2619.544,8051.125,2611.669,8069.221,2611.669Z" transform="translate(-8060.509 -2611.669)" fill="#d12900"/></g><g transform="translate(292.503 206.173)"><path d="M8242.424,2470.031a.241.241,0,0,0,.036-.479l-12.223-1.88a.241.241,0,1,0-.072.477l12.223,1.88A.181.181,0,0,0,8242.424,2470.031Z" transform="translate(-8229.96 -2467.668)" fill="#010202"/></g><g transform="translate(298.62 218.226)"><path d="M8238.143,2497.031a.242.242,0,0,0,.068-.473l-4.891-1.465a.242.242,0,0,0-.139.463l4.892,1.466A.265.265,0,0,0,8238.143,2497.031Z" transform="translate(-8233.01 -2495.084)" fill="#010202"/></g><g transform="translate(53.251 157.52)"><g transform="translate(0 0)"><g transform="translate(129.241 105.368)"><path d="M8263.066,2600.4a2.867,2.867,0,0,0,2.866,2.87h80.06a2.87,2.87,0,0,0,2.87-2.87v-.852a2.87,2.87,0,0,0-2.87-2.87h-80.06a2.867,2.867,0,0,0-2.866,2.87Z" transform="translate(-8263.066 -2596.675)" fill="#333"/></g><g transform="translate(22.332 105.368)"><path d="M8390.283,2600.4a2.869,2.869,0,0,0,2.869,2.87h131.039a2.87,2.87,0,0,0,2.868-2.87v-.852a2.87,2.87,0,0,0-2.868-2.87H8393.152a2.871,2.871,0,0,0-2.869,2.87Z" transform="translate(-8390.283 -2596.675)" fill="#141414"/></g><g transform="translate(1.579)"><path d="M8395.464,2361.375a3.61,3.61,0,0,1,3.7-4.375h129.015a5.5,5.5,0,0,1,5.235,4.375l17.2,97.882a3.607,3.607,0,0,1-3.693,4.374H8417.9a5.491,5.491,0,0,1-5.231-4.374Z" transform="translate(-8395.397 -2357)" fill="#141414"/></g><path d="M8405.972,2361.375a3.609,3.609,0,0,1,3.7-4.375h125.976a5.5,5.5,0,0,1,5.232,4.375l17.2,97.882a3.608,3.608,0,0,1-3.694,4.374H8428.407a5.5,5.5,0,0,1-5.233-4.374Z" transform="translate(-8405.905 -2357)" fill="#333"/></g><g transform="translate(134.564 3.968)"><path d="M8422.742,2464.721a.427.427,0,0,0,.07-.006.406.406,0,0,0,.331-.47l-17.2-97.883a.406.406,0,1,0-.8.141l17.2,97.882A.41.41,0,0,0,8422.742,2464.721Z" transform="translate(-8405.135 -2366.027)" fill="#fff"/></g></g><g transform="translate(292.079 223.07)"><path d="M8245.084,2510.25a.241.241,0,0,0,.044-.478,34.336,34.336,0,0,1-10.626-3.635.242.242,0,0,0-.251.413,34.813,34.813,0,0,0,10.789,3.7A.235.235,0,0,0,8245.084,2510.25Z" transform="translate(-8234.135 -2506.102)" fill="#010202"/></g><g transform="translate(256.576 279.072)" opacity="0.1"><path d="M8239.746,2641.637c-.844-2.014.894-8.878,9.774-8.878h24.774c8.88,0,10.5,6.742,9.773,8.878C8283.822,2649.605,8240.12,2651.918,8239.746,2641.637Z" transform="translate(-8239.556 -2632.759)" fill="#d12900"/></g><g transform="translate(265.022 137.703)"><path d="M8265.487,2331.635s-1.251,6.4-10.067,6.4-10.233-6.4-10.233-6.4a5.381,5.381,0,0,1-6.105-5.234c-.711-7.889,7.1-6.976,7.1-6.976s-1.094-7.5,7.666-7.5c8.377,0,8.519,6.59,8.519,6.59s9.621-3.239,11.356,3.612C8276.275,2332.2,8265.487,2331.635,8265.487,2331.635Z" transform="translate(-8239.035 -2311.922)" fill="#fff"/></g><g transform="translate(308.405 207.355)"><path d="M8191.644,2490.128s-15.027,5.7-27.242,5.171c7.8-1.842,24.914-8.734,26.8-24.943C8192.661,2479.207,8191.644,2490.128,8191.644,2490.128Z" transform="translate(-8164.401 -2470.356)" fill="#efb68b"/></g><g transform="translate(333.605 205.091)"><path d="M8143.721,2465.374a.557.557,0,0,1,.476-.163l7.915.923a.652.652,0,0,1,.521.385,36.006,36.006,0,0,1,1.61,22.218,37.273,37.273,0,0,1-3.656,9.712.55.55,0,0,1-.566.247l-7.795-1.214a.659.659,0,0,1-.438-.275.55.55,0,0,1-.079-.479,64.22,64.22,0,0,0,1.893-30.883A.5.5,0,0,1,8143.721,2465.374Z" transform="translate(-8141.684 -2465.206)" fill="#f55b36"/></g><g transform="translate(333.507 226.463)"><path d="M8157.521,2518.623a34.844,34.844,0,0,1-2.942,7.067.547.547,0,0,1-.565.246l-7.795-1.213a.654.654,0,0,1-.214-.073.645.645,0,0,1-.226-.2.549.549,0,0,1-.077-.48,59.684,59.684,0,0,0,2.32-10.149C8149.955,2514.633,8152.972,2516.53,8157.521,2518.623Z" transform="translate(-8145.677 -2513.819)" fill="#dc4622"/></g><g transform="translate(84.243 186.739)"><ellipse cx="30" cy="4.5" rx="30" ry="4.5" transform="translate(6.244 91.208)" fill="#f5c1b5"/><g transform="translate(0 0)"><path d="M8480.047,2539.875s35.812-31.628,27.12-40.783c-10.121-10.672-29.205,36.312-30.712,35.53s23.2-58.079,2.531-60.195c-19.838-2.028-10.895,57.491-12.961,57.761s-5.669-48.21-17.566-45.554c-18.156,4.066,9.1,46.094,7.61,46.877s-16.226-22.618-24.048-14.158c-9.328,10.073,23.081,20.513,23.081,20.513h24.944Z" transform="translate(-8430.335 -2474.375)" fill="#7ee177"/></g><g transform="translate(7.427 11.562)"><path d="M8479.488,2554.613s27.909-34.912,27.2-36.322c-.579-1.149-28.615,36.322-28.615,36.322h-4.306s8.265-53.937,6.855-53.937-7.91,53.937-7.91,53.937h-7.28s-12.091-43.372-13.145-43.372,12.207,43.372,12.207,43.372h-1.757s-21.179-15.655-22.356-15.655,21.188,15.655,21.188,15.655Z" transform="translate(-8440.341 -2500.676)" fill="#60c759"/></g><g transform="translate(14.075 65.499)"><path d="M8482.239,2653.9h32.5a5.659,5.659,0,0,0,5.64-5.64V2629a5.659,5.659,0,0,0-5.64-5.639h-32.5a5.659,5.659,0,0,0-5.64,5.639v19.257A5.666,5.666,0,0,0,8482.239,2653.9Z" transform="translate(-8476.6 -2623.363)" fill="#3a0101"/></g><g transform="translate(43.087 74.113)"><path d="M8506.485,2642.957a1.044,1.044,0,0,1,1.043,1.043v12.216a1.042,1.042,0,1,1-2.085,0V2644A1.056,1.056,0,0,1,8506.485,2642.957Z" transform="translate(-8505.443 -2642.957)" fill="#fff"/></g><g transform="translate(34.926 74.113)"><path d="M8525.048,2642.957a1.045,1.045,0,0,1,1.044,1.043v12.216a1.043,1.043,0,1,1-2.086,0V2644A1.044,1.044,0,0,1,8525.048,2642.957Z" transform="translate(-8524.006 -2642.957)" fill="#fff"/></g><g transform="translate(26.756 74.113)"><path d="M8543.633,2642.957a1.045,1.045,0,0,1,1.043,1.043v12.216a1.043,1.043,0,1,1-2.087,0V2644A1.046,1.046,0,0,1,8543.633,2642.957Z" transform="translate(-8542.589 -2642.957)" fill="#fff"/></g></g></g><g transform="translate(2694.909 534.33)"><g transform="translate(14.519 0)"><g transform="translate(0 63.754)"><ellipse cx="26" cy="4.5" rx="26" ry="4.5" transform="translate(-3.194 30.416)" fill="#f5c1b5"/><path d="M8580.821,3639c8.427-6.341,7.065-30.4,7.065-30.4H8543.41s-1.361,24.058,7.066,30.4Z" transform="translate(-8543.329 -3608.606)" fill="#333"/><g transform="translate(7.256 30.398)"><rect width="30.237" height="5.49" fill="#191919"/></g></g><g transform="translate(0.001)"><g transform="translate(20.364 7.934)"><path d="M8552.822,2944.427s15.232-39.939,10.057-55.821c-15.27,7.37-23.509,55.821-23.509,55.821Z" transform="translate(-8539.37 -2888.607)" fill="#60c759"/></g><g transform="translate(0 7.934)"><path d="M8813.148,2944.427s-15.231-39.939-10.057-55.821c15.271,7.37,23.511,55.821,23.511,55.821Z" transform="translate(-8802.02 -2888.607)" fill="#60c759"/></g><g transform="translate(14.14)"><path d="M8742.153,2850.02s4.629-53.266-7.22-63.755c-10.476,9.505-7.882,63.755-7.882,63.755Z" transform="translate(-8726.768 -2786.265)" fill="#7ee177"/></g><g transform="translate(27.089 16.379)"><path d="M8373.733,3044.909s22.7-31.494,17.521-47.376c-12.146,2.944-30.974,47.376-30.974,47.376Z" transform="translate(-8360.281 -2997.533)" fill="#7ee177"/></g></g></g><g transform="translate(0 16.379)"><path d="M8915.274,3044.909s-22.7-31.494-17.521-47.376c12.146,2.944,30.973,47.376,30.973,47.376Z" transform="translate(-8896.986 -2997.533)" fill="#7ee177"/></g></g></g></svg>