<svg xmlns="http://www.w3.org/2000/svg" width="1448.295" height="525.578" viewBox="0 0 1448.295 525.578"><path d="M427.559,525.578c-14.809,0-29.669-.543-44.166-1.613-14.049-1.037-28.134-2.6-41.863-4.638-13.287-1.975-26.6-4.451-39.555-7.361-12.525-2.812-25.055-6.1-37.242-9.782a510.987,510.987,0,0,1-125.742-57.3,488.816,488.816,0,0,1-48.867-35.324,452.844,452.844,0,0,1-39.48-36.552,381.458,381.458,0,0,1-30.054-35.364A267.265,267.265,0,0,1,0,305.883V0H1448.3C1014.484,0,899.011,168.269,849.7,240.122c-2.874,4.189-5.589,8.145-8.1,11.681-3.138,4.416-6.583,9.41-10.574,15.193l-.011.016c-26.6,38.551-71.117,103.072-137.22,158.105-8.463,7.046-17.145,13.814-25.8,20.117-9.134,6.649-18.507,12.973-27.859,18.8-9.819,6.114-19.9,11.853-29.955,17.057-10.521,5.443-21.318,10.455-32.091,14.9-11.235,4.632-22.764,8.776-34.267,12.317-11.961,3.682-24.236,6.817-36.484,9.317-12.706,2.594-25.74,4.579-38.74,5.9A407.921,407.921,0,0,1,427.559,525.578ZM542.346,98.709a331.151,331.151,0,0,0-46.752,3.468,403.312,403.312,0,0,0-45.644,9.34,424,424,0,0,0-79.978,29.919,303.569,303.569,0,0,0-30.006,17.251,309.015,309.015,0,0,0-28.616,21.106,277.348,277.348,0,0,0-25.793,24.33,224.83,224.83,0,0,0-21.537,26.922C244.3,260.223,225.694,304.9,249.075,352.031c11.764,23.715,40.9,37.8,63.278,45.447,6.974,2.382,14.415,4.527,22.116,6.373,7.371,1.767,15.039,3.276,22.789,4.485a290.072,290.072,0,0,0,43.9,3.523,197.332,197.332,0,0,0,22.548-1.2c26.183-3.035,47.575-7.6,69.359-14.8,22.168-7.329,44.271-17.218,70.638-29.811,42.264-20.185,69.312-44.118,96.921-73.844a122.532,122.532,0,0,0,16.034-21.676,130.912,130.912,0,0,0,10.827-23.842,132.891,132.891,0,0,0,6.957-48.869,112.128,112.128,0,0,0-2.149-17.04,92.13,92.13,0,0,0-4.595-15.451,71.457,71.457,0,0,0-6.943-13.3,54.554,54.554,0,0,0-9.193-10.587,155.455,155.455,0,0,0-28.381-19.769,174.5,174.5,0,0,0-31.6-13.233C590.778,101.981,567.481,98.709,542.346,98.709Z" transform="translate(0)" fill="#feefec"/></svg>